<svg xmlns="http://www.w3.org/2000/svg" viewBox="0 0 209.57 242.84"><defs><style>.cls-1{fill:#4db2e5;stroke-width:1.51px;}.cls-1,.cls-2{stroke:#fff;stroke-miterlimit:10;}.cls-2{fill:#ee4e9c;stroke-width:0.75px;}</style></defs><title>25percent</title><g id="Layer_2" data-name="Layer 2"><path class="cls-1" d="M102,49.49A13.92,13.92,0,1,0,90.59,38.13,13.93,13.93,0,0,0,102,49.49Z"/><path class="cls-1" d="M136.13,72.26a4.34,4.34,0,0,0-.46-.51,1.25,1.25,0,0,0-.34-.5l-19.55-17.5a4.89,4.89,0,0,0-3.56-1.33H94.87a4.89,4.89,0,0,0-3.56,1.33L71.76,71.25a1.25,1.25,0,0,0-.34.5,4.34,4.34,0,0,0-.46.51,4.94,4.94,0,0,0,7.25,6.66L90.5,67.29v52.83a5.28,5.28,0,0,0,5.27,5.27H97a5.28,5.28,0,0,0,5.27-5.27V93.6h2.53v26.52a5.28,5.28,0,0,0,5.27,5.27h1.24a5.28,5.28,0,0,0,5.27-5.27V67.28l12.3,11.63a4.94,4.94,0,0,0,7.25-6.66Z"/><path class="cls-1" d="M154.07,98.81a13.92,13.92,0,1,0-11.36-11.36A13.93,13.93,0,0,0,154.07,98.81Z"/><path class="cls-1" d="M188.25,121.58a4.34,4.34,0,0,0-.46-.51,1.25,1.25,0,0,0-.34-.5l-19.55-17.5a4.89,4.89,0,0,0-3.56-1.33H147a4.89,4.89,0,0,0-3.56,1.33l-19.55,17.5a1.25,1.25,0,0,0-.34.5,4.34,4.34,0,0,0-.46.51,4.94,4.94,0,0,0,7.25,6.66l12.29-11.63v52.83a5.28,5.28,0,0,0,5.27,5.27h1.24a5.28,5.28,0,0,0,5.27-5.27V142.92h2.53v26.52a5.28,5.28,0,0,0,5.27,5.27h1.24a5.28,5.28,0,0,0,5.27-5.27V116.6L181,128.24a4.94,4.94,0,0,0,7.25-6.66Z"/><path class="cls-1" d="M49.4,99.66A13.92,13.92,0,1,0,38,88.3,13.93,13.93,0,0,0,49.4,99.66Z"/><path class="cls-1" d="M83.58,122.44a4.34,4.34,0,0,0-.46-.51,1.25,1.25,0,0,0-.34-.5l-19.55-17.5a4.89,4.89,0,0,0-3.56-1.33H42.31a4.89,4.89,0,0,0-3.56,1.33l-19.55,17.5a1.25,1.25,0,0,0-.34.5,4.34,4.34,0,0,0-.46.51,4.94,4.94,0,0,0,7.25,6.66l12.29-11.63V170.3a5.28,5.28,0,0,0,5.27,5.27h1.24a5.28,5.28,0,0,0,5.27-5.27V143.78h2.53V170.3a5.28,5.28,0,0,0,5.27,5.27h1.24A5.28,5.28,0,0,0,64,170.3V117.46l12.3,11.63a4.94,4.94,0,0,0,7.25-6.66Z"/><path class="cls-2" d="M97.87,133a16.9,16.9,0,1,0-13.8-13.8A16.91,16.91,0,0,0,97.87,133Z"/><path class="cls-2" d="M139.37,160.64a5.27,5.27,0,0,0-.56-.62,1.52,1.52,0,0,0-.42-.61l-23.74-21.25a5.94,5.94,0,0,0-4.32-1.62H89.26a5.93,5.93,0,0,0-4.32,1.62L61.2,159.41a1.52,1.52,0,0,0-.42.61,5.27,5.27,0,0,0-.56.62A6,6,0,0,0,69,168.72L84,154.6v64.15a6.41,6.41,0,0,0,6.39,6.39h1.51a6.41,6.41,0,0,0,6.39-6.39v-32.2h3.08v32.2a6.41,6.41,0,0,0,6.39,6.39h1.51a6.41,6.41,0,0,0,6.39-6.39V154.59l14.93,14.13a6,6,0,0,0,8.81-8.08Z"/></g></svg>