<svg xmlns="http://www.w3.org/2000/svg" viewBox="0 0 306.39 678.62"><defs><style>.cls-1,.cls-10,.cls-3,.cls-4,.cls-6,.cls-7,.cls-9{fill:#fff;}.cls-1,.cls-3,.cls-4,.cls-6,.cls-8,.cls-9{stroke:#4db2e5;}.cls-1,.cls-10,.cls-3,.cls-4,.cls-6,.cls-8,.cls-9{stroke-miterlimit:10;}.cls-1{stroke-width:2.02px;}.cls-2{fill:#4db2e5;}.cls-3{stroke-width:1.87px;}.cls-4{stroke-width:1.34px;}.cls-5{fill:#4eb1e4;}.cls-6,.cls-8{stroke-width:1.8px;}.cls-8{fill:none;}.cls-9{stroke-width:2.04px;}.cls-10{stroke:#4eb1e4;stroke-width:2.07px;}</style></defs><title>angry</title><g id="Layer_2" data-name="Layer 2"><path class="cls-1" d="M166,518.39s5.34,9.11.07,85.73c.11,0,8.21,16.9,8.21,16.9s15.43,9,15.4,13.7-20.8,7.39-33.94,0a93,93,0,0,1-7.1-7.39l-4-3.36s-3.36-8.07,0-19.49c2-4.7-5.66-56.87-3.17-82.88C142.6,517.77,166,518.39,166,518.39Z"/><path class="cls-2" d="M175.29,621.14s-10,7.63-31.86-11.09c.06-.49-2.84,10.55,1.19,13.91,1.88,1.57,6.48,9,15.53,12.77,10.35,4.29,25.4,4.48,29.54-2C186,627.64,175.29,621.14,175.29,621.14Z"/><polygon class="cls-2" points="142.61 619.77 144.54 634.77 149.79 634.77 149.79 625.4 142.61 619.77"/><path class="cls-3" d="M220.1,330.81s16.73,25.62,15.07,32.34c-3,6-47.26,39.28-47.26,39.28L182,385.28s14.52-9.82,22.59-18.66S207,361.8,207,361.8l-8.41-15.62,18.82-21.34Z"/><path class="cls-4" d="M166.56,174.93s-4.93-.58-4.93,9.47,11.67,15.41,11.67,15.41L171,189.15Z"/><path class="cls-1" d="M109.47,518.64s-5.34,9.11-.07,85.73c-.11,0-8.21,16.9-8.21,16.9s-15.43,9-15.4,13.7,20.8,7.39,33.94,0a93,93,0,0,0,7.1-7.39l4-3.36s3.36-8.07,0-19.49c-2-4.7,5.66-56.87,3.17-82.88C132.88,518,109.47,518.64,109.47,518.64Z"/><path class="cls-3" d="M58.36,330.81s-16.73,25.62-15.07,32.34c3,6,47.26,39.28,47.26,39.28l5.88-17.15s-14.52-9.82-22.59-18.66-2.36-4.81-2.36-4.81l8.41-15.62L61.08,324.83Z"/><path class="cls-5" d="M59.64,215.44s-.26,21.44-6.69,24.77,15.13,17,23.57,14,0,8.23,0,8.23,17.88,3.57,27.44,1.79,56-1.79,56-1.79"/><path class="cls-5" d="M216.15,219.26s.26,18.12,6.69,20.93-15.13,14.37-23.57,11.87,0,7,0,7-17.88,3-27.44,1.51-56-1.51-56-1.51"/><path class="cls-6" d="M124.14,257.67s1.27,9.14,0,12.89c-3,0-9.74,3.93-9.74,3.93s15.72,10,24.88,10S164,273,164,273l-7.53-3.7,1.63-11.64"/><path class="cls-3" d="M66.14,202s-7.78-8.12-7.78,5.94,13.12,21.56,13.12,21.56V214.56Z"/><path class="cls-3" d="M213.69,202s7.78-8.12,7.78,5.94-13.12,21.56-13.12,21.56V214.56Z"/><path class="cls-3" d="M139.38,262.28s-7.81-.94-7.5-1.25c-54.37-15.62-56.55-22.81-57.8-25.62s-5.62-20.93-7.81-27.5c-2.19-8.12-19.06-52.18-20.93-60.15C29.86,82.62,107.55,46,107.55,46s15.7-6.21,55.2-2.61c0,0,86.13,39.22,70.67,104.37-1.87,8-18.75,52-20.93,60.15-2.19,6.56-6.56,24.68-7.81,27.5s-3.44,10-57.8,25.62c.31.31-7.5,1.25-7.5,1.25"/><ellipse class="cls-2" cx="98.98" cy="191.04" rx="7.55" ry="9.06"/><path class="cls-3" d="M94.61,187.6a16.79,16.79,0,0,1-6.25,0"/><ellipse class="cls-7" cx="102.42" cy="187.88" rx="3.44" ry="4.53"/><ellipse class="cls-2" cx="175.22" cy="190.81" rx="7.36" ry="8.83"/><path class="cls-3" d="M179.59,187.6a16.79,16.79,0,0,0,6.25,0"/><ellipse class="cls-7" cx="171.78" cy="187.88" rx="3.44" ry="4.53"/><line class="cls-8" x1="95.2" y1="169.78" x2="116.51" y2="182.62"/><line class="cls-8" x1="180.59" y1="169.78" x2="159.28" y2="182.62"/><path class="cls-5" d="M139.29,99.43,123.34,89s-10.77,68.79-17.94,74c0,0,.41-15-6.48-27.67l-4.33,35.89S91.25,152.52,87.38,145s-10.85,33.43-3.1,41c0,0-12.83.11-19.58-6.62a81.62,81.62,0,0,0,7.56,19.61,29.71,29.71,0,0,1-18.2,0C44,195.89-16.45,25.54,139.29,37.06"/><path class="cls-5" d="M133.27,99.43l16-10.47s10.77,68.79,17.94,74c0,0-.41-15,6.48-27.67L178,171.21s3.34-18.69,7.21-26.17,10.85,33.43,3.1,41c0,0,12.83.11,19.58-6.62a81.62,81.62,0,0,1-7.56,19.61,29.71,29.71,0,0,0,18.2,0c10.07-3.16,70.51-173.51-85.23-162"/><path class="cls-3" d="M195,286.37c-2-5-33.14-13.35-33.14-13.35L138.46,285.2,114.4,274.5c-1.93,0-31.27,8.13-32.5,11.87-1.67,5.11-31,39.93-31,39.93L84.1,353.07l5.21-10.56c2,8.56,4.33,22.17,4.33,22.17s1.27,5.07,2.12,10.45l-.15,13-9.72,28.34,105.43,2.74s-11.52-31.25-12.54-37.08l-1-5.83a130.61,130.61,0,0,1,2.51-13.15,113.63,113.63,0,0,0,4.9-17l12.53,4.65,29.93-24.44C228.68,328,197.16,291.67,195,286.37Z"/><path class="cls-9" d="M91.15,408.37l-8.36-3.83c-4-1.85-2.22-14.54-.37-18.58L86,378.08c1.85-4,4.49-4.4,13.36-2.34l1.66.34a8.09,8.09,0,0,1,4,10.69l-7.22,15.78C96,406.58,95.18,410.21,91.15,408.37Z"/><path class="cls-10" d="M94.68,309.71a35.72,35.72,0,0,0-5.38,32.8"/><path class="cls-10" d="M179.77,313.31a35.72,35.72,0,0,1,5.38,32.8"/><path class="cls-2" d="M86.71,413.61s-15.8,43.3,8,111.61c1.75,5,2,5.94,2,5.94l86.69-.9s18.43-79.57,5.89-116.66Z"/><path class="cls-2" d="M123.09,315.54l-.68,2.91h-3.31l4.07-13.51H127l4.07,13.51h-3.39l-.7-2.91Zm2-8.29-1.42,6h2.85Z"/><path class="cls-2" d="M141,310.88v7.56H137.9v-7c0-1.09-.37-1.38-1-1.38s-1.25.49-1.79,1.35v7.08h-3.08V308.09h2.69l.21,1.23a3.94,3.94,0,0,1,3.16-1.56C139.91,307.76,141,308.91,141,310.88Z"/><path class="cls-2" d="M147,318.78c-2.28,0-3.39-1.31-3.39-3.74v-4.8h-1.46v-2.14h1.46v-2.24l3.08-.35v2.59H149l-.33,2.14h-2V315c0,1,.33,1.35,1,1.35a2,2,0,0,0,1.11-.35l1,2A5.13,5.13,0,0,1,147,318.78Z"/><path class="cls-2" d="M154.18,304.39a1.82,1.82,0,1,1-1.83-1.75A1.74,1.74,0,0,1,154.18,304.39Zm-3.35,14.06V308.09h3.08v10.35Z"/><path class="cls-2" d="M107.42,341.84l-3.9-13.51h3.37l2.57,11,2.42-11h3.28l-3.76,13.51Z"/><path class="cls-2" d="M124.12,340.1l-.64,2a2.59,2.59,0,0,1-2.5-1.5,3.48,3.48,0,0,1-3.12,1.56,3.13,3.13,0,0,1-3.37-3.24c0-2.26,1.72-3.49,4.85-3.49h1.05V335c0-1.23-.49-1.6-1.75-1.6a9.33,9.33,0,0,0-2.71.55l-.7-2a11.7,11.7,0,0,1,3.9-.76c3,0,4.29,1.27,4.29,3.67v4C123.42,339.63,123.63,339.92,124.12,340.1ZM120.4,339v-1.83h-.76c-1.4,0-2.09.49-2.09,1.52a1.16,1.16,0,0,0,1.21,1.31A1.84,1.84,0,0,0,120.4,339Z"/><path class="cls-2" d="M133.9,332.42l-1.34,1.85a2.94,2.94,0,0,0-2-.76c-1.33,0-2.09.9-2.09,3.22s.82,3,2,3a2.9,2.9,0,0,0,1.93-.76l1.4,2a5.38,5.38,0,0,1-3.49,1.23c-3.18,0-5.13-2.14-5.13-5.42s2-5.6,5.07-5.6A5.2,5.2,0,0,1,133.9,332.42Z"/><path class="cls-2" d="M143,332.42l-1.34,1.85a2.94,2.94,0,0,0-2-.76c-1.33,0-2.09.9-2.09,3.22s.82,3,2,3a2.9,2.9,0,0,0,1.93-.76l1.4,2a5.38,5.38,0,0,1-3.49,1.23c-3.18,0-5.13-2.14-5.13-5.42s2-5.6,5.07-5.6A5.2,5.2,0,0,1,143,332.42Z"/><path class="cls-2" d="M147.7,327.78a1.82,1.82,0,1,1-1.83-1.75A1.74,1.74,0,0,1,147.7,327.78Zm-3.35,14.06V331.48h3.08v10.35Z"/><path class="cls-2" d="M158.78,334.27v7.56H155.7v-7c0-1.09-.37-1.38-1-1.38s-1.25.49-1.79,1.35v7.08h-3.08V331.48h2.69l.21,1.23a3.94,3.94,0,0,1,3.16-1.56C157.7,331.15,158.78,332.3,158.78,334.27Z"/><path class="cls-2" d="M170.06,337.57h-6.41c.21,1.85,1.09,2.36,2.36,2.36a4.2,4.2,0,0,0,2.48-.92l1.27,1.72a6.36,6.36,0,0,1-4,1.44c-3.45,0-5.21-2.22-5.21-5.46s1.7-5.56,4.84-5.56c3,0,4.78,1.95,4.78,5.3A10.4,10.4,0,0,1,170.06,337.57Zm-3-2c0-1.4-.45-2.38-1.68-2.38-1,0-1.64.66-1.77,2.51h3.45Z"/><path class="cls-9" d="M184.62,408.41l8.36-3.83c4-1.85,2.22-14.54.37-18.58l-3.61-7.89c-1.85-4-4.49-4.4-13.36-2.34l-1.66.34a8.09,8.09,0,0,0-4,10.69L178,402.58C179.81,406.62,180.59,410.25,184.62,408.41Z"/><path class="cls-2" d="M100.19,621.39s10,7.63,31.86-11.09c-.06-.49,2.84,10.55-1.19,13.91-1.88,1.57-6.48,9-15.53,12.77-10.35,4.29-25.4,4.48-29.54-2C89.44,627.89,100.19,621.39,100.19,621.39Z"/><polygon class="cls-2" points="132.87 620.01 130.94 635.01 125.69 635.01 125.69 625.64 132.87 620.01"/></g></svg>