<svg xmlns="http://www.w3.org/2000/svg" viewBox="0 0 109.49 79.5"><defs><style>.cls-1{fill:#4db2e5;}</style></defs><title>antibodies</title><g id="Layer_2" data-name="Layer 2"><path class="cls-1" d="M83.67,40.05l-.19,0A.93.93,0,0,1,82.66,39l1-6.89a1.05,1.05,0,0,1,1.11-.9l.19,0a.93.93,0,0,1,.83,1.08l-1,6.89A1.05,1.05,0,0,1,83.67,40.05Z"/><path class="cls-1" d="M87.49,41.41a1.13,1.13,0,0,0,.1-.32l1.25-8.65a1,1,0,0,0-.91-1.18,1.15,1.15,0,0,0-1.22,1l-1.22,8.43-.05.06-8.19,9.52a1.19,1.19,0,0,0,.08,1.68h0A1.19,1.19,0,0,0,79,51.76l8.19-9.52A1.25,1.25,0,0,0,87.49,41.41Z"/><path class="cls-1" d="M91.41,46.71l0,.18a.93.93,0,0,0,1.19.66l6.66-2a1.05,1.05,0,0,0,.72-1.24l0-.18a.93.93,0,0,0-1.19-.66l-6.66,2A1.05,1.05,0,0,0,91.41,46.71Z"/><path class="cls-1" d="M89.49,43.14a1.13,1.13,0,0,1,.3-.14l8.37-2.53a1,1,0,0,1,1.3.72,1.15,1.15,0,0,1-.79,1.35L90.52,45l0,.06-8.19,9.52a1.19,1.19,0,0,1-1.67.17h0a1.19,1.19,0,0,1-.08-1.68l8.19-9.52A1.25,1.25,0,0,1,89.49,43.14Z"/><path class="cls-1" d="M15.31,47.51v.19a.93.93,0,0,1-1,.93l-7-.33a1.05,1.05,0,0,1-1-1v-.19a.93.93,0,0,1,1-.93l7,.33A1.05,1.05,0,0,1,15.31,47.51Z"/><path class="cls-1" d="M16.29,43.58a1.13,1.13,0,0,0-.33-.06L7.24,43.1a1,1,0,0,0-1.09,1,1.15,1.15,0,0,0,1.09,1.12l8.51.4.06,0,10.27,7.24a1.19,1.19,0,0,0,1.66-.24h0A1.19,1.19,0,0,0,27.41,51L17.14,43.8A1.25,1.25,0,0,0,16.29,43.58Z"/><path class="cls-1" d="M21.19,39.17l.18-.06a.93.93,0,0,0,.54-1.25l-2.65-6.44a1.05,1.05,0,0,0-1.3-.6l-.18.06a.93.93,0,0,0-.54,1.25l2.65,6.44A1.05,1.05,0,0,0,21.19,39.17Z"/><path class="cls-1" d="M17.82,41.42a1.13,1.13,0,0,1-.17-.28L14.32,33a1,1,0,0,1,.59-1.36,1.15,1.15,0,0,1,1.42.65l3.24,7.88.07,0,10.27,7.24a1.19,1.19,0,0,1,.33,1.65h0a1.19,1.19,0,0,1-1.66.24L18.32,42.14A1.25,1.25,0,0,1,17.82,41.42Z"/><path class="cls-1" d="M47.68,22.84l-.18,0a.93.93,0,0,1-1.15-.72l-1.48-6.8a1.05,1.05,0,0,1,.73-1.23l.18,0a.93.93,0,0,1,1.15.72l1.48,6.8A1.05,1.05,0,0,1,47.68,22.84Z"/><path class="cls-1" d="M51.72,22.78a1.13,1.13,0,0,0,0-.33L49.85,13.9a1,1,0,0,0-1.26-.79,1.15,1.15,0,0,0-.8,1.35l1.81,8.32,0,.07L45.22,34.65a1.19,1.19,0,0,0,.66,1.54h0a1.19,1.19,0,0,0,1.5-.75l4.34-11.79A1.25,1.25,0,0,0,51.72,22.78Z"/><path class="cls-1" d="M57.25,26.37l.1.15a.93.93,0,0,0,1.34.2l5.54-4.22a1.05,1.05,0,0,0,.24-1.41l-.1-.15a.93.93,0,0,0-1.34-.2L57.49,25A1.05,1.05,0,0,0,57.25,26.37Z"/><path class="cls-1" d="M54.21,23.7a1.13,1.13,0,0,1,.23-.24l7-5.3a1,1,0,0,1,1.47.22,1.15,1.15,0,0,1-.27,1.54l-6.77,5.16,0,.07L51.46,36.95a1.19,1.19,0,0,1-1.5.75h0a1.19,1.19,0,0,1-.66-1.54l4.34-11.79A1.25,1.25,0,0,1,54.21,23.7Z"/></g></svg>