<svg xmlns="http://www.w3.org/2000/svg" viewBox="0 0 209.99 452.4"><defs><style>.cls-1{fill:#4db2e5;}.cls-2,.cls-3,.cls-6{fill:#fff;}.cls-2,.cls-3,.cls-5{stroke:#4db2e5;stroke-miterlimit:10;}.cls-2{stroke-width:1.91px;}.cls-3,.cls-5{stroke-width:1.27px;}.cls-4{fill:#4aa8d7;}.cls-5{fill:none;}</style></defs><title>bluegirl</title><g id="Layer_2" data-name="Layer 2"><path class="cls-1" d="M88.49,169l10.25,4.45H116.9l8-4.45,16.93,3.81s-1.91,55.27,0,63.52,8.68,48.28,17,81.95c-.53.64-39.49,12.07-96.88,0,1.06-21,13.09-83.22,13.09-83.22l-1.69-61.62Z"/><path class="cls-2" d="M70.07,174.11s-10.16,3.81-23.5,57.17c0,1.27-14.5,26-14.5,26l10.91,7s19.47-24.77,22.65-30.49,7.8-23.5,7.8-23.5V173.48Z"/><path class="cls-2" d="M146,174.11s10.16,3.81,23.5,57.17c0,1.27,14.5,26,14.5,26l-10.91,7s-19.47-24.77-22.65-30.49-7.8-23.5-7.8-23.5V173.48Z"/><path class="cls-3" d="M95,156.49a11.17,11.17,0,0,1,0,8.89L88.49,169s19.49,26,36.43,0c2.32,1.27-10.11-1.77-8-11.37C116.85,157.68,102.06,158.75,95,156.49Z"/><path class="cls-4" d="M51.84,24.91s-8.45-8.33-24.33,9.45C19.89,42,23.7,71.7,23.7,71.7S21.79,82,6.55,76.92c0,0,4.78,29,33.52,18.32.8,1.87,17.53-57.06,17.53-57.06Z"/><path class="cls-4" d="M160.21,29.16s8.45-8.33,24.33,9.45c7.62,7.62,3.81,37.34,3.81,37.34s1.91,10.3,17.15,5.22c0,0-10.55,27.12-39.29,16.43-.8,1.87-11.76-55.18-11.76-55.18Z"/><path class="cls-3" d="M58.41,118.92s-5.25-5.49-5.25,4S62,137.5,62,137.5V127.42Z"/><path class="cls-3" d="M158.08,118.92s5.25-5.49,5.25,4-8.86,14.56-8.86,14.56V127.42Z"/><path class="cls-2" d="M107.88,159.66s-5.28-.63-5.07-.84c-36.72-10.55-38.2-15.41-39-17.31s-3.8-14.14-5.28-18.57C57,117.45,45.62,87.69,44.35,82.31c-10.45-44,42-68.73,42-68.73S97,9.38,123.68,11.81c0,0,58.18,26.49,47.74,70.5-1.27,5.38-12.66,35.14-14.14,40.63-1.48,4.43-4.43,16.67-5.28,18.57s-2.32,6.75-39,17.31c.21.21-5.07.84-5.07.84"/><ellipse class="cls-1" cx="81.44" cy="113.01" rx="6.33" ry="7.6"/><path class="cls-5" d="M98.75,137.5s9.71,5.49,18.15,0"/><path class="cls-5" d="M85.66,85.35s-8.71-6.3-12.24,0"/><path class="cls-5" d="M138.22,85.35s-8.71-6.3-12.24,0"/><path class="cls-3" d="M77.64,109.22a11.34,11.34,0,0,1-4.22,0"/><ellipse class="cls-6" cx="82.92" cy="109.4" rx="2.32" ry="3.06"/><ellipse class="cls-1" cx="131.25" cy="113.01" rx="6.33" ry="7.6"/><path class="cls-3" d="M135,109.22a11.34,11.34,0,0,0,4.22,0"/><ellipse class="cls-6" cx="129.77" cy="109.4" rx="2.32" ry="3.06"/><path class="cls-1" d="M93.86,6.15c-9-.82-90.24,20.95-49,99.26C55.06,122.93,54.19,118,54.19,118l4.3,4.94S47.9,98.81,55.06,85.35c1.45.84,3.41,9.41,9.1,10.36,0,0-1.88-17.54,0-24S77.44,85.35,82.5,85.35c-.37-2.53.84-25.08.84-25.08a47.48,47.48,0,0,0,17.31,25.08l.64.84s.67-14.68,8.43-25.92c0,0,2.76,16.62,9.08,25.08l-.36.84s4.58-13.76,9.44-21.65c-.86,1.64,4.65,12.35,3.8,20.81l.1,6.55S144.85,81,141.18,71.7l1.09.2s6.38,12.39,5.57,24.77l.14,1.91s3.44,4.1,8.39-14.62c0,0,6.06,19.14,4.43,29.06C160.8,113,218.51,8.1,93.86,6.15Z"/><path class="cls-2" d="M32.07,257.33s-8.63-.63-12.87,9.11c-.42,4.23,4.66,3,9.32,0,.85-.85,4.74.22,4.74.22s-3.05,2.75-3.47,4.44,1.27.85,9.32,0L43,264.32Z"/><path class="cls-2" d="M183,257.33s8.63-.63,12.87,9.11c.42,4.23-4.66,3-9.32,0-.85-.85-4.54,2.15-4.54,2.15s2.85.82,3.27,2.51-1.27.85-9.32,0l-3.87-6.78Z"/><path class="cls-2" d="M85.15,322.11s1.57,14.62,0,25.21c-2.42,19.9-4.23,16.09.7,39.38,1.54,2.12,5.77,30.92,5.35,34.73s-14.76,19.48,0,19.06,11,.42,12.25-15.67c-3.39-5.51-.42-37.69-2.54-66.49.42-7.2,4.22-34.67,4.22-34.67Z"/><path class="cls-2" d="M128.59,322.11s-1.57,14.62,0,25.21c2.42,19.9,4.23,16.09-.7,39.38-1.54,2.12-5.77,30.92-5.35,34.73s14.76,19.48,0,19.06-11,.42-12.25-15.67c3.39-5.51.42-37.69,2.54-66.49-.42-7.2-4.22-34.67-4.22-34.67Z"/><path class="cls-1" d="M90.19,423.89s2.27,11.31,13.29.93c0,0-.29,13.17-1.21,13.95s-16.42,3.23-17,0S90.19,423.89,90.19,423.89Z"/><path class="cls-1" d="M123.94,423.89s-2.27,11.31-13.29.93c0,0,.29,13.17,1.21,13.95s16.42,3.23,17,0S123.94,423.89,123.94,423.89Z"/></g></svg>