<svg xmlns="http://www.w3.org/2000/svg" viewBox="0 0 281.85 478.15"><defs><style>.cls-1{fill:#4db2e5;}.cls-2,.cls-3,.cls-6{fill:#fff;}.cls-2,.cls-3,.cls-5{stroke:#4db2e5;stroke-miterlimit:10;}.cls-2{stroke-width:1.91px;}.cls-3,.cls-5{stroke-width:1.27px;}.cls-4{fill:#4aa8d7;}.cls-5{fill:none;}</style></defs><title>bluegirlss</title><g id="Layer_2" data-name="Layer 2"><path class="cls-1" d="M122.16,175.6l8.63,4.37h18.15l8-4.45,16.93,3.81s-1.91,55.27,0,63.52,8.68,48.28,17,81.95c-.53.64-39.49,12.07-96.88,0,1.06-21,13.09-83.22,13.09-83.22l-1.29-61.18Z"/><path class="cls-2" d="M101.36,182.91S91.82,185,78.48,238.35c0,1.27-14.5,26-14.5,26l10.91,7s19.47-24.77,22.65-30.49,8.8-23.5,8.8-23.5l2.77-36.72Z"/><path class="cls-2" d="M176.92,181.18s10.16,4.81,23.5,58.17c0,1.27,14.5,26,14.5,26l-10.91,7s-19.47-24.77-22.65-30.49-7.8-23.5-7.8-23.5V180.54Z"/><path class="cls-3" d="M128,163.56s2.68,5.86-.25,8.89a81.11,81.11,0,0,1-7.37,5s19.91,25.44,36.85-.6c-2-.48-10.48-2.49-8.39-12.09C148.76,164.74,135.05,165.81,128,163.56Z"/><path class="cls-4" d="M83.76,32s-8.45-8.33-24.33,9.45C51.8,49,55.62,78.77,55.62,78.77S53.71,89.07,38.46,84c0,0,4.78,29,33.52,18.32.8,1.87,17.53-57.06,17.53-57.06Z"/><path class="cls-4" d="M192.13,36.23s8.45-8.33,24.33,9.45C224.09,53.3,220.28,83,220.28,83s1.91,10.3,17.15,5.22c0,0-10.55,27.12-39.29,16.43-.8,1.87-11.76-55.18-11.76-55.18Z"/><path class="cls-3" d="M90.33,126s-5.25-5.49-5.25,4,8.86,14.56,8.86,14.56V134.49Z"/><path class="cls-3" d="M190,126s5.25-5.49,5.25,4-8.86,14.56-8.86,14.56V134.49Z"/><path class="cls-2" d="M155.59,18.87c-26.68-2.43-37.29,1.77-37.29,1.77s-52.48,24.73-42,68.73c1.27,5.38,12.66,35.14,14.14,40.63,1.48,4.43,4.43,16.67,5.28,18.57s2.32,6.75,39,17.31c-.21.21,5.07.84,5.07.84s5.28-.63,5.07-.84c36.72-10.55,38.2-15.41,39-17.31s3.8-14.14,5.28-18.57c1.48-5.49,12.87-35.25,14.14-40.63C213.78,45.36,155.59,18.87,155.59,18.87Z"/><ellipse class="cls-1" cx="113.36" cy="120.08" rx="6.33" ry="7.6"/><path class="cls-5" d="M130.66,144.56s9.71,5.49,18.15,0"/><path class="cls-5" d="M117.58,92.42s-8.71-6.3-12.24,0"/><path class="cls-5" d="M170.13,92.42s-8.71-6.3-12.24,0"/><path class="cls-3" d="M109.56,116.28a11.34,11.34,0,0,1-4.22,0"/><ellipse class="cls-6" cx="114.83" cy="116.47" rx="2.32" ry="3.06"/><ellipse class="cls-1" cx="163.17" cy="120.08" rx="6.33" ry="7.6"/><path class="cls-3" d="M167,116.28a11.34,11.34,0,0,0,4.22,0"/><ellipse class="cls-6" cx="161.69" cy="116.47" rx="2.32" ry="3.06"/><path class="cls-1" d="M125.78,13.22c-9-.82-90.24,20.95-49,99.26C87,130,86.11,125.06,86.11,125.06l4.3,4.94S79.82,105.88,87,92.42c1.45.84,3.41,9.41,9.1,10.36,0,0-1.88-17.54,0-24s13.27,13.65,18.34,13.65c-.37-2.53.84-25.08.84-25.08a47.48,47.48,0,0,0,17.31,25.08l.64.84s.67-14.68,8.43-25.92c0,0,2.76,16.62,9.08,25.08l-.36.84s4.58-13.76,9.44-21.65c-.86,1.64,4.65,12.35,3.8,20.81l.1,6.55s13.06-10.87,9.39-20.21l1.09.2s6.38,12.39,5.57,24.77l.14,1.91s3.44,4.1,8.39-14.62c0,0,6.06,19.14,4.43,29.06C192.72,120.08,250.42,15.17,125.78,13.22Z"/><path class="cls-2" d="M64,264.39s-8.63-.63-12.87,9.11c-.42,4.23,4.66,3,9.32,0,.85-.85,4.74.22,4.74.22s-3.05,2.75-3.47,4.44,1.27.85,9.32,0l3.87-6.78Z"/><path class="cls-2" d="M213.93,264.39s8.63-.63,12.87,9.11c.42,4.23-4.66,3-9.32,0-.85-.85-4.54,2.15-4.54,2.15s2.85.82,3.27,2.51-1.27.85-9.32,0L203,271.38Z"/><path class="cls-2" d="M117.06,329.18s1.57,14.62,0,25.21c-2.42,19.9-4.23,16.09.7,39.38,1.54,2.12,5.77,30.92,5.35,34.73s-14.76,19.48,0,19.06,11,.42,12.25-15.67c-3.39-5.51-.42-37.69-2.54-66.49.42-7.2,4.22-34.67,4.22-34.67Z"/><path class="cls-2" d="M160.5,329.18s-1.57,14.62,0,25.21c2.42,19.9,4.23,16.09-.7,39.38-1.54,2.12-5.77,30.92-5.35,34.73s14.76,19.48,0,19.06-11,.42-12.25-15.67c3.39-5.51.42-37.69,2.54-66.49-.42-7.2-4.22-34.67-4.22-34.67Z"/><path class="cls-1" d="M122.11,431s2.27,11.31,13.29.93c0,0-.29,13.17-1.21,13.95s-16.42,3.23-17,0S122.11,431,122.11,431Z"/><path class="cls-1" d="M155.85,431s-2.27,11.31-13.29.93c0,0,.29,13.17,1.21,13.95s16.42,3.23,17,0S155.85,431,155.85,431Z"/></g></svg>