<svg xmlns="http://www.w3.org/2000/svg" viewBox="0 0 239.99 560.65"><defs><style>.cls-1,.cls-4,.cls-5,.cls-6,.cls-7{fill:#fff;}.cls-1,.cls-2,.cls-4,.cls-5,.cls-7{stroke:#ee4e9c;stroke-miterlimit:10;}.cls-1,.cls-2{stroke-width:2.09px;}.cls-2{fill:none;}.cls-3{fill:#ee4e9c;}.cls-4{stroke-width:2.22px;}.cls-5{stroke-width:2px;}.cls-7{stroke-width:0.71px;}</style></defs><title>boy</title><g id="Layer_2" data-name="Layer 2"><path class="cls-1" d="M140.17,524.42s1.39-17.62-.93-30.83c-3.25-38.48-5.56-63.28-4.64-73.71s27.58-11.36,27.58-11.36l3.25,1.16-2,7.76s-6.15,73.83-4.76,86.34c6,13,21.79,24.11,17.62,31.06-7.42,5.1-19,8.81-36.16-9.27Z"/><path class="cls-2" d="M159.15,479.88s-15.24,8.12-21.5,0"/><path class="cls-3" d="M161.09,508.13s-2.14-4.42-12.55,4.39c-.68.46-8,0-8,0l-.41,11.91s17.34,25.35,36.16,10.43C185.41,529.21,163.47,512.46,161.09,508.13Z"/><path class="cls-4" d="M57.29,257.74S36,330.34,40.93,353c.66,5.09,13.66,17.08,13.91.42,0-2.35.06-4,.05-5a.39.39,0,0,1,.75-.15c1.27,2.91,3.73,7.65,5,4.08,1.74-4.94.89-15.15-.4-17.7-1.12-2.22-5.39-4.82-5.39-4.82l19.1-62.62Z"/><path class="cls-1" d="M102.57,524.68s-1.39-17.62.93-30.83c3.25-38.48,5.56-63.28,4.64-73.71s-27.58-11.36-27.58-11.36l-3.25,1.16,2,7.76s6.15,73.83,4.76,86.34c-6,13-21.79,24.11-17.62,31.06,7.42,5.1,19,8.81,36.16-9.27Z"/><path class="cls-5" d="M74.42,334.26V434.48l38.81,3.42s1.85-55.24,7.42-47.84c2.78,11.39,6,47.84,6,47.84l43.58-2.85-4.34-100.8S66.2,333.12,74.42,334.26Z"/><path class="cls-3" d="M95.51,204s-1.13.15-2.94.44c-7.07,1.12-24.48,4.36-25.22,9.16-9.3,25-15.82,38.48-15.82,38.48l22,21.79,5.07-18.08c-.08.45-5.76,84.35-5.55,81.25.8,0,47.4,16.73,93.92.5,0,.46-11.7-86.85-11.7-86.85l6.45,20.9,26.57-22.06s-20-38-25.39-42.1l-24.26-2.9Z"/><path class="cls-1" d="M106.55,192.22a12.22,12.22,0,0,1,0,9.73l-7.11,4s21.34,28.51,39.87,0c2.54,1.39-11.06-1.94-8.78-12.44C130.47,193.52,114.28,194.69,106.55,192.22Z"/><path class="cls-1" d="M61,143.81s-5.1-.6-5.1,9.79S68,169.54,68,169.54l-2.37-11Z"/><path class="cls-1" d="M175.61,151.1s5.75-6,5.75,4.39-9.7,15.94-9.7,15.94v-11Z"/><path class="cls-1" d="M120.66,195.69s-5.78-.69-5.54-.92c-40.2-11.55-45-18.47-45.92-20.55s-3.58-15.7-2.59-18.73C65,149.48,52.51,116.9,51.12,111c-11.44-48.17,46-75.24,46-75.24s11.61-4.59,40.82-1.93c0,0,63.69,29,52.25,77.17-1.39,5.89-13.86,38.47-15.48,44.47-1.62,4.85-4.85,18.25-5.78,20.33s-2.54,7.39-42.74,18.95c.23.23-5.54.92-5.54.92"/><path class="cls-1" d="M84.27,142.93s10.66,3.58,14.37,6.1-.93-2.27-9.27,2.44"/><path class="cls-1" d="M156.92,144.76s-10.66,3.58-14.37,6.1.93-2.27,9.27,2.44"/><path class="cls-3" d="M84.27,118.57s11.91,15,15.17,11.69"/><path class="cls-3" d="M153.06,121.23s-11.91,15-15.17,11.69"/><path class="cls-2" d="M83.45,476.78s15.24,8.12,21.5,0"/><path class="cls-3" d="M81.64,508.38s2.14-4.42,12.55,4.39c.68.46,8,0,8,0l.41,11.91S85.23,550,66.41,535.11C57.33,529.46,79.26,512.72,81.64,508.38Z"/><path class="cls-3" d="M60.29,51s-21.64,12.67-20,43.9C41.79,111,44,115.57,47.71,124,50.5,133.29,64,153.3,64,153.3l2.62,2.19L57.93,107,76,83.8s.46,1.85,4.64,13.44l4.17,7.42s-2.42-9.74,7.83-24.11c1-1.85,3.29,13.91,28.33,16.69,0,0-2.78,1.85-5.1-9.74-2.78-8.34-.93-7.88-.93-7.88a75.12,75.12,0,0,0,26,23.25l8.34,3.17A91.36,91.36,0,0,1,143,84.73c-2.57-3.71,10.49,15.3,36.88,28.74,8.31,8.34-1.47,31.16-4.28,37.62s31.68-52.46,16.57-79.35c-.74-1.39,7.61,4.64,7.61,4.64s-14.39-40.33-64-51.92C96.81,16.59,72.36,19.91,60.29,51Z"/><path class="cls-6" d="M104.33,247.09c0-.53.42-.78,1-.78s1,.25,1,.78v13.44c0,.51-.44.78-1,.78s-1-.27-1-.78Z"/><path class="cls-6" d="M86.19,284.63a.69.69,0,0,1-1.38,0v-9.32c0-1.13.46-1.59,1.5-1.59h3.26c2.32,0,3.63,1.19,3.63,3.28s-1.35,3.49-3.69,3.49H86.19Zm3.29-5.4A2,2,0,0,0,91.76,277c0-1.32-.81-2.06-2.28-2.06H86.66c-.32,0-.47.19-.47.51v3.77Z"/><path class="cls-6" d="M101.63,284.66c0,.4-.29.59-.68.59s-.66-.19-.66-.59V280c0-1.25-.51-1.94-1.62-1.94a2.37,2.37,0,0,0-2,1,2.34,2.34,0,0,0-.53,1.5v4.12a.55.55,0,0,1-.63.59c-.41,0-.69-.19-.69-.59V274.19c0-.38.28-.57.69-.57s.63.18.63.57v3.69c0,.19-.06.53-.09.75a2.88,2.88,0,0,1,2.84-1.82c1.75,0,2.69,1.06,2.69,2.87Z"/><path class="cls-6" d="M105.34,274.58a1,1,0,1,1-1-1A1,1,0,0,1,105.34,274.58Zm-1.66,2.91c0-.38.25-.57.66-.57s.68.19.68.57v7.16c0,.4-.28.59-.68.59s-.66-.19-.66-.59Z"/><path class="cls-6" d="M107.1,274.2c0-.4.26-.59.68-.59s.66.19.66.59v10.46c0,.4-.26.59-.66.59s-.68-.19-.68-.59Z"/><path class="cls-6" d="M110.53,274.2c0-.4.26-.59.68-.59s.66.19.66.59v10.46c0,.4-.26.59-.66.59s-.68-.19-.68-.59Z"/><path class="cls-6" d="M115.63,274.58a1,1,0,1,1-1-1A1,1,0,0,1,115.63,274.58ZM114,277.5c0-.38.25-.57.66-.57s.68.19.68.57v7.16c0,.4-.28.59-.68.59s-.66-.19-.66-.59Z"/><path class="cls-6" d="M118.72,287.76c0,.37-.25.57-.65.57s-.66-.21-.66-.57V277.5c0-.38.25-.57.66-.57s.65.18.65.54v.27a5.37,5.37,0,0,1-.06.81,2.83,2.83,0,0,1,2.75-1.74c2.21,0,3.46,1.6,3.46,4.22s-1.32,4.35-3.51,4.35a2.8,2.8,0,0,1-2.71-1.71,4.23,4.23,0,0,1,.07.85Zm0-6.69c0,1.82,1,3.15,2.5,3.15s2.32-1.26,2.32-3.16-.81-3.1-2.29-3.1S118.69,279.26,118.69,281.07Z"/><path class="cls-6" d="M128.24,274.58a1,1,0,1,1-1-1A1,1,0,0,1,128.24,274.58Zm-1.66,2.91c0-.38.25-.57.66-.57s.68.19.68.57v7.16c0,.4-.28.59-.68.59s-.66-.19-.66-.59Z"/><path class="cls-6" d="M136.79,284.66c0,.4-.29.59-.68.59s-.68-.19-.68-.59V280c0-1.25-.5-2-1.6-2a2.6,2.6,0,0,0-2.47,2.54v4.12c0,.4-.28.59-.66.59s-.68-.19-.68-.59V277.5c0-.38.28-.57.69-.57s.65.19.65.57v.4c0,.19,0,.34-.06.62a2.89,2.89,0,0,1,2.8-1.71c1.75,0,2.69,1.06,2.69,2.87Z"/><path class="cls-6" d="M139.77,281.34c0,1.81.93,2.94,2.52,2.94a2,2,0,0,0,2-1.31.58.58,0,0,1,.53-.37,1.15,1.15,0,0,1,.31.06.56.56,0,0,1,.46.51.46.46,0,0,1-.07.26,3.26,3.26,0,0,1-3.23,1.94c-2.41,0-3.81-1.71-3.81-4.25s1.32-4.32,3.72-4.32c2.15,0,3.35,1.68,3.5,3.6v.12c0,.53-.28.81-.74.81Zm4.35-1.07c.16,0,.22-.06.22-.19V280a2.24,2.24,0,0,0-2.16-2.12c-1.41,0-2.18.94-2.37,2.38Z"/><path class="cls-6" d="M149.6,281.42c-1.81-.35-2.56-1-2.56-2.38s1.15-2.25,3-2.25c1.63,0,2.68.69,3,1.76a.71.71,0,0,1,0,.18.62.62,0,0,1-.51.54l-.24,0a.58.58,0,0,1-.6-.4,1.57,1.57,0,0,0-1.68-1c-1.19,0-1.75.49-1.75,1.1s.28,1,1.52,1.24l.91.19c1.91.4,2.68,1,2.68,2.5s-1.21,2.46-3.26,2.46c-1.88,0-3-.75-3.37-2.06a1,1,0,0,1,0-.19.61.61,0,0,1,.53-.56l.21,0a.61.61,0,0,1,.63.4c.26.85.87,1.28,2,1.28s1.94-.52,1.94-1.27-.38-1.12-1.72-1.38Z"/><path class="cls-7" d="M130.65,246.42a5.66,5.66,0,0,0-4.19,1.84,5.67,5.67,0,0,0-9.86,3.83c0,5.18,6.26,9.89,9.86,10.89,3.6-1,9.86-5.72,9.86-10.89A5.67,5.67,0,0,0,130.65,246.42Z"/></g></svg>