<svg xmlns="http://www.w3.org/2000/svg" viewBox="0 0 153.33 119.76"><defs><style>.cls-1{fill:#fff;stroke:#ee4e9c;stroke-miterlimit:10;stroke-width:2.09px;}</style></defs><title>boyarm-14</title><g id="Layer_2" data-name="Layer 2"><ellipse class="cls-1" cx="20.55" cy="17.14" rx="12.14" ry="8.44" transform="translate(-0.02 0.02) rotate(-0.06)"/><path class="cls-1" d="M53.54,37.29S41.26,7.65,28.5,20.4s7,20.7,8.81,24.26,6,9.12,6,12.37,9.74,46.21,15.76,50.69S82.73,128,76.48,90.87L52.71,35.44"/><ellipse class="cls-1" cx="101.53" cy="17.21" rx="18.06" ry="12.55" transform="translate(-0.02 0.1) rotate(-0.06)"/><path class="cls-1" d="M122.11,35s-12.28-29.64-25-16.89,7,20.7,8.81,24.26,6,9.12,6,12.37,9.74,46.21,15.76,50.69S151.3,125.7,145,88.62L121.27,33.19"/></g></svg>