<svg xmlns="http://www.w3.org/2000/svg" viewBox="0 0 207.68 181.49"><defs><style>.cls-1{fill:#4db2e5;}</style></defs><title>brain</title><g id="Layer_2" data-name="Layer 2"><path class="cls-1" d="M156.67,113.86a38.21,38.21,0,0,0-11.75-22.61l-.78-.71A38.08,38.08,0,0,0,131.21,83a37.44,37.44,0,0,0-7.11-1.69c-.85-.12-1.69-.21-2.55-.27a30.79,30.79,0,0,0-4.21-3,32.37,32.37,0,0,0-36.31,2,26.81,26.81,0,0,0-3.58-.24A28.81,28.81,0,0,0,58.68,86.8l-.1.08c-.31.26-.63.54-.94.84A27,27,0,0,0,55.51,90,28.82,28.82,0,0,0,48.74,105a23.65,23.65,0,1,0,20.54,42.53H93.36A38.11,38.11,0,0,0,139.87,151a22.81,22.81,0,0,0,16.8-37.15Zm-12.19,30.66a16.09,16.09,0,0,0,.09-11.1,1.51,1.51,0,0,0-.07-.19,15.82,15.82,0,0,0-3.65-5.67,2.65,2.65,0,1,0-3.74,3.75,10.84,10.84,0,0,1,2.28,3.39,3.66,3.66,0,0,1-3.62,3.22,2.65,2.65,0,1,0,0,5.3,8.86,8.86,0,0,0,3.86-.88,10.54,10.54,0,0,1-2,3.46l-.23.15a32.53,32.53,0,0,1-41-3.22,2.59,2.59,0,0,0-.57-.42,7.68,7.68,0,0,1-1.28-2.15,8,8,0,0,1-.61-3.06,8.12,8.12,0,0,1,2.41-5.78,2.65,2.65,0,1,0-3.75-3.75,13.62,13.62,0,0,0-3.09,4.78,5.08,5.08,0,0,1-3.15-4.69,2.65,2.65,0,0,0-5.3,0,10.4,10.4,0,0,0,7.6,10c0,.15,0,.29,0,.43a13.45,13.45,0,0,0,.88,3.88h-21a2.73,2.73,0,0,0-1.42.4,18.06,18.06,0,1,1-14.9-32.68,2.65,2.65,0,0,0,.69-.34,8.18,8.18,0,0,1,9.41,5,2.66,2.66,0,0,0,2.48,1.7,2.71,2.71,0,0,0,1-.18,2.65,2.65,0,0,0,1.53-3.43,13.5,13.5,0,0,0-12.66-8.64A23.47,23.47,0,0,1,77.44,85.47a22.85,22.85,0,0,1,3.34.27l.4.08a6.61,6.61,0,0,1,5.72,7.39,2.65,2.65,0,0,0,2.29,3l.35,0a2.65,2.65,0,0,0,2.62-2.32,11.91,11.91,0,0,0-4.91-11.21,26.86,26.86,0,0,1,31.33,3.21,2.75,2.75,0,0,0,.49.33l.06.08a10,10,0,0,1,2.39,6.41.81.81,0,0,1,0,.16,10.11,10.11,0,0,1-3,7.19,2.65,2.65,0,0,0,1.87,4.53,2.69,2.69,0,0,0,1.88-.77,15.51,15.51,0,0,0,4-7A4.72,4.72,0,0,1,128.9,101a2.65,2.65,0,0,0,2.21,2.61,3.14,3.14,0,0,0,.44,0A2.64,2.64,0,0,0,134.2,101a3.35,3.35,0,0,0,0-.46,10,10,0,0,0-7.41-9.21,15.07,15.07,0,0,0-.66-3.16c-.09-.28-.19-.56-.29-.83l.91.21a32.82,32.82,0,0,1,13.46,7c.31.27.63.55.93.83a32.59,32.59,0,0,1,10.11,20,2.83,2.83,0,0,0,.68,1.51,17.24,17.24,0,0,1-7.42,27.66ZM94.16,60.22l5-18.1h-9.5l17.85-27-5.21,20.34h9.92ZM39.21,83.36,29.93,67l-6.72,6.72L16.72,42l10.7,18.06,7-7Zm114.62-.65,16.32-9.28-6.72-6.72,31.74-6.49-18.06,10.7,7,7Z"/></g></svg>