<svg xmlns="http://www.w3.org/2000/svg" viewBox="0 0 305.98 515.3"><defs><style>.cls-1,.cls-2,.cls-4,.cls-5{fill:#fff;stroke:#ee4e9c;}.cls-1,.cls-2,.cls-3,.cls-4,.cls-5{stroke-miterlimit:10;}.cls-1{stroke-width:1.63px;}.cls-2{stroke-width:1.9px;}.cls-3,.cls-6{fill:#ee4e9c;}.cls-3{stroke:#ed1e79;stroke-width:0.63px;}.cls-4{stroke-width:2.08px;}.cls-5{stroke-width:2.05px;}</style></defs><title>cancer</title><g id="Layer_2" data-name="Layer 2"><path class="cls-1" d="M97,470.61a4.67,4.67,0,0,1-3.53-1.78,9.5,9.5,0,0,1-.63-10.54l68.15-110,68.78,110a9.51,9.51,0,0,1-.59,10.55c-2.29,2.69-5.74,2.32-7.7-.81L161,371.34,101.19,468A5,5,0,0,1,97,470.61Z"/><path class="cls-2" d="M62.85,116.31a4.15,4.15,0,0,1-4.15-4.15V31.83a4.15,4.15,0,1,1,8.31,0v80.33A4.15,4.15,0,0,1,62.85,116.31Z"/><path class="cls-2" d="M110.49,77.67c-2.29,0-4.15,4-4.15,1.66V31.83a4.15,4.15,0,1,1,8.31,0V78.92C114.64,81.21,112.78,77.67,110.49,77.67Z"/><path class="cls-2" d="M161.6,36H42.07a4.15,4.15,0,0,1,0-8.31H161.6a4.15,4.15,0,0,1,0,8.31Z"/><path class="cls-2" d="M161.6,474.61a7.48,7.48,0,0,1-7.48-7.48V28.78a7.48,7.48,0,1,1,15,0V467.13A7.48,7.48,0,0,1,161.6,474.61Z"/><path class="cls-2" d="M55.23,155.65a.83.83,0,0,1-.83-.83V140.9a.83.83,0,0,1,1.66,0v13.92A.83.83,0,0,1,55.23,155.65Z"/><path class="cls-2" d="M118.18,155a1.66,1.66,0,0,0-1.66,1.66v42.8c0,.19-.27,19.32-23.68,19.32-20.67,0-20.95-19.13-20.95-19.94V112.12a9,9,0,0,0-9-9,9.28,9.28,0,0,0-9.28,9v26a1.66,1.66,0,1,0,3.32,0v-26a5.92,5.92,0,0,1,6-5.71,5.72,5.72,0,0,1,5.71,5.71v86.73c0,.41.06,10.07,6.86,16.88,4.24,4.24,10.1,6.39,17.42,6.39,22.16,0,27-16.35,27-22.64v-42.8A1.66,1.66,0,0,0,118.18,155Z"/><path class="cls-2" d="M57.65,139.17a2.42,2.42,0,0,1-2.42,2.42h0a2.42,2.42,0,0,1-2.42-2.42v-2.08a2.42,2.42,0,0,1,2.42-2.42h0a2.42,2.42,0,0,1,2.42,2.42Z"/><path class="cls-2" d="M117.27,82.27c0-3-2.07-5.38-4.63-5.38h-4.29c-2.56,0-4.63,2.41-4.63,5.38v2.46h13.55Z"/><path class="cls-3" d="M125.59,113.82c-7.62,0-6.51-7.2-15.1-7.2s-9,7.2-15.1,7.2c-4.3,0-11-4.75-14.58-7.55v35.41A12.3,12.3,0,0,0,93,154.13H128a12.3,12.3,0,0,0,12.14-12.45V106.51C136.86,109.34,130.8,113.82,125.59,113.82Z"/><path class="cls-2" d="M110.49,106.62c8.59,0,7.48,7.2,15.1,7.2,5.22,0,11.28-4.48,14.58-7.31V93.26A12.3,12.3,0,0,0,128,80.81H93A12.3,12.3,0,0,0,80.81,93.26v13c3.58,2.8,10.28,7.55,14.58,7.55C101.49,113.82,101.9,106.62,110.49,106.62Z"/><path class="cls-2" d="M113.12,154.13s.69,18.56,5.12,18.56S123,154.13,123,154.13Z"/><path class="cls-2" d="M136.67,111.68s-4.66-.55-4.66,8.94,11,14.55,11,14.55l-2.16-10.07Z"/><path class="cls-4" d="M130.93,210.1s-17,68.39-10.37,93.94c-.39,3.77,15.86,21.46,11.45-.4l-.24-7s4,10.6,5.41,5.72,1.57-14.56-.55-15.56-5.43-6.25-5.43-6.25l15-61.75Z"/><path class="cls-2" d="M179.54,462.93s-1.27-16.08.85-28.14c3-35.12,5.08-57.76,4.23-67.28s-25.18-10.37-25.18-10.37l-3,1.06,1.79,7.09s5.61,67.39,4.35,78.82c-5.5,11.85-19.89,22-16.08,28.35,6.77,4.65,17.35,8,33-8.46Z"/><path class="cls-2" d="M199,462.93s1.27-16.08-.85-28.14c-3-35.12-5.08-57.76-4.23-67.28s25.18-10.37,25.18-10.37l3,1.06-1.79,7.09S214.7,432.68,216,444.1c5.5,11.85,19.89,22,16.08,28.35-6.77,4.65-17.35,8-33-8.46Z"/><path class="cls-2" d="M166.81,164.52s-1.09.14-2.82.4c-6.77,1-23.46,4-24.17,8.36-8.91,22.85-15.15,35.12-15.15,35.12l21.07,19.89,4.86-16.5s-16.07,142.94-18,151c.77,0,62,16.08,106.62,1.27,0,.42-15.18-156.91-15.18-156.91l6.18,19.08,25.46-20.13s-19.16-34.7-24.33-38.43L208.13,165Z"/><path class="cls-2" d="M177.33,152.47a11.16,11.16,0,0,1,0,8.88L170.84,165s19.48,26,36.4,0c2.32,1.27-10.1-1.77-8-11.36C199.17,153.65,184.4,154.73,177.33,152.47Z"/><path class="cls-2" d="M240.38,114.93s5.25-5.48,5.25,4-8.86,14.55-8.86,14.55V123.42Z"/><path class="cls-2" d="M190.22,155.63s-5.27-.63-5.06-.84c-36.7-10.55-41.08-16.86-41.92-18.76s-3.7-15.21-4.4-17.42c-1.48-5.48-10.84-34.89-12.1-40.27-10.44-44,44.11-66.81,44.11-66.81S183,4.47,206.32,9c0,0,57.82,25.37,47.38,69.35-1.27,5.38-12.65,35.11-14.13,40.6-1.48,4.43-4.43,16.66-5.27,18.56s-2.32,6.75-39,17.29c.21.21-5.06.84-5.06.84"/><ellipse class="cls-2" cx="189.71" cy="135.18" rx="7.7" ry="11.08" transform="translate(35.53 309.8) rotate(-84.03)"/><path class="cls-2" d="M156,103.91s9.73,3.27,13.12,5.57-.85-2.07-8.46,2.23"/><path class="cls-2" d="M222.35,105.58s-9.73,3.27-13.12,5.57.85-2.07,8.46,2.23"/><path class="cls-5" d="M222.14,156s-11.89-29.66-24.23-16.9,6.73,20.71,8.53,24.27,5.83,9.13,5.83,12.38,9.42,46.23,15.26,50.71,22.87,20.25,16.82-16.85l-23-55.46"/><circle class="cls-6" cx="174.3" cy="67.83" r="1.84"/><circle class="cls-6" cx="184.81" cy="95" r="1.84"/><circle class="cls-6" cx="182.97" cy="147.7" r="1.84"/><circle class="cls-6" cx="222.35" cy="45.26" r="1.84"/><circle class="cls-6" cx="211.39" cy="29.51" r="1.84"/><circle class="cls-6" cx="237.41" cy="65.99" r="1.84"/><circle class="cls-6" cx="163.18" cy="33.67" r="1.84"/><circle class="cls-6" cx="144.06" cy="45.26" r="1.84"/><circle class="cls-6" cx="145.9" cy="82.42" r="1.84"/><circle class="cls-6" cx="156.03" cy="132.35" r="1.84"/><circle class="cls-6" cx="178.66" cy="122.67" r="1.84"/><circle class="cls-6" cx="200.75" cy="67.83" r="1.84"/><circle class="cls-6" cx="239.25" cy="93.16" r="1.84"/><circle class="cls-6" cx="224.19" cy="134.19" r="1.84"/><circle class="cls-6" cx="211.39" cy="164.52" r="1.84"/><circle class="cls-6" cx="215.07" cy="93.16" r="1.84"/><circle class="cls-6" cx="213.23" cy="124.66" r="1.84"/><circle class="cls-6" cx="229.67" cy="198.12" r="1.84"/><circle class="cls-6" cx="229.67" cy="223.45" r="1.84"/><circle class="cls-6" cx="239.25" cy="217.97" r="1.84"/><circle class="cls-6" cx="132.63" cy="239.14" r="1.84"/><circle class="cls-6" cx="122.83" cy="293.49" r="1.84"/><circle class="cls-6" cx="134.47" cy="291.64" r="1.84"/><circle class="cls-6" cx="122.83" cy="267.41" r="1.84"/><circle class="cls-6" cx="165.02" cy="412.96" r="1.84"/><circle class="cls-6" cx="176.66" cy="411.12" r="1.84"/><circle class="cls-6" cx="172.98" cy="398.37" r="1.84"/><circle class="cls-6" cx="170.84" cy="435.58" r="1.84"/><circle class="cls-6" cx="174.82" cy="453.78" r="1.84"/><circle class="cls-6" cx="161.34" cy="466.14" r="1.84"/><circle class="cls-6" cx="178.51" cy="381.16" r="1.84"/><circle class="cls-6" cx="165.02" cy="386.88" r="1.84"/><circle class="cls-6" cx="209.1" cy="412.96" r="1.84"/><circle class="cls-6" cx="213.23" cy="423.99" r="1.84"/><circle class="cls-6" cx="201.15" cy="398.37" r="1.84"/><circle class="cls-6" cx="203.28" cy="435.58" r="1.84"/><circle class="cls-6" cx="216.87" cy="453.78" r="1.84"/><circle class="cls-6" cx="212.79" cy="466.14" r="1.84"/><circle class="cls-6" cx="195.62" cy="381.16" r="1.84"/><circle class="cls-6" cx="209.1" cy="386.88" r="1.84"/><circle class="cls-6" cx="134.47" cy="254.8" r="1.84"/><circle class="cls-6" cx="229.67" cy="182.93" r="1.84"/><circle class="cls-6" cx="211.39" cy="149.54" r="1.84"/><circle class="cls-6" cx="218.71" cy="188.6" r="1.84"/></g></svg>