<svg xmlns="http://www.w3.org/2000/svg" viewBox="0 0 348.15 680.14"><defs><style>.cls-1,.cls-10,.cls-4,.cls-5,.cls-7,.cls-9{fill:#fff;}.cls-1,.cls-10,.cls-4,.cls-5,.cls-6,.cls-8,.cls-9{stroke:#4db2e5;stroke-miterlimit:10;}.cls-1{stroke-width:1.86px;}.cls-2{fill:#4db2e5;}.cls-3{fill:#4aa8d7;}.cls-4{stroke-width:1.67px;}.cls-5,.cls-6{stroke-width:1.73px;}.cls-6,.cls-8{fill:none;}.cls-8{stroke-width:2.7px;}.cls-9{stroke-width:0.75px;}.cls-10,.cls-9{fill-rule:evenodd;}.cls-10{stroke-width:0.57px;}</style></defs><title>crying</title><g id="Layer_2" data-name="Layer 2"><path class="cls-1" d="M127.78,481.93s10.16,30.27,8.24,40.19c-1.92,11.16-3.91,40.3,7.93,89.29-1.79,6.2-32.55,47.75-.12,45.89,12.59-1.86,17-13,18.83-37.2-1.9-27.28,0-98,0-98V481.93"/><path class="cls-1" d="M201.49,481.93s-10.16,30.27-8.24,40.19c1.92,11.16,3.91,40.3-7.93,89.29,1.79,6.2,32.55,47.75.12,45.89-12.59-1.86-17-13-18.83-37.2,1.9-27.28,0-98,0-98V481.93"/><path class="cls-2" d="M117,296.83s10,34.87,10.58,39.12c-12.17,45.06-10.08,46.3-10.08,46.3s57.44,16.12,98.78-2.89c-3.72-14.88-12.81-37.62-12.4-44.65s9.81-42.47,9.81-42.47l-21.38-54-50,2.08Z"/><path class="cls-3" d="M217.74,45.08S232.47,16,262.63,35.51c28.68,23.39,34.52,42.63,28.42,69.85s-17.25,58.46,1.19,59-31.37,11.59-45.08-4.76S217.74,45.08,217.74,45.08Z"/><path class="cls-4" d="M152.81,226.38s1.17,8.43,0,11.89a58.19,58.19,0,0,0-8.82,1.39l24.4,26.86,21.18-28.25-6.95-1.15,1.5-10.74"/><path class="cls-5" d="M98.19,176.22S91,168.73,91,181.7s12.11,19.89,12.11,19.89V187.83Z"/><path class="cls-5" d="M234.31,176.22s7.17-7.49,7.17,5.48-12.11,19.89-12.11,19.89V187.83Z"/><path class="cls-5" d="M165.75,231.86s-7.21-.86-6.92-1.15c-50.16-14.41-52.18-21-53.33-23.64s-5.19-19.31-7.21-25.37c-2-7.49-17.58-48.14-19.31-55.49C64.72,66.1,136.4,32.33,136.4,32.33s14.49-5.73,50.93-2.41c0,0,79.47,36.18,65.2,96.29-1.73,7.35-17.3,48-19.31,55.49-2,6.05-6.05,22.77-7.21,25.37s-3.17,9.22-53.33,23.64c.29.29-6.92,1.15-6.92,1.15"/><path class="cls-2" d="M204,28.89s-32.29-11.79-61.69-3.14c-9.22,3.46-76.68,25.37-80.14,98C63.34,148,89.86,175.07,99.95,181.7c0,0-8.94-35.46,11.82-65.44,1.15-1.15-1.15,11.53,4,31.71l1.73,1.73s7.49-23.64,36.9-55.92c-1.15.58-7.49,28.25-1.15,47.85,1.15,0,28.25-42.66,45.55-49-.58,0,32.45,50.42,35.17,66.88,4.15,12.35,2.71,16.46,2.71,16.46L247,164.4s25.66-34,17.58-72.93C261.67,76.48,237.45,38.37,204,28.89Z"/><ellipse class="cls-2" cx="129.64" cy="168.15" rx="8.65" ry="10.38"/><path class="cls-6" d="M153.28,204.92s13.26-7.49,24.79,0"/><path class="cls-5" d="M124.45,163a15.49,15.49,0,0,1-5.77,0"/><ellipse class="cls-7" cx="127.04" cy="174.07" rx="3.17" ry="4.18"/><ellipse class="cls-2" cx="197.67" cy="168.15" rx="8.65" ry="10.38"/><path class="cls-5" d="M202.86,163a15.49,15.49,0,0,0,5.77,0"/><ellipse class="cls-7" cx="195.65" cy="174.07" rx="3.17" ry="4.18"/><path class="cls-8" d="M135,140.85s5-2.52-10.37,6.71"/><path class="cls-8" d="M195.61,146s5,2.52-10.37-6.71"/><path class="cls-1" d="M228.35,476.24l-.62.62c-57.67,19.22-124,0-124,0l13.75-94.61s84.53.74,95.85-1.62Z"/><path class="cls-2" d="M137.56,623.39S133,651.16,158.08,635.8c3.1-2.5,3.26-3.49,3.26-3.49s-4.9,31.75-23.51,24.75c-3.2-.88-12.46-2-6.65-20C135.62,627.06,137.56,623.39,137.56,623.39Z"/><path class="cls-2" d="M191.8,623.39s4.54,27.77-20.52,12.41c-3.1-2.5-3.26-3.49-3.26-3.49s4.9,31.75,23.51,24.75c3.2-.88,12.46-2,6.65-20C193.74,627.06,191.8,623.39,191.8,623.39Z"/><path class="cls-2" d="M192.27,238.27l30.29,12.85s28.64,57.1,31.68,86.53c-11.22,12.07-51.86,28.81-51.38,30s-4.48-14.88-10.37-16.12c-.52-1.4,7.29-7.11,16.44-13.49,7.11-5,15-10.34,20.45-14.41-.62-.62-14.26-25.42-14.26-25.42Z"/><path class="cls-2" d="M144,238.27l-30.29,12.85S85.07,308.22,82,337.65c11.22,12.07,51.86,28.81,51.38,30s4.48-14.88,10.37-16.12c.52-1.4-7.29-7.11-16.44-13.49-7.11-5-15-10.34-20.45-14.41.62-.62,14.26-25.42,14.26-25.42Z"/><polygon class="cls-9" points="183.31 365.09 169.56 365.09 128.66 314.82 224.21 314.82 183.31 365.09"/><path class="cls-9" d="M169,365.09h13.75l14.65,20.2c-13.58,6.19-27.44,7.1-41.73,0Z"/><path class="cls-9" d="M222.7,311.84c2.51,3.5,2.5,8.72.54,12.9a13.34,13.34,0,0,1-1.65,2.65,16.27,16.27,0,0,1-5.5,4.35,18.9,18.9,0,0,1-9.56,2c-3.09-.23-6.24-1.42-8-4.14l-.08-.14a11.43,11.43,0,0,1-7-5.52c-1.6-3-1.79-7.08-1.26-10.39.63-3.91,3.1-9.1,7.65-9.3h.05a15.48,15.48,0,0,1,5.31-3.81l.26-.1c7.47-2.49,16.11,2,18.84,9.26l0,.06c.07.18.15.37.22.55A3,3,0,0,1,222.7,311.84Z"/><path class="cls-9" d="M197.15,311.33a11.56,11.56,0,0,1,7.1-8.65c6.3-2.1,13.5,1.85,15.72,7.77.21.57.57,1.17,0,.74-2.38-1.68-9-3.39-11.9-3.18-4.11.31-10.54,1.61-10.21,7.21,0,.6-.14,1-.32.32a19.9,19.9,0,0,1-.39-2.33C197.08,312.78,197.15,311.33,197.15,311.33Z"/><path class="cls-9" d="M214,311.3c-3-.3-5.3-.57-7.52,1.9-1.22,1.36-2,4.16-.64,5.59,2,2.16-9-2.8-3.4-8.45C206,307.71,213.3,309.78,214,311.3Z"/><path class="cls-9" d="M214.63,310.63c1.7,7-6.37,6.74-7.77,7.31-1.91.78.73,1.94,3.54,1.87C216.21,319.67,218,312,214.63,310.63Z"/><path class="cls-9" d="M208.27,313.43c1-.9,3.19-1.77,4.27-1,2.71,1.92-4.05,5-4.86,4.15S207.65,314,208.27,313.43Z"/><path class="cls-9" d="M215.32,318.9c.46-1.5-2.17,2.79-7.24,2.51-4.12-.23-6.54-4.43-8.55-7-.86,1-.42,10.76,9,10.1A7.31,7.31,0,0,0,215.32,318.9Z"/><path class="cls-9" d="M197.95,306.72a7.39,7.39,0,0,0-1,2.56c-2.37,9.41,2.55,17,12.2,16.65,7.37-.23-10.67,5.83-15.46-3.19a14.85,14.85,0,0,1-1-8.82C193.24,310.22,195.32,306.83,197.95,306.72Z"/><path class="cls-9" d="M216.53,310.68a12.09,12.09,0,0,1,.85,8.62,12.74,12.74,0,0,1-16.71,8.94c3.44,5.4,16.6,3.37,20.31-4.55C223.24,318.86,222.53,312,216.53,310.68Z"/><path class="cls-9" d="M222.67,311.9c2.51,3.5,2.5,8.72.54,12.9a13.34,13.34,0,0,1-1.65,2.65,16.28,16.28,0,0,1-5.5,4.35,18.91,18.91,0,0,1-9.56,2c-3.09-.23-6.24-1.42-8-4.14l-.08-.14a11.43,11.43,0,0,1-7-5.52c-1.6-3-1.79-7.08-1.26-10.39.63-3.91,3.1-9.1,7.65-9.3h.05a15.47,15.47,0,0,1,5.31-3.81l.26-.1c7.47-2.49,16.11,2,18.84,9.26l0,.06c.07.18.15.37.22.55A3,3,0,0,1,222.67,311.9Z"/><path class="cls-9" d="M197.12,311.39a11.56,11.56,0,0,1,7.1-8.65c6.3-2.1,13.5,1.85,15.72,7.77.21.57.57,1.17,0,.74-2.38-1.68-9-3.39-11.9-3.18-4.11.31-10.54,1.62-10.21,7.21,0,.6-.14,1-.32.32a19.88,19.88,0,0,1-.39-2.33C197,312.84,197.12,311.39,197.12,311.39Z"/><path class="cls-9" d="M213.93,311.36c-3-.3-5.3-.57-7.52,1.9-1.22,1.36-2,4.16-.64,5.59,2,2.16-9-2.8-3.4-8.45C206,307.78,213.28,309.84,213.93,311.36Z"/><path class="cls-9" d="M214.6,310.69c1.7,7-6.37,6.74-7.77,7.31-1.91.78.73,1.94,3.54,1.87C216.18,319.74,218,312,214.6,310.69Z"/><path class="cls-9" d="M208.24,313.49c1-.9,3.19-1.77,4.27-1,2.71,1.92-4.05,5-4.86,4.15S207.62,314.09,208.24,313.49Z"/><path class="cls-9" d="M215.3,319c.46-1.5-2.17,2.79-7.24,2.51-4.12-.23-6.54-4.43-8.55-7-.86,1-.42,10.76,9,10.1A7.31,7.31,0,0,0,215.3,319Z"/><path class="cls-9" d="M197.92,306.78a7.39,7.39,0,0,0-1,2.56c-2.37,9.41,2.55,17,12.2,16.65,7.37-.23-10.67,5.83-15.46-3.19a14.85,14.85,0,0,1-1-8.82C193.21,310.28,195.29,306.89,197.92,306.78Z"/><path class="cls-9" d="M216.5,310.74a12.09,12.09,0,0,1,.85,8.62,12.74,12.74,0,0,1-16.71,8.94c3.44,5.4,16.6,3.37,20.31-4.55C223.21,318.92,222.51,312.06,216.5,310.74Z"/><path class="cls-9" d="M157.41,310.44c2.51,3.5,2.5,8.72.54,12.9A13.34,13.34,0,0,1,156.3,326a16.28,16.28,0,0,1-5.5,4.35,18.91,18.91,0,0,1-9.56,2c-3.09-.23-6.24-1.42-8-4.14l-.08-.14a11.43,11.43,0,0,1-7-5.52c-1.6-3-1.79-7.08-1.26-10.39.63-3.91,3.1-9.1,7.65-9.3h.05a15.47,15.47,0,0,1,5.31-3.81l.26-.1c7.47-2.49,16.11,2,18.84,9.26l0,.06c.07.18.15.37.22.55A3,3,0,0,1,157.41,310.44Z"/><path class="cls-9" d="M131.86,309.93a11.56,11.56,0,0,1,7.1-8.65c6.3-2.1,13.5,1.85,15.72,7.77.21.57.57,1.17,0,.74-2.38-1.68-9-3.39-11.9-3.18-4.11.31-10.54,1.62-10.21,7.21,0,.6-.14,1-.32.32a19.88,19.88,0,0,1-.39-2.33C131.79,311.38,131.86,309.93,131.86,309.93Z"/><path class="cls-9" d="M148.67,309.9c-3-.3-5.3-.57-7.52,1.9-1.22,1.36-2,4.16-.64,5.59,2,2.16-9-2.8-3.4-8.45C140.75,306.31,148,308.38,148.67,309.9Z"/><path class="cls-9" d="M149.34,309.23c1.7,7-6.37,6.74-7.77,7.31-1.91.78.73,1.94,3.54,1.87C150.92,318.28,152.74,310.58,149.34,309.23Z"/><path class="cls-9" d="M143,312c1-.9,3.19-1.77,4.27-1,2.71,1.92-4.05,5-4.86,4.15S142.36,312.63,143,312Z"/><path class="cls-9" d="M150,317.51c.46-1.5-2.17,2.79-7.24,2.51-4.12-.23-6.54-4.43-8.55-7-.86,1-.42,10.76,9,10.1A7.31,7.31,0,0,0,150,317.51Z"/><path class="cls-9" d="M132.66,305.32a7.39,7.39,0,0,0-1,2.56c-2.37,9.41,2.55,17,12.2,16.65,7.37-.23-10.67,5.83-15.46-3.19a14.85,14.85,0,0,1-1-8.82C128,308.82,130,305.43,132.66,305.32Z"/><path class="cls-9" d="M151.24,309.28a12.09,12.09,0,0,1,.85,8.62,12.74,12.74,0,0,1-16.71,8.94c3.44,5.4,16.6,3.37,20.31-4.55C158,317.46,157.25,310.6,151.24,309.28Z"/><path class="cls-9" d="M165.5,283c2.51,3.5,2.5,8.72.54,12.9a13.34,13.34,0,0,1-1.65,2.65,16.28,16.28,0,0,1-5.5,4.35,18.91,18.91,0,0,1-9.56,2c-3.09-.23-6.24-1.42-8-4.14l-.08-.14a11.43,11.43,0,0,1-7-5.52c-1.6-3-1.79-7.08-1.26-10.39.63-3.91,3.1-9.1,7.65-9.3h.05a15.47,15.47,0,0,1,5.31-3.81l.26-.1c7.47-2.49,16.11,2,18.84,9.26l0,.06c.07.18.15.37.22.55A3,3,0,0,1,165.5,283Z"/><path class="cls-9" d="M139.95,282.5a11.56,11.56,0,0,1,7.1-8.65c6.3-2.1,13.5,1.85,15.72,7.77.21.57.57,1.17,0,.74-2.38-1.68-9-3.39-11.9-3.18-4.11.31-10.54,1.62-10.21,7.21,0,.6-.14,1-.32.32a19.88,19.88,0,0,1-.39-2.33C139.88,284,139.95,282.5,139.95,282.5Z"/><path class="cls-9" d="M156.76,282.47c-3-.3-5.3-.57-7.52,1.9-1.22,1.36-2,4.16-.64,5.59,2,2.16-9-2.8-3.4-8.45C148.84,278.89,156.11,280.95,156.76,282.47Z"/><path class="cls-9" d="M157.43,281.8c1.7,7-6.37,6.74-7.77,7.31-1.91.78.73,1.94,3.54,1.87C159,290.85,160.83,283.16,157.43,281.8Z"/><path class="cls-9" d="M151.08,284.61c1-.9,3.19-1.77,4.27-1,2.71,1.92-4.05,5-4.86,4.15S150.45,285.2,151.08,284.61Z"/><path class="cls-9" d="M158.13,290.08c.46-1.5-2.17,2.79-7.24,2.51-4.12-.23-6.54-4.43-8.55-7-.86,1-.42,10.76,9,10.1A7.31,7.31,0,0,0,158.13,290.08Z"/><path class="cls-9" d="M140.75,277.89a7.39,7.39,0,0,0-1,2.56c-2.37,9.41,2.55,17,12.2,16.65,7.37-.23-10.67,5.83-15.46-3.19a14.85,14.85,0,0,1-1-8.82C136,281.39,138.12,278,140.75,277.89Z"/><path class="cls-9" d="M159.33,281.85a12.09,12.09,0,0,1,.85,8.62,12.74,12.74,0,0,1-16.71,8.94c3.44,5.4,16.6,3.37,20.31-4.55C166,290,165.34,283.17,159.33,281.85Z"/><path class="cls-10" d="M187.14,274.91c1.92,2.68,1.91,6.66.41,9.86a10.2,10.2,0,0,1-1.26,2,12.44,12.44,0,0,1-4.2,3.32,14.45,14.45,0,0,1-7.31,1.51,7.64,7.64,0,0,1-6.09-3.16l-.06-.11a8.73,8.73,0,0,1-5.37-4.22,13.3,13.3,0,0,1-1-7.94c.48-3,2.37-7,5.85-7.11h0a11.83,11.83,0,0,1,4.06-2.91l.2-.08c5.71-1.9,12.31,1.51,14.4,7.08l0,0c.06.14.12.28.17.42A2.28,2.28,0,0,1,187.14,274.91Z"/><path class="cls-10" d="M167.61,274.53a8.83,8.83,0,0,1,5.43-6.61c4.82-1.6,10.32,1.41,12,5.94.16.43.43.89,0,.57a20.08,20.08,0,0,0-9.1-2.43c-3.14.23-8.05,1.23-7.8,5.51,0,.46-.11.78-.24.24a15.19,15.19,0,0,1-.3-1.78C167.55,275.64,167.61,274.53,167.61,274.53Z"/><path class="cls-10" d="M180.46,274.5c-2.3-.23-4-.43-5.75,1.45-.94,1-1.5,3.18-.49,4.27,1.53,1.65-6.87-2.14-2.6-6.46C174.4,271.76,180,273.34,180.46,274.5Z"/><path class="cls-10" d="M181,274c1.3,5.34-4.87,5.15-5.94,5.59-1.46.6.56,1.48,2.71,1.43C182.17,280.9,183.57,275,181,274Z"/><path class="cls-10" d="M176.11,276.13c.73-.69,2.44-1.35,3.27-.77,2.07,1.46-3.1,3.8-3.71,3.17S175.63,276.59,176.11,276.13Z"/><path class="cls-10" d="M181.5,280.32c.35-1.15-1.66,2.13-5.53,1.92-3.15-.17-5-3.39-6.53-5.35-.66.74-.32,8.22,6.84,7.72A5.59,5.59,0,0,0,181.5,280.32Z"/><path class="cls-10" d="M168.22,271a5.65,5.65,0,0,0-.8,2c-1.81,7.19,1.95,13,9.33,12.73,5.64-.18-8.15,4.46-11.82-2.44a11.35,11.35,0,0,1-.76-6.74C164.62,273.68,166.21,271.09,168.22,271Z"/><path class="cls-10" d="M182.42,274a9.24,9.24,0,0,1,.65,6.59,9.74,9.74,0,0,1-12.77,6.83c2.63,4.13,12.69,2.57,15.53-3.48C187.55,280.28,187,275,182.42,274Z"/><path class="cls-9" d="M218.4,283.54c2.51,3.5,2.5,8.72.54,12.9a13.34,13.34,0,0,1-1.65,2.65,16.28,16.28,0,0,1-5.5,4.35,18.91,18.91,0,0,1-9.56,2c-3.09-.23-6.24-1.42-8-4.14l-.08-.14a11.43,11.43,0,0,1-7-5.52c-1.6-3-1.79-7.08-1.26-10.39.63-3.91,3.1-9.1,7.65-9.3h.05a15.47,15.47,0,0,1,5.31-3.81l.26-.1c7.47-2.49,16.11,2,18.84,9.26l0,.06c.07.18.15.37.22.55A3,3,0,0,1,218.4,283.54Z"/><path class="cls-9" d="M192.85,283a11.56,11.56,0,0,1,7.1-8.65c6.3-2.1,13.5,1.85,15.72,7.77.21.57.57,1.17,0,.74-2.38-1.68-9-3.39-11.9-3.18-4.11.31-10.54,1.62-10.21,7.21,0,.6-.14,1-.32.32a19.88,19.88,0,0,1-.39-2.33C192.78,284.49,192.85,283,192.85,283Z"/><path class="cls-9" d="M209.66,283c-3-.3-5.3-.57-7.52,1.9-1.22,1.36-2,4.16-.64,5.59,2,2.16-9-2.8-3.4-8.45C201.74,279.42,209,281.48,209.66,283Z"/><path class="cls-9" d="M210.33,282.33c1.7,7-6.37,6.74-7.77,7.31-1.91.78.73,1.94,3.54,1.87C211.91,291.38,213.73,283.69,210.33,282.33Z"/><path class="cls-9" d="M204,285.14c1-.9,3.19-1.77,4.27-1,2.71,1.92-4.05,5-4.86,4.15S203.35,285.73,204,285.14Z"/><path class="cls-9" d="M211,290.61c.46-1.5-2.17,2.79-7.24,2.51-4.12-.23-6.54-4.43-8.55-7-.86,1-.42,10.76,9,10.1A7.31,7.31,0,0,0,211,290.61Z"/><path class="cls-9" d="M193.65,278.43a7.39,7.39,0,0,0-1,2.56c-2.37,9.41,2.55,17,12.2,16.65,7.37-.23-10.67,5.83-15.46-3.19a14.85,14.85,0,0,1-1-8.82C188.95,281.93,191,278.54,193.65,278.43Z"/><path class="cls-9" d="M212.23,282.38a12.09,12.09,0,0,1,.85,8.62,12.74,12.74,0,0,1-16.71,8.94c3.44,5.4,16.6,3.37,20.31-4.55C218.94,290.57,218.24,283.71,212.23,282.38Z"/><path class="cls-9" d="M197.21,300.74c3.33,4.64,3.32,11.55.72,17.1a17.7,17.7,0,0,1-2.19,3.51,21.55,21.55,0,0,1-7.28,5.76,25,25,0,0,1-12.68,2.61c-4.1-.3-8.27-1.88-10.56-5.48l-.11-.19a15.15,15.15,0,0,1-9.32-7.31c-2.12-4-2.37-9.39-1.67-13.76.83-5.19,4.11-12.06,10.14-12.32h.07a20.51,20.51,0,0,1,7-5l.34-.14c9.9-3.3,21.35,2.62,25,12.27l0,.08c.1.25.2.48.3.73A4,4,0,0,1,197.21,300.74Z"/><path class="cls-9" d="M197.88,300.59a15.43,15.43,0,0,1,2.54,8.11,20.43,20.43,0,0,1-1.92,9.41,17.79,17.79,0,0,1-1,1.87,18.81,18.81,0,0,1-1.25,1.76,20.58,20.58,0,0,1-3.34,3.31,23.75,23.75,0,0,1-4.16,2.63,26.44,26.44,0,0,1-6.43,2.21,24.13,24.13,0,0,1-6.57.46,17.08,17.08,0,0,1-6.58-1.76,11.47,11.47,0,0,1-4.47-4,17.59,17.59,0,0,1-5.54-2.87h0a14.61,14.61,0,0,1-3.92-4.68,18.62,18.62,0,0,1-1.91-6.46,28.22,28.22,0,0,1,.17-7.7,20,20,0,0,1,3.9-9.17A9.35,9.35,0,0,1,164,290a18.63,18.63,0,0,1,3-2.68,24.82,24.82,0,0,1,4-2.32l.2-.09.21-.08h0a20.1,20.1,0,0,1,15.2,1.25,21.25,21.25,0,0,1,10.57,11.4h0l0,.07h0l.11.26c.07.16.13.32.19.48a5,5,0,0,1,.29,1.28,4.23,4.23,0,0,1,0,1Z"/><path class="cls-9" d="M163.35,300.08c1.39-5.89,4.32-9.11,9.41-11.47,8.35-2.78,17.89,2.45,20.83,10.3.28.75.75,1.54,0,1-3.16-2.23-12-4.49-15.77-4.21-5.44.4-14,2.14-13.53,9.55,0,.8-.19,1.36-.42.42a26.33,26.33,0,0,1-.51-3.09C163.25,302,163.35,300.08,163.35,300.08Z"/><path class="cls-9" d="M185.63,300c-4-.4-7-.75-10,2.51-1.62,1.8-2.61,5.52-.85,7.41,2.65,2.86-11.91-3.71-4.5-11.2C175.13,295.28,184.76,298,185.63,300Z"/><path class="cls-9" d="M186.51,299.14c2.25,9.26-8.44,8.93-10.3,9.69-2.53,1,1,2.57,4.7,2.48C188.6,311.13,191,300.94,186.51,299.14Z"/><path class="cls-9" d="M178.09,302.86c1.27-1.2,4.23-2.35,5.66-1.33,3.6,2.54-5.37,6.58-6.44,5.5C176.42,306.11,177.26,303.65,178.09,302.86Z"/><path class="cls-9" d="M187.43,310.11c.61-2-2.88,3.7-9.6,3.32-5.46-.3-8.67-5.87-11.33-9.27-1.14,1.28-.56,14.26,11.86,13.38C182.5,317.26,185.9,315.07,187.43,310.11Z"/><path class="cls-9" d="M164.41,294a9.76,9.76,0,0,0-1.38,3.39c-3.14,12.47,3.37,22.48,16.17,22.07,9.77-.31-14.13,7.73-20.48-4.23-1.47-2.76-2-7.16-1.32-11.69C158.17,298.6,160.93,294.12,164.41,294Z"/><path class="cls-9" d="M189,299.21a16,16,0,0,1,1.12,11.42A16.89,16.89,0,0,1,168,322.47c4.55,7.16,22,4.46,26.92-6C197.92,310.05,197,301,189,299.21Z"/><path class="cls-1" d="M162.13,359.3h0s7-2.8,9.64-.63c2.21,2.2,6.34,1.93.18,2.75s.08,2.44,6.16-.81,4.34,20.15-9.08,16.75L155.6,374s-4.12-11.75,6.53-14.65"/><path class="cls-1" d="M191.25,359.3h0s-7-2.8-9.64-.63c-2.21,2.2-6.34,1.93-.18,2.75s-.08,2.44-6.16-.81-4.34,20.15,9.08,16.75l13.43-3.4s4.12-11.75-6.53-14.65"/><path class="cls-2" d="M134.75,188a34.76,34.76,0,0,0-3-4.52h0a35.9,35.9,0,0,0-2.9,4.52,3,3,0,0,0,2.82,4.11h.23A3,3,0,0,0,134.75,188Z"/><path class="cls-2" d="M131.65,191.62h0a.07.07,0,0,0,.07.07h.19a.07.07,0,0,0,.07-.07h0l-.07.07a2.62,2.62,0,0,0,1.94-.87c.06-.07,0-.18-.1-.1a2.47,2.47,0,0,1-1.84.83.08.08,0,0,0-.07.07h0l.07-.07h-.19l.07.07h0a.07.07,0,0,0-.15,0Z"/></g></svg>