<svg xmlns="http://www.w3.org/2000/svg" viewBox="0 0 380.41 293.77"><defs><style>.cls-1,.cls-4{fill:#4db2e5;}.cls-1,.cls-2,.cls-3,.cls-4,.cls-6,.cls-8{stroke:#fff;}.cls-1,.cls-2,.cls-3,.cls-4,.cls-5,.cls-6,.cls-8{stroke-miterlimit:10;}.cls-1{stroke-width:1.92px;}.cls-2,.cls-3,.cls-6,.cls-7,.cls-8{fill:#ee4e9c;}.cls-3{stroke-width:0.88px;}.cls-4,.cls-5{stroke-width:0.88px;}.cls-5{fill:#fff;stroke:#4db2e5;}.cls-6{stroke-width:0.46px;}.cls-8{stroke-width:0.96px;}</style></defs><title>dozen</title><g id="Layer_2" data-name="Layer 2"><path class="cls-1" d="M104,108.65A14.85,14.85,0,1,0,91.91,96.53,14.86,14.86,0,0,0,104,108.65Z"/><path class="cls-1" d="M140.5,133a4.63,4.63,0,0,0-.5-.55,1.34,1.34,0,0,0-.37-.53L118.78,113.2a5.22,5.22,0,0,0-3.8-1.42H96.47a5.21,5.21,0,0,0-3.8,1.42L71.82,131.87a1.34,1.34,0,0,0-.37.53,4.63,4.63,0,0,0-.5.55,5.27,5.27,0,0,0,7.74,7.1l13.11-12.41V184a5.64,5.64,0,0,0,5.62,5.62h1.33a5.64,5.64,0,0,0,5.62-5.62V155.72h2.7V184a5.64,5.64,0,0,0,5.62,5.62H114a5.64,5.64,0,0,0,5.62-5.62V127.64l13.12,12.41a5.27,5.27,0,0,0,7.74-7.1Z"/><path class="cls-2" d="M267.62,105.32A14.85,14.85,0,1,0,255.5,93.2,14.86,14.86,0,0,0,267.62,105.32Z"/><path class="cls-2" d="M304.08,129.62a4.63,4.63,0,0,0-.5-.55,1.34,1.34,0,0,0-.37-.53l-20.86-18.67a5.22,5.22,0,0,0-3.8-1.42H260.06a5.21,5.21,0,0,0-3.8,1.42L235.4,128.54a1.34,1.34,0,0,0-.37.53,4.63,4.63,0,0,0-.5.55,5.27,5.27,0,0,0,7.74,7.1l13.11-12.41v56.37A5.64,5.64,0,0,0,261,186.3h1.33a5.64,5.64,0,0,0,5.62-5.62V152.39h2.7v28.29a5.64,5.64,0,0,0,5.62,5.62h1.33a5.64,5.64,0,0,0,5.62-5.62V124.31l13.12,12.41a5.27,5.27,0,0,0,7.74-7.1Z"/><path class="cls-2" d="M86.23,137A14.85,14.85,0,1,0,74.1,124.88,14.86,14.86,0,0,0,86.23,137Z"/><path class="cls-2" d="M122.69,161.3a4.63,4.63,0,0,0-.5-.55,1.34,1.34,0,0,0-.37-.53L101,141.55a5.22,5.22,0,0,0-3.8-1.42H78.66a5.21,5.21,0,0,0-3.8,1.42L54,160.22a1.34,1.34,0,0,0-.37.53,4.63,4.63,0,0,0-.5.55,5.27,5.27,0,0,0,7.74,7.1L74,156v56.37A5.64,5.64,0,0,0,79.62,218h1.33a5.64,5.64,0,0,0,5.62-5.62V184.07h2.7v28.29A5.64,5.64,0,0,0,94.89,218h1.33a5.64,5.64,0,0,0,5.62-5.62V156L115,168.4a5.27,5.27,0,0,0,7.74-7.1Z"/><path class="cls-2" d="M123.48,136.83a14.85,14.85,0,1,0-12.12-12.12A14.86,14.86,0,0,0,123.48,136.83Z"/><path class="cls-2" d="M159.94,161.13a4.63,4.63,0,0,0-.5-.55,1.34,1.34,0,0,0-.37-.53l-20.86-18.67a5.22,5.22,0,0,0-3.8-1.42H115.92a5.21,5.21,0,0,0-3.8,1.42L91.26,160a1.34,1.34,0,0,0-.37.53,4.63,4.63,0,0,0-.5.55,5.27,5.27,0,0,0,7.74,7.1l13.11-12.41v56.37a5.64,5.64,0,0,0,5.62,5.62h1.33a5.64,5.64,0,0,0,5.62-5.62V183.9h2.7v28.29a5.64,5.64,0,0,0,5.62,5.62h1.33a5.64,5.64,0,0,0,5.62-5.62V155.82l13.12,12.41a5.27,5.27,0,0,0,7.74-7.1Z"/><path class="cls-1" d="M247.6,134.37a14.85,14.85,0,1,0-12.12-12.12A14.86,14.86,0,0,0,247.6,134.37Z"/><path class="cls-1" d="M284.06,158.67a4.63,4.63,0,0,0-.5-.55,1.34,1.34,0,0,0-.37-.53l-20.86-18.67a5.22,5.22,0,0,0-3.8-1.42H240a5.21,5.21,0,0,0-3.8,1.42l-20.86,18.67a1.34,1.34,0,0,0-.37.53,4.63,4.63,0,0,0-.5.55,5.27,5.27,0,0,0,7.74,7.1l13.11-12.41v56.37a5.64,5.64,0,0,0,5.62,5.62h1.33a5.64,5.64,0,0,0,5.62-5.62V181.43h2.7v28.29a5.64,5.64,0,0,0,5.62,5.62h1.33a5.64,5.64,0,0,0,5.62-5.62V153.36l13.12,12.41a5.27,5.27,0,0,0,7.74-7.1Z"/><path class="cls-2" d="M284.85,134.2a14.85,14.85,0,1,0-12.12-12.12A14.86,14.86,0,0,0,284.85,134.2Z"/><path class="cls-2" d="M321.32,158.5a4.63,4.63,0,0,0-.5-.55,1.34,1.34,0,0,0-.37-.53L299.6,138.74a5.22,5.22,0,0,0-3.8-1.42H277.29a5.21,5.21,0,0,0-3.8,1.42l-20.86,18.67a1.34,1.34,0,0,0-.37.53,4.63,4.63,0,0,0-.5.55,5.27,5.27,0,0,0,7.74,7.1l13.11-12.41v56.37a5.64,5.64,0,0,0,5.62,5.62h1.33a5.64,5.64,0,0,0,5.62-5.62V181.26h2.7v28.29a5.64,5.64,0,0,0,5.62,5.62h1.33a5.64,5.64,0,0,0,5.62-5.62V153.18l13.12,12.41a5.27,5.27,0,0,0,7.74-7.1Z"/><circle class="cls-3" cx="207.65" cy="57.59" r="5.5"/><circle class="cls-3" cx="216.54" cy="63.08" r="5.5"/><circle class="cls-3" cx="216.54" cy="52.09" r="5.5"/><circle class="cls-3" cx="227.54" cy="53.34" r="5.5"/><circle class="cls-3" cx="226.96" cy="63.76" r="4.92"/><circle class="cls-3" cx="241.8" cy="50.59" r="4.92"/><circle class="cls-3" cx="242.95" cy="71.8" r="4.92"/><circle class="cls-4" cx="201.84" cy="91.37" r="4.92"/><circle class="cls-4" cx="201.29" cy="76.66" r="4.92"/><circle class="cls-4" cx="188.25" cy="97.7" r="4.92"/><circle class="cls-4" cx="178.4" cy="91.84" r="4.92"/><circle class="cls-5" cx="173.01" cy="82.73" r="4.92"/><circle class="cls-4" cx="182.85" cy="82.73" r="4.92"/><circle class="cls-3" cx="221.46" cy="57.01" r="4.92"/><circle class="cls-3" cx="215.97" cy="41.67" r="4.92"/><circle class="cls-4" cx="211.71" cy="75.99" r="4.92"/><circle class="cls-3" cx="241.8" cy="62.84" r="4.92"/><circle class="cls-3" cx="207.65" cy="47.85" r="4.92"/><path class="cls-6" d="M169.73,98.85c1.87,1.6,1.32,6.05,1.31,8.46,0,4.83,7.48,4.83,7.49,0,0-4.52.28-10.51-3.51-13.75s-9,2.15-5.3,5.3Z"/><path class="cls-6" d="M173.29,125.33c.65-1,1.2-2,1.79-3.08q.46-.8,1-1.57c-.47.7,1.1-.85.06-.14a3.81,3.81,0,0,0,1.32-5.13,3.76,3.76,0,0,0-5.13-1.32,14.36,14.36,0,0,0-4.1,5.1c-.52.91-1,1.83-1.6,2.7l-.15.21-.25.28c-4.13.79-3.89,7.56.71,7.41C169.88,129.7,171.77,127.65,173.29,125.33Z"/><path class="cls-7" d="M196,115c.51-1.07.91-2.19,1.36-3.29q.35-.86.75-1.69c-.37.76,1-1,0-.15a3.81,3.81,0,0,0,.62-5.26,3.76,3.76,0,0,0-5.26-.62,14.35,14.35,0,0,0-3.38,5.6c-.39,1-.77,1.95-1.22,2.89l-.12.23-.21.31c-4,1.34-2.84,8,1.7,7.25C193.19,119.77,194.79,117.48,196,115Z"/><path class="cls-7" d="M195.15,98.8c-1.08,3.18-2.38,6.28-3.35,9.5-1.4,4.64,5.84,6.61,7.23,2,1-3.22,2.26-6.32,3.35-9.5,1.56-4.59-5.68-6.54-7.23-2Z"/><path class="cls-6" d="M160.64,97.56a16.35,16.35,0,0,0-10.54-4.31c-4.83-.11-4.82,7.39,0,7.49a8.09,8.09,0,0,1,5.25,2.11,3.81,3.81,0,0,0,5.3,0,3.76,3.76,0,0,0,0-5.3Z"/><path class="cls-6" d="M156.57,111.81c-.77-4.83-6.73-6.67-10.42-8.66-4.25-2.3-8,4.17-3.78,6.47,1.5.81,3.07,1.48,4.57,2.28.39.21.76.43,1.14.66-.07,0,1.05.75.6.38a7.3,7.3,0,0,1,.81.78q-.35-.45,0,.08-.27-.62-.12,0c.32,2,2.81,3.11,4.61,2.62,2.13-.59,2.94-2.59,2.62-4.61Z"/><path class="cls-6" d="M194.89,126.42a11.46,11.46,0,0,1,2.11-5.84,3.82,3.82,0,0,0,0-5.3c-1.35-1.35-4-1.57-5.3,0a18.1,18.1,0,0,0-4,9.15c-.31,2,.48,4,2.62,4.61,1.79.49,4.3-.6,4.61-2.62Z"/><path class="cls-6" d="M171.61,96.5a25.74,25.74,0,0,0-12,0c-4.66,1.26-2.68,8.49,2,7.22a17.37,17.37,0,0,1,8,0c4.71,1,6.71-6.19,2-7.22Z"/><path class="cls-6" d="M184.81,111.89c1.09-2,3.07-4.47,5.46-4.57,4.81-.2,4.83-7.69,0-7.49-5.19.22-9.51,3.85-11.93,8.28-2.32,4.24,4.15,8,6.47,3.78Z"/><path class="cls-5" d="M202.56,76.55a19.3,19.3,0,0,0-5-3A24.89,24.89,0,0,1,192,70.13c-1.6-1.26-3.73-1.57-5.3,0-1.32,1.32-1.61,4,0,5.3a36,36,0,0,0,5.41,3.84c1.67.87,3.71,1.35,5.16,2.58a3.82,3.82,0,0,0,5.3,0,3.76,3.76,0,0,0,0-5.3Z"/><path class="cls-4" d="M218,92.65a1.2,1.2,0,0,0,.39.84.53.53,0,0,0,.74-.74s-.13-.15-.06,0l0-.07s0,.15,0,0a.53.53,0,0,0-1.05,0Z"/><path class="cls-4" d="M219.45,95.63h.23a.53.53,0,0,0,0-1.05h-.23a.53.53,0,0,0,0,1.05Z"/><path class="cls-4" d="M222.78,93.59v-.12a.53.53,0,0,0-1.05,0v.12a.53.53,0,0,0,1.05,0Z"/><path class="cls-4" d="M222.84,97a.53.53,0,0,0,0-1.05.53.53,0,0,0,0,1.05Z"/><path class="cls-4" d="M232.55,98.73a1.15,1.15,0,0,0,.33-.09l.13-.1c.08-.08-.11.05,0,0l-.27.07h0a.54.54,0,0,0,.53-.53.53.53,0,0,0-.53-.53,1.16,1.16,0,0,0-.34.09l-.13.1c-.08.07.11-.05,0,0l.27-.07h0a.54.54,0,0,0-.53.53.53.53,0,0,0,.53.53Z"/><path class="cls-4" d="M229.74,93.06a.53.53,0,0,0,0-1.05.53.53,0,0,0,0,1.05Z"/><path class="cls-4" d="M229.74,97.62a.53.53,0,0,0,0-1.05.53.53,0,0,0,0,1.05Z"/><path class="cls-4" d="M228.45,98a.53.53,0,0,0,0-1.05.53.53,0,0,0,0,1.05Z"/><path class="cls-4" d="M225.3,96.69a.53.53,0,0,0,0-1.05.53.53,0,0,0,0,1.05Z"/><path class="cls-4" d="M223.19,89.79a.53.53,0,0,0,0-1.05.53.53,0,0,0,0,1.05Z"/><path class="cls-4" d="M229.51,95.52a.53.53,0,0,0,0-1.05.53.53,0,0,0,0,1.05Z"/><path class="cls-4" d="M225.53,91.54a.53.53,0,0,0,0-1.05.53.53,0,0,0,0,1.05Z"/><path class="cls-4" d="M216.76,97.62a.53.53,0,0,0,0-1.05.53.53,0,0,0,0,1.05Z"/><path class="cls-4" d="M222.66,99.49a.53.53,0,0,0,0-1.05.53.53,0,0,0,0,1.05Z"/><path class="cls-4" d="M219.68,98.21a.53.53,0,0,0,0-1.05.53.53,0,0,0,0,1.05Z"/><path class="cls-4" d="M224.36,101.83a2.15,2.15,0,0,0,.42-.06l.15,0s.17,0,0,0a.54.54,0,0,0,.53-.53.53.53,0,0,0-.53-.53,1.56,1.56,0,0,0-.34.06l-.25.05a.53.53,0,1,0,0,1.05Z"/><path class="cls-4" d="M229.15,100.08a.53.53,0,0,0,0-1.05.53.53,0,0,0,0,1.05Z"/><path class="cls-4" d="M225.53,98.67a.53.53,0,0,0,0-1.05.53.53,0,0,0,0,1.05Z"/><path class="cls-4" d="M231.26,101.13H231a.53.53,0,0,0,0,1.05h.23a.53.53,0,0,0,0-1.05Z"/><path class="cls-4" d="M237.78,99.49a.53.53,0,0,0,0-1.05.53.53,0,0,0,0,1.05Z"/><path class="cls-4" d="M221.44,91.19a.53.53,0,0,0,0-1.05.53.53,0,0,0,0,1.05Z"/><path class="cls-4" d="M226.93,90.72a.53.53,0,0,0,0-1.05.53.53,0,0,0,0,1.05Z"/><path class="cls-4" d="M228.34,92.59a.53.53,0,0,0,0-1.05.53.53,0,0,0,0,1.05Z"/><path class="cls-4" d="M230,89.32a.53.53,0,0,0,0-1.05.53.53,0,0,0,0,1.05Z"/><path class="cls-4" d="M222.37,102.42a.53.53,0,0,0,0-1.05.53.53,0,0,0,0,1.05Z"/><path class="cls-4" d="M218.63,102.42a.53.53,0,0,0,0-1.05.53.53,0,0,0,0,1.05Z"/><path class="cls-4" d="M219.74,101a.53.53,0,0,0,0-1.05.53.53,0,0,0,0,1.05Z"/><path class="cls-4" d="M217.46,95.52a.53.53,0,0,0,0-1.05.53.53,0,0,0,0,1.05Z"/><path class="cls-4" d="M214.19,98a.53.53,0,0,0,0-1.05.53.53,0,0,0,0,1.05Z"/><path class="cls-4" d="M210.38,96.22a.53.53,0,0,0,0-1.05.53.53,0,0,0,0,1.05Z"/><path class="cls-4" d="M217.46,100.54a.53.53,0,0,0,0-1.05.53.53,0,0,0,0,1.05Z"/><path class="cls-4" d="M214.48,95.63a.53.53,0,0,0,0-1.05.53.53,0,0,0,0,1.05Z"/><path class="cls-4" d="M212.84,91.36a.53.53,0,0,0,0-1.05.53.53,0,0,0,0,1.05Z"/><path class="cls-4" d="M214.83,93.06a.53.53,0,0,0,0-1.05.53.53,0,0,0,0,1.05Z"/><path class="cls-4" d="M233.36,91a1.2,1.2,0,0,0,.39.84.53.53,0,0,0,.74-.74s-.13-.15-.06,0l0-.07s0,.15,0,0a.53.53,0,0,0-1.05,0Z"/><path class="cls-4" d="M216.82,83.7h.23a.53.53,0,0,0,0-1.05h-.23a.53.53,0,0,0,0,1.05Z"/><path class="cls-4" d="M220.15,81.66v-.12a.53.53,0,0,0-1.05,0v.12a.53.53,0,0,0,1.05,0Z"/><path class="cls-4" d="M220.21,85.11a.53.53,0,0,0,0-1.05.53.53,0,0,0,0,1.05Z"/><path class="cls-4" d="M223.48,82.77a1.15,1.15,0,0,0,.34-.09l.13-.1c.08-.07-.11.05,0,0l-.27.07h0a.54.54,0,0,0,.53-.53.53.53,0,0,0-.53-.53,1.13,1.13,0,0,0-.34.09l-.13.1c-.08.08.11-.05,0,0l.27-.07h0a.54.54,0,0,0-.53.53.53.53,0,0,0,.53.53Z"/><path class="cls-4" d="M238.63,91.36a.53.53,0,0,0,0-1.05.53.53,0,0,0,0,1.05Z"/><path class="cls-4" d="M227.11,85.69a.53.53,0,0,0,0-1.05.53.53,0,0,0,0,1.05Z"/><path class="cls-4" d="M225.82,86a.53.53,0,0,0,0-1.05.53.53,0,0,0,0,1.05Z"/><path class="cls-4" d="M222.66,84.76a.53.53,0,0,0,0-1.05.53.53,0,0,0,0,1.05Z"/><path class="cls-4" d="M232.08,88.09a.53.53,0,0,0,0-1.05.53.53,0,0,0,0,1.05Z"/><path class="cls-4" d="M226.87,83.59a.53.53,0,0,0,0-1.05.53.53,0,0,0,0,1.05Z"/><path class="cls-4" d="M234.42,89.84a.53.53,0,0,0,0-1.05.53.53,0,0,0,0,1.05Z"/><path class="cls-4" d="M214.48,86.51a.53.53,0,0,0,0-1.05.53.53,0,0,0,0,1.05Z"/><path class="cls-4" d="M218.92,86.75a.53.53,0,0,0,0-1.05.53.53,0,0,0,0,1.05Z"/><path class="cls-4" d="M217.05,86.28a.53.53,0,0,0,0-1.05.53.53,0,0,0,0,1.05Z"/><path class="cls-4" d="M209.6,93.7a2.05,2.05,0,0,0,.42-.06l.15,0s.17,0,0,0a.53.53,0,0,0,.53-.53.53.53,0,0,0-.53-.53,1.63,1.63,0,0,0-.34.06,1.12,1.12,0,0,1-.25.05.53.53,0,1,0,0,1.05Z"/><path class="cls-4" d="M226.52,88.15a.53.53,0,0,0,0-1.05.53.53,0,0,0,0,1.05Z"/><path class="cls-4" d="M222.9,86.75a.53.53,0,0,0,0-1.05.53.53,0,0,0,0,1.05Z"/><path class="cls-4" d="M228.63,89.2h-.23a.53.53,0,0,0,0,1.05h.23a.53.53,0,0,0,0-1.05Z"/><path class="cls-4" d="M225.24,90.72a.53.53,0,0,0,0-1.05.53.53,0,0,0,0,1.05Z"/><path class="cls-4" d="M230.32,89.49a.53.53,0,0,0,0-1.05.53.53,0,0,0,0,1.05Z"/><path class="cls-4" d="M235.82,89a.53.53,0,0,0,0-1.05.53.53,0,0,0,0,1.05Z"/><path class="cls-4" d="M237.22,90.9a.53.53,0,0,0,0-1.05.53.53,0,0,0,0,1.05Z"/><path class="cls-4" d="M232.37,84.14a.53.53,0,0,0,0-1.05.53.53,0,0,0,0,1.05Z"/><path class="cls-4" d="M219.74,88.73a.53.53,0,0,0,0-1.05.53.53,0,0,0,0,1.05Z"/><path class="cls-4" d="M216.82,91.95a.53.53,0,0,0,0-1.05.53.53,0,0,0,0,1.05Z"/><path class="cls-4" d="M216.93,88.73a.53.53,0,0,0,0-1.05.53.53,0,0,0,0,1.05Z"/><path class="cls-4" d="M214.83,83.59a.53.53,0,0,0,0-1.05.53.53,0,0,0,0,1.05Z"/><path class="cls-4" d="M213.19,86.28a.53.53,0,0,0,0-1.05.53.53,0,0,0,0,1.05Z"/><path class="cls-4" d="M211.2,90.49a.53.53,0,0,0,0-1.05.53.53,0,0,0,0,1.05Z"/><path class="cls-4" d="M214.83,88.62a.53.53,0,0,0,0-1.05.53.53,0,0,0,0,1.05Z"/><path class="cls-4" d="M208.57,90.49a.53.53,0,0,0,0-1.05.53.53,0,0,0,0,1.05Z"/><path class="cls-4" d="M231,86.51a.53.53,0,0,0,0-1.05.53.53,0,0,0,0,1.05Z"/><path class="cls-4" d="M212,102.88a.53.53,0,0,0,0-1.05.53.53,0,0,0,0,1.05Z"/><path class="cls-4" d="M221.9,105.75a1.2,1.2,0,0,0,.39.84.53.53,0,1,0,.74-.74s-.13-.15-.06,0l0-.07s0,.15,0,0a.53.53,0,1,0-1.05,0Z"/><path class="cls-4" d="M223.37,108.73h.23a.53.53,0,0,0,0-1.05h-.23a.53.53,0,0,0,0,1.05Z"/><path class="cls-4" d="M226.7,106.68v-.12a.53.53,0,0,0-1.05,0v.12a.53.53,0,0,0,1.05,0Z"/><path class="cls-4" d="M226.76,110.13a.53.53,0,0,0,0-1.05.53.53,0,0,0,0,1.05Z"/><path class="cls-4" d="M230,107.8a1.11,1.11,0,0,0,.33-.09l.13-.1c.08-.08-.11.05,0,0l-.27.07h0a.54.54,0,0,0,.53-.53.53.53,0,0,0-.53-.53,1.14,1.14,0,0,0-.34.09l-.13.1c-.08.08.11-.05,0,0l.27-.07h0a.54.54,0,0,0-.53.53.53.53,0,0,0,.53.53Z"/><path class="cls-4" d="M233.66,106.16a.53.53,0,0,0,0-1.05.53.53,0,0,0,0,1.05Z"/><path class="cls-4" d="M236.78,102.65a.53.53,0,0,0,0-1.05.53.53,0,0,0,0,1.05Z"/><path class="cls-4" d="M232.37,111.07a.53.53,0,0,0,0-1.05.53.53,0,0,0,0,1.05Z"/><path class="cls-4" d="M229.21,109.78a.53.53,0,0,0,0-1.05.53.53,0,0,0,0,1.05Z"/><path class="cls-4" d="M227.11,102.88a.53.53,0,0,0,0-1.05.53.53,0,0,0,0,1.05Z"/><path class="cls-4" d="M233.42,108.61a.53.53,0,0,0,0-1.05.53.53,0,0,0,0,1.05Z"/><path class="cls-4" d="M229.45,104.64a.53.53,0,0,0,0-1.05.53.53,0,0,0,0,1.05Z"/><path class="cls-4" d="M221,111.54a.53.53,0,0,0,0-1.05.53.53,0,0,0,0,1.05Z"/><path class="cls-4" d="M225.47,111.77a.53.53,0,0,0,0-1.05.53.53,0,0,0,0,1.05Z"/><path class="cls-4" d="M223.6,111.3a.53.53,0,0,0,0-1.05.53.53,0,0,0,0,1.05Z"/><path class="cls-4" d="M235.53,94.41a2.08,2.08,0,0,0,.42-.06l.15,0s.17,0,0,0a.53.53,0,0,0,.53-.53.53.53,0,0,0-.53-.53,1.59,1.59,0,0,0-.34.06,1.21,1.21,0,0,1-.25.05.53.53,0,1,0,0,1.05Z"/><path class="cls-4" d="M209.1,98.67a.53.53,0,0,0,0-1.05.53.53,0,0,0,0,1.05Z"/><path class="cls-4" d="M229.45,111.77a.53.53,0,0,0,0-1.05.53.53,0,0,0,0,1.05Z"/><path class="cls-4" d="M239,94.93h-.23a.53.53,0,0,0,0,1.05H239a.53.53,0,0,0,0-1.05Z"/><path class="cls-4" d="M235.59,96.45a.53.53,0,0,0,0-1.05.53.53,0,0,0,0,1.05Z"/><path class="cls-4" d="M225.35,104.29a.53.53,0,0,0,0-1.05.53.53,0,0,0,0,1.05Z"/><path class="cls-4" d="M230.85,103.82a.53.53,0,0,0,0-1.05.53.53,0,0,0,0,1.05Z"/><path class="cls-4" d="M232.25,105.69a.53.53,0,0,0,0-1.05.53.53,0,0,0,0,1.05Z"/><path class="cls-4" d="M233.89,102.42a.53.53,0,0,0,0-1.05.53.53,0,0,0,0,1.05Z"/><path class="cls-4" d="M230.09,94.46a.53.53,0,0,0,0-1.05.53.53,0,0,0,0,1.05Z"/><path class="cls-4" d="M226.35,96.22a.53.53,0,0,0,0-1.05.53.53,0,0,0,0,1.05Z"/><path class="cls-4" d="M227.28,94.46a.53.53,0,0,0,0-1.05.53.53,0,0,0,0,1.05Z"/><path class="cls-4" d="M221.38,108.61a.53.53,0,0,0,0-1.05.53.53,0,0,0,0,1.05Z"/><path class="cls-4" d="M219.74,111.3a.53.53,0,0,0,0-1.05.53.53,0,0,0,0,1.05Z"/><path class="cls-4" d="M221.38,96.92a.53.53,0,0,0,0-1.05.53.53,0,0,0,0,1.05Z"/><path class="cls-4" d="M225.18,94.35a.53.53,0,0,0,0-1.05.53.53,0,0,0,0,1.05Z"/><path class="cls-4" d="M217.05,108.5a.53.53,0,0,0,0-1.05.53.53,0,0,0,0,1.05Z"/><path class="cls-4" d="M220.68,105a.53.53,0,0,0,0-1.05.53.53,0,0,0,0,1.05Z"/><path class="cls-4" d="M219.62,107.56a.53.53,0,0,0,0-1.05.53.53,0,0,0,0,1.05Z"/><path class="cls-4" d="M214.71,101.31a1.2,1.2,0,0,0,.39.84.53.53,0,1,0,.74-.74s-.13-.15-.06,0l0-.07s0,.15,0,0a.53.53,0,1,0-1.05,0Z"/><path class="cls-4" d="M216.17,104.29h.23a.53.53,0,0,0,0-1.05h-.23a.53.53,0,0,0,0,1.05Z"/><path class="cls-4" d="M214.19,108.73a.53.53,0,0,0,0-1.05.53.53,0,0,0,0,1.05Z"/><path class="cls-4" d="M216.41,106.86a.53.53,0,0,0,0-1.05.53.53,0,0,0,0,1.05Z"/><path class="cls-4" d="M214.19,104.17a.53.53,0,0,0,0-1.05.53.53,0,0,0,0,1.05Z"/><path class="cls-4" d="M212.55,106.86a.53.53,0,0,0,0-1.05.53.53,0,0,0,0,1.05Z"/><path class="cls-4" d="M209.86,104.05a.53.53,0,0,0,0-1.05.53.53,0,0,0,0,1.05Z"/><path class="cls-4" d="M213.48,100.54a.53.53,0,0,0,0-1.05.53.53,0,0,0,0,1.05Z"/><path class="cls-4" d="M211.2,100.08a.53.53,0,0,0,0-1.05.53.53,0,0,0,0,1.05Z"/><path class="cls-4" d="M223.51,78.68c.24-.62.62-.62.86,0s.68.64,1,.05.68-.55.86.09.6.71,1,.15.74-.47.84.18.53.77.94.25.78-.39.82.27.44.82.91.35.82-.31.79.35.36.86.87.44.85-.22.74.43.27.89.82.53.87-.13.7.51.17.91.76.61.88,0,.64.58.07.93.69.69.88.05.58.64,0,.93.61.76.87.14.51.7-.12.92.53.82.85.23.43.75-.22.9.44.87.82.32.35.79-.31.88.35.91.78.4.27.82-.4.84.25.94.73.48.18.84-.48.79.15,1,.68.56.09.86-.57.74.05,1,.62.62,0,.86-.64.67-.05,1,.55.68-.09.86-.71.61-.15,1,.47.74-.18.84-.77.53-.25.94.39.78-.27.82-.82.44-.35.91.31.82-.35.79-.86.36-.44.87.22.85-.43.75-.89.27-.53.82.13.87-.51.7-.91.17-.61.76,0,.88-.58.64-.93.07-.69.69-.05.88-.64.58-.93,0-.76.61-.14.87-.7.51-.92-.12-.82.53-.23.85-.74.43-.9-.22-.87.44-.32.82-.79.35-.88-.31-.91.35-.4.78-.82.27-.84-.4-.94.25-.48.73-.84.18-.79-.49-1,.15-.56.68-.86.09-.74-.57-1,.05-.62.62-.86,0-.68-.64-1-.05-.68.55-.86-.09-.6-.71-1-.15-.74.47-.84-.18-.53-.77-.94-.25-.78.39-.82-.27-.44-.82-.91-.35-.82.31-.79-.35-.36-.86-.87-.44-.85.22-.75-.43-.26-.89-.82-.53-.87.13-.7-.51-.17-.91-.76-.61-.88,0-.64-.58-.07-.93-.69-.69-.88-.05-.58-.64,0-.93-.61-.76-.87-.14-.51-.7.12-.92-.53-.82-.85-.23-.43-.75.22-.9-.44-.87-.82-.32-.35-.79.31-.88-.35-.91-.78-.4-.27-.82.4-.84-.25-.94-.73-.48-.18-.84.48-.79-.15-1-.68-.56-.09-.86.57-.74-.05-1-.62-.62,0-.86.64-.67.05-1-.55-.68.09-.86.71-.6.15-1-.47-.74.18-.84.77-.53.25-.94-.39-.78.27-.82.82-.44.35-.91-.31-.82.35-.79.86-.36.44-.87-.22-.85.43-.75.89-.27.53-.82-.13-.87.51-.7.91-.17.61-.76,0-.88.58-.64.93-.07.69-.69.05-.88.64-.58.93,0,.76-.61.14-.87.7-.51.92.12.82-.53.23-.85.75-.43.9.22.87-.44.32-.82.79-.35.88.31.91-.35.4-.78.82-.27.84.4.94-.25.48-.73.84-.18.79.49,1-.15.56-.68.86-.09S223.28,79.3,223.51,78.68Z"/><path class="cls-4" d="M229.06,98.45c3.69,0,3.69-5.72,0-5.72s-3.69,5.72,0,5.72Z"/><path class="cls-4" d="M218,92.35c3.69,0,3.69-5.72,0-5.72s-3.69,5.72,0,5.72Z"/><path class="cls-4" d="M216.92,106.89c3.69,0,3.69-5.72,0-5.72s-3.69,5.72,0,5.72Z"/><path class="cls-4" d="M231,107.19c3.69,0,3.69-5.72,0-5.72s-3.69,5.72,0,5.72Z"/><path class="cls-4" d="M227,89.81c2.83,0,2.83-4.38,0-4.38s-2.83,4.38,0,4.38Z"/><path class="cls-4" d="M212.47,98.91a1.76,1.76,0,1,0,0-3.52,1.76,1.76,0,1,0,0,3.52Z"/><path class="cls-4" d="M223.6,109.21a1.76,1.76,0,1,0,0-3.52,1.76,1.76,0,1,0,0,3.52Z"/><circle class="cls-5" cx="168.29" cy="64.21" r="22.91"/><rect class="cls-5" x="167.5" y="30.76" width="1.58" height="11.58"/><rect class="cls-5" x="167.5" y="86.53" width="1.58" height="11.58"/><rect class="cls-5" x="190.38" y="63.65" width="11.58" height="1.58"/><rect class="cls-5" x="134.61" y="63.65" width="11.58" height="1.58"/><rect class="cls-5" x="182.21" y="43.93" width="11.58" height="1.58" transform="translate(23.49 146.11) rotate(-45.02)"/><rect class="cls-5" x="142.78" y="83.36" width="11.58" height="1.58" transform="translate(-16 129.65) rotate(-44.98)"/><rect class="cls-5" x="187.22" y="78.36" width="1.58" height="11.58" transform="translate(-4.44 157.59) rotate(-45)"/><rect class="cls-5" x="147.78" y="38.93" width="1.58" height="11.58" transform="translate(11.89 118.15) rotate(-45)"/><rect class="cls-5" x="173.86" y="38.19" width="11.58" height="1.58" transform="translate(70.9 187.19) rotate(-65.97)"/><rect class="cls-5" x="151.13" y="89.11" width="11.58" height="1.58" transform="translate(10.9 196.6) rotate(-65.96)"/><rect class="cls-5" x="192.96" y="70.01" width="1.58" height="11.58" transform="translate(45.55 221.82) rotate(-65.94)"/><rect class="cls-5" x="142.04" y="47.28" width="1.58" height="11.58" transform="translate(36.14 161.86) rotate(-65.94)"/><rect class="cls-5" x="188.54" y="53.68" width="11.58" height="1.58" transform="translate(-6.64 73.01) rotate(-20.93)"/><rect class="cls-5" x="136.46" y="73.62" width="11.58" height="1.58" transform="translate(-17.21 55.84) rotate(-20.97)"/><rect class="cls-5" x="177.47" y="84.69" width="1.58" height="11.58" transform="translate(-20.56 69.69) rotate(-20.94)"/><rect class="cls-5" x="157.53" y="32.61" width="1.58" height="11.58" transform="translate(-3.26 59.13) rotate(-20.94)"/><circle class="cls-4" cx="199.37" cy="66.88" r="2.76"/><circle class="cls-4" cx="134.61" cy="64.44" r="2.76"/><circle class="cls-4" cx="168.29" cy="98.11" r="2.76"/><circle class="cls-4" cx="168.24" cy="32.24" r="2.76"/><circle class="cls-4" cx="192.1" cy="88.25" r="2.76" transform="translate(-6.14 161.68) rotate(-45)"/><circle class="cls-4" cx="144.48" cy="40.63" r="2.76" transform="translate(13.58 114.05) rotate(-45)"/><circle class="cls-4" cx="144.48" cy="88.25" r="2.76" transform="translate(-20.08 128.02) rotate(-45)"/><circle class="cls-4" cx="192.1" cy="40.63" r="2.76" transform="translate(27.54 147.74) rotate(-45)"/><circle class="cls-4" cx="199.09" cy="78.06" r="2.76" transform="translate(47.16 228.55) rotate(-66.14)"/><circle class="cls-4" cx="137.49" cy="50.81" r="2.76" transform="translate(35.4 156) rotate(-66.14)"/><circle class="cls-4" cx="154.67" cy="95.23" r="2.76" transform="translate(5.01 198.15) rotate(-66.14)"/><circle class="cls-4" cx="181.91" cy="33.64" r="2.76" transform="translate(77.57 186.4) rotate(-66.14)"/><circle class="cls-4" cx="180.43" cy="95.85" r="2.76" transform="translate(-22.42 71.53) rotate(-21.14)"/><circle class="cls-4" cx="156.15" cy="33.03" r="2.76" transform="translate(-1.41 58.52) rotate(-21.14)"/><circle class="cls-4" cx="136.88" cy="76.58" r="2.76" transform="translate(-18.41 54.52) rotate(-21.14)"/><circle class="cls-4" cx="197.11" cy="54.74" r="2.76" transform="translate(-6.48 74.76) rotate(-21.14)"/><circle class="cls-4" cx="159.08" cy="71.03" r="4.86"/><circle class="cls-4" cx="159.08" cy="61.31" r="4.86"/><circle class="cls-4" cx="168.8" cy="62.42" r="4.86"/><circle class="cls-4" cx="168.29" cy="71.63" r="4.35"/><circle class="cls-4" cx="176.99" cy="56.45" r="4.35"/><circle class="cls-4" cx="178.01" cy="75.2" r="4.35"/><circle class="cls-4" cx="163.43" cy="65.66" r="4.35"/><circle class="cls-4" cx="163.94" cy="81.29" r="4.35"/><circle class="cls-4" cx="158.57" cy="52.09" r="4.35"/><circle class="cls-4" cx="168.29" cy="55.57" r="4.35"/><circle class="cls-4" cx="176.99" cy="67.28" r="4.35"/><path class="cls-1" d="M302.08,164.17A14.85,14.85,0,1,0,290,152,14.86,14.86,0,0,0,302.08,164.17Z"/><path class="cls-1" d="M338.55,188.47a4.63,4.63,0,0,0-.5-.55,1.34,1.34,0,0,0-.37-.53l-20.86-18.67a5.22,5.22,0,0,0-3.8-1.42H294.52a5.21,5.21,0,0,0-3.8,1.42l-20.86,18.67a1.34,1.34,0,0,0-.37.53,4.63,4.63,0,0,0-.5.55,5.27,5.27,0,0,0,7.74,7.1l13.11-12.41v56.37a5.64,5.64,0,0,0,5.62,5.62h1.33a5.64,5.64,0,0,0,5.62-5.62V211.24h2.7v28.29a5.64,5.64,0,0,0,5.62,5.62h1.33a5.64,5.64,0,0,0,5.62-5.62V183.16l13.12,12.41a5.27,5.27,0,0,0,7.74-7.1Z"/><path class="cls-2" d="M230.37,167.32a14.85,14.85,0,1,0-12.12-12.12A14.86,14.86,0,0,0,230.37,167.32Z"/><path class="cls-2" d="M266.83,191.62a4.63,4.63,0,0,0-.5-.55,1.34,1.34,0,0,0-.37-.53l-20.86-18.67a5.22,5.22,0,0,0-3.8-1.42H222.81a5.21,5.21,0,0,0-3.8,1.42l-20.86,18.67a1.34,1.34,0,0,0-.37.53,4.63,4.63,0,0,0-.5.55,5.27,5.27,0,0,0,7.74,7.1l13.11-12.41v56.37a5.64,5.64,0,0,0,5.62,5.62h1.33a5.64,5.64,0,0,0,5.62-5.62V214.39h2.7v28.29A5.64,5.64,0,0,0,239,248.3h1.33a5.64,5.64,0,0,0,5.62-5.62V186.31l13.12,12.41a5.27,5.27,0,0,0,7.74-7.1Z"/><path class="cls-2" d="M267.62,167.15A14.85,14.85,0,1,0,255.5,155,14.86,14.86,0,0,0,267.62,167.15Z"/><path class="cls-2" d="M304.08,191.45a4.63,4.63,0,0,0-.5-.55,1.34,1.34,0,0,0-.37-.53L282.37,171.7a5.22,5.22,0,0,0-3.8-1.42H260.06a5.21,5.21,0,0,0-3.8,1.42L235.4,190.37a1.34,1.34,0,0,0-.37.53,4.63,4.63,0,0,0-.5.55,5.27,5.27,0,0,0,7.74,7.1l13.11-12.41v56.37a5.64,5.64,0,0,0,5.62,5.62h1.33a5.64,5.64,0,0,0,5.62-5.62V214.22h2.7v28.29a5.64,5.64,0,0,0,5.62,5.62h1.33a5.64,5.64,0,0,0,5.62-5.62V186.14l13.12,12.41a5.27,5.27,0,0,0,7.74-7.1Z"/><path class="cls-2" d="M138.5,167.17A14.85,14.85,0,1,0,126.37,155,14.86,14.86,0,0,0,138.5,167.17Z"/><path class="cls-2" d="M175,191.47a4.63,4.63,0,0,0-.5-.55,1.34,1.34,0,0,0-.37-.53l-20.86-18.67a5.22,5.22,0,0,0-3.8-1.42H130.93a5.21,5.21,0,0,0-3.8,1.42l-20.86,18.67a1.34,1.34,0,0,0-.37.53,4.63,4.63,0,0,0-.5.55,5.27,5.27,0,0,0,7.74,7.1l13.11-12.41v56.37a5.64,5.64,0,0,0,5.62,5.62h1.33a5.64,5.64,0,0,0,5.62-5.62V214.24h2.7v28.29a5.64,5.64,0,0,0,5.62,5.62h1.33a5.64,5.64,0,0,0,5.62-5.62V186.16l13.12,12.41a5.27,5.27,0,0,0,7.74-7.1Z"/><path class="cls-2" d="M66.78,170.32A14.85,14.85,0,1,0,54.66,158.2,14.86,14.86,0,0,0,66.78,170.32Z"/><path class="cls-2" d="M103.24,194.62a4.63,4.63,0,0,0-.5-.55,1.34,1.34,0,0,0-.37-.53L81.52,174.87a5.22,5.22,0,0,0-3.8-1.42H59.22a5.21,5.21,0,0,0-3.8,1.42L34.56,193.54a1.34,1.34,0,0,0-.37.53,4.63,4.63,0,0,0-.5.55,5.27,5.27,0,0,0,7.74,7.1l13.11-12.41v56.37a5.64,5.64,0,0,0,5.62,5.62H61.5a5.64,5.64,0,0,0,5.62-5.62V217.39h2.7v28.29a5.64,5.64,0,0,0,5.62,5.62h1.33a5.64,5.64,0,0,0,5.62-5.62V189.31L95.5,201.72a5.27,5.27,0,0,0,7.74-7.1Z"/><path class="cls-1" d="M104,170.15A14.85,14.85,0,1,0,91.91,158,14.86,14.86,0,0,0,104,170.15Z"/><path class="cls-1" d="M140.5,194.45a4.63,4.63,0,0,0-.5-.55,1.34,1.34,0,0,0-.37-.53L118.78,174.7a5.22,5.22,0,0,0-3.8-1.42H96.47a5.21,5.21,0,0,0-3.8,1.42L71.82,193.37a1.34,1.34,0,0,0-.37.53,4.63,4.63,0,0,0-.5.55,5.27,5.27,0,0,0,7.74,7.1l13.11-12.41v56.37a5.64,5.64,0,0,0,5.62,5.62h1.33a5.64,5.64,0,0,0,5.62-5.62V217.22h2.7v28.29a5.64,5.64,0,0,0,5.62,5.62H114a5.64,5.64,0,0,0,5.62-5.62V189.14l13.12,12.41a5.27,5.27,0,0,0,7.74-7.1Z"/><path class="cls-8" d="M186.93,175a18,18,0,1,0-14.72-14.72A18,18,0,0,0,186.93,175Z"/><path class="cls-8" d="M231.2,204.46a5.62,5.62,0,0,0-.6-.67,1.62,1.62,0,0,0-.44-.65l-25.33-22.67a6.33,6.33,0,0,0-4.61-1.73H177.74a6.33,6.33,0,0,0-4.61,1.73l-25.33,22.67a1.62,1.62,0,0,0-.44.65,5.63,5.63,0,0,0-.6.67,6.4,6.4,0,0,0,9.4,8.62L172.08,198v68.45a6.84,6.84,0,0,0,6.82,6.82h1.61a6.84,6.84,0,0,0,6.82-6.82V232.11h3.28v34.36a6.84,6.84,0,0,0,6.82,6.82h1.61a6.84,6.84,0,0,0,6.82-6.82V198l15.93,15.07a6.4,6.4,0,0,0,9.4-8.62Z"/></g></svg>