<svg xmlns="http://www.w3.org/2000/svg" viewBox="0 0 151.74 136.95"><defs><style>.cls-1,.cls-4,.cls-5{fill:#ee4e9c;}.cls-1,.cls-2,.cls-4{stroke:#fff;}.cls-1,.cls-2,.cls-3,.cls-4{stroke-miterlimit:10;}.cls-1{stroke-width:0.88px;}.cls-2{fill:#4db2e5;}.cls-2,.cls-3{stroke-width:0.88px;}.cls-3{fill:#fff;stroke:#4db2e5;}.cls-4{stroke-width:0.46px;}</style></defs><title>germs</title><g id="Layer_2" data-name="Layer 2"><circle class="cls-1" cx="98.9" cy="49" r="5.48"/><circle class="cls-1" cx="107.78" cy="54.49" r="5.48"/><circle class="cls-1" cx="107.78" cy="43.52" r="5.48"/><circle class="cls-1" cx="118.75" cy="44.77" r="5.48"/><circle class="cls-1" cx="118.17" cy="55.16" r="4.91"/><circle class="cls-1" cx="127.99" cy="38.04" r="4.91"/><circle class="cls-1" cx="129.14" cy="59.19" r="4.91"/><circle class="cls-2" cx="93.12" cy="82.7" r="4.91"/><circle class="cls-2" cx="92.57" cy="68.03" r="4.91"/><circle class="cls-2" cx="79.55" cy="89.03" r="4.91"/><circle class="cls-2" cx="69.73" cy="83.17" r="4.91"/><circle class="cls-3" cx="64.35" cy="74.09" r="4.91"/><circle class="cls-2" cx="74.17" cy="74.09" r="4.91"/><circle class="cls-1" cx="112.69" cy="48.43" r="4.91"/><circle class="cls-1" cx="107.21" cy="33.13" r="4.91"/><circle class="cls-2" cx="102.96" cy="67.37" r="4.91"/><circle class="cls-1" cx="127.99" cy="50.25" r="4.91"/><circle class="cls-1" cx="98.9" cy="39.29" r="4.91"/><path class="cls-4" d="M61.08,90.17c1.86,1.6,1.32,6,1.31,8.43,0,4.82,7.46,4.82,7.47,0,0-4.51.28-10.49-3.5-13.72s-9,2.15-5.29,5.29Z"/><path class="cls-4" d="M59.64,112.59c.65-1,1.2-2,1.78-3.07q.46-.8,1-1.57c-.47.7,1.09-.85.06-.14a3.8,3.8,0,0,0,1.32-5.12,3.75,3.75,0,0,0-5.12-1.32,14.32,14.32,0,0,0-4.09,5.09c-.51.91-1,1.82-1.6,2.7l-.15.21-.25.28c-4.12.79-3.88,7.54.71,7.4C56.24,117,58.12,114.91,59.64,112.59Z"/><path class="cls-5" d="M87.27,106.25c.51-1.07.91-2.18,1.35-3.28q.35-.86.75-1.68c-.37.76,1-1,0-.15A3.8,3.8,0,0,0,90,95.89a3.75,3.75,0,0,0-5.25-.62,14.31,14.31,0,0,0-3.37,5.59c-.39,1-.77,1.94-1.22,2.89l-.12.23-.21.31c-4,1.34-2.83,8,1.69,7.24C84.48,111,86.08,108.76,87.27,106.25Z"/><path class="cls-5" d="M86.44,90.12c-1.08,3.17-2.37,6.27-3.34,9.48-1.39,4.63,5.82,6.59,7.21,2,1-3.21,2.26-6.3,3.34-9.48,1.56-4.58-5.67-6.53-7.21-2Z"/><path class="cls-4" d="M52,88.88a16.31,16.31,0,0,0-10.52-4.3c-4.82-.11-4.81,7.37,0,7.48a8.07,8.07,0,0,1,5.23,2.11,3.8,3.8,0,0,0,5.29,0,3.75,3.75,0,0,0,0-5.29Z"/><path class="cls-4" d="M48,103.1c-.76-4.82-6.71-6.65-10.39-8.64-4.24-2.29-8,4.16-3.77,6.45,1.5.81,3.06,1.47,4.56,2.28.39.21.76.43,1.14.66-.07,0,1.05.74.59.38a7.28,7.28,0,0,1,.81.78q-.35-.45,0,.08-.27-.61-.12,0c.32,2,2.8,3.1,4.6,2.61,2.13-.58,2.93-2.59,2.61-4.6Z"/><path class="cls-4" d="M81.19,113.68a11.43,11.43,0,0,1,2.11-5.83,3.81,3.81,0,0,0,0-5.29c-1.34-1.34-4-1.56-5.29,0a18.06,18.06,0,0,0-4,9.12c-.31,2,.48,4,2.61,4.6,1.79.49,4.29-.59,4.6-2.61Z"/><path class="cls-4" d="M62.95,87.82a25.68,25.68,0,0,0-12,0c-4.65,1.26-2.67,8.47,2,7.21a17.33,17.33,0,0,1,8,0c4.7,1,6.69-6.17,2-7.21Z"/><path class="cls-4" d="M76.12,103.18c1.09-2,3.06-4.46,5.45-4.56,4.8-.2,4.82-7.67,0-7.47-5.18.22-9.49,3.85-11.9,8.26-2.31,4.23,4.14,8,6.45,3.77Z"/><path class="cls-3" d="M93.83,67.92a19.26,19.26,0,0,0-5-3,24.83,24.83,0,0,1-5.56-3.43c-1.6-1.26-3.72-1.57-5.29,0-1.31,1.31-1.6,4,0,5.29a35.86,35.86,0,0,0,5.4,3.83c1.66.87,3.7,1.35,5.15,2.58a3.81,3.81,0,0,0,5.29,0,3.75,3.75,0,0,0,0-5.29Z"/><path class="cls-2" d="M109.22,84a1.2,1.2,0,0,0,.39.84.52.52,0,0,0,.74-.74s-.13-.15-.06,0l0-.07s0,.15,0,0a.53.53,0,0,0-1.05,0Z"/><path class="cls-2" d="M110.68,87h.23a.53.53,0,0,0,0-1.05h-.23a.53.53,0,0,0,0,1.05Z"/><path class="cls-2" d="M114,84.92V84.8a.53.53,0,0,0-1,0v.12a.53.53,0,0,0,1,0Z"/><path class="cls-2" d="M114.06,88.36a.53.53,0,0,0,0-1.05.53.53,0,0,0,0,1.05Z"/><path class="cls-2" d="M123.74,90.05a1.14,1.14,0,0,0,.33-.09l.13-.1c.08-.07-.11.05,0,0l-.27.07h0a.54.54,0,0,0,.52-.53.53.53,0,0,0-.52-.53,1.15,1.15,0,0,0-.33.09l-.13.1c-.08.07.11-.05,0,0l.26-.07h0a.54.54,0,0,0-.53.53.53.53,0,0,0,.53.53Z"/><path class="cls-2" d="M120.94,84.39a.53.53,0,0,0,0-1,.53.53,0,0,0,0,1Z"/><path class="cls-2" d="M120.94,88.94a.53.53,0,0,0,0-1.05.53.53,0,0,0,0,1.05Z"/><path class="cls-2" d="M119.66,89.29a.53.53,0,0,0,0-1,.53.53,0,0,0,0,1Z"/><path class="cls-2" d="M116.51,88a.53.53,0,0,0,0-1.05.53.53,0,0,0,0,1.05Z"/><path class="cls-2" d="M114.41,81.13a.53.53,0,0,0,0-1.05.53.53,0,0,0,0,1.05Z"/><path class="cls-2" d="M120.71,86.84a.53.53,0,0,0,0-1,.53.53,0,0,0,0,1Z"/><path class="cls-2" d="M116.74,82.88a.53.53,0,0,0,0-1.05.53.53,0,0,0,0,1.05Z"/><path class="cls-2" d="M108,88.94a.53.53,0,0,0,0-1.05.53.53,0,0,0,0,1.05Z"/><path class="cls-2" d="M113.89,90.81a.53.53,0,0,0,0-1.05.53.53,0,0,0,0,1.05Z"/><path class="cls-2" d="M110.91,89.53a.53.53,0,0,0,0-1.05.53.53,0,0,0,0,1.05Z"/><path class="cls-2" d="M115.58,93.14a2.15,2.15,0,0,0,.42-.06l.15,0s.17,0,0,0a.54.54,0,0,0,.52-.53.53.53,0,0,0-.52-.53,1.55,1.55,0,0,0-.34.06l-.25.05a.52.52,0,1,0,0,1Z"/><path class="cls-2" d="M120.36,91.39a.53.53,0,0,0,0-1,.53.53,0,0,0,0,1Z"/><path class="cls-2" d="M116.74,90a.53.53,0,0,0,0-1,.53.53,0,0,0,0,1Z"/><path class="cls-2" d="M122.46,92.44h-.23a.53.53,0,0,0,0,1.05h.23a.53.53,0,0,0,0-1.05Z"/><path class="cls-2" d="M129,90.81a.53.53,0,0,0,0-1.05.53.53,0,0,0,0,1.05Z"/><path class="cls-2" d="M112.66,82.53a.53.53,0,0,0,0-1.05.53.53,0,0,0,0,1.05Z"/><path class="cls-2" d="M118.14,82.06a.53.53,0,0,0,0-1.05.53.53,0,0,0,0,1.05Z"/><path class="cls-2" d="M119.54,83.93a.52.52,0,0,0,0-1,.52.52,0,0,0,0,1Z"/><path class="cls-2" d="M121.18,80.66a.53.53,0,0,0,0-1.05.53.53,0,0,0,0,1.05Z"/><path class="cls-2" d="M113.59,93.73a.53.53,0,0,0,0-1.05.53.53,0,0,0,0,1.05Z"/><path class="cls-2" d="M109.86,93.73a.53.53,0,0,0,0-1.05.53.53,0,0,0,0,1.05Z"/><path class="cls-2" d="M111,92.33a.53.53,0,0,0,0-1.05.53.53,0,0,0,0,1.05Z"/><path class="cls-2" d="M108.69,86.84a.53.53,0,0,0,0-1,.53.53,0,0,0,0,1Z"/><path class="cls-2" d="M105.43,89.29a.53.53,0,0,0,0-1,.53.53,0,0,0,0,1Z"/><path class="cls-2" d="M101.64,87.54a.53.53,0,0,0,0-1.05.53.53,0,0,0,0,1.05Z"/><path class="cls-2" d="M108.69,91.86a.52.52,0,0,0,0-1,.52.52,0,0,0,0,1Z"/><path class="cls-2" d="M105.72,87a.53.53,0,0,0,0-1.05.53.53,0,0,0,0,1.05Z"/><path class="cls-2" d="M104.09,82.7a.53.53,0,0,0,0-1,.53.53,0,0,0,0,1Z"/><path class="cls-2" d="M106.07,84.39a.53.53,0,0,0,0-1,.53.53,0,0,0,0,1Z"/><path class="cls-2" d="M124.56,82.29a1.2,1.2,0,0,0,.39.84.53.53,0,1,0,.74-.74s-.13-.15-.06,0l0-.07s0,.15,0,0a.53.53,0,0,0-1.05,0Z"/><path class="cls-2" d="M108.05,75.06h.23a.53.53,0,0,0,0-1h-.23a.53.53,0,0,0,0,1Z"/><path class="cls-2" d="M111.38,73V72.9a.53.53,0,0,0-1.05,0V73a.53.53,0,0,0,1.05,0Z"/><path class="cls-2" d="M111.44,76.46a.53.53,0,0,0,0-1,.53.53,0,0,0,0,1Z"/><path class="cls-2" d="M114.7,74.13A1.15,1.15,0,0,0,115,74l.13-.1c.08-.07-.11.05,0,0l-.26.07h0a.54.54,0,0,0,.53-.53.53.53,0,0,0-.53-.52,1.13,1.13,0,0,0-.33.09l-.13.1c-.08.07.11-.05,0,0l.26-.07h0a.54.54,0,0,0-.52.52.52.52,0,0,0,.52.52Z"/><path class="cls-2" d="M129.81,82.7a.53.53,0,0,0,0-1,.53.53,0,0,0,0,1Z"/><path class="cls-2" d="M118.32,77a.53.53,0,0,0,0-1,.53.53,0,0,0,0,1Z"/><path class="cls-2" d="M117,77.39a.53.53,0,0,0,0-1.05.53.53,0,0,0,0,1.05Z"/><path class="cls-2" d="M113.89,76.11a.53.53,0,0,0,0-1.05.53.53,0,0,0,0,1.05Z"/><path class="cls-2" d="M123.28,79.43a.53.53,0,0,0,0-1,.53.53,0,0,0,0,1Z"/><path class="cls-2" d="M118.09,74.94a.53.53,0,0,0,0-1.05.53.53,0,0,0,0,1.05Z"/><path class="cls-2" d="M125.61,81.18a.53.53,0,0,0,0-1,.53.53,0,0,0,0,1Z"/><path class="cls-2" d="M105.72,77.86a.53.53,0,0,0,0-1,.53.53,0,0,0,0,1Z"/><path class="cls-2" d="M110.15,78.09a.53.53,0,0,0,0-1.05.53.53,0,0,0,0,1.05Z"/><path class="cls-2" d="M108.29,77.63a.53.53,0,0,0,0-1,.53.53,0,0,0,0,1Z"/><path class="cls-2" d="M100.85,85a2,2,0,0,0,.42-.06l.15,0s.17,0,0,0a.53.53,0,0,0,.53-.53.53.53,0,0,0-.53-.52,1.63,1.63,0,0,0-.34.06,1.12,1.12,0,0,1-.25.05.53.53,0,1,0,0,1.05Z"/><path class="cls-2" d="M117.74,79.49a.53.53,0,0,0,0-1.05.53.53,0,0,0,0,1.05Z"/><path class="cls-2" d="M114.12,78.09a.53.53,0,0,0,0-1.05.53.53,0,0,0,0,1.05Z"/><path class="cls-2" d="M119.84,80.54h-.23a.53.53,0,0,0,0,1.05h.23a.53.53,0,0,0,0-1.05Z"/><path class="cls-2" d="M116.45,82.06a.53.53,0,0,0,0-1.05.53.53,0,0,0,0,1.05Z"/><path class="cls-2" d="M121.53,80.83a.53.53,0,0,0,0-1,.53.53,0,0,0,0,1Z"/><path class="cls-2" d="M127,80.37a.53.53,0,0,0,0-1.05.53.53,0,0,0,0,1.05Z"/><path class="cls-2" d="M128.41,82.23a.52.52,0,0,0,0-1,.52.52,0,0,0,0,1Z"/><path class="cls-2" d="M123.57,75.5a.53.53,0,0,0,0-1.05.53.53,0,0,0,0,1.05Z"/><path class="cls-2" d="M111,80.08a.53.53,0,0,0,0-1,.53.53,0,0,0,0,1Z"/><path class="cls-2" d="M108.05,83.28a.53.53,0,0,0,0-1.05.53.53,0,0,0,0,1.05Z"/><path class="cls-2" d="M108.17,80.08a.53.53,0,0,0,0-1,.53.53,0,0,0,0,1Z"/><path class="cls-2" d="M106.07,74.94a.53.53,0,0,0,0-1.05.53.53,0,0,0,0,1.05Z"/><path class="cls-2" d="M104.44,77.63a.53.53,0,0,0,0-1,.53.53,0,0,0,0,1Z"/><path class="cls-2" d="M102.45,81.83a.53.53,0,0,0,0-1,.53.53,0,0,0,0,1Z"/><path class="cls-2" d="M106.07,80a.53.53,0,0,0,0-1.05.53.53,0,0,0,0,1.05Z"/><path class="cls-2" d="M99.83,81.83a.53.53,0,0,0,0-1,.53.53,0,0,0,0,1Z"/><path class="cls-2" d="M122.23,77.86a.53.53,0,0,0,0-1,.53.53,0,0,0,0,1Z"/><path class="cls-2" d="M103.21,94.19a.53.53,0,0,0,0-1.05.53.53,0,0,0,0,1.05Z"/><path class="cls-2" d="M113.13,97.05a1.2,1.2,0,0,0,.39.84.53.53,0,1,0,.74-.74s-.13-.15-.06,0l0-.07s0,.15,0,0a.53.53,0,1,0-1.05,0Z"/><path class="cls-2" d="M114.59,100h.23a.53.53,0,0,0,0-1.05h-.23a.53.53,0,0,0,0,1.05Z"/><path class="cls-2" d="M117.91,98v-.12a.53.53,0,0,0-1.05,0V98a.53.53,0,0,0,1.05,0Z"/><path class="cls-2" d="M118,101.43a.53.53,0,0,0,0-1.05.53.53,0,0,0,0,1.05Z"/><path class="cls-2" d="M121.24,99.09a1.1,1.1,0,0,0,.33-.09l.13-.1c.08-.08-.11.05,0,0l-.27.07h0a.54.54,0,0,0,.53-.53.52.52,0,0,0-.53-.52,1.14,1.14,0,0,0-.33.09l-.13.1c-.08.07.11-.05,0,0l.26-.07h0a.54.54,0,0,0-.53.53.52.52,0,0,0,.53.52Z"/><path class="cls-2" d="M124.85,97.46a.53.53,0,0,0,0-1.05.53.53,0,0,0,0,1.05Z"/><path class="cls-2" d="M128,94a.53.53,0,0,0,0-1.05A.53.53,0,0,0,128,94Z"/><path class="cls-2" d="M123.57,102.36a.53.53,0,0,0,0-1.05.53.53,0,0,0,0,1.05Z"/><path class="cls-2" d="M120.42,101.08a.53.53,0,0,0,0-1.05.53.53,0,0,0,0,1.05Z"/><path class="cls-2" d="M118.32,94.19a.53.53,0,0,0,0-1.05.53.53,0,0,0,0,1.05Z"/><path class="cls-2" d="M124.62,99.91a.53.53,0,0,0,0-1.05.53.53,0,0,0,0,1.05Z"/><path class="cls-2" d="M120.65,95.94a.53.53,0,0,0,0-1,.53.53,0,0,0,0,1Z"/><path class="cls-2" d="M112.25,102.83a.53.53,0,0,0,0-1.05.53.53,0,0,0,0,1.05Z"/><path class="cls-2" d="M116.69,103.06a.52.52,0,0,0,0-1,.52.52,0,0,0,0,1Z"/><path class="cls-2" d="M114.82,102.59a.53.53,0,0,0,0-1.05.53.53,0,0,0,0,1.05Z"/><path class="cls-2" d="M126.72,85.73a2.08,2.08,0,0,0,.42-.06l.15,0s.17,0,0,0a.53.53,0,0,0,.52-.52.53.53,0,0,0-.52-.53,1.58,1.58,0,0,0-.34.06,1.21,1.21,0,0,1-.25.05.52.52,0,1,0,0,1Z"/><path class="cls-2" d="M100.35,90a.53.53,0,0,0,0-1,.53.53,0,0,0,0,1Z"/><path class="cls-2" d="M120.65,103.06a.52.52,0,0,0,0-1,.52.52,0,0,0,0,1Z"/><path class="cls-2" d="M130.16,86.26h-.23a.53.53,0,0,0,0,1.05h.23a.53.53,0,0,0,0-1.05Z"/><path class="cls-2" d="M126.78,87.78a.53.53,0,0,0,0-1.05.53.53,0,0,0,0,1.05Z"/><path class="cls-2" d="M116.57,95.59a.52.52,0,0,0,0-1,.52.52,0,0,0,0,1Z"/><path class="cls-2" d="M122.05,95.13a.53.53,0,0,0,0-1,.53.53,0,0,0,0,1Z"/><path class="cls-2" d="M123.45,97a.53.53,0,0,0,0-1.05.53.53,0,0,0,0,1.05Z"/><path class="cls-2" d="M125.09,93.73a.53.53,0,0,0,0-1.05.53.53,0,0,0,0,1.05Z"/><path class="cls-2" d="M121.29,85.79a.53.53,0,0,0,0-1,.53.53,0,0,0,0,1Z"/><path class="cls-2" d="M117.56,87.54a.53.53,0,0,0,0-1.05.53.53,0,0,0,0,1.05Z"/><path class="cls-2" d="M118.49,85.79a.53.53,0,0,0,0-1,.53.53,0,0,0,0,1Z"/><path class="cls-2" d="M112.6,99.91a.53.53,0,0,0,0-1.05.53.53,0,0,0,0,1.05Z"/><path class="cls-2" d="M111,102.59a.53.53,0,0,0,0-1.05.53.53,0,0,0,0,1.05Z"/><path class="cls-2" d="M112.6,88.24a.53.53,0,0,0,0-1.05.53.53,0,0,0,0,1.05Z"/><path class="cls-2" d="M116.39,85.68a.53.53,0,0,0,0-1,.53.53,0,0,0,0,1Z"/><path class="cls-2" d="M108.29,99.79a.53.53,0,0,0,0-1.05.53.53,0,0,0,0,1.05Z"/><path class="cls-2" d="M111.9,96.29a.53.53,0,0,0,0-1,.53.53,0,0,0,0,1Z"/><path class="cls-2" d="M110.85,98.86a.53.53,0,0,0,0-1.05.53.53,0,0,0,0,1.05Z"/><path class="cls-2" d="M106,92.62a1.2,1.2,0,0,0,.39.84.52.52,0,0,0,.74-.74s-.13-.15-.06,0l0-.07s0,.15,0,0a.53.53,0,1,0-1.05,0Z"/><path class="cls-2" d="M107.41,95.59h.23a.53.53,0,0,0,0-1.05h-.23a.53.53,0,0,0,0,1.05Z"/><path class="cls-2" d="M105.43,100a.53.53,0,0,0,0-1.05.53.53,0,0,0,0,1.05Z"/><path class="cls-2" d="M107.64,98.16a.53.53,0,0,0,0-1.05.53.53,0,0,0,0,1.05Z"/><path class="cls-2" d="M105.43,95.48a.53.53,0,0,0,0-1,.53.53,0,0,0,0,1Z"/><path class="cls-2" d="M103.79,98.16a.53.53,0,0,0,0-1.05.53.53,0,0,0,0,1.05Z"/><path class="cls-2" d="M101.11,95.36a.53.53,0,0,0,0-1.05.53.53,0,0,0,0,1.05Z"/><path class="cls-2" d="M104.73,91.86a.52.52,0,0,0,0-1,.52.52,0,0,0,0,1Z"/><path class="cls-2" d="M102.45,91.39a.53.53,0,0,0,0-1,.53.53,0,0,0,0,1Z"/><path class="cls-2" d="M114.73,70.05c.24-.61.62-.61.86,0s.67.64,1,.05.68-.55.85.09.6.7,1,.15.74-.47.84.18.53.76.94.25.78-.39.82.27.44.81.91.35.82-.31.78.35.36.86.87.44.85-.22.74.43.26.89.82.53.86-.13.69.5.17.91.76.61.87,0,.64.57.07.92.69.69.87.05.57.64,0,.93.61.76.86.14.5.69-.12.92.53.82.84.23.43.74-.22.9.44.87.81.32.35.78-.31.87.35.91.78.4.27.82-.4.84.25.94.73.48.18.84-.48.79.15,1,.68.55.09.85-.56.74.05,1,.61.62,0,.86-.64.67-.05,1,.55.68-.09.85-.7.6-.15,1,.47.74-.18.84-.76.53-.25.94.39.78-.27.82-.81.44-.35.91.31.82-.35.78-.86.36-.44.87.22.85-.43.74-.89.26-.53.82.13.86-.5.69-.91.17-.61.76,0,.87-.57.64-.92.07-.69.69-.05.87-.64.57-.93,0-.76.61-.14.86-.69.51-.92-.12-.82.53-.23.84-.74.43-.9-.22-.87.44-.32.81-.78.35-.88-.31-.91.35-.4.78-.82.26-.84-.4-.94.25-.48.73-.84.18-.79-.48-1,.15-.55.68-.85.09-.74-.56-1,.05-.62.62-.86,0-.67-.64-1-.05-.68.55-.85-.09-.6-.7-1-.15-.74.47-.84-.18-.53-.76-.94-.25-.78.39-.82-.26-.44-.81-.91-.35-.82.31-.78-.35-.36-.86-.87-.44-.85.22-.74-.43-.26-.89-.82-.53-.86.13-.69-.51-.17-.91-.76-.61-.87,0-.64-.57-.07-.92-.69-.69-.87-.05-.57-.64,0-.93-.61-.76-.86-.14-.5-.69.12-.92-.53-.82-.84-.23-.43-.74.22-.9-.44-.87-.81-.32-.35-.78.31-.88-.35-.91-.78-.4-.27-.82.4-.84-.25-.94-.73-.48-.18-.84.48-.79-.15-1-.68-.55-.09-.85.56-.74-.05-1-.61-.62,0-.86.64-.67.05-1-.55-.68.09-.85.7-.6.15-1-.47-.74.18-.84.76-.53.25-.94-.39-.78.27-.82.81-.44.35-.91-.31-.82.35-.78.86-.36.44-.87-.22-.85.43-.74.89-.26.53-.82-.13-.86.5-.69.91-.17.61-.76,0-.87.57-.64.92-.07.69-.69.05-.87.64-.57.93,0,.76-.61.14-.86.69-.5.92.12.82-.53.23-.84.74-.43.9.22.87-.44.32-.81.78-.35.87.31.91-.35.4-.78.82-.27.84.4.94-.25.48-.73.84-.18.79.48,1-.15.55-.68.85-.09S114.5,70.67,114.73,70.05Z"/><path class="cls-2" d="M120.26,89.77c3.68,0,3.68-5.71,0-5.71s-3.68,5.71,0,5.71Z"/><path class="cls-2" d="M109.2,83.69c3.68,0,3.68-5.71,0-5.71s-3.68,5.71,0,5.71Z"/><path class="cls-2" d="M108.15,98.19c3.68,0,3.68-5.7,0-5.7s-3.68,5.7,0,5.7Z"/><path class="cls-2" d="M122.23,98.48c3.68,0,3.68-5.7,0-5.7s-3.68,5.7,0,5.7Z"/><path class="cls-2" d="M118.24,81.15c2.82,0,2.82-4.37,0-4.37s-2.82,4.37,0,4.37Z"/><path class="cls-2" d="M103.72,90.23a1.76,1.76,0,1,0,0-3.51,1.76,1.76,0,1,0,0,3.51Z"/><path class="cls-2" d="M114.82,100.5a1.76,1.76,0,1,0,0-3.51,1.76,1.76,0,1,0,0,3.51Z"/><circle class="cls-3" cx="59.64" cy="55.61" r="22.86"/><rect class="cls-3" x="58.85" y="22.24" width="1.57" height="11.55"/><rect class="cls-3" x="58.85" y="77.88" width="1.57" height="11.55"/><rect class="cls-3" x="81.68" y="55.05" width="11.55" height="1.57"/><rect class="cls-3" x="26.05" y="55.05" width="11.55" height="1.57"/><rect class="cls-3" x="73.53" y="35.38" width="11.56" height="1.57" transform="translate(-2.33 66.71) rotate(-45.02)"/><rect class="cls-3" x="34.19" y="74.72" width="11.55" height="1.57" transform="translate(-41.68 50.35) rotate(-44.98)"/><rect class="cls-3" x="78.52" y="69.73" width="1.57" height="11.56" transform="translate(-30.16 78.2) rotate(-45)"/><rect class="cls-3" x="39.19" y="30.39" width="1.57" height="11.55" transform="translate(-13.87 38.86) rotate(-45)"/><rect class="cls-3" x="65.2" y="29.65" width="11.56" height="1.57" transform="translate(14.28 82.87) rotate(-65.97)"/><rect class="cls-3" x="42.53" y="80.45" width="11.56" height="1.57" transform="translate(-45.56 92.26) rotate(-65.96)"/><rect class="cls-3" x="84.25" y="61.4" width="1.57" height="11.56" transform="translate(-10.97 117.45) rotate(-65.94)"/><rect class="cls-3" x="33.45" y="38.72" width="1.57" height="11.55" transform="translate(-20.35 57.62) rotate(-65.94)"/><rect class="cls-3" x="79.84" y="45.11" width="11.55" height="1.57" transform="translate(-10.74 33.61) rotate(-20.93)"/><rect class="cls-3" x="27.89" y="64.99" width="11.55" height="1.57" transform="translate(-21.31 16.4) rotate(-20.97)"/><rect class="cls-3" x="68.8" y="76.04" width="1.57" height="11.55" transform="translate(-24.65 30.28) rotate(-20.94)"/><rect class="cls-3" x="48.91" y="24.08" width="1.57" height="11.55" transform="translate(-7.39 19.74) rotate(-20.94)"/><circle class="cls-2" cx="90.65" cy="58.28" r="2.75"/><circle class="cls-2" cx="26.05" cy="55.84" r="2.75"/><circle class="cls-2" cx="59.64" cy="89.43" r="2.75"/><circle class="cls-2" cx="59.59" cy="23.72" r="2.75"/><circle class="cls-2" cx="83.4" cy="79.59" r="2.75" transform="translate(-31.85 82.28) rotate(-45)"/><circle class="cls-2" cx="35.89" cy="32.08" r="2.75" transform="translate(-12.18 34.77) rotate(-45)"/><circle class="cls-2" cx="35.89" cy="79.59" r="2.75" transform="translate(-45.77 48.69) rotate(-45)"/><circle class="cls-2" cx="83.4" cy="32.08" r="2.75" transform="translate(1.74 68.37) rotate(-45)"/><circle class="cls-2" cx="90.36" cy="69.43" r="2.75" transform="translate(-9.68 123.98) rotate(-66.14)"/><circle class="cls-2" cx="28.92" cy="42.25" r="2.75" transform="translate(-21.42 51.6) rotate(-66.14)"/><circle class="cls-2" cx="46.05" cy="86.56" r="2.75" transform="translate(-51.74 93.66) rotate(-66.14)"/><circle class="cls-2" cx="73.23" cy="25.12" r="2.75" transform="translate(20.64 81.93) rotate(-66.14)"/><circle class="cls-2" cx="71.76" cy="87.17" r="2.75" transform="translate(-26.61 31.75) rotate(-21.14)"/><circle class="cls-2" cx="47.53" cy="24.5" r="2.75" transform="translate(-5.64 18.79) rotate(-21.14)"/><circle class="cls-2" cx="28.31" cy="67.95" r="2.75" transform="translate(-22.6 14.78) rotate(-21.14)"/><circle class="cls-2" cx="88.39" cy="46.16" r="2.75" transform="translate(-10.7 34.98) rotate(-21.14)"/><circle class="cls-2" cx="50.45" cy="62.41" r="4.85"/><circle class="cls-2" cx="50.45" cy="52.72" r="4.85"/><circle class="cls-2" cx="60.15" cy="53.82" r="4.85"/><circle class="cls-2" cx="59.64" cy="63.01" r="4.34"/><circle class="cls-2" cx="68.32" cy="47.87" r="4.34"/><circle class="cls-2" cx="69.34" cy="66.58" r="4.34"/><circle class="cls-2" cx="54.79" cy="57.06" r="4.34"/><circle class="cls-2" cx="55.3" cy="72.65" r="4.34"/><circle class="cls-2" cx="49.94" cy="43.52" r="4.34"/><circle class="cls-2" cx="59.64" cy="46.99" r="4.34"/><circle class="cls-2" cx="68.32" cy="58.67" r="4.34"/></g></svg>