<svg xmlns="http://www.w3.org/2000/svg" viewBox="0 0 164.67 162.06"><defs><style>.cls-1,.cls-4,.cls-5{fill:#ee4e9c;}.cls-1,.cls-2,.cls-4{stroke:#fff;}.cls-1,.cls-2,.cls-3,.cls-4{stroke-miterlimit:10;}.cls-1{stroke-width:1.1px;}.cls-2{fill:#4db2e5;}.cls-2,.cls-3{stroke-width:1.1px;}.cls-3{fill:#fff;stroke:#4db2e5;}.cls-4{stroke-width:0.58px;}</style></defs><title>germdown</title><g id="Layer_2" data-name="Layer 2"><circle class="cls-1" cx="103.13" cy="55.95" r="6.84"/><circle class="cls-1" cx="114.21" cy="62.8" r="6.84"/><circle class="cls-1" cx="114.21" cy="49.11" r="6.84"/><circle class="cls-1" cx="127.89" cy="50.67" r="6.84"/><circle class="cls-1" cx="127.18" cy="63.64" r="6.13"/><circle class="cls-1" cx="139.43" cy="42.27" r="6.13"/><circle class="cls-1" cx="140.86" cy="68.67" r="6.13"/><circle class="cls-2" cx="95.91" cy="98.01" r="6.13"/><circle class="cls-2" cx="95.22" cy="79.7" r="6.13"/><circle class="cls-2" cx="78.98" cy="105.9" r="6.13"/><circle class="cls-2" cx="66.73" cy="98.59" r="6.13"/><circle class="cls-3" cx="60.01" cy="87.26" r="6.13"/><circle class="cls-2" cx="72.27" cy="87.26" r="6.13"/><circle class="cls-1" cx="120.33" cy="55.24" r="6.13"/><circle class="cls-1" cx="113.49" cy="36.14" r="6.13"/><circle class="cls-2" cx="108.19" cy="78.87" r="6.13"/><circle class="cls-1" cx="139.43" cy="57.51" r="6.13"/><circle class="cls-1" cx="103.13" cy="43.83" r="6.13"/><path class="cls-4" d="M55.92,107.33c2.33,2,1.64,7.53,1.63,10.53,0,6,9.31,6,9.33,0,0-5.63.35-13.09-4.36-17.12-4.54-3.89-11.17,2.68-6.6,6.6Z"/><path class="cls-4" d="M54.13,135.3c.81-1.23,1.5-2.55,2.22-3.83q.57-1,1.21-2c-.59.87,1.36-1.06.08-.17A4.74,4.74,0,0,0,59.29,123c-1.23-2.07-4.29-3.09-6.39-1.64-2.32,1.6-3.74,3.93-5.11,6.35-.64,1.14-1.28,2.27-2,3.36l-.19.26-.31.34c-5.15,1-4.84,9.41.88,9.23C49.88,140.75,52.24,138.2,54.13,135.3Z"/><path class="cls-5" d="M88.61,127.4c.64-1.33,1.14-2.73,1.69-4.09q.43-1.07.94-2.1c-.47.94,1.21-1.23.05-.18a4.74,4.74,0,0,0,.77-6.55c-1.49-1.89-4.67-2.48-6.55-.77-2.09,1.9-3.18,4.4-4.21,7-.48,1.21-1,2.42-1.52,3.6l-.15.29-.26.38c-5,1.67-3.53,10,2.11,9C85.13,133.36,87.12,130.52,88.61,127.4Z"/><path class="cls-5" d="M87.57,107.27c-1.35,4-3,7.82-4.16,11.83-1.74,5.78,7.27,8.22,9,2.48,1.21-4,2.82-7.87,4.16-11.83,1.94-5.71-7.07-8.14-9-2.48Z"/><path class="cls-4" d="M44.61,105.71a20.36,20.36,0,0,0-13.13-5.36c-6-.13-6,9.2,0,9.33A10.07,10.07,0,0,1,38,112.31a4.75,4.75,0,0,0,6.6,0c1.69-1.69,1.93-4.94,0-6.6Z"/><path class="cls-4" d="M39.55,123.46c-1-6-8.38-8.3-13-10.78-5.29-2.86-10,5.2-4.71,8.05,1.87,1,3.82,1.84,5.69,2.84.48.26,1,.54,1.42.83-.09-.06,1.31.93.74.47a9.08,9.08,0,0,1,1,1q-.44-.56,0,.1-.33-.77-.15,0c.4,2.51,3.5,3.87,5.74,3.26,2.65-.73,3.65-3.23,3.26-5.74Z"/><path class="cls-4" d="M81,136.66c.4-2.6.92-5.23,2.63-7.27s1.92-4.68,0-6.6c-1.68-1.68-5-2-6.6,0a22.53,22.53,0,0,0-5,11.39c-.38,2.51.59,5,3.26,5.74,2.23.61,5.35-.74,5.74-3.26Z"/><path class="cls-4" d="M58.26,104.4a32,32,0,0,0-15,0c-5.8,1.57-3.34,10.57,2.48,9a21.62,21.62,0,0,1,10,0c5.86,1.29,8.35-7.7,2.48-9Z"/><path class="cls-4" d="M74.7,123.56c1.36-2.48,3.82-5.56,6.8-5.69,6-.25,6-9.58,0-9.33-6.47.27-11.84,4.8-14.85,10.3-2.89,5.28,5.17,10,8.05,4.71Z"/><path class="cls-3" d="M96.79,79.56a24,24,0,0,0-6.22-3.72,31,31,0,0,1-6.94-4.28c-2-1.57-4.64-2-6.6,0-1.64,1.64-2,5,0,6.6a44.76,44.76,0,0,0,6.73,4.78c2.07,1.09,4.62,1.68,6.42,3.22a4.75,4.75,0,0,0,6.6,0c1.69-1.69,1.94-4.95,0-6.6Z"/><path class="cls-2" d="M116,99.61a1.5,1.5,0,0,0,.48,1,.65.65,0,1,0,.93-.93s-.17-.19-.07-.06l-.05-.09s0,.18,0,0a.66.66,0,0,0-1.31,0Z"/><path class="cls-2" d="M117.82,103.32h.29a.66.66,0,0,0,0-1.31h-.29a.66.66,0,0,0,0,1.31Z"/><path class="cls-2" d="M122,100.77v-.15a.66.66,0,0,0-1.31,0v.15a.66.66,0,0,0,1.31,0Z"/><path class="cls-2" d="M122,105.07a.66.66,0,0,0,0-1.31.66.66,0,0,0,0,1.31Z"/><path class="cls-2" d="M134.13,107.18a1.43,1.43,0,0,0,.42-.11l.16-.13c.1-.09-.14.07,0,0l-.33.09h0a.67.67,0,0,0,.65-.66.66.66,0,0,0-.65-.66,1.44,1.44,0,0,0-.42.11l-.16.13c-.1.09.14-.07,0,0l.33-.09h0a.67.67,0,0,0-.66.66.66.66,0,0,0,.66.66Z"/><path class="cls-2" d="M130.63,100.12a.66.66,0,0,0,0-1.31.66.66,0,0,0,0,1.31Z"/><path class="cls-2" d="M130.63,105.79a.66.66,0,0,0,0-1.31.66.66,0,0,0,0,1.31Z"/><path class="cls-2" d="M129,106.23a.66.66,0,0,0,0-1.31.66.66,0,0,0,0,1.31Z"/><path class="cls-2" d="M125.1,104.63a.66.66,0,0,0,0-1.31.66.66,0,0,0,0,1.31Z"/><path class="cls-2" d="M122.48,96a.66.66,0,0,0,0-1.31.66.66,0,0,0,0,1.31Z"/><path class="cls-2" d="M130.34,103.17a.66.66,0,0,0,0-1.31.66.66,0,0,0,0,1.31Z"/><path class="cls-2" d="M125.39,98.22a.66.66,0,0,0,0-1.31.66.66,0,0,0,0,1.31Z"/><path class="cls-2" d="M114.47,105.79a.66.66,0,0,0,0-1.31.66.66,0,0,0,0,1.31Z"/><path class="cls-2" d="M121.83,108.12a.66.66,0,0,0,0-1.31.66.66,0,0,0,0,1.31Z"/><path class="cls-2" d="M118.11,106.52a.66.66,0,0,0,0-1.31.66.66,0,0,0,0,1.31Z"/><path class="cls-2" d="M123.94,111a2.68,2.68,0,0,0,.53-.08l.19-.05s.21,0,0,0a.67.67,0,0,0,.66-.66.66.66,0,0,0-.66-.66,1.94,1.94,0,0,0-.42.08,1.53,1.53,0,0,1-.31.07.66.66,0,0,0,0,1.31Z"/><path class="cls-2" d="M129.91,108.85a.66.66,0,0,0,0-1.31.66.66,0,0,0,0,1.31Z"/><path class="cls-2" d="M125.39,107.1a.66.66,0,0,0,0-1.31.66.66,0,0,0,0,1.31Z"/><path class="cls-2" d="M132.53,110.16h-.29a.66.66,0,0,0,0,1.31h.29a.66.66,0,0,0,0-1.31Z"/><path class="cls-2" d="M140.64,108.12a.66.66,0,0,0,0-1.31.66.66,0,0,0,0,1.31Z"/><path class="cls-2" d="M120.3,97.79a.66.66,0,0,0,0-1.31.66.66,0,0,0,0,1.31Z"/><path class="cls-2" d="M127.14,97.2a.66.66,0,0,0,0-1.31.66.66,0,0,0,0,1.31Z"/><path class="cls-2" d="M128.89,99.53a.66.66,0,0,0,0-1.31.66.66,0,0,0,0,1.31Z"/><path class="cls-2" d="M130.93,95.46a.66.66,0,0,0,0-1.31.66.66,0,0,0,0,1.31Z"/><path class="cls-2" d="M121.46,111.76a.66.66,0,0,0,0-1.31.66.66,0,0,0,0,1.31Z"/><path class="cls-2" d="M116.8,111.76a.66.66,0,0,0,0-1.31.66.66,0,0,0,0,1.31Z"/><path class="cls-2" d="M118.19,110a.66.66,0,0,0,0-1.31.66.66,0,0,0,0,1.31Z"/><path class="cls-2" d="M115.35,103.17a.66.66,0,0,0,0-1.31.66.66,0,0,0,0,1.31Z"/><path class="cls-2" d="M111.27,106.23a.66.66,0,0,0,0-1.31.66.66,0,0,0,0,1.31Z"/><path class="cls-2" d="M106.54,104a.66.66,0,0,0,0-1.31.66.66,0,0,0,0,1.31Z"/><path class="cls-2" d="M115.35,109.43a.65.65,0,0,0,0-1.31.65.65,0,0,0,0,1.31Z"/><path class="cls-2" d="M111.63,103.32a.66.66,0,0,0,0-1.31.66.66,0,0,0,0,1.31Z"/><path class="cls-2" d="M109.6,98a.66.66,0,0,0,0-1.31.66.66,0,0,0,0,1.31Z"/><path class="cls-2" d="M112.07,100.12a.66.66,0,0,0,0-1.31.66.66,0,0,0,0,1.31Z"/><path class="cls-2" d="M135.15,97.5a1.49,1.49,0,0,0,.48,1,.66.66,0,0,0,.93-.93s-.17-.19-.07-.06l-.05-.09s0,.18,0,0a.66.66,0,0,0-1.31,0Z"/><path class="cls-2" d="M114.55,88.47h.29a.66.66,0,0,0,0-1.31h-.29a.66.66,0,0,0,0,1.31Z"/><path class="cls-2" d="M118.7,85.92v-.15a.66.66,0,0,0-1.31,0v.15a.66.66,0,0,0,1.31,0Z"/><path class="cls-2" d="M118.77,90.22a.66.66,0,0,0,0-1.31.66.66,0,0,0,0,1.31Z"/><path class="cls-2" d="M122.85,87.3a1.43,1.43,0,0,0,.42-.11l.16-.13c.1-.09-.14.07,0,0l-.33.09h0a.67.67,0,0,0,.66-.66.66.66,0,0,0-.66-.65,1.41,1.41,0,0,0-.42.11l-.16.13c-.1.09.14-.07,0,0l.33-.09h0a.67.67,0,0,0-.65.65.65.65,0,0,0,.65.66Z"/><path class="cls-2" d="M141.7,98a.66.66,0,0,0,0-1.31.66.66,0,0,0,0,1.31Z"/><path class="cls-2" d="M127.36,90.94a.66.66,0,0,0,0-1.31.66.66,0,0,0,0,1.31Z"/><path class="cls-2" d="M125.76,91.38a.66.66,0,0,0,0-1.31.66.66,0,0,0,0,1.31Z"/><path class="cls-2" d="M121.83,89.78a.66.66,0,0,0,0-1.31.66.66,0,0,0,0,1.31Z"/><path class="cls-2" d="M133.55,93.93a.66.66,0,0,0,0-1.31.66.66,0,0,0,0,1.31Z"/><path class="cls-2" d="M127.07,88.32a.66.66,0,0,0,0-1.31.66.66,0,0,0,0,1.31Z"/><path class="cls-2" d="M136.46,96.11a.66.66,0,0,0,0-1.31.66.66,0,0,0,0,1.31Z"/><path class="cls-2" d="M111.63,92a.66.66,0,0,0,0-1.31.66.66,0,0,0,0,1.31Z"/><path class="cls-2" d="M117.17,92.25a.66.66,0,0,0,0-1.31.66.66,0,0,0,0,1.31Z"/><path class="cls-2" d="M114.84,91.67a.66.66,0,0,0,0-1.31.66.66,0,0,0,0,1.31Z"/><path class="cls-2" d="M105.56,100.92a2.56,2.56,0,0,0,.53-.08l.19-.05s.21,0,0,0a.67.67,0,0,0,.66-.66.66.66,0,0,0-.66-.65,2,2,0,0,0-.42.08,1.39,1.39,0,0,1-.31.07.66.66,0,1,0,0,1.31Z"/><path class="cls-2" d="M126.63,94a.66.66,0,0,0,0-1.31.66.66,0,0,0,0,1.31Z"/><path class="cls-2" d="M122.12,92.25a.66.66,0,0,0,0-1.31.66.66,0,0,0,0,1.31Z"/><path class="cls-2" d="M129.25,95.31H129a.66.66,0,0,0,0,1.31h.29a.66.66,0,0,0,0-1.31Z"/><path class="cls-2" d="M125,97.2a.66.66,0,0,0,0-1.31.66.66,0,0,0,0,1.31Z"/><path class="cls-2" d="M131.36,95.68a.66.66,0,0,0,0-1.31.66.66,0,0,0,0,1.31Z"/><path class="cls-2" d="M138.2,95.09a.66.66,0,0,0,0-1.31.66.66,0,0,0,0,1.31Z"/><path class="cls-2" d="M140,97.42a.65.65,0,0,0,0-1.31.65.65,0,0,0,0,1.31Z"/><path class="cls-2" d="M133.91,89a.66.66,0,0,0,0-1.31.66.66,0,0,0,0,1.31Z"/><path class="cls-2" d="M118.19,94.73a.66.66,0,0,0,0-1.31.66.66,0,0,0,0,1.31Z"/><path class="cls-2" d="M114.55,98.73a.66.66,0,0,0,0-1.31.66.66,0,0,0,0,1.31Z"/><path class="cls-2" d="M114.69,94.73a.66.66,0,0,0,0-1.31.66.66,0,0,0,0,1.31Z"/><path class="cls-2" d="M112.07,88.32a.66.66,0,0,0,0-1.31.66.66,0,0,0,0,1.31Z"/><path class="cls-2" d="M110,91.67a.66.66,0,0,0,0-1.31.66.66,0,0,0,0,1.31Z"/><path class="cls-2" d="M107.56,96.91a.66.66,0,0,0,0-1.31.66.66,0,0,0,0,1.31Z"/><path class="cls-2" d="M112.07,94.58a.66.66,0,0,0,0-1.31.66.66,0,0,0,0,1.31Z"/><path class="cls-2" d="M104.28,96.91a.66.66,0,0,0,0-1.31.66.66,0,0,0,0,1.31Z"/><path class="cls-2" d="M132.24,92a.66.66,0,0,0,0-1.31.66.66,0,0,0,0,1.31Z"/><path class="cls-2" d="M108.51,112.35a.66.66,0,0,0,0-1.31.66.66,0,0,0,0,1.31Z"/><path class="cls-2" d="M120.88,115.91a1.5,1.5,0,0,0,.48,1,.66.66,0,0,0,.93-.93s-.17-.19-.07-.06l-.05-.09s0,.18,0,0a.66.66,0,1,0-1.31,0Z"/><path class="cls-2" d="M122.7,119.62H123a.66.66,0,0,0,0-1.31h-.29a.66.66,0,0,0,0,1.31Z"/><path class="cls-2" d="M126.85,117.08v-.15a.66.66,0,0,0-1.31,0v.15a.66.66,0,0,0,1.31,0Z"/><path class="cls-2" d="M126.92,121.37a.66.66,0,0,0,0-1.31.66.66,0,0,0,0,1.31Z"/><path class="cls-2" d="M131,118.46a1.38,1.38,0,0,0,.42-.11l.16-.12c.1-.09-.14.07,0,0l-.33.09h0a.67.67,0,0,0,.66-.66.65.65,0,0,0-.66-.65,1.42,1.42,0,0,0-.42.11l-.16.13c-.1.09.14-.06,0,0l.33-.09h0a.67.67,0,0,0-.66.66.66.66,0,0,0,.66.66Z"/><path class="cls-2" d="M135.51,116.42a.66.66,0,0,0,0-1.31.66.66,0,0,0,0,1.31Z"/><path class="cls-2" d="M139.41,112.05a.66.66,0,0,0,0-1.31.66.66,0,0,0,0,1.31Z"/><path class="cls-2" d="M133.91,122.54a.66.66,0,0,0,0-1.31.66.66,0,0,0,0,1.31Z"/><path class="cls-2" d="M130,120.94a.66.66,0,0,0,0-1.31.66.66,0,0,0,0,1.31Z"/><path class="cls-2" d="M127.36,112.35a.66.66,0,0,0,0-1.31.66.66,0,0,0,0,1.31Z"/><path class="cls-2" d="M135.22,119.48a.66.66,0,0,0,0-1.31.66.66,0,0,0,0,1.31Z"/><path class="cls-2" d="M130.27,114.53a.66.66,0,0,0,0-1.31.66.66,0,0,0,0,1.31Z"/><path class="cls-2" d="M119.79,123.12a.66.66,0,0,0,0-1.31.66.66,0,0,0,0,1.31Z"/><path class="cls-2" d="M125.32,123.41a.66.66,0,0,0,0-1.31.66.66,0,0,0,0,1.31Z"/><path class="cls-2" d="M123,122.83a.66.66,0,0,0,0-1.31.66.66,0,0,0,0,1.31Z"/><path class="cls-2" d="M137.84,101.79a2.59,2.59,0,0,0,.53-.08l.19-.05s.21,0,0,0a.67.67,0,0,0,.66-.65.66.66,0,0,0-.66-.66,2,2,0,0,0-.42.08,1.5,1.5,0,0,1-.31.07.66.66,0,1,0,0,1.31Z"/><path class="cls-2" d="M104.94,107.1a.66.66,0,0,0,0-1.31.66.66,0,0,0,0,1.31Z"/><path class="cls-2" d="M130.27,123.41a.66.66,0,0,0,0-1.31.66.66,0,0,0,0,1.31Z"/><path class="cls-2" d="M142.14,102.45h-.29a.66.66,0,0,0,0,1.31h.29a.66.66,0,0,0,0-1.31Z"/><path class="cls-2" d="M137.91,104.34a.66.66,0,0,0,0-1.31.66.66,0,0,0,0,1.31Z"/><path class="cls-2" d="M125.17,114.09a.66.66,0,0,0,0-1.31.66.66,0,0,0,0,1.31Z"/><path class="cls-2" d="M132,113.51a.66.66,0,0,0,0-1.31.66.66,0,0,0,0,1.31Z"/><path class="cls-2" d="M133.76,115.84a.66.66,0,0,0,0-1.31.66.66,0,0,0,0,1.31Z"/><path class="cls-2" d="M135.8,111.76a.66.66,0,0,0,0-1.31.66.66,0,0,0,0,1.31Z"/><path class="cls-2" d="M131.07,101.86a.66.66,0,0,0,0-1.31.66.66,0,0,0,0,1.31Z"/><path class="cls-2" d="M126.41,104a.66.66,0,0,0,0-1.31.66.66,0,0,0,0,1.31Z"/><path class="cls-2" d="M127.58,101.86a.66.66,0,0,0,0-1.31.66.66,0,0,0,0,1.31Z"/><path class="cls-2" d="M120.22,119.48a.66.66,0,0,0,0-1.31.66.66,0,0,0,0,1.31Z"/><path class="cls-2" d="M118.19,122.83a.66.66,0,0,0,0-1.31.66.66,0,0,0,0,1.31Z"/><path class="cls-2" d="M120.22,104.92a.66.66,0,0,0,0-1.31.66.66,0,0,0,0,1.31Z"/><path class="cls-2" d="M125,101.72a.66.66,0,0,0,0-1.31.66.66,0,0,0,0,1.31Z"/><path class="cls-2" d="M114.84,119.33a.66.66,0,0,0,0-1.31.66.66,0,0,0,0,1.31Z"/><path class="cls-2" d="M119.35,115a.66.66,0,0,0,0-1.31.66.66,0,0,0,0,1.31Z"/><path class="cls-2" d="M118,118.17a.66.66,0,0,0,0-1.31.66.66,0,0,0,0,1.31Z"/><path class="cls-2" d="M111.93,110.38a1.49,1.49,0,0,0,.48,1,.66.66,0,0,0,.93-.93s-.17-.19-.07-.06l-.06-.09s0,.18,0,0a.66.66,0,1,0-1.31,0Z"/><path class="cls-2" d="M113.75,114.09H114a.66.66,0,0,0,0-1.31h-.29a.66.66,0,0,0,0,1.31Z"/><path class="cls-2" d="M111.27,119.62a.66.66,0,0,0,0-1.31.66.66,0,0,0,0,1.31Z"/><path class="cls-2" d="M114,117.3a.66.66,0,0,0,0-1.31.66.66,0,0,0,0,1.31Z"/><path class="cls-2" d="M111.27,113.95a.66.66,0,0,0,0-1.31.66.66,0,0,0,0,1.31Z"/><path class="cls-2" d="M109.23,117.3a.66.66,0,0,0,0-1.31.66.66,0,0,0,0,1.31Z"/><path class="cls-2" d="M105.88,113.8a.66.66,0,0,0,0-1.31.66.66,0,0,0,0,1.31Z"/><path class="cls-2" d="M110.4,109.43a.65.65,0,0,0,0-1.31.65.65,0,0,0,0,1.31Z"/><path class="cls-2" d="M107.56,108.85a.66.66,0,0,0,0-1.31.66.66,0,0,0,0,1.31Z"/><path class="cls-2" d="M122.88,82.22c.29-.77.78-.77,1.07,0s.84.8,1.21.06.85-.68,1.06.11.75.88,1.2.19.92-.59,1,.22.66,1,1.17.32,1-.49,1,.33.55,1,1.13.44,1-.39,1,.44.44,1.07,1.08.55,1.06-.28.93.54.33,1.11,1,.66,1.08-.16.87.63.21,1.14.94.76,1.09-.05.8.72.09,1.15.86.86,1.09.06.72.8,0,1.16.76.94,1.08.18.63.87-.15,1.15.66,1,1.05.29.54.93-.27,1.13.55,1.08,1,.4.44,1-.39,1.09.44,1.13,1,.5.33,1-.5,1,.31,1.17.91.6.22,1-.6,1,.19,1.2.84.69.11,1.06-.7.92.06,1.21.77.78,0,1.07-.8.84-.06,1.21.68.85-.11,1.06-.88.75-.19,1.2.59.92-.22,1-1,.66-.31,1.17.49,1-.33,1-1,.55-.44,1.13.39,1-.44,1-1.07.44-.55,1.08.28,1.06-.54.93-1.11.33-.66,1,.16,1.08-.63.87-1.14.21-.76.94.05,1.09-.72.8-1.15.09-.86.86-.06,1.09-.8.72-1.16,0-.94.76-.18,1.08-.87.63-1.15-.15-1,.66-.29,1.05-.93.53-1.13-.27-1.08.55-.4,1-1,.44-1.09-.39-1.13.44-.5,1-1,.33-1-.5-1.17.31-.6.91-1,.22-1-.6-1.2.19-.69.84-1.06.11-.92-.7-1.21.06-.78.77-1.07,0-.84-.8-1.21-.06-.85.68-1.06-.11-.75-.88-1.2-.19-.92.59-1-.22-.66-1-1.17-.31-1,.49-1-.33-.55-1-1.13-.44-1,.38-1-.44-.44-1.07-1.08-.55-1.06.28-.93-.53-.33-1.11-1-.66-1.08.16-.87-.63-.21-1.14-.94-.76-1.09.05-.8-.72-.09-1.15-.86-.86-1.09-.06-.72-.8,0-1.16-.76-.94-1.08-.18-.63-.87.15-1.15-.66-1-1.05-.29-.54-.93.27-1.13-.55-1.08-1-.4-.44-1,.39-1.09-.44-1.13-1-.5-.33-1,.5-1-.31-1.17-.91-.6-.22-1,.6-1-.19-1.2-.84-.69-.11-1.06.7-.92-.06-1.21-.77-.78,0-1.07.8-.84.06-1.21-.68-.85.11-1.06.88-.75.19-1.2-.59-.92.22-1,1-.66.31-1.17-.49-1,.33-1,1-.55.44-1.13-.39-1,.44-1,1.07-.44.55-1.08-.28-1.06.54-.93,1.11-.33.66-1-.16-1.08.63-.87,1.14-.21.76-.94-.05-1.09.72-.8,1.15-.09.86-.86.06-1.09.8-.72,1.16,0,.94-.76.18-1.08.87-.63,1.15.15,1-.66.29-1.05.93-.54,1.13.27,1.08-.55.4-1,1-.44,1.09.39,1.13-.44.5-1,1-.33,1,.5,1.17-.32.6-.91,1-.22,1,.6,1.2-.19.69-.84,1.06-.11S122.59,83,122.88,82.22Z"/><path class="cls-2" d="M129.79,106.82c4.59,0,4.59-7.12,0-7.12s-4.59,7.12,0,7.12Z"/><path class="cls-2" d="M116,99.24c4.59,0,4.59-7.12,0-7.12s-4.59,7.12,0,7.12Z"/><path class="cls-2" d="M114.67,117.33c4.59,0,4.59-7.12,0-7.12s-4.59,7.12,0,7.12Z"/><path class="cls-2" d="M132.24,117.7c4.59,0,4.59-7.12,0-7.12s-4.59,7.12,0,7.12Z"/><path class="cls-2" d="M127.26,96.07c3.52,0,3.52-5.46,0-5.46s-3.52,5.46,0,5.46Z"/><path class="cls-2" d="M109.14,107.4a2.2,2.2,0,1,0,0-4.38,2.2,2.2,0,1,0,0,4.38Z"/><path class="cls-2" d="M123,120.22a2.2,2.2,0,1,0,0-4.38,2.2,2.2,0,1,0,0,4.38Z"/><circle class="cls-3" cx="54.13" cy="64.19" r="28.52"/><rect class="cls-3" x="53.15" y="22.56" width="1.96" height="14.42"/><rect class="cls-3" x="53.15" y="91.98" width="1.96" height="14.42"/><rect class="cls-3" x="81.64" y="63.5" width="14.42" height="1.96"/><rect class="cls-3" x="12.21" y="63.5" width="14.42" height="1.96"/><rect class="cls-3" x="71.47" y="38.95" width="14.42" height="1.96" transform="translate(-5.18 67.37) rotate(-45.02)"/><rect class="cls-3" x="22.38" y="88.04" width="14.42" height="1.96" transform="translate(-54.27 46.97) rotate(-44.98)"/><rect class="cls-3" x="77.7" y="81.82" width="1.96" height="14.42" transform="translate(-39.91 81.71) rotate(-45)"/><rect class="cls-3" x="28.61" y="32.73" width="1.96" height="14.42" transform="translate(-19.57 32.62) rotate(-45)"/><rect class="cls-3" x="61.07" y="31.8" width="14.42" height="1.96" transform="translate(10.53 81.8) rotate(-65.97)"/><rect class="cls-3" x="32.77" y="95.2" width="14.42" height="1.96" transform="translate(-64.14 93.52) rotate(-65.96)"/><rect class="cls-3" x="84.85" y="71.42" width="1.96" height="14.42" transform="translate(-20.96 124.95) rotate(-65.94)"/><rect class="cls-3" x="21.45" y="43.12" width="1.96" height="14.42" transform="translate(-32.67 50.3) rotate(-65.94)"/><rect class="cls-3" x="79.34" y="51.09" width="14.42" height="1.96" transform="translate(-12.89 34.35) rotate(-20.93)"/><rect class="cls-3" x="14.5" y="75.91" width="14.42" height="1.96" transform="translate(-26.08 12.86) rotate(-20.97)"/><rect class="cls-3" x="65.56" y="89.69" width="1.96" height="14.42" transform="translate(-30.24 30.19) rotate(-20.94)"/><rect class="cls-3" x="40.74" y="24.85" width="1.96" height="14.42" transform="translate(-8.7 17.03) rotate(-20.94)"/><circle class="cls-2" cx="92.83" cy="67.52" r="3.43"/><circle class="cls-2" cx="12.21" cy="64.48" r="3.43"/><circle class="cls-2" cx="54.13" cy="106.4" r="3.43"/><circle class="cls-2" cx="54.08" cy="24.4" r="3.43"/><circle class="cls-2" cx="83.78" cy="94.13" r="3.43" transform="translate(-42.02 86.81) rotate(-45)"/><circle class="cls-2" cx="24.49" cy="34.84" r="3.43" transform="translate(-17.46 27.52) rotate(-45)"/><circle class="cls-2" cx="24.49" cy="94.13" r="3.43" transform="translate(-59.39 44.89) rotate(-45)"/><circle class="cls-2" cx="83.78" cy="34.84" r="3.43" transform="translate(-0.1 69.44) rotate(-45)"/><circle class="cls-2" cx="92.47" cy="81.44" r="3.43" transform="translate(-19.42 133.06) rotate(-66.14)"/><circle class="cls-2" cx="15.79" cy="47.52" r="3.43" transform="translate(-34.06 42.74) rotate(-66.14)"/><circle class="cls-2" cx="37.17" cy="102.82" r="3.43" transform="translate(-71.9 95.22) rotate(-66.14)"/><circle class="cls-2" cx="71.09" cy="26.14" r="3.43" transform="translate(18.43 80.59) rotate(-66.14)"/><circle class="cls-2" cx="69.25" cy="103.58" r="3.43" transform="translate(-32.7 31.95) rotate(-21.14)"/><circle class="cls-2" cx="39.02" cy="25.38" r="3.43" transform="translate(-6.53 15.78) rotate(-21.14)"/><circle class="cls-2" cx="15.03" cy="79.6" r="3.43" transform="translate(-27.7 10.78) rotate(-21.14)"/><circle class="cls-2" cx="90.01" cy="52.41" r="3.43" transform="matrix(0.93, -0.36, 0.36, 0.93, -12.84, 35.99)"/><circle class="cls-2" cx="42.66" cy="72.69" r="6.05"/><circle class="cls-2" cx="42.66" cy="60.59" r="6.05"/><circle class="cls-2" cx="54.77" cy="61.96" r="6.05"/><circle class="cls-2" cx="54.13" cy="73.43" r="5.42"/><circle class="cls-2" cx="64.97" cy="54.54" r="5.42"/><circle class="cls-2" cx="66.24" cy="77.88" r="5.42"/><circle class="cls-2" cx="48.08" cy="66" r="5.42"/><circle class="cls-2" cx="48.72" cy="85.47" r="5.42"/><circle class="cls-2" cx="42.03" cy="49.12" r="5.42"/><circle class="cls-2" cx="54.13" cy="53.44" r="5.42"/><circle class="cls-2" cx="64.97" cy="68.02" r="5.42"/></g></svg>