<svg xmlns="http://www.w3.org/2000/svg" viewBox="0 0 164.88 126.67"><defs><style>.cls-1,.cls-2,.cls-3{fill:#fff;}.cls-1,.cls-2{stroke:#ee4e9c;stroke-miterlimit:10;}.cls-1{stroke-width:1.9px;}.cls-2{stroke-width:2.38px;}.cls-4{fill:#ee4e9c;}</style></defs><title>girlarm</title><g id="Layer_2" data-name="Layer 2"><ellipse class="cls-1" cx="21.35" cy="24.74" rx="11.08" ry="7.7" transform="translate(-0.14 0.12) rotate(-0.32)"/><ellipse class="cls-2" cx="107.13" cy="21.76" rx="13.85" ry="9.63" transform="translate(-0.12 0.6) rotate(-0.32)"/><path class="cls-3" d="M52.38,40.09S41.17,13,29.53,24.67s6.35,18.89,8,22.14,5.5,8.33,5.5,11.29S52,100.28,57.46,104.37,79,122.85,73.32,89L51.62,38.4"/><path class="cls-4" d="M69.46,111.86c-3.81,0-8.41-3.54-11.4-5.83l-1.18-.9c-6.09-4.53-14.77-45-14.77-47,0-1.85-2-5.07-3.54-7.66-.7-1.15-1.36-2.23-1.86-3.19a14.89,14.89,0,0,0-3.07-2.67c-3.63-2.75-8.6-6.5-9-11.66-.2-3,1.19-6,4.15-8.92,2.59-2.59,5.4-3.61,8.34-3C46.13,22.74,53,39,53.26,39.72h0l21,49,0,.11C76.43,101.68,75.7,109,72,111.18A4.92,4.92,0,0,1,69.46,111.86ZM35.6,22.71a7.64,7.64,0,0,0-5.4,2.63c-2.56,2.55-3.77,5.06-3.6,7.45.3,4.29,4.87,7.75,8.21,10.27,1.8,1.36,3.11,2.35,3.61,3.31s1.11,2,1.79,3.08C42.08,52.53,44,55.72,44,58.11c0,3.4,9,41.79,14,45.5l1.2.91c3.1,2.38,8.86,6.81,11.84,5,2-1.18,3.79-5.66,1.34-20.28L50.78,38.85c-1.94-4.1-7.53-14.74-13.95-16A6.25,6.25,0,0,0,35.6,22.71Z"/><path class="cls-3" d="M40.68,51.58S50.1,55.9,54.07,44"/><path class="cls-4" d="M44.56,53.3a11.16,11.16,0,0,1-4.29-.85l.81-1.74a8.94,8.94,0,0,0,6.55.06c2.44-1.05,4.29-3.44,5.51-7.09l1.84.6c-1.4,4.2-3.62,7-6.6,8.26A9.68,9.68,0,0,1,44.56,53.3Z"/><path class="cls-3" d="M132.68,40.09S121.47,13,109.83,24.67s6.35,18.89,8,22.14,5.5,8.33,5.5,11.29,8.89,42.18,14.39,46.27S159.33,122.85,153.62,89l-21.7-50.6"/><path class="cls-4" d="M149.76,111.87c-3.81,0-8.41-3.54-11.4-5.83l-1.18-.9c-6.09-4.53-14.77-45-14.77-47,0-1.85-2-5.07-3.54-7.66-.7-1.15-1.36-2.23-1.86-3.19A14.89,14.89,0,0,0,114,44.59c-3.63-2.75-8.6-6.5-9-11.66-.2-3,1.19-6,4.15-8.92,2.59-2.59,5.4-3.61,8.34-3,8.93,1.78,15.77,18.06,16.06,18.75h0l21,49,0,.11c2.16,12.84,1.44,20.15-2.22,22.34A4.92,4.92,0,0,1,149.76,111.87ZM115.9,22.72a7.64,7.64,0,0,0-5.4,2.63c-2.56,2.55-3.77,5.06-3.6,7.45.3,4.29,4.87,7.75,8.21,10.27,1.8,1.36,3.11,2.35,3.61,3.31s1.11,2,1.79,3.08c1.88,3.08,3.81,6.27,3.81,8.65,0,3.4,9,41.79,14,45.5l1.2.91c3.1,2.38,8.86,6.81,11.84,5,2-1.18,3.79-5.66,1.34-20.28L131.07,38.85c-1.94-4.1-7.53-14.74-13.95-16A6.25,6.25,0,0,0,115.9,22.72Z"/><path class="cls-3" d="M121,51.59s9.42,4.31,13.39-7.6"/><path class="cls-4" d="M124.86,53.31a11.16,11.16,0,0,1-4.29-.85l.81-1.74a8.94,8.94,0,0,0,6.55.06c2.44-1.05,4.29-3.44,5.51-7.09l1.84.6c-1.4,4.2-3.62,7-6.6,8.26A9.68,9.68,0,0,1,124.86,53.31Z"/></g></svg>