<svg id="Layer_1" data-name="Layer 1" xmlns="http://www.w3.org/2000/svg" viewBox="0 0 252 455"><defs><style>.cls-1{fill:#4eb2e5;}</style></defs><title>girl</title><path class="cls-1" d="M123.95,141.1l-.62,1.1a22.16,22.16,0,0,0,10,2.54,15.94,15.94,0,0,0,8.83-2.56l-.69-1.06C133.43,146.33,124,141.15,123.95,141.1Z"/><path class="cls-1" d="M106.33,109.57a6.23,6.23,0,0,0-5.48,3.8H98.31a13.42,13.42,0,0,0,2.45.19,8.79,8.79,0,0,0-.76,3.61c0,4.2,2.83,7.6,6.33,7.6s6.33-3.4,6.33-7.6S109.83,109.57,106.33,109.57Zm1.48,7c-1.28,0-2.32-1.37-2.32-3.06s1-3.06,2.32-3.06,2.32,1.37,2.32,3.06S109.09,116.62,107.81,116.62Z"/><path class="cls-1" d="M164.05,112.74a12.5,12.5,0,0,1-2.67.16,6.12,6.12,0,0,0-5.24-3.34c-3.5,0-6.33,3.4-6.33,7.6s2.83,7.6,6.33,7.6,6.33-3.4,6.33-7.6a8.89,8.89,0,0,0-.51-3,14.15,14.15,0,0,0,2.3-.2Zm-9.39,3.87c-1.28,0-2.32-1.37-2.32-3.06s1-3.06,2.32-3.06,2.32,1.37,2.32,3.06S155.94,116.62,154.66,116.62Z"/><path class="cls-1" d="M192.26,102.14c27.86,9.54,38.14-16.81,38.14-16.81-15.25,5.08-17.15-5.22-17.15-5.22s3.81-29.72-3.81-37.34c-12.09-13.54-19.87-11.94-22.9-10.41-11.44-12.53-32.16-21.49-67.79-22.05-4.4-.4-25.87,4.55-42,18.75h0s-8.45-8.33-24.33,9.45c-7.62,7.62-3.81,37.34-3.81,37.34s-1.91,10.3-17.15,5.22c0,0,4.78,29,33.52,18.32h0c1.37,3.28,3,6.67,4.81,10.18,4.35,7.48,6.67,10.86,7.92,12.28a12.64,12.64,0,0,0-.78,5.23c0,10,9.05,15.33,9.44,15.55l.43.25a30.85,30.85,0,0,0,1,3.17l0,.11c1,2.21,2.92,6.66,33.21,15.84,0,1.4,0,5.11-1.61,7.08a28.56,28.56,0,0,1-5.12,3l-15.76,4.65v.14l-3,.57-.16,0c-.43.16-10.79,4.6-24.09,57.83l0,.14c-.53,1.71-9.06,16.58-14.37,25.65l0,.08a14.33,14.33,0,0,0-4.79.93,15.26,15.26,0,0,0-8.56,8.31l-.07.27a2.94,2.94,0,0,0,1.31,3.13c2.7,1.58,7.94-1.34,9.49-2.27l.12-.09a5.41,5.41,0,0,1,2.19.06A9.68,9.68,0,0,0,54,275a1.6,1.6,0,0,0,.27,1.55,1.92,1.92,0,0,0,1.56.51,30.28,30.28,0,0,0,3.27-.32c1.36-.17,3.06-.39,5.26-.61l.49,0,3.8-6.33.15.09.53-.68c.8-1,19.55-24.9,22.73-30.62,2.73-4.92,6.41-18.21,7.54-22.44l.61,22.22s-12,62.25-13.09,83.22c7.74,1.63,15.13,2.82,22.15,3.67l0,.23c0,.15,1.54,14.62,0,25-.53,4.35-1,7.58-1.43,10.17-1.47,9.46-1.74,11.17,2.15,29.53l.06.21.1.15c1.29,1.94,5.6,30.27,5.18,34.06-.09.79-1.21,2.69-2.29,4.53-2.55,4.34-5.72,9.73-3.75,13.05,1,1.71,3.12,2.54,6.44,2.54h.61l1.86-.05c10-.26,10.82-.28,11-8.66,0-2,.08-4.58.34-7.84l0-.31-.16-.26c-1.72-2.8-1.66-14.4-1.59-27.84.06-11.81.14-25.2-.81-38.15.43-7.18,4.17-34.26,4.21-34.53V327l1.52,0v.06c0,.27,3.77,27.36,4.21,34.53-.95,13-.88,26.34-.81,38.15.07,13.44.14,25-1.59,27.85l-.16.26,0,.31c.26,3.26.3,5.8.34,7.84.15,8.37,1,8.4,11,8.66l1.86.05h.61c3.32,0,5.43-.83,6.44-2.54,2-3.32-1.21-8.71-3.75-13.05-1.08-1.84-2.2-3.74-2.29-4.54-.42-3.79,3.88-32.13,5.17-34.06l.12-.16,0-.2c3.88-18.36,3.62-20.07,2.15-29.53-.4-2.6-.91-5.82-1.44-10.19-1.3-8.73-.41-20.42-.09-23.93,18.4-1.34,29.19-4.61,29.46-4.94-8.36-33.67-15.14-73.69-17-81.95-.7-3-.89-12.45-.84-23.12,1.43,5.22,4.69,16.6,7.17,21.06,3.18,5.72,21.93,29.6,22.73,30.62l.53.68.15-.09,3.8,6.33.49,0c2.2.22,3.89.44,5.26.61a30.28,30.28,0,0,0,3.27.32,1.92,1.92,0,0,0,1.56-.51,1.6,1.6,0,0,0,.27-1.55,9.68,9.68,0,0,0-2.48-3.48,5.41,5.41,0,0,1,2.19-.06l.12.09c1.54.93,6.78,3.86,9.49,2.27a2.94,2.94,0,0,0,1.31-3.13l-.07-.27a15.26,15.26,0,0,0-8.56-8.31,14.33,14.33,0,0,0-4.79-.93l0-.08c-5.31-9.07-13.84-23.95-14.37-25.65l0-.14C180.83,181.1,170.48,176.66,170,176.5l-.16,0-4.48-.85v.14l-16-3.07a12.27,12.27,0,0,1-5.46-3.79,7.89,7.89,0,0,1-1.64-6.22c32.4-9.63,34.43-14.24,35.42-16.5l0-.11a28.38,28.38,0,0,0,.94-2.92l.93-.47c.44-.22,10.73-5.49,10.73-15.58,0-3.73-.8-5.86-2.45-6.52a3.28,3.28,0,0,0-2.64.19c1.1-3.13,2.5-7,3.94-11C190.15,107.63,191.21,105,192.26,102.14ZM63.72,274.39c-2,.21-3.55.41-4.83.57s-2.33.3-2.93.31a13.86,13.86,0,0,1,3.13-3.58l1.3-1.11-1.68-.44a15.38,15.38,0,0,0-3.6-.55,3.26,3.26,0,0,0-2,.49c-3.62,2.18-6.46,2.77-7.4,2.22-.33-.19-.47-.62-.42-1.27,3.6-7.71,10.31-8,11.65-8l9.94,6.06Zm34.39-59.91c-.41,1.55-4.73,17.86-7.68,23.16-2.81,5.06-18.88,25.66-22,29.69l-9.41-6c6.29-10.76,13.51-23.35,14.12-25.51h0c12.37-49.48,22.05-56,22.88-56.49l2.09-.4Zm122,55.55c0,.65-.1,1.07-.42,1.27-.94.55-3.77,0-7.4-2.22a3.26,3.26,0,0,0-2-.49,15.38,15.38,0,0,0-3.6.55l-1.68.44,1.3,1.11a13.86,13.86,0,0,1,3.13,3.58c-.6,0-1.7-.15-2.93-.31s-2.83-.36-4.83-.57l-3.19-5.31,9.94-6.06C209.81,262,216.52,262.32,220.12,270ZM169.41,178.3c.83.48,10.51,7,22.88,56.49h0c.62,2.15,7.84,14.75,14.12,25.51l-9.41,6c-3.15-4-19.22-24.63-22-29.69-2.95-5.31-7.27-21.62-7.68-23.16V177.91ZM79.69,122.86l1.42,1.62,2.49,7.34,1.56,7.13c-2.38-2.06-6-6.14-6-11.86A11.14,11.14,0,0,1,79.69,122.86Zm45.43,238.68v.13c.95,12.9.88,26.27.81,38.07-.08,14.45-.14,25,1.71,28.56,0,.24,0,.47-.05.71-7.86,6.78-10.9,1.93-11.87-.59a11.29,11.29,0,0,0,1.56-3.61c.42-3.78-3.59-31.59-5.39-35.17-3.78-17.89-3.52-19.55-2.1-28.7.41-2.61.91-5.86,1.44-10.21,1.34-9,.45-20.64.12-24.31l17.87,1.39C128.52,332.87,125.5,355.08,125.12,361.54Zm27.66-10.84c.53,4.38,1,7.62,1.44,10.23,1.42,9.15,1.68,10.81-2.1,28.7-1.81,3.58-5.81,31.39-5.39,35.17a12.7,12.7,0,0,0,1.79,4c-1.15,2.63-4.37,6.77-12.13-.19l0-.33c1.84-3.57,1.79-14.12,1.71-28.57-.06-11.79-.14-25.16.81-38.06v-.13c-.38-6.46-3.39-28.67-4.08-33.74l10.52-.82q3.83-.11,7.32-.33C152.3,330.54,151.47,341.89,152.78,350.7Zm-4.84-177.23-5.9,3.26H123.89l-8.11-3.94a28.44,28.44,0,0,0,4.49-2.76l.1-.1c1.78-2.11,2-5.77,2-7.56l.07,0a23.78,23.78,0,0,0,4.78,1.41h0c.5.28,1.77.51,5.48,1h.23c3.7-.44,5-.67,5.48-1L141,163C140.46,168.67,144.75,172.08,147.94,173.47Zm33-34.34,2-7.26,2.06-8.2c.71-.64,1.65-1.17,2.08-1,.1,0,1,.52,1,4.42C188.09,133,183.73,137.1,181,139.13Zm.29-12.34c-.72,2.17-1.77,6.1-2.79,9.89s-2.05,7.68-2.46,8.59l-.05.12c-.7,1.59-2.82,6.44-38.39,16.66l-.85.24c-.92.16-2.52.38-4,.56-1.43-.17-3-.4-4-.56l-.85-.24C92.4,151.83,90.28,147,89.58,145.4l-.05-.12c-.41-.91-1.45-4.82-2.46-8.59l-.52-1.94-.77-3.53-1.38-4.06-.1-.31c-.67-2.48-3.27-9.69-6.11-17.49C77.07,102.56,77,95.11,80,89.51c1.45.84,3.41,9.41,9.1,10.36,0,0-1.88-17.54,0-24,1.38-4.75,7.89,4.83,13.26,10.26a6.36,6.36,0,0,0-.71.11,5.72,5.72,0,0,0-3.84,3l1.1.62a4.45,4.45,0,0,1,3-2.35,5.9,5.9,0,0,1,1.75-.09c1.43,1.28,2.73,2.13,3.77,2.13a10.35,10.35,0,0,1-.06-1.09,18.37,18.37,0,0,1,2.85,1.6l.74-1a19.22,19.22,0,0,0-3.6-2c0-6.52.91-22.61.91-22.61a47.48,47.48,0,0,0,17.31,25.08l.64.84s.67-14.68,8.43-25.92c0,0,2.75,16.53,9,25,1.1-3.19,5-14.06,9.13-20.74-.75,1.43,3.33,9.73,3.83,17.44a7.36,7.36,0,0,0-2.45.09,5.72,5.72,0,0,0-3.84,3l1.1.62a4.45,4.45,0,0,1,3-2.35,6.24,6.24,0,0,1,2.22,0,19,19,0,0,1-.08,2.09l.1,6.55a40.44,40.44,0,0,0,5.79-6.22l.27.18.74-1-.27-.19c2.59-3.79,4.6-8.54,2.86-13l1.09.2s6.38,12.39,5.57,24.77l.14,1.91s3.44,4.1,8.39-14.62c0,0,4.66,14.73,4.71,25C183.71,119.41,181.8,124.76,181.26,126.79Z"/><path class="cls-1" d="M143.69,89.51l0-.07-.31.91Z"/></svg>