<svg xmlns="http://www.w3.org/2000/svg" viewBox="0 0 232.96 475.78"><defs><style>.cls-1,.cls-3,.cls-6{fill:#fff;}.cls-1,.cls-2,.cls-3,.cls-4{stroke:#4db2e5;stroke-miterlimit:10;}.cls-1,.cls-4{stroke-width:1.91px;}.cls-2,.cls-4{fill:none;}.cls-2,.cls-3{stroke-width:1.27px;}.cls-5{fill:#4db2e5;}</style></defs><title>girl</title><g id="Layer_2" data-name="Layer 2"><path class="cls-1" d="M80.52,188.21S70.36,192,57,245.38c0,1.27-14.5,26-14.5,26l10.91,7s19.47-24.77,22.65-30.49,7.8-23.5,7.8-23.5V187.57Z"/><path class="cls-1" d="M155.46,188.21S165.62,192,179,245.38c0,1.27,14.5,26,14.5,26l-10.91,7s-19.47-24.77-22.65-30.49-7.8-23.5-7.8-23.5V187.57Z"/><path class="cls-2" d="M105.44,170.59a11.17,11.17,0,0,1,0,8.89l-6.5,3.65s19.49,26,36.43,0c2.32,1.27-10.11-1.77-8-11.37C127.3,171.77,112.51,172.85,105.44,170.59Z"/><path class="cls-3" d="M68.86,133s-5.25-5.49-5.25,4,8.86,14.56,8.86,14.56V141.52Z"/><path class="cls-3" d="M168.53,133s5.25-5.49,5.25,4-8.86,14.56-8.86,14.56V141.52Z"/><path class="cls-4" d="M118.34,173.75s-5.28-.63-5.07-.84c-36.72-10.55-38.2-15.41-39-17.31s-3.8-14.14-5.28-18.57c-1.48-5.49-12.87-35.25-14.14-40.63-10.45-44,42-68.73,42-68.73s10.61-4.19,37.29-1.77c0,0,58.18,26.49,47.74,70.5-1.27,5.38-12.66,35.14-14.14,40.63-1.48,4.43-4.43,16.67-5.28,18.57s-2.32,6.75-39,17.31c.21.21-5.07.84-5.07.84"/><ellipse class="cls-5" cx="91.89" cy="127.11" rx="6.33" ry="7.6"/><path class="cls-2" d="M109.2,151.59s9.71,5.49,18.15,0"/><path class="cls-3" d="M88.1,123.31a11.34,11.34,0,0,1-4.22,0"/><ellipse class="cls-6" cx="93.37" cy="123.5" rx="2.32" ry="3.06"/><ellipse class="cls-5" cx="141.7" cy="127.11" rx="6.33" ry="7.6"/><path class="cls-3" d="M145.5,123.31a11.34,11.34,0,0,0,4.22,0"/><ellipse class="cls-6" cx="140.23" cy="123.5" rx="2.32" ry="3.06"/><path class="cls-5" d="M198.81,90.05s3.81-29.72-3.81-37.34c-12.09-13.54-19.87-11.94-22.9-10.41-11.44-12.53-32.16-21.49-67.79-22.05-4.4-.4-25.87,4.55-42,18.75h0S53.84,30.67,38,48.45c-7.62,7.62-3.81,37.34-3.81,37.34S32.24,96.1,17,91c0,0,4.78,29,33.52,18.32h0c1.37,3.28,3,6.67,4.81,10.18,10.18,17.52,9.31,12.58,9.31,12.58l4.3,4.94s-10.6-24.12-3.43-37.58c1.45.84,3.41,9.41,9.1,10.36,0,0-1.88-17.54,0-24C76,81,82.51,90.63,87.87,96.06a6.36,6.36,0,0,0-.71.11,5.72,5.72,0,0,0-3.84,3l1.1.62a4.45,4.45,0,0,1,3-2.35,5.9,5.9,0,0,1,1.75-.09c1.43,1.28,2.73,2.13,3.77,2.13a10.35,10.35,0,0,1-.06-1.09,18.37,18.37,0,0,1,2.85,1.6l.74-1a19.22,19.22,0,0,0-3.6-2c0-6.52.91-22.61.91-22.61a47.48,47.48,0,0,0,17.31,25.08l.64.84s.67-14.68,8.43-25.92c0,0,2.75,16.53,9,25,1.1-3.19,5-14.06,9.13-20.74-.75,1.43,3.33,9.73,3.83,17.44a7.36,7.36,0,0,0-2.45.09,5.72,5.72,0,0,0-3.84,3l1.1.62a4.45,4.45,0,0,1,3-2.35,6.24,6.24,0,0,1,2.22,0,19,19,0,0,1-.08,2.09l.1,6.55A40.44,40.44,0,0,0,148,99.78l.27.18.74-1-.27-.19c2.59-3.79,4.6-8.54,2.86-13l1.09.2s6.38,12.39,5.57,24.77l.14,1.91s3.44,4.1,8.39-14.62c0,0,6.06,19.14,4.43,29.06a117.88,117.88,0,0,0,6.57-15C205.68,121.63,216,95.27,216,95.27,200.72,100.35,198.81,90.05,198.81,90.05Z"/><path class="cls-5" d="M129.26,99.45l0-.07-.31.91Z"/><path class="cls-1" d="M42.52,271.42s-8.63-.63-12.87,9.11c-.42,4.23,4.66,3,9.32,0,.85-.85,4.74.22,4.74.22s-3.05,2.75-3.47,4.44,1.27.85,9.32,0l3.87-6.78Z"/><path class="cls-1" d="M192.47,271.42s8.63-.63,12.87,9.11c.42,4.23-4.66,3-9.32,0-.85-.85-4.54,2.15-4.54,2.15s2.85.82,3.27,2.51-1.27.85-9.32,0l-3.87-6.78Z"/><path class="cls-5" d="M139.23,401.2l0-.2c3.88-18.36,3.62-20.07,2.15-29.53-.4-2.6-.91-5.82-1.44-10.19-1.3-8.73-.41-20.42-.09-23.93,18.4-1.34,29.19-4.61,29.46-4.94-8.36-33.67-15.14-73.69-17-81.95s0-63.52,0-63.52l-16.93-3.81-8,4.45H109.2l-10.25-4.45-15.07,4.45,1.69,61.62s-12,62.25-13.09,83.22c7.74,1.63,15.13,2.82,22.15,3.67l0,.23c0,.15,1.54,14.62,0,25-.53,4.35-1,7.58-1.43,10.17-1.47,9.46-1.74,11.17,2.15,29.53l.06.21.1.15c1.29,1.94,5.6,30.27,5.18,34.06-.09.79-1.21,2.69-2.29,4.53-2.55,4.34-5.72,9.73-3.75,13.05,1,1.71,3.12,2.54,6.44,2.54h.61l1.86-.05c10-.26,10.82-.28,11-8.66,0-2,.08-4.58.34-7.84l0-.31-.16-.26c-1.72-2.8-1.66-14.4-1.59-27.84.06-11.81.14-25.2-.81-38.15.43-7.18,4.17-34.26,4.21-34.53v-.1l1.52,0v.06c0,.27,3.77,27.36,4.21,34.53-.95,13-.88,26.34-.81,38.15.07,13.44.14,25-1.59,27.85l-.16.26,0,.31c.26,3.26.3,5.8.34,7.84.15,8.37,1,8.4,11,8.66l1.86.05h.61c3.32,0,5.43-.83,6.44-2.54,2-3.32-1.21-8.71-3.75-13.05-1.08-1.84-2.2-3.74-2.29-4.54-.42-3.79,3.88-32.13,5.17-34.06Zm-28.79-28.83v.13c.95,12.9.88,26.27.81,38.07-.08,14.45-.14,25,1.71,28.56,0,.24,0,.47-.05.71-7.86,6.78-10.9,1.93-11.87-.59a11.29,11.29,0,0,0,1.56-3.61C103,431.86,99,404,97.2,400.47c-3.78-17.89-3.52-19.55-2.1-28.7.41-2.61.91-5.86,1.44-10.21,1.34-9,.45-20.64.12-24.31l17.87,1.39C113.83,343.71,110.82,365.91,110.44,372.37ZM132,435.63a12.7,12.7,0,0,0,1.79,4c-1.15,2.63-4.37,6.77-12.13-.19l0-.33c1.84-3.57,1.79-14.12,1.71-28.57-.06-11.79-.14-25.16.81-38.06v-.13c-.38-6.46-3.39-28.67-4.08-33.74l10.52-.82q3.83-.11,7.32-.33c-.35,3.89-1.18,15.25.13,24.05.53,4.38,1,7.62,1.44,10.23,1.42,9.15,1.68,10.81-2.1,28.7C135.63,404,131.62,431.86,132,435.63Z"/></g></svg>