<svg xmlns="http://www.w3.org/2000/svg" viewBox="0 0 124.08 151.3"><defs><style>.cls-1{fill:#4db2e5;stroke:#fff;stroke-miterlimit:10;stroke-width:1.04px;}.cls-2{fill:#ee4e9c;}.cls-3{font-size:33.29px;fill:#fff;font-family:AWConquerorCarved-One, AW Conqueror Carved;}</style></defs><title>grave</title><g id="Layer_2" data-name="Layer 2"><path class="cls-1" d="M61.45,8.08A46.94,46.94,0,0,0,14.52,55v83h93.86V55A46.94,46.94,0,0,0,61.45,8.08Z"/><path class="cls-2" d="M50.35,41.75H57V59.47a1.23,1.23,0,0,0,1.24,1.24h6a1.23,1.23,0,0,0,1.23-1.24V41.75h6.68a1.23,1.23,0,0,0,1.23-1.24v-6a1.23,1.23,0,0,0-1.23-1.23H65.47V24.86a1.23,1.23,0,0,0-1.23-1.23h-6A1.23,1.23,0,0,0,57,24.86V33.3H50.35a1.24,1.24,0,0,0-1.24,1.23v6A1.24,1.24,0,0,0,50.35,41.75Z"/><polygon class="cls-1" points="61.25 137.92 13.93 137.92 8.81 143.19 61.25 143.19 113.69 143.19 108.56 137.92 61.25 137.92"/><text class="cls-3" transform="translate(34.97 99.02)">RIP</text></g></svg>