<svg xmlns="http://www.w3.org/2000/svg" xmlns:xlink="http://www.w3.org/1999/xlink" viewBox="0 0 109.49 79.5"><defs><style>.cls-1{fill:#027da3;}.cls-2{fill:url(#radial-gradient);}.cls-3{fill:url(#radial-gradient-2);}.cls-4{fill:url(#radial-gradient-3);}.cls-5{fill:url(#radial-gradient-4);}.cls-6{fill:url(#radial-gradient-5);}.cls-7{fill:url(#radial-gradient-6);}.cls-8{fill:url(#radial-gradient-7);}.cls-9{fill:url(#radial-gradient-8);}.cls-10{fill:#4db2e5;}</style><radialGradient id="radial-gradient" cx="58.89" cy="39.75" r="37.97" gradientUnits="userSpaceOnUse"><stop offset="0.03" stop-color="#ec008c" stop-opacity="0"/><stop offset="1" stop-color="#fff"/></radialGradient><radialGradient id="radial-gradient-2" cx="68.43" cy="38.57" r="5.25" gradientUnits="userSpaceOnUse"><stop offset="0.03" stop-color="#27aae1" stop-opacity="0"/><stop offset="1" stop-color="#fff"/></radialGradient><radialGradient id="radial-gradient-3" cx="47.75" cy="27.21" r="5.25" xlink:href="#radial-gradient-2"/><radialGradient id="radial-gradient-4" cx="45.79" cy="54.32" r="5.25" xlink:href="#radial-gradient-2"/><radialGradient id="radial-gradient-5" cx="72.1" cy="54.87" r="5.25" xlink:href="#radial-gradient-2"/><radialGradient id="radial-gradient-6" cx="64.65" cy="23.72" r="4.02" xlink:href="#radial-gradient-2"/><radialGradient id="radial-gradient-7" cx="-146.76" cy="-179.45" r="4.02" gradientTransform="translate(167.63 185.73) scale(0.89 0.8)" xlink:href="#radial-gradient-2"/><radialGradient id="radial-gradient-8" cx="-123.35" cy="-155.57" r="4.02" gradientTransform="translate(167.63 185.73) scale(0.89 0.8)" xlink:href="#radial-gradient-2"/></defs><title>group</title><g id="Layer_2" data-name="Layer 2"><path class="cls-1" d="M47.78,33.09a2.24,2.24,0,0,0,.72,1.57,1,1,0,1,0,1.39-1.39s-.25-.28-.1-.09L49.71,33c0,.06,0,.27,0,0a1,1,0,0,0-2,0Z"/><path class="cls-1" d="M50.51,38.66h.44a1,1,0,0,0,0-2h-.44a1,1,0,0,0,0,2Z"/><path class="cls-1" d="M56.72,34.84v-.22a1,1,0,0,0-2,0v.22a1,1,0,0,0,2,0Z"/><path class="cls-1" d="M56.83,41.27a1,1,0,0,0,0-2,1,1,0,0,0,0,2Z"/><path class="cls-1" d="M74.94,44.44a2.12,2.12,0,0,0,.62-.17l.25-.19c.15-.14-.21.1,0,0l-.5.13h.07a1,1,0,0,0,1-1,1,1,0,0,0-1-1,2.14,2.14,0,0,0-.63.17l-.25.19c-.15.14.21-.1,0,0l.5-.13h-.07a1,1,0,0,0-1,1,1,1,0,0,0,1,1Z"/><path class="cls-1" d="M69.7,33.86a1,1,0,0,0,0-2,1,1,0,0,0,0,2Z"/><path class="cls-1" d="M69.7,42.37a1,1,0,0,0,0-2,1,1,0,0,0,0,2Z"/><path class="cls-1" d="M67.3,43a1,1,0,0,0,0-2,1,1,0,0,0,0,2Z"/><path class="cls-1" d="M61.41,40.62a1,1,0,0,0,0-2,1,1,0,0,0,0,2Z"/><path class="cls-1" d="M57.49,27.75a1,1,0,0,0,0-2,1,1,0,0,0,0,2Z"/><path class="cls-1" d="M69.27,38.44a1,1,0,0,0,0-2,1,1,0,0,0,0,2Z"/><path class="cls-1" d="M61.85,31a1,1,0,0,0,0-2,1,1,0,0,0,0,2Z"/><path class="cls-1" d="M45.49,42.37a1,1,0,0,0,0-2,1,1,0,0,0,0,2Z"/><path class="cls-1" d="M56.51,45.85a1,1,0,0,0,0-2,1,1,0,0,0,0,2Z"/><path class="cls-1" d="M50.94,43.46a1,1,0,0,0,0-2,1,1,0,0,0,0,2Z"/><path class="cls-1" d="M59.67,50.22a3.83,3.83,0,0,0,.79-.12l.28-.08c.07,0,.31,0,0,0a1,1,0,0,0,1-1,1,1,0,0,0-1-1,2.91,2.91,0,0,0-.63.12,2.22,2.22,0,0,1-.46.1,1,1,0,1,0,0,2Z"/><path class="cls-1" d="M68.61,46.94a1,1,0,0,0,0-2,1,1,0,0,0,0,2Z"/><path class="cls-1" d="M61.85,44.33a1,1,0,0,0,0-2,1,1,0,0,0,0,2Z"/><path class="cls-1" d="M72.54,48.91H72.1a1,1,0,0,0,0,2h.44a1,1,0,0,0,0-2Z"/><path class="cls-1" d="M84.7,45.85a1,1,0,0,0,0-2,1,1,0,0,0,0,2Z"/><path class="cls-1" d="M54.22,30.37a1,1,0,0,0,0-2,1,1,0,0,0,0,2Z"/><path class="cls-1" d="M64.47,29.5a1,1,0,0,0,0-2,1,1,0,0,0,0,2Z"/><path class="cls-1" d="M67.08,33a1,1,0,0,0,0-2,1,1,0,0,0,0,2Z"/><path class="cls-1" d="M70.14,26.88a1,1,0,0,0,0-2,1,1,0,0,0,0,2Z"/><path class="cls-1" d="M56,51.31a1,1,0,0,0,0-2,1,1,0,0,0,0,2Z"/><path class="cls-1" d="M49,51.31a1,1,0,0,0,0-2,1,1,0,0,0,0,2Z"/><path class="cls-1" d="M51.05,48.69a1,1,0,0,0,0-2,1,1,0,0,0,0,2Z"/><path class="cls-1" d="M46.8,38.44a1,1,0,0,0,0-2,1,1,0,0,0,0,2Z"/><path class="cls-1" d="M40.69,43a1,1,0,0,0,0-2,1,1,0,0,0,0,2Z"/><path class="cls-1" d="M33.6,39.75a1,1,0,0,0,0-2,1,1,0,0,0,0,2Z"/><path class="cls-1" d="M46.8,47.82a1,1,0,0,0,0-2,1,1,0,0,0,0,2Z"/><path class="cls-1" d="M41.24,38.66a1,1,0,0,0,0-2,1,1,0,0,0,0,2Z"/><path class="cls-1" d="M38.18,30.7a1,1,0,0,0,0-2,1,1,0,0,0,0,2Z"/><path class="cls-1" d="M41.89,33.86a1,1,0,0,0,0-2,1,1,0,0,0,0,2Z"/><path class="cls-1" d="M76.46,29.93a2.24,2.24,0,0,0,.72,1.57,1,1,0,0,0,1.39-1.39s-.25-.28-.1-.09l-.08-.14c0,.06,0,.27,0,0a1,1,0,0,0-2,0Z"/><path class="cls-1" d="M45.6,16.41H46a1,1,0,0,0,0-2H45.6a1,1,0,0,0,0,2Z"/><path class="cls-1" d="M51.82,12.59v-.22a1,1,0,0,0-2,0v.22a1,1,0,0,0,2,0Z"/><path class="cls-1" d="M51.93,19a1,1,0,0,0,0-2,1,1,0,0,0,0,2Z"/><path class="cls-1" d="M58,14.66a2.14,2.14,0,0,0,.63-.17l.25-.19c.15-.14-.21.1,0,0l-.49.13h.07a1,1,0,0,0,1-1,1,1,0,0,0-1-1,2.12,2.12,0,0,0-.63.17l-.25.19c-.15.14.21-.1,0,0l.5-.13H58a1,1,0,0,0-1,1,1,1,0,0,0,1,1Z"/><path class="cls-1" d="M86.28,30.7a1,1,0,0,0,0-2,1,1,0,0,0,0,2Z"/><path class="cls-1" d="M64.79,20.12a1,1,0,0,0,0-2,1,1,0,0,0,0,2Z"/><path class="cls-1" d="M62.39,20.77a1,1,0,0,0,0-2,1,1,0,0,0,0,2Z"/><path class="cls-1" d="M56.51,18.37a1,1,0,0,0,0-2,1,1,0,0,0,0,2Z"/><path class="cls-1" d="M74.06,24.59a1,1,0,0,0,0-2,1,1,0,0,0,0,2Z"/><path class="cls-1" d="M64.36,16.19a1,1,0,0,0,0-2,1,1,0,0,0,0,2Z"/><path class="cls-1" d="M78.43,27.86a1,1,0,0,0,0-2,1,1,0,0,0,0,2Z"/><path class="cls-1" d="M41.24,21.64a1,1,0,0,0,0-2,1,1,0,0,0,0,2Z"/><path class="cls-1" d="M49.53,22.08a1,1,0,0,0,0-2,1,1,0,0,0,0,2Z"/><path class="cls-1" d="M46,21.21a1,1,0,0,0,0-2,1,1,0,0,0,0,2Z"/><path class="cls-1" d="M32.13,35.06a3.78,3.78,0,0,0,.79-.12l.28-.08c.07,0,.31,0,0,0a1,1,0,0,0,1-1,1,1,0,0,0-1-1,3,3,0,0,0-.63.12,2.1,2.1,0,0,1-.46.1,1,1,0,1,0,0,2Z"/><path class="cls-1" d="M63.7,24.7a1,1,0,0,0,0-2,1,1,0,0,0,0,2Z"/><path class="cls-1" d="M56.94,22.08a1,1,0,0,0,0-2,1,1,0,0,0,0,2Z"/><path class="cls-1" d="M67.63,26.66h-.44a1,1,0,0,0,0,2h.44a1,1,0,0,0,0-2Z"/><path class="cls-1" d="M61.3,29.5a1,1,0,0,0,0-2,1,1,0,0,0,0,2Z"/><path class="cls-1" d="M70.79,27.21a1,1,0,0,0,0-2,1,1,0,0,0,0,2Z"/><path class="cls-1" d="M81,26.33a1,1,0,0,0,0-2,1,1,0,0,0,0,2Z"/><path class="cls-1" d="M83.66,29.82a1,1,0,0,0,0-2,1,1,0,0,0,0,2Z"/><path class="cls-1" d="M74.61,17.23a1,1,0,0,0,0-2,1,1,0,0,0,0,2Z"/><path class="cls-1" d="M51.05,25.79a1,1,0,0,0,0-2,1,1,0,0,0,0,2Z"/><path class="cls-1" d="M45.6,31.79a1,1,0,0,0,0-2,1,1,0,0,0,0,2Z"/><path class="cls-1" d="M45.82,25.79a1,1,0,0,0,0-2,1,1,0,0,0,0,2Z"/><path class="cls-1" d="M41.89,16.19a1,1,0,0,0,0-2,1,1,0,0,0,0,2Z"/><path class="cls-1" d="M38.84,21.21a1,1,0,0,0,0-2,1,1,0,0,0,0,2Z"/><path class="cls-1" d="M35.13,29.06a1,1,0,0,0,0-2,1,1,0,0,0,0,2Z"/><path class="cls-1" d="M41.89,25.57a1,1,0,0,0,0-2,1,1,0,0,0,0,2Z"/><path class="cls-1" d="M30.22,29.06a1,1,0,0,0,0-2,1,1,0,0,0,0,2Z"/><path class="cls-1" d="M72.1,21.64a1,1,0,0,0,0-2,1,1,0,0,0,0,2Z"/><path class="cls-1" d="M36.55,52.18a1,1,0,0,0,0-2,1,1,0,0,0,0,2Z"/><path class="cls-1" d="M55.09,57.52a2.24,2.24,0,0,0,.72,1.57A1,1,0,1,0,57.2,57.7s-.25-.28-.1-.09L57,57.48c0,.06,0,.27,0,0a1,1,0,0,0-2,0Z"/><path class="cls-1" d="M57.82,63.09h.44a1,1,0,0,0,0-2h-.44a1,1,0,0,0,0,2Z"/><path class="cls-1" d="M64,59.27v-.22a1,1,0,0,0-2,0v.22a1,1,0,0,0,2,0Z"/><path class="cls-1" d="M64.14,65.7a1,1,0,0,0,0-2,1,1,0,0,0,0,2Z"/><path class="cls-1" d="M70.25,61.34a2.08,2.08,0,0,0,.62-.17l.25-.19c.15-.14-.21.1,0,0l-.5.13h.07a1,1,0,0,0,1-1,1,1,0,0,0-1-1,2.12,2.12,0,0,0-.63.17l-.25.19c-.15.14.21-.1,0,0l.5-.13h-.07a1,1,0,0,0-1,1,1,1,0,0,0,1,1Z"/><path class="cls-1" d="M77,58.29a1,1,0,0,0,0-2,1,1,0,0,0,0,2Z"/><path class="cls-1" d="M82.84,51.74a1,1,0,0,0,0-2,1,1,0,0,0,0,2Z"/><path class="cls-1" d="M74.61,67.45a1,1,0,0,0,0-2,1,1,0,0,0,0,2Z"/><path class="cls-1" d="M68.72,65a1,1,0,0,0,0-2,1,1,0,0,0,0,2Z"/><path class="cls-1" d="M64.79,52.18a1,1,0,0,0,0-2,1,1,0,0,0,0,2Z"/><path class="cls-1" d="M76.57,62.87a1,1,0,0,0,0-2,1,1,0,0,0,0,2Z"/><path class="cls-1" d="M69.16,55.45a1,1,0,0,0,0-2,1,1,0,0,0,0,2Z"/><path class="cls-1" d="M53.45,68.32a1,1,0,0,0,0-2,1,1,0,0,0,0,2Z"/><path class="cls-1" d="M61.74,68.76a1,1,0,0,0,0-2,1,1,0,0,0,0,2Z"/><path class="cls-1" d="M58.25,67.89a1,1,0,0,0,0-2,1,1,0,0,0,0,2Z"/><path class="cls-1" d="M80.5,36.37a3.9,3.9,0,0,0,.79-.12l.28-.08c.07,0,.31,0,0,0a1,1,0,0,0,1-1,1,1,0,0,0-1-1,3,3,0,0,0-.63.12,2.18,2.18,0,0,1-.46.1,1,1,0,1,0,0,2Z"/><path class="cls-1" d="M31.2,44.33a1,1,0,0,0,0-2,1,1,0,0,0,0,2Z"/><path class="cls-1" d="M69.16,68.76a1,1,0,0,0,0-2,1,1,0,0,0,0,2Z"/><path class="cls-1" d="M86.93,37.35H86.5a1,1,0,0,0,0,2h.44a1,1,0,0,0,0-2Z"/><path class="cls-1" d="M80.61,40.18a1,1,0,0,0,0-2,1,1,0,0,0,0,2Z"/><path class="cls-1" d="M61.52,54.8a1,1,0,0,0,0-2,1,1,0,0,0,0,2Z"/><path class="cls-1" d="M71.77,53.93a1,1,0,0,0,0-2,1,1,0,0,0,0,2Z"/><path class="cls-1" d="M74.39,57.42a1,1,0,0,0,0-2,1,1,0,0,0,0,2Z"/><path class="cls-1" d="M77.45,51.31a1,1,0,0,0,0-2,1,1,0,0,0,0,2Z"/><path class="cls-1" d="M70.36,36.48a1,1,0,0,0,0-2,1,1,0,0,0,0,2Z"/><path class="cls-1" d="M63.38,39.75a1,1,0,0,0,0-2,1,1,0,0,0,0,2Z"/><path class="cls-1" d="M65.12,36.48a1,1,0,0,0,0-2,1,1,0,0,0,0,2Z"/><path class="cls-1" d="M54.11,62.87a1,1,0,0,0,0-2,1,1,0,0,0,0,2Z"/><path class="cls-1" d="M51.05,67.89a1,1,0,0,0,0-2,1,1,0,0,0,0,2Z"/><path class="cls-1" d="M54.11,41.06a1,1,0,0,0,0-2,1,1,0,0,0,0,2Z"/><path class="cls-1" d="M61.2,36.26a1,1,0,0,0,0-2,1,1,0,0,0,0,2Z"/><path class="cls-1" d="M46,62.65a1,1,0,0,0,0-2,1,1,0,0,0,0,2Z"/><path class="cls-1" d="M52.8,56.11a1,1,0,0,0,0-2,1,1,0,0,0,0,2Z"/><path class="cls-1" d="M50.84,60.91a1,1,0,0,0,0-2,1,1,0,0,0,0,2Z"/><path class="cls-1" d="M41.67,49.24a2.24,2.24,0,0,0,.72,1.57,1,1,0,0,0,1.39-1.39s-.25-.28-.1-.09l-.08-.14c0,.06,0,.27,0,0a1,1,0,0,0-2,0Z"/><path class="cls-1" d="M44.4,54.8h.44a1,1,0,0,0,0-2H44.4a1,1,0,0,0,0,2Z"/><path class="cls-1" d="M40.69,63.09a1,1,0,0,0,0-2,1,1,0,0,0,0,2Z"/><path class="cls-1" d="M44.84,59.6a1,1,0,0,0,0-2,1,1,0,0,0,0,2Z"/><path class="cls-1" d="M40.69,54.58a1,1,0,0,0,0-2,1,1,0,0,0,0,2Z"/><path class="cls-1" d="M37.64,59.6a1,1,0,0,0,0-2,1,1,0,0,0,0,2Z"/><path class="cls-1" d="M32.62,54.36a1,1,0,0,0,0-2,1,1,0,0,0,0,2Z"/><path class="cls-1" d="M39.38,47.82a1,1,0,0,0,0-2,1,1,0,0,0,0,2Z"/><path class="cls-1" d="M35.13,46.94a1,1,0,0,0,0-2,1,1,0,0,0,0,2Z"/><path class="cls-2" d="M58.09,7c.44-1.15,1.16-1.15,1.6,0s1.26,1.19,1.82.1,1.28-1,1.6.17,1.13,1.32,1.8.28,1.38-.88,1.57.33,1,1.43,1.76.47,1.46-.73,1.53.5.83,1.52,1.7.65S73,9,72.92,10.2s.67,1.6,1.62.83,1.58-.41,1.39.8.49,1.66,1.53,1,1.62-.25,1.3.94.32,1.7,1.42,1.15,1.63-.08,1.19,1.07.14,1.73,1.29,1.29,1.63.09,1.07,1.19,0,1.73,1.15,1.42,1.61.27.94,1.3-.22,1.72,1,1.53,1.58.43.8,1.39-.4,1.69.83,1.62,1.52.59.65,1.46-.58,1.64.65,1.7,1.45.75.5,1.53-.75,1.57.47,1.76,1.37.9.33,1.57-.9,1.48.28,1.8,1.27,1,.17,1.6-1.05,1.38.1,1.82,1.15,1.16,0,1.6-1.19,1.26-.1,1.82,1,1.28-.17,1.6S90,45.09,91,45.76s.88,1.38-.33,1.57-1.43,1-.47,1.76.73,1.46-.5,1.53-1.52.83-.65,1.7.58,1.53-.65,1.47-1.6.67-.83,1.62.41,1.58-.8,1.39-1.66.49-1,1.53.25,1.62-.94,1.3-1.71.32-1.15,1.41.08,1.63-1.07,1.19-1.73.14-1.29,1.29-.1,1.63-1.19,1.07-1.73,0-1.42,1.15-.26,1.62-1.3.94-1.72-.22-1.53,1-.43,1.58-1.39.8-1.69-.4-1.62.83-.59,1.52-1.47.65-1.64-.58-1.7.65-.75,1.45-1.53.49-1.57-.74-1.76.47-.9,1.37-1.57.33-1.48-.9-1.8.28-1,1.27-1.6.17-1.38-1.05-1.82.1-1.16,1.15-1.6,0-1.26-1.19-1.82-.1-1.28,1-1.6-.17-1.13-1.32-1.8-.28-1.38.88-1.57-.33-1-1.43-1.76-.47-1.46.73-1.53-.49-.83-1.52-1.7-.65-1.53.58-1.47-.65-.67-1.6-1.62-.83-1.58.41-1.39-.8-.49-1.66-1.53-1-1.62.25-1.3-.94S38.7,64,37.6,64.59s-1.63.08-1.19-1.07-.14-1.73-1.29-1.29-1.63-.09-1.07-1.19,0-1.73-1.15-1.41-1.61-.27-.94-1.3.22-1.72-1-1.53-1.58-.43-.8-1.39.4-1.69-.83-1.62-1.52-.59-.65-1.47.58-1.64-.65-1.7-1.45-.75-.5-1.53.75-1.57-.47-1.76-1.37-.9-.33-1.57.9-1.48-.28-1.8-1.27-1-.17-1.6,1.05-1.38-.1-1.82-1.15-1.16,0-1.6,1.19-1.26.1-1.82-1-1.28.17-1.6,1.32-1.13.28-1.8-.88-1.38.33-1.57,1.43-1,.47-1.76-.73-1.46.5-1.53,1.52-.83.65-1.7-.58-1.53.65-1.46,1.6-.67.83-1.62-.41-1.58.8-1.39,1.66-.49,1-1.53-.25-1.62.94-1.3,1.71-.32,1.15-1.42-.08-1.63,1.07-1.19,1.73-.14,1.29-1.29.1-1.63,1.19-1.07,1.73,0,1.41-1.15.27-1.61,1.3-.94,1.72.22,1.53-1,.43-1.58,1.39-.8,1.69.4,1.62-.83.59-1.52,1.47-.65,1.64.58,1.7-.65.75-1.45,1.53-.5,1.57.74,1.76-.47.9-1.37,1.57-.33,1.48.9,1.8-.28,1-1.27,1.6-.17S57.65,8.2,58.09,7Z"/><path class="cls-3" d="M68.43,43.91c6.88,0,6.88-10.67,0-10.67s-6.88,10.67,0,10.67Z"/><path class="cls-4" d="M47.75,32.54c6.88,0,6.88-10.67,0-10.67s-6.88,10.67,0,10.67Z"/><path class="cls-5" d="M45.79,59.66c6.88,0,6.88-10.67,0-10.67s-6.88,10.67,0,10.67Z"/><path class="cls-6" d="M72.1,60.21c6.88,0,6.88-10.67,0-10.67s-6.88,10.67,0,10.67Z"/><path class="cls-7" d="M64.65,27.8c5.27,0,5.27-8.17,0-8.17s-5.27,8.17,0,8.17Z"/><path class="cls-8" d="M37.5,44.78a3.29,3.29,0,1,0,0-6.57,3.29,3.29,0,1,0,0,6.57Z"/><path class="cls-9" d="M58.25,64a3.29,3.29,0,1,0,0-6.57,3.29,3.29,0,1,0,0,6.57Z"/><path class="cls-10" d="M83.32,17.54l-.19,0a.93.93,0,0,1-.83-1.08l1-6.89a1.05,1.05,0,0,1,1.11-.9l.19,0a.93.93,0,0,1,.83,1.08l-1,6.89A1.05,1.05,0,0,1,83.32,17.54Z"/><path class="cls-10" d="M87.13,18.9a1.13,1.13,0,0,0,.1-.32l1.25-8.65a1,1,0,0,0-.91-1.18,1.15,1.15,0,0,0-1.22,1l-1.22,8.43-.05.06-8.19,9.52A1.19,1.19,0,0,0,77,29.42h0a1.19,1.19,0,0,0,1.67-.17l8.19-9.52A1.25,1.25,0,0,0,87.13,18.9Z"/><path class="cls-10" d="M91.06,24.19l0,.18a.93.93,0,0,0,1.19.66L99,23a1.05,1.05,0,0,0,.72-1.24l0-.18a.93.93,0,0,0-1.19-.66l-6.66,2A1.05,1.05,0,0,0,91.06,24.19Z"/><path class="cls-10" d="M89.14,20.63a1.13,1.13,0,0,1,.3-.14L97.81,18a1,1,0,0,1,1.3.72A1.15,1.15,0,0,1,98.32,20l-8.15,2.47,0,.06-8.19,9.52a1.19,1.19,0,0,1-1.67.17h0a1.19,1.19,0,0,1-.08-1.68l8.19-9.52A1.25,1.25,0,0,1,89.14,20.63Z"/><path class="cls-10" d="M23.53,28.53v.19a.93.93,0,0,1-1,.93l-7-.33a1.05,1.05,0,0,1-1-1V28.1a.93.93,0,0,1,1-.93l7,.33A1.05,1.05,0,0,1,23.53,28.53Z"/><path class="cls-10" d="M24.52,24.6a1.13,1.13,0,0,0-.33-.06l-8.73-.41a1,1,0,0,0-1.09,1,1.15,1.15,0,0,0,1.09,1.12l8.51.4.06,0L34.3,34A1.19,1.19,0,0,0,36,33.71h0a1.19,1.19,0,0,0-.33-1.65L25.36,24.83A1.25,1.25,0,0,0,24.52,24.6Z"/><path class="cls-10" d="M29.41,20.19l.18-.06a.93.93,0,0,0,.54-1.25l-2.65-6.44a1.05,1.05,0,0,0-1.3-.6l-.18.06a.93.93,0,0,0-.54,1.25l2.65,6.44A1.05,1.05,0,0,0,29.41,20.19Z"/><path class="cls-10" d="M26,22.44a1.13,1.13,0,0,1-.17-.28l-3.33-8.09a1,1,0,0,1,.59-1.36,1.15,1.15,0,0,1,1.42.65l3.24,7.88.07,0,10.27,7.24a1.19,1.19,0,0,1,.33,1.65h0a1.19,1.19,0,0,1-1.66.24L26.54,23.16A1.25,1.25,0,0,1,26,22.44Z"/><path class="cls-10" d="M33.72,67l.18,0a.93.93,0,0,1,.64,1.2l-2.13,6.63a1.05,1.05,0,0,1-1.25.7l-.18,0a.93.93,0,0,1-.64-1.2l2.13-6.63A1.05,1.05,0,0,1,33.72,67Z"/><path class="cls-10" d="M30.19,65a1.13,1.13,0,0,0-.15.3l-2.67,8.33a1,1,0,0,0,.7,1.31,1.15,1.15,0,0,0,1.37-.77L32,66l.06,0,9.66-8A1.19,1.19,0,0,0,42,56.3h0a1.19,1.19,0,0,0-1.68-.11l-9.66,8A1.25,1.25,0,0,0,30.19,65Z"/><path class="cls-10" d="M27.2,59.12v-.19a.93.93,0,0,0-1.06-.85L19.21,59a1.05,1.05,0,0,0-.91,1.1v.19a.93.93,0,0,0,1.06.85l6.91-.88A1.05,1.05,0,0,0,27.2,59.12Z"/><path class="cls-10" d="M28.49,63a1.13,1.13,0,0,1-.32.09L19.5,64.15a1,1,0,0,1-1.16-.93,1.15,1.15,0,0,1,1-1.2l8.45-1.08.06-.05,9.66-8a1.19,1.19,0,0,1,1.68.11h0a1.19,1.19,0,0,1-.2,1.67l-9.66,8A1.25,1.25,0,0,1,28.49,63Z"/></g></svg>