<?xml version="1.0" encoding="utf-8"?>
<!-- Generator: Adobe Illustrator 21.0.2, SVG Export Plug-In . SVG Version: 6.00 Build 0)  -->
<svg version="1.1" id="Layer_1" xmlns="http://www.w3.org/2000/svg" xmlns:xlink="http://www.w3.org/1999/xlink" x="0px" y="0px"
	 viewBox="0 0 1878.2 1163" style="enable-background:new 0 0 1878.2 1163;" xml:space="preserve">
<style type="text/css">
	.st0{fill:#96C7D7;}
</style>
<g>
	<g>
		<path class="st0" d="M106.8,131c18.9,3.1,35-13,31.9-31.9c-1.9-11.4-11.1-20.6-22.5-22.5c-18.9-3.1-35,13-31.9,31.9
			C86.1,120,95.4,129.2,106.8,131z"/>
		<path class="st0" d="M174.5,176.2c-0.3-0.4-0.6-0.7-0.9-1c-0.1-0.4-0.4-0.7-0.7-1l-38.8-34.7c-2-1.9-4.5-2.7-7.1-2.6
			c-0.1,0-0.1,0-0.2,0h-34c-0.1,0-0.1,0-0.2,0c-2.5-0.1-5.1,0.8-7.1,2.6l-38.8,34.7c-0.3,0.3-0.5,0.6-0.7,1c-0.3,0.3-0.6,0.7-0.9,1
			c-3.3,4.3-2.5,10.5,1.8,13.7c3.7,2.9,9,2.7,12.6-0.6l24.4-23.1v34.3v9v61.4c0,5.7,4.7,10.4,10.4,10.4H97c5.7,0,10.4-4.7,10.4-10.4
			v-52.6h5v52.6c0,5.7,4.7,10.4,10.4,10.4h2.5c5.7,0,10.4-4.7,10.4-10.4v-61.4v-9v-34.3l24.4,23.1c3.5,3.2,8.8,3.4,12.6,0.6
			C177,186.7,177.8,180.5,174.5,176.2z"/>
	</g>
</g>
<g>
	<g>
		<path class="st0" d="M454.3,130.9c18.9,3.1,35-13,31.9-31.9c-1.9-11.4-11.1-20.6-22.5-22.5c-18.9-3.1-35,13-31.9,31.9
			C433.7,119.8,442.9,129,454.3,130.9z"/>
		<path class="st0" d="M522.1,176.1c-0.3-0.4-0.6-0.7-0.9-1c-0.1-0.4-0.4-0.7-0.7-1l-38.8-34.7c-2-1.9-4.5-2.7-7.1-2.6
			c-0.1,0-0.1,0-0.2,0h-34c-0.1,0-0.1,0-0.2,0c-2.5-0.1-5.1,0.8-7.1,2.6L394.5,174c-0.3,0.3-0.5,0.6-0.7,1c-0.3,0.3-0.6,0.7-0.9,1
			c-3.3,4.3-2.5,10.5,1.8,13.7c3.7,2.9,9,2.7,12.6-0.6l24.4-23.1v34.3v9v61.4c0,5.7,4.7,10.4,10.4,10.4h2.5
			c5.7,0,10.4-4.7,10.4-10.4v-52.6h5v52.6c0,5.7,4.7,10.4,10.4,10.4h2.5c5.7,0,10.4-4.7,10.4-10.4v-61.4v-9v-34.3l24.4,23.1
			c3.5,3.2,8.8,3.4,12.6,0.6C524.6,186.5,525.4,180.3,522.1,176.1z"/>
	</g>
</g>
<g>
	<g>
		<path class="st0" d="M622.1,291.4c18.9,3.1,35-13,31.9-31.9c-1.9-11.4-11.1-20.6-22.5-22.5c-18.9-3.1-35,13-31.9,31.9
			C601.5,280.3,610.7,289.5,622.1,291.4z"/>
		<path class="st0" d="M689.9,336.5c-0.3-0.4-0.6-0.7-0.9-1c-0.1-0.4-0.4-0.7-0.7-1l-38.8-34.7c-2-1.9-4.5-2.7-7.1-2.6
			c-0.1,0-0.1,0-0.2,0h-34c-0.1,0-0.1,0-0.2,0c-2.5-0.1-5.1,0.8-7.1,2.6l-38.8,34.7c-0.3,0.3-0.5,0.6-0.7,1c-0.3,0.3-0.6,0.7-0.9,1
			c-3.3,4.3-2.5,10.5,1.8,13.7c3.7,2.9,9,2.7,12.6-0.6l24.4-23.1V361v9v61.4c0,5.7,4.7,10.4,10.4,10.4h2.5c5.7,0,10.4-4.7,10.4-10.4
			v-52.6h5v52.6c0,5.7,4.7,10.4,10.4,10.4h2.5c5.7,0,10.4-4.7,10.4-10.4V370v-9v-34.3l24.4,23.1c3.5,3.2,8.8,3.4,12.6,0.6
			C692.3,347,693.2,340.8,689.9,336.5z"/>
	</g>
</g>
<g>
	<g>
		<path class="st0" d="M272.2,291.4c18.9,3.1,35-13,31.9-31.9c-1.9-11.4-11.1-20.6-22.5-22.5c-18.9-3.1-35,13-31.9,31.9
			C251.6,280.3,260.8,289.5,272.2,291.4z"/>
		<path class="st0" d="M340,336.5c-0.3-0.4-0.6-0.7-0.9-1c-0.1-0.4-0.4-0.7-0.7-1l-38.8-34.7c-2-1.9-4.5-2.7-7.1-2.6
			c-0.1,0-0.1,0-0.2,0h-34c-0.1,0-0.1,0-0.2,0c-2.5-0.1-5.1,0.8-7.1,2.6l-38.8,34.7c-0.3,0.3-0.5,0.6-0.7,1c-0.3,0.3-0.6,0.7-0.9,1
			c-3.3,4.3-2.5,10.5,1.8,13.7c3.7,2.9,9,2.7,12.6-0.6l24.4-23.1V361v9v61.4c0,5.7,4.7,10.4,10.4,10.4h2.5c5.7,0,10.4-4.7,10.4-10.4
			v-52.6h5v52.6c0,5.7,4.7,10.4,10.4,10.4h2.5c5.7,0,10.4-4.7,10.4-10.4V370v-9v-34.3l24.4,23.1c3.5,3.2,8.8,3.4,12.6,0.6
			C342.5,347,343.3,340.8,340,336.5z"/>
	</g>
</g>
<g>
	<g>
		<path class="st0" d="M782.5,136.3c18.9,3.1,35-13,31.9-31.9c-1.9-11.4-11.1-20.6-22.5-22.5c-18.9-3.1-35,13-31.9,31.9
			C761.9,125.2,771.1,134.4,782.5,136.3z"/>
		<path class="st0" d="M850.2,181.4c-0.3-0.4-0.6-0.7-0.9-1c-0.1-0.4-0.4-0.7-0.7-1l-38.8-34.7c-2-1.9-4.5-2.7-7.1-2.6
			c-0.1,0-0.1,0-0.2,0h-34c-0.1,0-0.1,0-0.2,0c-2.5-0.1-5.1,0.8-7.1,2.6l-38.8,34.7c-0.3,0.3-0.5,0.6-0.7,1c-0.3,0.3-0.6,0.7-0.9,1
			c-3.3,4.3-2.5,10.5,1.8,13.7c3.7,2.9,9,2.7,12.6-0.6l24.4-23.1v34.3v9v61.4c0,5.7,4.7,10.4,10.4,10.4h2.5
			c5.7,0,10.4-4.7,10.4-10.4v-52.6h5v52.6c0,5.7,4.7,10.4,10.4,10.4h2.5c5.7,0,10.4-4.7,10.4-10.4v-61.4v-9v-34.3l24.4,23.1
			c3.5,3.2,8.8,3.4,12.6,0.6C852.7,191.9,853.5,185.7,850.2,181.4z"/>
	</g>
</g>
<g>
	<g>
		<path class="st0" d="M1130.1,136.1c18.9,3.1,35-13,31.9-31.9c-1.9-11.4-11.1-20.6-22.5-22.5c-18.9-3.1-35,13-31.9,31.9
			C1109.4,125,1118.6,134.2,1130.1,136.1z"/>
		<path class="st0" d="M1197.8,181.3c-0.3-0.4-0.6-0.7-0.9-1c-0.1-0.4-0.4-0.7-0.7-1l-38.8-34.7c-2-1.9-4.5-2.7-7.1-2.6
			c-0.1,0-0.1,0-0.2,0h-34c-0.1,0-0.1,0-0.2,0c-2.5-0.1-5.1,0.8-7.1,2.6l-38.8,34.7c-0.3,0.3-0.5,0.6-0.7,1c-0.3,0.3-0.6,0.7-0.9,1
			c-3.3,4.3-2.5,10.5,1.8,13.7c3.7,2.9,9,2.7,12.6-0.6l24.4-23.1v34.3v9v61.4c0,5.7,4.7,10.4,10.4,10.4h2.5
			c5.7,0,10.4-4.7,10.4-10.4v-52.6h5v52.6c0,5.7,4.7,10.4,10.4,10.4h2.5c5.7,0,10.4-4.7,10.4-10.4v-61.4v-9v-34.3l24.4,23.1
			c3.5,3.2,8.8,3.4,12.6,0.6C1200.3,191.7,1201.1,185.5,1197.8,181.3z"/>
	</g>
</g>
<g>
	<g>
		<path class="st0" d="M1297.8,296.6c18.9,3.1,35-13,31.9-31.9c-1.9-11.4-11.1-20.6-22.5-22.5c-18.9-3.1-35,13-31.9,31.9
			C1277.2,285.5,1286.4,294.7,1297.8,296.6z"/>
		<path class="st0" d="M1365.6,341.7c-0.3-0.4-0.6-0.7-0.9-1c-0.1-0.4-0.4-0.7-0.7-1l-38.8-34.7c-2-1.9-4.5-2.7-7.1-2.6
			c-0.1,0-0.1,0-0.2,0h-34c-0.1,0-0.1,0-0.2,0c-2.5-0.1-5.1,0.8-7.1,2.6l-38.8,34.7c-0.3,0.3-0.5,0.6-0.7,1c-0.3,0.3-0.6,0.7-0.9,1
			c-3.3,4.3-2.5,10.5,1.8,13.7c3.7,2.9,9,2.7,12.6-0.6l24.4-23.1v34.3v9v61.4c0,5.7,4.7,10.4,10.4,10.4h2.5
			c5.7,0,10.4-4.7,10.4-10.4V384h5v52.6c0,5.7,4.7,10.4,10.4,10.4h2.5c5.7,0,10.4-4.7,10.4-10.4v-61.4v-9v-34.3l24.4,23.1
			c3.5,3.2,8.8,3.4,12.6,0.6C1368.1,352.2,1368.9,346,1365.6,341.7z"/>
	</g>
</g>
<g>
	<g>
		<path class="st0" d="M948,296.6c18.9,3.1,35-13,31.9-31.9c-1.9-11.4-11.1-20.6-22.5-22.5c-18.9-3.1-35,13-31.9,31.9
			C927.3,285.5,936.5,294.7,948,296.6z"/>
		<path class="st0" d="M1015.7,341.7c-0.3-0.4-0.6-0.7-0.9-1c-0.1-0.4-0.4-0.7-0.7-1L975.4,305c-2-1.9-4.5-2.7-7.1-2.6
			c-0.1,0-0.1,0-0.2,0h-34c-0.1,0-0.1,0-0.2,0c-2.5-0.1-5.1,0.8-7.1,2.6l-38.8,34.7c-0.3,0.3-0.5,0.6-0.7,1c-0.3,0.3-0.6,0.7-0.9,1
			c-3.3,4.3-2.5,10.5,1.8,13.7c3.7,2.9,9,2.7,12.6-0.6l24.4-23.1v34.3v9v61.4c0,5.7,4.7,10.4,10.4,10.4h2.5
			c5.7,0,10.4-4.7,10.4-10.4V384h5v52.6c0,5.7,4.7,10.4,10.4,10.4h2.5c5.7,0,10.4-4.7,10.4-10.4v-61.4v-9v-34.3l24.4,23.1
			c3.5,3.2,8.8,3.4,12.6,0.6C1018.2,352.2,1019,346,1015.7,341.7z"/>
	</g>
</g>
<g>
	<g>
		<path class="st0" d="M1479.9,141.3c18.9,3.1,35-13,31.9-31.9c-1.9-11.4-11.1-20.6-22.5-22.5c-18.9-3.1-35,13-31.9,31.9
			C1459.3,130.2,1468.5,139.4,1479.9,141.3z"/>
		<path class="st0" d="M1547.7,186.5c-0.3-0.4-0.6-0.7-0.9-1c-0.1-0.4-0.4-0.7-0.7-1l-38.8-34.7c-2-1.9-4.5-2.7-7.1-2.6
			c-0.1,0-0.1,0-0.2,0h-34c-0.1,0-0.1,0-0.2,0c-2.5-0.1-5.1,0.8-7.1,2.6l-38.8,34.7c-0.3,0.3-0.5,0.6-0.7,1c-0.3,0.3-0.6,0.7-0.9,1
			c-3.3,4.3-2.5,10.5,1.8,13.7c3.7,2.9,9,2.7,12.6-0.6l24.4-23.1v34.3v9v61.4c0,5.7,4.7,10.4,10.4,10.4h2.5
			c5.7,0,10.4-4.7,10.4-10.4v-52.6h5v52.6c0,5.7,4.7,10.4,10.4,10.4h2.5c5.7,0,10.4-4.7,10.4-10.4v-61.4v-9v-34.3l24.4,23.1
			c3.5,3.2,8.8,3.4,12.6,0.6C1550.2,196.9,1551,190.7,1547.7,186.5z"/>
	</g>
</g>
<g>
	<g>
		<path class="st0" d="M1647.7,301.8c18.9,3.1,35-13,31.9-31.9c-1.9-11.4-11.1-20.6-22.5-22.5c-18.9-3.1-35,13-31.9,31.9
			C1627.1,290.7,1636.3,299.9,1647.7,301.8z"/>
		<path class="st0" d="M1715.5,346.9c-0.3-0.4-0.6-0.7-0.9-1c-0.1-0.4-0.4-0.7-0.7-1l-38.8-34.7c-2-1.9-4.5-2.7-7.1-2.6
			c-0.1,0-0.1,0-0.2,0h-34c-0.1,0-0.1,0-0.2,0c-2.5-0.1-5.1,0.8-7.1,2.6l-38.8,34.7c-0.3,0.3-0.5,0.6-0.7,1c-0.3,0.3-0.6,0.7-0.9,1
			c-3.3,4.3-2.5,10.5,1.8,13.7c3.7,2.9,9,2.7,12.6-0.6l24.4-23.1v34.3v9v61.4c0,5.7,4.7,10.4,10.4,10.4h2.5
			c5.7,0,10.4-4.7,10.4-10.4v-52.6h5v52.6c0,5.7,4.7,10.4,10.4,10.4h2.5c5.7,0,10.4-4.7,10.4-10.4v-61.4v-9v-34.3l24.4,23.1
			c3.5,3.2,8.8,3.4,12.6,0.6C1717.9,357.4,1718.7,351.2,1715.5,346.9z"/>
	</g>
</g>
<g>
	<g>
		<path class="st0" d="M1781,136.1c18.9,3.1,35-13,31.9-31.9c-1.9-11.4-11.1-20.6-22.5-22.5c-18.9-3.1-35,13-31.9,31.9
			C1760.3,125,1769.5,134.2,1781,136.1z"/>
		<path class="st0" d="M1848.7,181.3c-0.3-0.4-0.6-0.7-0.9-1c-0.1-0.4-0.4-0.7-0.7-1l-38.8-34.7c-2-1.9-4.5-2.7-7.1-2.6
			c-0.1,0-0.1,0-0.2,0h-34c-0.1,0-0.1,0-0.2,0c-2.5-0.1-5.1,0.8-7.1,2.6l-38.8,34.7c-0.3,0.3-0.5,0.6-0.7,1c-0.3,0.3-0.6,0.7-0.9,1
			c-3.3,4.3-2.5,10.5,1.8,13.7c3.7,2.9,9,2.7,12.6-0.6l24.4-23.1v34.3v9v61.4c0,5.7,4.7,10.4,10.4,10.4h2.5
			c5.7,0,10.4-4.7,10.4-10.4v-52.6h5v52.6c0,5.7,4.7,10.4,10.4,10.4h2.5c5.7,0,10.4-4.7,10.4-10.4v-61.4v-9v-34.3l24.4,23.1
			c3.5,3.2,8.8,3.4,12.6,0.6C1851.2,191.7,1852,185.5,1848.7,181.3z"/>
	</g>
</g>
<g>
	<g>
		<path class="st0" d="M110.9,455.1c18.9,3.1,35-13,31.9-31.9c-1.9-11.4-11.1-20.6-22.5-22.5c-18.9-3.1-35,13-31.9,31.9
			C90.2,444,99.5,453.2,110.9,455.1z"/>
		<path class="st0" d="M178.6,500.2c-0.3-0.4-0.6-0.7-0.9-1c-0.1-0.4-0.4-0.7-0.7-1l-38.8-34.7c-2-1.9-4.5-2.7-7.1-2.6
			c-0.1,0-0.1,0-0.2,0H97c-0.1,0-0.1,0-0.2,0c-2.5-0.1-5.1,0.8-7.1,2.6L51,498.2c-0.3,0.3-0.5,0.6-0.7,1c-0.3,0.3-0.6,0.7-0.9,1
			c-3.3,4.3-2.5,10.5,1.8,13.7c3.7,2.9,9,2.7,12.6-0.6l24.4-23.1v34.3v9v61.4c0,5.7,4.7,10.4,10.4,10.4h2.5
			c5.7,0,10.4-4.7,10.4-10.4v-52.6h5v52.6c0,5.7,4.7,10.4,10.4,10.4h2.5c5.7,0,10.4-4.7,10.4-10.4v-61.4v-9v-34.3l24.4,23.1
			c3.5,3.2,8.8,3.4,12.6,0.6C181.1,510.7,181.9,504.5,178.6,500.2z"/>
	</g>
</g>
<g>
	<g>
		<path class="st0" d="M458.4,454.9c18.9,3.1,35-13,31.9-31.9c-1.9-11.4-11.1-20.6-22.5-22.5c-18.9-3.1-35,13-31.9,31.9
			C437.8,443.9,447,453.1,458.4,454.9z"/>
		<path class="st0" d="M526.2,500.1c-0.3-0.4-0.6-0.7-0.9-1c-0.1-0.4-0.4-0.7-0.7-1l-38.8-34.7c-2-1.9-4.5-2.7-7.1-2.6
			c-0.1,0-0.1,0-0.2,0h-34c-0.1,0-0.1,0-0.2,0c-2.5-0.1-5.1,0.8-7.1,2.6l-38.8,34.7c-0.3,0.3-0.5,0.6-0.7,1c-0.3,0.3-0.6,0.7-0.9,1
			c-3.3,4.3-2.5,10.5,1.8,13.7c3.7,2.9,9,2.7,12.6-0.6l24.4-23.1v34.3v9V595c0,5.7,4.7,10.4,10.4,10.4h2.5c5.7,0,10.4-4.7,10.4-10.4
			v-52.6h5V595c0,5.7,4.7,10.4,10.4,10.4h2.5c5.7,0,10.4-4.7,10.4-10.4v-61.4v-9v-34.3l24.4,23.1c3.5,3.2,8.8,3.4,12.6,0.6
			C528.7,510.5,529.5,504.4,526.2,500.1z"/>
	</g>
</g>
<g>
	<g>
		<path class="st0" d="M626.2,615.4c18.9,3.1,35-13,31.9-31.9c-1.9-11.4-11.1-20.6-22.5-22.5c-18.9-3.1-35,13-31.9,31.9
			C605.6,604.3,614.8,613.5,626.2,615.4z"/>
		<path class="st0" d="M694,660.6c-0.3-0.4-0.6-0.7-0.9-1c-0.1-0.4-0.4-0.7-0.7-1l-38.8-34.7c-2-1.9-4.5-2.7-7.1-2.6
			c-0.1,0-0.1,0-0.2,0h-34c-0.1,0-0.1,0-0.2,0c-2.5-0.1-5.1,0.8-7.1,2.6l-38.8,34.7c-0.3,0.3-0.5,0.6-0.7,1c-0.3,0.3-0.6,0.7-0.9,1
			c-3.3,4.3-2.5,10.5,1.8,13.7c3.7,2.9,9,2.7,12.6-0.6l24.4-23.1V685v9v61.4c0,5.7,4.7,10.4,10.4,10.4h2.5c5.7,0,10.4-4.7,10.4-10.4
			v-52.6h5v52.6c0,5.7,4.7,10.4,10.4,10.4h2.5c5.7,0,10.4-4.7,10.4-10.4V694v-9v-34.3l24.4,23.1c3.5,3.2,8.8,3.4,12.6,0.6
			C696.4,671,697.3,664.9,694,660.6z"/>
	</g>
</g>
<g>
	<g>
		<path class="st0" d="M276.3,615.4c18.9,3.1,35-13,31.9-31.9c-1.9-11.4-11.1-20.6-22.5-22.5c-18.9-3.1-35,13-31.9,31.9
			C255.7,604.3,264.9,613.5,276.3,615.4z"/>
		<path class="st0" d="M344.1,660.6c-0.3-0.4-0.6-0.7-0.9-1c-0.1-0.4-0.4-0.7-0.7-1l-38.8-34.7c-2-1.9-4.5-2.7-7.1-2.6
			c-0.1,0-0.1,0-0.2,0h-34c-0.1,0-0.1,0-0.2,0c-2.5-0.1-5.1,0.8-7.1,2.6l-38.8,34.7c-0.3,0.3-0.5,0.6-0.7,1c-0.3,0.3-0.6,0.7-0.9,1
			c-3.3,4.3-2.5,10.5,1.8,13.7c3.7,2.9,9,2.7,12.6-0.6l24.4-23.1V685v9v61.4c0,5.7,4.7,10.4,10.4,10.4h2.5c5.7,0,10.4-4.7,10.4-10.4
			v-52.6h5v52.6c0,5.7,4.7,10.4,10.4,10.4h2.5c5.7,0,10.4-4.7,10.4-10.4V694v-9v-34.3l24.4,23.1c3.5,3.2,8.8,3.4,12.6,0.6
			C346.6,671,347.4,664.9,344.1,660.6z"/>
	</g>
</g>
<g>
	<g>
		<path class="st0" d="M786.6,460.3c18.9,3.1,35-13,31.9-31.9c-1.9-11.4-11.1-20.6-22.5-22.5c-18.9-3.1-35,13-31.9,31.9
			C765.9,449.2,775.2,458.4,786.6,460.3z"/>
		<path class="st0" d="M854.3,505.4c-0.3-0.4-0.6-0.7-0.9-1c-0.1-0.4-0.4-0.7-0.7-1L814,468.7c-2-1.9-4.5-2.7-7.1-2.6
			c-0.1,0-0.1,0-0.2,0h-34c-0.1,0-0.1,0-0.2,0c-2.5-0.1-5.1,0.8-7.1,2.6l-38.8,34.7c-0.3,0.3-0.5,0.6-0.7,1c-0.3,0.3-0.6,0.7-0.9,1
			c-3.3,4.3-2.5,10.5,1.8,13.7c3.7,2.9,9,2.7,12.6-0.6l24.4-23.1v34.3v9v61.4c0,5.7,4.7,10.4,10.4,10.4h2.5
			c5.7,0,10.4-4.7,10.4-10.4v-52.6h5v52.6c0,5.7,4.7,10.4,10.4,10.4h2.5c5.7,0,10.4-4.7,10.4-10.4v-61.4v-9v-34.3l24.4,23.1
			c3.5,3.2,8.8,3.4,12.6,0.6C856.8,515.9,857.6,509.7,854.3,505.4z"/>
	</g>
</g>
<g>
	<g>
		<path class="st0" d="M1134.1,460.1c18.9,3.1,35-13,31.9-31.9c-1.9-11.4-11.1-20.6-22.5-22.5c-18.9-3.1-35,13-31.9,31.9
			C1113.5,449.1,1122.7,458.3,1134.1,460.1z"/>
		<path class="st0" d="M1201.9,505.3c-0.3-0.4-0.6-0.7-0.9-1c-0.1-0.4-0.4-0.7-0.7-1l-38.8-34.7c-2-1.9-4.5-2.7-7.1-2.6
			c-0.1,0-0.1,0-0.2,0h-34c-0.1,0-0.1,0-0.2,0c-2.5-0.1-5.1,0.8-7.1,2.6l-38.8,34.7c-0.3,0.3-0.5,0.6-0.7,1c-0.3,0.3-0.6,0.7-0.9,1
			c-3.3,4.3-2.5,10.5,1.8,13.7c3.7,2.9,9,2.7,12.6-0.6l24.4-23.1v34.3v9v61.4c0,5.7,4.7,10.4,10.4,10.4h2.5
			c5.7,0,10.4-4.7,10.4-10.4v-52.6h5v52.6c0,5.7,4.7,10.4,10.4,10.4h2.5c5.7,0,10.4-4.7,10.4-10.4v-61.4v-9v-34.3l24.4,23.1
			c3.5,3.2,8.8,3.4,12.6,0.6C1204.4,515.7,1205.2,509.6,1201.9,505.3z"/>
	</g>
</g>
<g>
	<g>
		<path class="st0" d="M1301.9,620.6c18.9,3.1,35-13,31.9-31.9c-1.9-11.4-11.1-20.6-22.5-22.5c-18.9-3.1-35,13-31.9,31.9
			C1281.3,609.5,1290.5,618.7,1301.9,620.6z"/>
		<path class="st0" d="M1369.7,665.8c-0.3-0.4-0.6-0.7-0.9-1c-0.1-0.4-0.4-0.7-0.7-1l-38.8-34.7c-2-1.9-4.5-2.7-7.1-2.6
			c-0.1,0-0.1,0-0.2,0h-34c-0.1,0-0.1,0-0.2,0c-2.5-0.1-5.1,0.8-7.1,2.6l-38.8,34.7c-0.3,0.3-0.5,0.6-0.7,1c-0.3,0.3-0.6,0.7-0.9,1
			c-3.3,4.3-2.5,10.5,1.8,13.7c3.7,2.9,9,2.7,12.6-0.6l24.4-23.1v34.3v9v61.4c0,5.7,4.7,10.4,10.4,10.4h2.5
			c5.7,0,10.4-4.7,10.4-10.4v-52.6h5v52.6c0,5.7,4.7,10.4,10.4,10.4h2.5c5.7,0,10.4-4.7,10.4-10.4v-61.4v-9v-34.3l24.4,23.1
			c3.5,3.2,8.8,3.4,12.6,0.6C1372.2,676.2,1373,670.1,1369.7,665.8z"/>
	</g>
</g>
<g>
	<g>
		<path class="st0" d="M952.1,620.6c18.9,3.1,35-13,31.9-31.9c-1.9-11.4-11.1-20.6-22.5-22.5c-18.9-3.1-35,13-31.9,31.9
			C931.4,609.5,940.6,618.7,952.1,620.6z"/>
		<path class="st0" d="M1019.8,665.8c-0.3-0.4-0.6-0.7-0.9-1c-0.1-0.4-0.4-0.7-0.7-1l-38.8-34.7c-2-1.9-4.5-2.7-7.1-2.6
			c-0.1,0-0.1,0-0.2,0h-34c-0.1,0-0.1,0-0.2,0c-2.5-0.1-5.1,0.8-7.1,2.6l-38.8,34.7c-0.3,0.3-0.5,0.6-0.7,1c-0.3,0.3-0.6,0.7-0.9,1
			c-3.3,4.3-2.5,10.5,1.8,13.7c3.7,2.9,9,2.7,12.6-0.6l24.4-23.1v34.3v9v61.4c0,5.7,4.7,10.4,10.4,10.4h2.5
			c5.7,0,10.4-4.7,10.4-10.4v-52.6h5v52.6c0,5.7,4.7,10.4,10.4,10.4h2.5c5.7,0,10.4-4.7,10.4-10.4v-61.4v-9v-34.3l24.4,23.1
			c3.5,3.2,8.8,3.4,12.6,0.6C1022.3,676.2,1023.1,670.1,1019.8,665.8z"/>
	</g>
</g>
<g>
	<g>
		<path class="st0" d="M1484,465.3c18.9,3.1,35-13,31.9-31.9c-1.9-11.4-11.1-20.6-22.5-22.5c-18.9-3.1-35,13-31.9,31.9
			C1463.4,454.3,1472.6,463.5,1484,465.3z"/>
		<path class="st0" d="M1551.8,510.5c-0.3-0.4-0.6-0.7-0.9-1c-0.1-0.4-0.4-0.7-0.7-1l-38.8-34.7c-2-1.9-4.5-2.7-7.1-2.6
			c-0.1,0-0.1,0-0.2,0h-34c-0.1,0-0.1,0-0.2,0c-2.5-0.1-5.1,0.8-7.1,2.6l-38.8,34.7c-0.3,0.3-0.5,0.6-0.7,1c-0.3,0.3-0.6,0.7-0.9,1
			c-3.3,4.3-2.5,10.5,1.8,13.7c3.7,2.9,9,2.7,12.6-0.6l24.4-23.1V535v9v61.4c0,5.7,4.7,10.4,10.4,10.4h2.5c5.7,0,10.4-4.7,10.4-10.4
			v-52.6h5v52.6c0,5.7,4.7,10.4,10.4,10.4h2.5c5.7,0,10.4-4.7,10.4-10.4v-61.4v-9v-34.3l24.4,23.1c3.5,3.2,8.8,3.4,12.6,0.6
			C1554.2,520.9,1555.1,514.8,1551.8,510.5z"/>
	</g>
</g>
<g>
	<g>
		<path class="st0" d="M1651.8,625.8c18.9,3.1,35-13,31.9-31.9c-1.9-11.4-11.1-20.6-22.5-22.5c-18.9-3.1-35,13-31.9,31.9
			C1631.2,614.7,1640.4,623.9,1651.8,625.8z"/>
		<path class="st0" d="M1719.6,671c-0.3-0.4-0.6-0.7-0.9-1c-0.1-0.4-0.4-0.7-0.7-1l-38.8-34.7c-2-1.9-4.5-2.7-7.1-2.6
			c-0.1,0-0.1,0-0.2,0h-34c-0.1,0-0.1,0-0.2,0c-2.5-0.1-5.1,0.8-7.1,2.6l-38.8,34.7c-0.3,0.3-0.5,0.6-0.7,1c-0.3,0.3-0.6,0.7-0.9,1
			c-3.3,4.3-2.5,10.5,1.8,13.7c3.7,2.9,9,2.7,12.6-0.6l24.4-23.1v34.3v9v61.4c0,5.7,4.7,10.4,10.4,10.4h2.5
			c5.7,0,10.4-4.7,10.4-10.4v-52.6h5v52.6c0,5.7,4.7,10.4,10.4,10.4h2.5c5.7,0,10.4-4.7,10.4-10.4v-61.4v-9v-34.3l24.4,23.1
			c3.5,3.2,8.8,3.4,12.6,0.6C1722,681.4,1722.8,675.3,1719.6,671z"/>
	</g>
</g>
<g>
	<g>
		<path class="st0" d="M1785,460.1c18.9,3.1,35-13,31.9-31.9c-1.9-11.4-11.1-20.6-22.5-22.5c-18.9-3.1-35,13-31.9,31.9
			C1764.4,449.1,1773.6,458.3,1785,460.1z"/>
		<path class="st0" d="M1852.8,505.3c-0.3-0.4-0.6-0.7-0.9-1c-0.1-0.4-0.4-0.7-0.7-1l-38.8-34.7c-2-1.9-4.5-2.7-7.1-2.6
			c-0.1,0-0.1,0-0.2,0h-34c-0.1,0-0.1,0-0.2,0c-2.5-0.1-5.1,0.8-7.1,2.6l-38.8,34.7c-0.3,0.3-0.5,0.6-0.7,1c-0.3,0.3-0.6,0.7-0.9,1
			c-3.3,4.3-2.5,10.5,1.8,13.7c3.7,2.9,9,2.7,12.6-0.6l24.4-23.1v34.3v9v61.4c0,5.7,4.7,10.4,10.4,10.4h2.5
			c5.7,0,10.4-4.7,10.4-10.4v-52.6h5v52.6c0,5.7,4.7,10.4,10.4,10.4h2.5c5.7,0,10.4-4.7,10.4-10.4v-61.4v-9v-34.3l24.4,23.1
			c3.5,3.2,8.8,3.4,12.6,0.6C1855.3,515.7,1856.1,509.6,1852.8,505.3z"/>
	</g>
</g>
<g>
	<g>
		<path class="st0" d="M110.9,779.3c18.9,3.1,35-13,31.9-31.9c-1.9-11.4-11.1-20.6-22.5-22.5c-18.9-3.1-35,13-31.9,31.9
			C90.2,768.2,99.5,777.4,110.9,779.3z"/>
		<path class="st0" d="M178.6,824.4c-0.3-0.4-0.6-0.7-0.9-1c-0.1-0.4-0.4-0.7-0.7-1l-38.8-34.7c-2-1.9-4.5-2.7-7.1-2.6
			c-0.1,0-0.1,0-0.2,0H97c-0.1,0-0.1,0-0.2,0c-2.5-0.1-5.1,0.8-7.1,2.6L51,822.4c-0.3,0.3-0.5,0.6-0.7,1c-0.3,0.3-0.6,0.7-0.9,1
			c-3.3,4.3-2.5,10.5,1.8,13.7c3.7,2.9,9,2.7,12.6-0.6l24.4-23.1v34.3v9v61.4c0,5.7,4.7,10.4,10.4,10.4h2.5
			c5.7,0,10.4-4.7,10.4-10.4v-52.6h5v52.6c0,5.7,4.7,10.4,10.4,10.4h2.5c5.7,0,10.4-4.7,10.4-10.4v-61.4v-9v-34.3l24.4,23.1
			c3.5,3.2,8.8,3.4,12.6,0.6C181.1,834.9,181.9,828.7,178.6,824.4z"/>
	</g>
</g>
<g>
	<g>
		<path class="st0" d="M458.4,779.1c18.9,3.1,35-13,31.9-31.9c-1.9-11.4-11.1-20.6-22.5-22.5c-18.9-3.1-35,13-31.9,31.9
			C437.8,768,447,777.2,458.4,779.1z"/>
		<path class="st0" d="M526.2,824.3c-0.3-0.4-0.6-0.7-0.9-1c-0.1-0.4-0.4-0.7-0.7-1l-38.8-34.7c-2-1.9-4.5-2.7-7.1-2.6
			c-0.1,0-0.1,0-0.2,0h-34c-0.1,0-0.1,0-0.2,0c-2.5-0.1-5.1,0.8-7.1,2.6l-38.8,34.7c-0.3,0.3-0.5,0.6-0.7,1c-0.3,0.3-0.6,0.7-0.9,1
			c-3.3,4.3-2.5,10.5,1.8,13.7c3.7,2.9,9,2.7,12.6-0.6l24.4-23.1v34.3v9v61.4c0,5.7,4.7,10.4,10.4,10.4h2.5
			c5.7,0,10.4-4.7,10.4-10.4v-52.6h5v52.6c0,5.7,4.7,10.4,10.4,10.4h2.5c5.7,0,10.4-4.7,10.4-10.4v-61.4v-9v-34.3l24.4,23.1
			c3.5,3.2,8.8,3.4,12.6,0.6C528.7,834.7,529.5,828.6,526.2,824.3z"/>
	</g>
</g>
<g>
	<g>
		<path class="st0" d="M626.2,939.6c18.9,3.1,35-13,31.9-31.9c-1.9-11.4-11.1-20.6-22.5-22.5c-18.9-3.1-35,13-31.9,31.9
			C605.6,928.5,614.8,937.7,626.2,939.6z"/>
		<path class="st0" d="M694,984.7c-0.3-0.4-0.6-0.7-0.9-1c-0.1-0.4-0.4-0.7-0.7-1L653.6,948c-2-1.9-4.5-2.7-7.1-2.6
			c-0.1,0-0.1,0-0.2,0h-34c-0.1,0-0.1,0-0.2,0c-2.5-0.1-5.1,0.8-7.1,2.6l-38.8,34.7c-0.3,0.3-0.5,0.6-0.7,1c-0.3,0.3-0.6,0.7-0.9,1
			c-3.3,4.3-2.5,10.5,1.8,13.7c3.7,2.9,9,2.7,12.6-0.6l24.4-23.1v34.3v9v61.4c0,5.7,4.7,10.4,10.4,10.4h2.5
			c5.7,0,10.4-4.7,10.4-10.4V1027h5v52.6c0,5.7,4.7,10.4,10.4,10.4h2.5c5.7,0,10.4-4.7,10.4-10.4v-61.4v-9v-34.3l24.4,23.1
			c3.5,3.2,8.8,3.4,12.6,0.6C696.4,995.2,697.3,989,694,984.7z"/>
	</g>
</g>
<g>
	<g>
		<path class="st0" d="M276.3,939.6c18.9,3.1,35-13,31.9-31.9c-1.9-11.4-11.1-20.6-22.5-22.5c-18.9-3.1-35,13-31.9,31.9
			C255.7,928.5,264.9,937.7,276.3,939.6z"/>
		<path class="st0" d="M344.1,984.7c-0.3-0.4-0.6-0.7-0.9-1c-0.1-0.4-0.4-0.7-0.7-1L303.7,948c-2-1.9-4.5-2.7-7.1-2.6
			c-0.1,0-0.1,0-0.2,0h-34c-0.1,0-0.1,0-0.2,0c-2.5-0.1-5.1,0.8-7.1,2.6l-38.8,34.7c-0.3,0.3-0.5,0.6-0.7,1c-0.3,0.3-0.6,0.7-0.9,1
			c-3.3,4.3-2.5,10.5,1.8,13.7c3.7,2.9,9,2.7,12.6-0.6l24.4-23.1v34.3v9v61.4c0,5.7,4.7,10.4,10.4,10.4h2.5
			c5.7,0,10.4-4.7,10.4-10.4V1027h5v52.6c0,5.7,4.7,10.4,10.4,10.4h2.5c5.7,0,10.4-4.7,10.4-10.4v-61.4v-9v-34.3l24.4,23.1
			c3.5,3.2,8.8,3.4,12.6,0.6C346.6,995.2,347.4,989,344.1,984.7z"/>
	</g>
</g>
<g>
	<g>
		<path class="st0" d="M786.6,784.5c18.9,3.1,35-13,31.9-31.9c-1.9-11.4-11.1-20.6-22.5-22.5c-18.9-3.1-35,13-31.9,31.9
			C765.9,773.4,775.2,782.6,786.6,784.5z"/>
		<path class="st0" d="M854.3,829.6c-0.3-0.4-0.6-0.7-0.9-1c-0.1-0.4-0.4-0.7-0.7-1L814,792.9c-2-1.9-4.5-2.7-7.1-2.6
			c-0.1,0-0.1,0-0.2,0h-34c-0.1,0-0.1,0-0.2,0c-2.5-0.1-5.1,0.8-7.1,2.6l-38.8,34.7c-0.3,0.3-0.5,0.6-0.7,1c-0.3,0.3-0.6,0.7-0.9,1
			c-3.3,4.3-2.5,10.5,1.8,13.7c3.7,2.9,9,2.7,12.6-0.6l24.4-23.1v34.3v9v61.4c0,5.7,4.7,10.4,10.4,10.4h2.5
			c5.7,0,10.4-4.7,10.4-10.4v-52.6h5v52.6c0,5.7,4.7,10.4,10.4,10.4h2.5c5.7,0,10.4-4.7,10.4-10.4V863v-9v-34.3l24.4,23.1
			c3.5,3.2,8.8,3.4,12.6,0.6C856.8,840.1,857.6,833.9,854.3,829.6z"/>
	</g>
</g>
<g>
	<g>
		<path class="st0" d="M1134.1,784.3c18.9,3.1,35-13,31.9-31.9c-1.9-11.4-11.1-20.6-22.5-22.5c-18.9-3.1-35,13-31.9,31.9
			C1113.5,773.2,1122.7,782.4,1134.1,784.3z"/>
		<path class="st0" d="M1201.9,829.5c-0.3-0.4-0.6-0.7-0.9-1c-0.1-0.4-0.4-0.7-0.7-1l-38.8-34.7c-2-1.9-4.5-2.7-7.1-2.6
			c-0.1,0-0.1,0-0.2,0h-34c-0.1,0-0.1,0-0.2,0c-2.5-0.1-5.1,0.8-7.1,2.6l-38.8,34.7c-0.3,0.3-0.5,0.6-0.7,1c-0.3,0.3-0.6,0.7-0.9,1
			c-3.3,4.3-2.5,10.5,1.8,13.7c3.7,2.9,9,2.7,12.6-0.6l24.4-23.1v34.3v9v61.4c0,5.7,4.7,10.4,10.4,10.4h2.5
			c5.7,0,10.4-4.7,10.4-10.4v-52.6h5v52.6c0,5.7,4.7,10.4,10.4,10.4h2.5c5.7,0,10.4-4.7,10.4-10.4v-61.4v-9v-34.3l24.4,23.1
			c3.5,3.2,8.8,3.4,12.6,0.6C1204.4,839.9,1205.2,833.8,1201.9,829.5z"/>
	</g>
</g>
<g>
	<g>
		<path class="st0" d="M1301.9,944.8c18.9,3.1,35-13,31.9-31.9c-1.9-11.4-11.1-20.6-22.5-22.5c-18.9-3.1-35,13-31.9,31.9
			C1281.3,933.7,1290.5,942.9,1301.9,944.8z"/>
		<path class="st0" d="M1369.7,989.9c-0.3-0.4-0.6-0.7-0.9-1c-0.1-0.4-0.4-0.7-0.7-1l-38.8-34.7c-2-1.9-4.5-2.7-7.1-2.6
			c-0.1,0-0.1,0-0.2,0h-34c-0.1,0-0.1,0-0.2,0c-2.5-0.1-5.1,0.8-7.1,2.6l-38.8,34.7c-0.3,0.3-0.5,0.6-0.7,1c-0.3,0.3-0.6,0.7-0.9,1
			c-3.3,4.3-2.5,10.5,1.8,13.7c3.7,2.9,9,2.7,12.6-0.6l24.4-23.1v34.3v9v61.4c0,5.7,4.7,10.4,10.4,10.4h2.5
			c5.7,0,10.4-4.7,10.4-10.4v-52.6h5v52.6c0,5.7,4.7,10.4,10.4,10.4h2.5c5.7,0,10.4-4.7,10.4-10.4v-61.4v-9v-34.3l24.4,23.1
			c3.5,3.2,8.8,3.4,12.6,0.6C1372.2,1000.4,1373,994.2,1369.7,989.9z"/>
	</g>
</g>
<g>
	<g>
		<path class="st0" d="M952.1,944.8c18.9,3.1,35-13,31.9-31.9c-1.9-11.4-11.1-20.6-22.5-22.5c-18.9-3.1-35,13-31.9,31.9
			C931.4,933.7,940.6,942.9,952.1,944.8z"/>
		<path class="st0" d="M1019.8,989.9c-0.3-0.4-0.6-0.7-0.9-1c-0.1-0.4-0.4-0.7-0.7-1l-38.8-34.7c-2-1.9-4.5-2.7-7.1-2.6
			c-0.1,0-0.1,0-0.2,0h-34c-0.1,0-0.1,0-0.2,0c-2.5-0.1-5.1,0.8-7.1,2.6l-38.8,34.7c-0.3,0.3-0.5,0.6-0.7,1c-0.3,0.3-0.6,0.7-0.9,1
			c-3.3,4.3-2.5,10.5,1.8,13.7c3.7,2.9,9,2.7,12.6-0.6l24.4-23.1v34.3v9v61.4c0,5.7,4.7,10.4,10.4,10.4h2.5
			c5.7,0,10.4-4.7,10.4-10.4v-52.6h5v52.6c0,5.7,4.7,10.4,10.4,10.4h2.5c5.7,0,10.4-4.7,10.4-10.4v-61.4v-9v-34.3l24.4,23.1
			c3.5,3.2,8.8,3.4,12.6,0.6C1022.3,1000.4,1023.1,994.2,1019.8,989.9z"/>
	</g>
</g>
<g>
	<g>
		<path class="st0" d="M1484,789.5c18.9,3.1,35-13,31.9-31.9c-1.9-11.4-11.1-20.6-22.5-22.5c-18.9-3.1-35,13-31.9,31.9
			C1463.4,778.4,1472.6,787.6,1484,789.5z"/>
		<path class="st0" d="M1551.8,834.7c-0.3-0.4-0.6-0.7-0.9-1c-0.1-0.4-0.4-0.7-0.7-1l-38.8-34.7c-2-1.9-4.5-2.7-7.1-2.6
			c-0.1,0-0.1,0-0.2,0h-34c-0.1,0-0.1,0-0.2,0c-2.5-0.1-5.1,0.8-7.1,2.6l-38.8,34.7c-0.3,0.3-0.5,0.6-0.7,1c-0.3,0.3-0.6,0.7-0.9,1
			c-3.3,4.3-2.5,10.5,1.8,13.7c3.7,2.9,9,2.7,12.6-0.6l24.4-23.1v34.3v9v61.4c0,5.7,4.7,10.4,10.4,10.4h2.5
			c5.7,0,10.4-4.7,10.4-10.4V877h5v52.6c0,5.7,4.7,10.4,10.4,10.4h2.5c5.7,0,10.4-4.7,10.4-10.4v-61.4v-9v-34.3l24.4,23.1
			c3.5,3.2,8.8,3.4,12.6,0.6C1554.2,845.1,1555.1,839,1551.8,834.7z"/>
	</g>
</g>
<g>
	<g>
		<path class="st0" d="M1651.8,950c18.9,3.1,35-13,31.9-31.9c-1.9-11.4-11.1-20.6-22.5-22.5c-18.9-3.1-35,13-31.9,31.9
			C1631.2,938.9,1640.4,948.1,1651.8,950z"/>
		<path class="st0" d="M1719.6,995.1c-0.3-0.4-0.6-0.7-0.9-1c-0.1-0.4-0.4-0.7-0.7-1l-38.8-34.7c-2-1.9-4.5-2.7-7.1-2.6
			c-0.1,0-0.1,0-0.2,0h-34c-0.1,0-0.1,0-0.2,0c-2.5-0.1-5.1,0.8-7.1,2.6l-38.8,34.7c-0.3,0.3-0.5,0.6-0.7,1c-0.3,0.3-0.6,0.7-0.9,1
			c-3.3,4.3-2.5,10.5,1.8,13.7c3.7,2.9,9,2.7,12.6-0.6l24.4-23.1v34.3v9v61.4c0,5.7,4.7,10.4,10.4,10.4h2.5
			c5.7,0,10.4-4.7,10.4-10.4v-52.6h5v52.6c0,5.7,4.7,10.4,10.4,10.4h2.5c5.7,0,10.4-4.7,10.4-10.4v-61.4v-9v-34.3l24.4,23.1
			c3.5,3.2,8.8,3.4,12.6,0.6C1722,1005.6,1722.8,999.4,1719.6,995.1z"/>
	</g>
</g>
</svg>
