<svg xmlns="http://www.w3.org/2000/svg" viewBox="0 0 264 347"><defs><style>.cls-1{fill:#4db2e5;}.cls-2{fill:#ee4e9c;}</style></defs><title>hospital</title><g id="Layer_2" data-name="Layer 2"><path class="cls-1" d="M226.23,292.19V94.59h-16V25H56.9V94.59H41v197.6H25v34.69H242.18V292.19ZM97,269.58H56.9V233.85H97Zm0-58.33H56.9V175.53H97Zm0-58.33H56.9V117.19H97Zm53.91,116.66H110.81V233.85h40.11Zm0-58.33H110.81V175.53h40.11Zm0-58.33H110.81V117.19h40.11Zm59.36,116.66H170.17V233.85h40.11Zm0-58.33H170.17V175.53h40.11Zm0-58.33H170.17V117.19h40.11Z"/><polygon class="cls-2" points="158 51.34 141.05 51.34 141.05 34.9 127.76 34.9 127.76 51.34 110.81 51.34 110.81 64.64 127.76 64.64 127.76 82.09 141.05 82.09 141.05 64.64 158 64.64 158 51.34"/></g></svg>