<svg xmlns="http://www.w3.org/2000/svg" viewBox="0 0 231.86 293.77"><defs><style>.cls-1,.cls-4,.cls-5,.cls-6{fill:#ee4e9c;}.cls-1,.cls-2,.cls-4,.cls-6{stroke:#fff;}.cls-1,.cls-2,.cls-3,.cls-4,.cls-6{stroke-miterlimit:10;}.cls-1{stroke-width:0.88px;}.cls-2{fill:#4db2e5;}.cls-2,.cls-3{stroke-width:0.88px;}.cls-3{fill:#fff;stroke:#4db2e5;}.cls-4{stroke-width:0.46px;}.cls-6{stroke-width:0.96px;}</style></defs><title>infect</title><g id="Layer_2" data-name="Layer 2"><circle class="cls-1" cx="136.78" cy="61.59" r="5.5"/><circle class="cls-1" cx="145.68" cy="67.08" r="5.5"/><circle class="cls-1" cx="145.68" cy="56.09" r="5.5"/><circle class="cls-1" cx="156.67" cy="57.34" r="5.5"/><circle class="cls-1" cx="156.1" cy="67.76" r="4.92"/><circle class="cls-1" cx="165.94" cy="50.59" r="4.92"/><circle class="cls-1" cx="167.09" cy="71.8" r="4.92"/><circle class="cls-2" cx="130.98" cy="95.37" r="4.92"/><circle class="cls-2" cx="130.43" cy="80.66" r="4.92"/><circle class="cls-2" cx="117.38" cy="101.7" r="4.92"/><circle class="cls-2" cx="107.54" cy="95.84" r="4.92"/><circle class="cls-3" cx="102.15" cy="86.73" r="4.92"/><circle class="cls-2" cx="111.99" cy="86.73" r="4.92"/><circle class="cls-1" cx="150.6" cy="61.01" r="4.92"/><circle class="cls-1" cx="145.11" cy="45.67" r="4.92"/><circle class="cls-2" cx="140.85" cy="79.99" r="4.92"/><circle class="cls-1" cx="165.94" cy="62.84" r="4.92"/><circle class="cls-1" cx="136.78" cy="51.85" r="4.92"/><path class="cls-4" d="M98.86,102.85c1.87,1.6,1.32,6.05,1.31,8.46,0,4.83,7.48,4.83,7.49,0,0-4.52.28-10.51-3.51-13.75s-9,2.15-5.3,5.3Z"/><path class="cls-4" d="M97.43,125.33c.65-1,1.2-2,1.79-3.08q.46-.8,1-1.57c-.47.7,1.1-.85.06-.14a3.81,3.81,0,0,0,1.32-5.13,3.76,3.76,0,0,0-5.13-1.32,14.36,14.36,0,0,0-4.1,5.1c-.52.91-1,1.83-1.6,2.7l-.15.21-.25.28c-4.13.79-3.89,7.56.71,7.41C94,129.7,95.9,127.65,97.43,125.33Z"/><path class="cls-5" d="M125.12,119c.51-1.07.91-2.19,1.36-3.29q.35-.86.75-1.69c-.37.76,1-1,0-.15a3.81,3.81,0,0,0,.62-5.26,3.76,3.76,0,0,0-5.26-.62,14.35,14.35,0,0,0-3.38,5.6c-.39,1-.77,1.95-1.22,2.89l-.12.23-.21.31c-4,1.34-2.84,8,1.7,7.25C122.33,123.77,123.92,121.48,125.12,119Z"/><path class="cls-5" d="M124.29,102.8c-1.08,3.18-2.38,6.28-3.35,9.5-1.4,4.64,5.84,6.61,7.23,2,1-3.22,2.26-6.32,3.35-9.5,1.56-4.59-5.68-6.54-7.23-2Z"/><path class="cls-4" d="M89.78,101.56a16.35,16.35,0,0,0-10.54-4.31c-4.83-.11-4.82,7.39,0,7.49a8.09,8.09,0,0,1,5.25,2.11,3.81,3.81,0,0,0,5.3,0,3.76,3.76,0,0,0,0-5.3Z"/><path class="cls-4" d="M85.71,115.81c-.77-4.83-6.73-6.67-10.42-8.66-4.25-2.3-8,4.17-3.78,6.47,1.5.81,3.07,1.48,4.57,2.28.39.21.76.43,1.14.66-.07,0,1.05.75.6.38a7.3,7.3,0,0,1,.81.78q-.35-.45,0,.08-.27-.62-.12,0c.32,2,2.81,3.11,4.61,2.62,2.13-.59,2.94-2.59,2.62-4.61Z"/><path class="cls-4" d="M119,126.42a11.46,11.46,0,0,1,2.11-5.84,3.82,3.82,0,0,0,0-5.3c-1.35-1.35-4-1.57-5.3,0a18.1,18.1,0,0,0-4,9.15c-.31,2,.48,4,2.62,4.61,1.79.49,4.3-.6,4.61-2.62Z"/><path class="cls-4" d="M100.74,100.5a25.74,25.74,0,0,0-12,0c-4.66,1.26-2.68,8.49,2,7.22a17.37,17.37,0,0,1,8,0c4.71,1,6.71-6.19,2-7.22Z"/><path class="cls-4" d="M113.95,115.89c1.09-2,3.07-4.47,5.46-4.57,4.81-.2,4.83-7.69,0-7.49-5.19.22-9.51,3.85-11.93,8.28-2.32,4.24,4.15,8,6.47,3.78Z"/><path class="cls-3" d="M131.69,80.55a19.3,19.3,0,0,0-5-3,24.89,24.89,0,0,1-5.57-3.44c-1.6-1.26-3.73-1.57-5.3,0-1.32,1.32-1.61,4,0,5.3a36,36,0,0,0,5.41,3.84c1.67.87,3.71,1.35,5.16,2.58a3.82,3.82,0,0,0,5.3,0,3.76,3.76,0,0,0,0-5.3Z"/><path class="cls-2" d="M147.12,96.65a1.2,1.2,0,0,0,.39.84.53.53,0,0,0,.74-.74s-.13-.15-.06,0l0-.07s0,.15,0,0a.53.53,0,0,0-1.05,0Z"/><path class="cls-2" d="M148.59,99.63h.23a.53.53,0,0,0,0-1.05h-.23a.53.53,0,0,0,0,1.05Z"/><path class="cls-2" d="M151.92,97.59v-.12a.53.53,0,0,0-1.05,0v.12a.53.53,0,0,0,1.05,0Z"/><path class="cls-2" d="M152,101a.53.53,0,0,0,0-1.05.53.53,0,0,0,0,1.05Z"/><path class="cls-2" d="M161.68,102.73a1.15,1.15,0,0,0,.33-.09l.13-.1c.08-.08-.11.05,0,0l-.27.07h0a.54.54,0,0,0,.53-.53.53.53,0,0,0-.53-.53,1.16,1.16,0,0,0-.34.09l-.13.1c-.08.07.11-.05,0,0l.27-.07h0a.54.54,0,0,0-.53.53.53.53,0,0,0,.53.53Z"/><path class="cls-2" d="M158.88,97.06a.53.53,0,0,0,0-1.05.53.53,0,0,0,0,1.05Z"/><path class="cls-2" d="M158.88,101.62a.53.53,0,0,0,0-1.05.53.53,0,0,0,0,1.05Z"/><path class="cls-2" d="M157.59,102a.53.53,0,0,0,0-1.05.53.53,0,0,0,0,1.05Z"/><path class="cls-2" d="M154.43,100.69a.53.53,0,0,0,0-1.05.53.53,0,0,0,0,1.05Z"/><path class="cls-2" d="M152.33,93.79a.53.53,0,0,0,0-1.05.53.53,0,0,0,0,1.05Z"/><path class="cls-2" d="M158.64,99.52a.53.53,0,0,0,0-1.05.53.53,0,0,0,0,1.05Z"/><path class="cls-2" d="M154.67,95.54a.53.53,0,0,0,0-1.05.53.53,0,0,0,0,1.05Z"/><path class="cls-2" d="M145.9,101.62a.53.53,0,0,0,0-1.05.53.53,0,0,0,0,1.05Z"/><path class="cls-2" d="M151.8,103.49a.53.53,0,0,0,0-1.05.53.53,0,0,0,0,1.05Z"/><path class="cls-2" d="M148.82,102.21a.53.53,0,0,0,0-1.05.53.53,0,0,0,0,1.05Z"/><path class="cls-2" d="M153.5,105.83a2.15,2.15,0,0,0,.42-.06l.15,0s.17,0,0,0a.54.54,0,0,0,.53-.53.53.53,0,0,0-.53-.53,1.56,1.56,0,0,0-.34.06l-.25.05a.53.53,0,1,0,0,1.05Z"/><path class="cls-2" d="M158.29,104.08a.53.53,0,0,0,0-1.05.53.53,0,0,0,0,1.05Z"/><path class="cls-2" d="M154.67,102.67a.53.53,0,0,0,0-1.05.53.53,0,0,0,0,1.05Z"/><path class="cls-2" d="M160.4,105.13h-.23a.53.53,0,0,0,0,1.05h.23a.53.53,0,0,0,0-1.05Z"/><path class="cls-2" d="M166.92,103.49a.53.53,0,0,0,0-1.05.53.53,0,0,0,0,1.05Z"/><path class="cls-2" d="M150.57,95.19a.53.53,0,0,0,0-1.05.53.53,0,0,0,0,1.05Z"/><path class="cls-2" d="M156.07,94.72a.53.53,0,0,0,0-1.05.53.53,0,0,0,0,1.05Z"/><path class="cls-2" d="M157.47,96.59a.53.53,0,0,0,0-1.05.53.53,0,0,0,0,1.05Z"/><path class="cls-2" d="M159.11,93.32a.53.53,0,0,0,0-1.05.53.53,0,0,0,0,1.05Z"/><path class="cls-2" d="M151.51,106.42a.53.53,0,0,0,0-1.05.53.53,0,0,0,0,1.05Z"/><path class="cls-2" d="M147.77,106.42a.53.53,0,0,0,0-1.05.53.53,0,0,0,0,1.05Z"/><path class="cls-2" d="M148.88,105a.53.53,0,0,0,0-1.05.53.53,0,0,0,0,1.05Z"/><path class="cls-2" d="M146.6,99.52a.53.53,0,0,0,0-1.05.53.53,0,0,0,0,1.05Z"/><path class="cls-2" d="M143.32,102a.53.53,0,0,0,0-1.05.53.53,0,0,0,0,1.05Z"/><path class="cls-2" d="M139.52,100.22a.53.53,0,0,0,0-1.05.53.53,0,0,0,0,1.05Z"/><path class="cls-2" d="M146.6,104.54a.53.53,0,0,0,0-1.05.53.53,0,0,0,0,1.05Z"/><path class="cls-2" d="M143.62,99.63a.53.53,0,0,0,0-1.05.53.53,0,0,0,0,1.05Z"/><path class="cls-2" d="M142,95.36a.53.53,0,0,0,0-1.05.53.53,0,0,0,0,1.05Z"/><path class="cls-2" d="M144,97.06A.53.53,0,0,0,144,96a.53.53,0,0,0,0,1.05Z"/><path class="cls-2" d="M162.5,95a1.2,1.2,0,0,0,.39.84.53.53,0,0,0,.74-.74s-.13-.15-.06,0l0-.07s0,.15,0,0a.53.53,0,0,0-1.05,0Z"/><path class="cls-2" d="M146,87.7h.23a.53.53,0,0,0,0-1.05H146a.53.53,0,0,0,0,1.05Z"/><path class="cls-2" d="M149.29,85.66v-.12a.53.53,0,0,0-1.05,0v.12a.53.53,0,0,0,1.05,0Z"/><path class="cls-2" d="M149.35,89.11a.53.53,0,0,0,0-1.05.53.53,0,0,0,0,1.05Z"/><path class="cls-2" d="M152.62,86.77a1.15,1.15,0,0,0,.34-.09l.13-.1c.08-.07-.11.05,0,0l-.27.07h0a.54.54,0,0,0,.53-.53.53.53,0,0,0-.53-.53,1.13,1.13,0,0,0-.34.09l-.13.1c-.08.08.11-.05,0,0l.27-.07h0a.54.54,0,0,0-.53.53.53.53,0,0,0,.53.53Z"/><path class="cls-2" d="M167.76,95.36a.53.53,0,0,0,0-1.05.53.53,0,0,0,0,1.05Z"/><path class="cls-2" d="M156.25,89.69a.53.53,0,0,0,0-1.05.53.53,0,0,0,0,1.05Z"/><path class="cls-2" d="M155,90A.53.53,0,0,0,155,89,.53.53,0,0,0,155,90Z"/><path class="cls-2" d="M151.8,88.76a.53.53,0,0,0,0-1.05.53.53,0,0,0,0,1.05Z"/><path class="cls-2" d="M161.22,92.09a.53.53,0,0,0,0-1.05.53.53,0,0,0,0,1.05Z"/><path class="cls-2" d="M156,87.59a.53.53,0,0,0,0-1.05.53.53,0,0,0,0,1.05Z"/><path class="cls-2" d="M163.56,93.84a.53.53,0,0,0,0-1.05.53.53,0,0,0,0,1.05Z"/><path class="cls-2" d="M143.62,90.51a.53.53,0,0,0,0-1.05.53.53,0,0,0,0,1.05Z"/><path class="cls-2" d="M148.06,90.75a.53.53,0,0,0,0-1.05.53.53,0,0,0,0,1.05Z"/><path class="cls-2" d="M146.19,90.28a.53.53,0,0,0,0-1.05.53.53,0,0,0,0,1.05Z"/><path class="cls-2" d="M138.73,97.7a2.05,2.05,0,0,0,.42-.06l.15,0s.17,0,0,0a.53.53,0,0,0,.53-.53.53.53,0,0,0-.53-.53,1.63,1.63,0,0,0-.34.06,1.12,1.12,0,0,1-.25.05.53.53,0,1,0,0,1.05Z"/><path class="cls-2" d="M155.66,92.15a.53.53,0,0,0,0-1.05.53.53,0,0,0,0,1.05Z"/><path class="cls-2" d="M152,90.75a.53.53,0,0,0,0-1.05.53.53,0,0,0,0,1.05Z"/><path class="cls-2" d="M157.77,93.2h-.23a.53.53,0,0,0,0,1.05h.23a.53.53,0,0,0,0-1.05Z"/><path class="cls-2" d="M154.38,94.72a.53.53,0,0,0,0-1.05.53.53,0,0,0,0,1.05Z"/><path class="cls-2" d="M159.46,93.49a.53.53,0,0,0,0-1.05.53.53,0,0,0,0,1.05Z"/><path class="cls-2" d="M165,93A.53.53,0,0,0,165,92,.53.53,0,0,0,165,93Z"/><path class="cls-2" d="M166.36,94.9a.53.53,0,0,0,0-1.05.53.53,0,0,0,0,1.05Z"/><path class="cls-2" d="M161.51,88.14a.53.53,0,0,0,0-1.05.53.53,0,0,0,0,1.05Z"/><path class="cls-2" d="M148.88,92.73a.53.53,0,0,0,0-1.05.53.53,0,0,0,0,1.05Z"/><path class="cls-2" d="M146,95.95a.53.53,0,0,0,0-1.05.53.53,0,0,0,0,1.05Z"/><path class="cls-2" d="M146.07,92.73a.53.53,0,0,0,0-1.05.53.53,0,0,0,0,1.05Z"/><path class="cls-2" d="M144,87.59a.53.53,0,0,0,0-1.05.53.53,0,0,0,0,1.05Z"/><path class="cls-2" d="M142.33,90.28a.53.53,0,0,0,0-1.05.53.53,0,0,0,0,1.05Z"/><path class="cls-2" d="M140.34,94.49a.53.53,0,0,0,0-1.05.53.53,0,0,0,0,1.05Z"/><path class="cls-2" d="M144,92.62a.53.53,0,0,0,0-1.05.53.53,0,0,0,0,1.05Z"/><path class="cls-2" d="M137.71,94.49a.53.53,0,0,0,0-1.05.53.53,0,0,0,0,1.05Z"/><path class="cls-2" d="M160.16,90.51a.53.53,0,0,0,0-1.05.53.53,0,0,0,0,1.05Z"/><path class="cls-2" d="M141.1,106.88a.53.53,0,0,0,0-1.05.53.53,0,0,0,0,1.05Z"/><path class="cls-2" d="M151,109.75a1.2,1.2,0,0,0,.39.84.53.53,0,1,0,.74-.74s-.13-.15-.06,0l0-.07s0,.15,0,0a.53.53,0,1,0-1.05,0Z"/><path class="cls-2" d="M152.5,112.73h.23a.53.53,0,0,0,0-1.05h-.23a.53.53,0,0,0,0,1.05Z"/><path class="cls-2" d="M155.84,110.68v-.12a.53.53,0,0,0-1.05,0v.12a.53.53,0,0,0,1.05,0Z"/><path class="cls-2" d="M155.9,114.13a.53.53,0,0,0,0-1.05.53.53,0,0,0,0,1.05Z"/><path class="cls-2" d="M159.17,111.8a1.11,1.11,0,0,0,.33-.09l.13-.1c.08-.08-.11.05,0,0l-.27.07h0a.54.54,0,0,0,.53-.53.53.53,0,0,0-.53-.53,1.14,1.14,0,0,0-.34.09l-.13.1c-.08.08.11-.05,0,0l.27-.07h0a.54.54,0,0,0-.53.53.53.53,0,0,0,.53.53Z"/><path class="cls-2" d="M162.8,110.16a.53.53,0,0,0,0-1.05.53.53,0,0,0,0,1.05Z"/><path class="cls-2" d="M165.92,106.65a.53.53,0,0,0,0-1.05.53.53,0,0,0,0,1.05Z"/><path class="cls-2" d="M161.51,115.07a.53.53,0,0,0,0-1.05.53.53,0,0,0,0,1.05Z"/><path class="cls-2" d="M158.35,113.78a.53.53,0,0,0,0-1.05.53.53,0,0,0,0,1.05Z"/><path class="cls-2" d="M156.25,106.88a.53.53,0,0,0,0-1.05.53.53,0,0,0,0,1.05Z"/><path class="cls-2" d="M162.56,112.61a.53.53,0,0,0,0-1.05.53.53,0,0,0,0,1.05Z"/><path class="cls-2" d="M158.59,108.64a.53.53,0,0,0,0-1.05.53.53,0,0,0,0,1.05Z"/><path class="cls-2" d="M150.17,115.54a.53.53,0,0,0,0-1.05.53.53,0,0,0,0,1.05Z"/><path class="cls-2" d="M154.61,115.77a.53.53,0,0,0,0-1.05.53.53,0,0,0,0,1.05Z"/><path class="cls-2" d="M152.74,115.3a.53.53,0,0,0,0-1.05.53.53,0,0,0,0,1.05Z"/><path class="cls-2" d="M164.67,98.41a2.08,2.08,0,0,0,.42-.06l.15,0s.17,0,0,0a.53.53,0,0,0,.53-.53.53.53,0,0,0-.53-.53,1.59,1.59,0,0,0-.34.06,1.21,1.21,0,0,1-.25.05.53.53,0,1,0,0,1.05Z"/><path class="cls-2" d="M138.24,102.67a.53.53,0,0,0,0-1.05.53.53,0,0,0,0,1.05Z"/><path class="cls-2" d="M158.59,115.77a.53.53,0,0,0,0-1.05.53.53,0,0,0,0,1.05Z"/><path class="cls-2" d="M168.12,98.93h-.23a.53.53,0,0,0,0,1.05h.23a.53.53,0,0,0,0-1.05Z"/><path class="cls-2" d="M164.73,100.45a.53.53,0,0,0,0-1.05.53.53,0,0,0,0,1.05Z"/><path class="cls-2" d="M154.49,108.29a.53.53,0,0,0,0-1.05.53.53,0,0,0,0,1.05Z"/><path class="cls-2" d="M160,107.82a.53.53,0,0,0,0-1.05.53.53,0,0,0,0,1.05Z"/><path class="cls-2" d="M161.39,109.69a.53.53,0,0,0,0-1.05.53.53,0,0,0,0,1.05Z"/><path class="cls-2" d="M163,106.42a.53.53,0,0,0,0-1.05.53.53,0,0,0,0,1.05Z"/><path class="cls-2" d="M159.23,98.46a.53.53,0,0,0,0-1.05.53.53,0,0,0,0,1.05Z"/><path class="cls-2" d="M155.49,100.22a.53.53,0,0,0,0-1.05.53.53,0,0,0,0,1.05Z"/><path class="cls-2" d="M156.42,98.46a.53.53,0,0,0,0-1.05.53.53,0,0,0,0,1.05Z"/><path class="cls-2" d="M150.52,112.61a.53.53,0,0,0,0-1.05.53.53,0,0,0,0,1.05Z"/><path class="cls-2" d="M148.88,115.3a.53.53,0,0,0,0-1.05.53.53,0,0,0,0,1.05Z"/><path class="cls-2" d="M150.52,100.92a.53.53,0,0,0,0-1.05.53.53,0,0,0,0,1.05Z"/><path class="cls-2" d="M154.32,98.35a.53.53,0,0,0,0-1.05.53.53,0,0,0,0,1.05Z"/><path class="cls-2" d="M146.19,112.5a.53.53,0,0,0,0-1.05.53.53,0,0,0,0,1.05Z"/><path class="cls-2" d="M149.81,109a.53.53,0,0,0,0-1.05.53.53,0,0,0,0,1.05Z"/><path class="cls-2" d="M148.76,111.56a.53.53,0,0,0,0-1.05.53.53,0,0,0,0,1.05Z"/><path class="cls-2" d="M143.85,105.31a1.2,1.2,0,0,0,.39.84.53.53,0,1,0,.74-.74s-.13-.15-.06,0l0-.07s0,.15,0,0a.53.53,0,1,0-1.05,0Z"/><path class="cls-2" d="M145.31,108.29h.23a.53.53,0,0,0,0-1.05h-.23a.53.53,0,0,0,0,1.05Z"/><path class="cls-2" d="M143.32,112.73a.53.53,0,0,0,0-1.05.53.53,0,0,0,0,1.05Z"/><path class="cls-2" d="M145.55,110.86a.53.53,0,0,0,0-1.05.53.53,0,0,0,0,1.05Z"/><path class="cls-2" d="M143.32,108.17a.53.53,0,0,0,0-1.05.53.53,0,0,0,0,1.05Z"/><path class="cls-2" d="M141.69,110.86a.53.53,0,0,0,0-1.05.53.53,0,0,0,0,1.05Z"/><path class="cls-2" d="M139,108.05a.53.53,0,0,0,0-1.05.53.53,0,0,0,0,1.05Z"/><path class="cls-2" d="M142.62,104.54a.53.53,0,0,0,0-1.05.53.53,0,0,0,0,1.05Z"/><path class="cls-2" d="M140.34,104.08a.53.53,0,0,0,0-1.05.53.53,0,0,0,0,1.05Z"/><path class="cls-2" d="M152.65,82.68c.24-.62.62-.62.86,0s.68.64,1,.05.68-.55.86.09.6.71,1,.15.74-.47.84.18.53.77.94.25.78-.39.82.27.44.82.91.35.82-.31.79.35.36.86.87.44.85-.22.74.43.27.89.82.53.87-.13.7.51.17.91.76.61.88,0,.64.58.07.93.69.69.88.05.58.64,0,.93.61.76.87.14.51.7-.12.92.53.82.85.23.43.75-.22.9.44.87.82.32.35.79-.31.88.35.91.78.4.27.82-.4.84.25.94.73.48.18.84-.48.79.15,1,.68.56.09.86-.57.74.05,1,.62.62,0,.86-.64.67-.05,1,.55.68-.09.86-.71.61-.15,1,.47.74-.18.84-.77.53-.25.94.39.78-.27.82-.82.44-.35.91.31.82-.35.79-.86.36-.44.87.22.85-.43.75-.89.27-.53.82.13.87-.51.7-.91.17-.61.76,0,.88-.58.64-.93.07-.69.69-.05.88-.64.58-.93,0-.76.61-.14.87-.7.51-.92-.12-.82.53-.23.85-.74.43-.9-.22-.87.44-.32.82-.79.35-.88-.31-.91.35-.4.78-.82.27-.84-.4-.94.25-.48.73-.84.18-.79-.49-1,.15-.56.68-.86.09-.74-.57-1,.05-.62.62-.86,0-.68-.64-1-.05-.68.55-.86-.09-.6-.71-1-.15-.74.47-.84-.18-.53-.77-.94-.25-.78.39-.82-.27-.44-.82-.91-.35-.82.31-.79-.35-.36-.86-.87-.44-.85.22-.75-.43-.26-.89-.82-.53-.87.13-.7-.51-.17-.91-.76-.61-.88,0-.64-.58-.07-.93-.69-.69-.88-.05-.58-.64,0-.93-.61-.76-.87-.14-.51-.7.12-.92-.53-.82-.85-.23-.43-.75.22-.9-.44-.87-.82-.32-.35-.79.31-.88-.35-.91-.78-.4-.27-.82.4-.84-.25-.94-.73-.48-.18-.84.48-.79-.15-1-.68-.56-.09-.86.57-.74-.05-1-.62-.62,0-.86.64-.67.05-1-.55-.68.09-.86.71-.6.15-1-.47-.74.18-.84.77-.53.25-.94-.39-.78.27-.82.82-.44.35-.91-.31-.82.35-.79.86-.36.44-.87-.22-.85.43-.75.89-.27.53-.82-.13-.87.51-.7.91-.17.61-.76,0-.88.58-.64.93-.07.69-.69.05-.88.64-.58.93,0,.76-.61.14-.87.7-.51.92.12.82-.53.23-.85.75-.43.9.22.87-.44.32-.82.79-.35.88.31.91-.35.4-.78.82-.27.84.4.94-.25.48-.73.84-.18.79.49,1-.15.56-.68.86-.09S152.41,83.3,152.65,82.68Z"/><path class="cls-2" d="M158.2,102.45c3.69,0,3.69-5.72,0-5.72s-3.69,5.72,0,5.72Z"/><path class="cls-2" d="M147.11,96.35c3.69,0,3.69-5.72,0-5.72s-3.69,5.72,0,5.72Z"/><path class="cls-2" d="M146.05,110.89c3.69,0,3.69-5.72,0-5.72s-3.69,5.72,0,5.72Z"/><path class="cls-2" d="M160.16,111.19c3.69,0,3.69-5.72,0-5.72s-3.69,5.72,0,5.72Z"/><path class="cls-2" d="M156.17,93.81c2.83,0,2.83-4.38,0-4.38s-2.83,4.38,0,4.38Z"/><path class="cls-2" d="M141.61,102.91a1.76,1.76,0,1,0,0-3.52,1.76,1.76,0,1,0,0,3.52Z"/><path class="cls-2" d="M152.74,113.21a1.76,1.76,0,1,0,0-3.52,1.76,1.76,0,1,0,0,3.52Z"/><circle class="cls-3" cx="97.43" cy="68.21" r="22.91"/><rect class="cls-3" x="96.64" y="34.76" width="1.58" height="11.58"/><rect class="cls-3" x="96.64" y="90.53" width="1.58" height="11.58"/><rect class="cls-3" x="119.52" y="67.65" width="11.58" height="1.58"/><rect class="cls-3" x="63.75" y="67.65" width="11.58" height="1.58"/><rect class="cls-3" x="111.35" y="47.93" width="11.58" height="1.58" transform="translate(-0.12 97.15) rotate(-45.02)"/><rect class="cls-3" x="71.92" y="87.36" width="11.58" height="1.58" transform="translate(-39.57 80.73) rotate(-44.98)"/><rect class="cls-3" x="116.35" y="82.36" width="1.58" height="11.58" transform="translate(-28.02 108.65) rotate(-45)"/><rect class="cls-3" x="76.92" y="42.93" width="1.58" height="11.58" transform="translate(-11.69 69.22) rotate(-45)"/><rect class="cls-3" x="103" y="42.19" width="11.58" height="1.58" transform="translate(25.24 124.84) rotate(-65.97)"/><rect class="cls-3" x="80.27" y="93.11" width="11.58" height="1.58" transform="translate(-34.75 134.25) rotate(-65.96)"/><rect class="cls-3" x="122.1" y="74.01" width="1.58" height="11.58" transform="translate(-0.08 159.49) rotate(-65.94)"/><rect class="cls-3" x="71.18" y="51.28" width="1.58" height="11.58" transform="translate(-9.49 99.52) rotate(-65.94)"/><rect class="cls-3" x="117.68" y="57.68" width="11.58" height="1.58" transform="translate(-12.74 47.96) rotate(-20.93)"/><rect class="cls-3" x="65.59" y="77.62" width="11.58" height="1.58" transform="translate(-23.33 30.74) rotate(-20.97)"/><rect class="cls-3" x="106.61" y="88.69" width="1.58" height="11.58" transform="translate(-26.68 44.63) rotate(-20.94)"/><rect class="cls-3" x="86.67" y="36.61" width="1.58" height="11.58" transform="translate(-9.38 34.06) rotate(-20.94)"/><circle class="cls-2" cx="128.51" cy="70.88" r="2.76"/><circle class="cls-2" cx="63.75" cy="68.44" r="2.76"/><circle class="cls-2" cx="97.43" cy="102.11" r="2.76"/><circle class="cls-2" cx="97.38" cy="36.24" r="2.76"/><circle class="cls-2" cx="121.24" cy="92.25" r="2.76" transform="translate(-29.72 112.75) rotate(-45)"/><circle class="cls-2" cx="73.62" cy="44.63" r="2.76" transform="translate(-10 65.12) rotate(-45)"/><circle class="cls-2" cx="73.62" cy="92.25" r="2.76" transform="translate(-43.67 79.08) rotate(-45)"/><circle class="cls-2" cx="121.24" cy="44.63" r="2.76" transform="translate(3.95 98.8) rotate(-45)"/><circle class="cls-2" cx="128.22" cy="82.06" r="2.76" transform="translate(1.31 166.13) rotate(-66.14)"/><circle class="cls-2" cx="66.63" cy="54.81" r="2.76" transform="translate(-10.45 93.57) rotate(-66.14)"/><circle class="cls-2" cx="83.8" cy="99.23" r="2.76" transform="translate(-40.85 135.73) rotate(-66.14)"/><circle class="cls-2" cx="111.05" cy="37.64" r="2.76" transform="translate(31.71 123.98) rotate(-66.14)"/><circle class="cls-2" cx="109.57" cy="99.85" r="2.76" transform="translate(-28.64 46.24) rotate(-21.14)"/><circle class="cls-2" cx="85.28" cy="37.03" r="2.76" transform="translate(-7.61 33.24) rotate(-21.14)"/><circle class="cls-2" cx="66.02" cy="80.58" r="2.76" transform="translate(-24.62 29.23) rotate(-21.14)"/><circle class="cls-2" cx="126.25" cy="58.74" r="2.76" transform="translate(-12.69 49.48) rotate(-21.14)"/><circle class="cls-2" cx="88.21" cy="75.03" r="4.86"/><circle class="cls-2" cx="88.21" cy="65.31" r="4.86"/><circle class="cls-2" cx="97.94" cy="66.42" r="4.86"/><circle class="cls-2" cx="97.43" cy="75.63" r="4.35"/><circle class="cls-2" cx="106.13" cy="60.45" r="4.35"/><circle class="cls-2" cx="107.15" cy="79.2" r="4.35"/><circle class="cls-2" cx="92.57" cy="69.66" r="4.35"/><circle class="cls-2" cx="93.08" cy="85.29" r="4.35"/><circle class="cls-2" cx="87.71" cy="56.09" r="4.35"/><circle class="cls-2" cx="97.43" cy="59.57" r="4.35"/><circle class="cls-2" cx="106.13" cy="71.28" r="4.35"/><path class="cls-6" d="M161.73,162.59a14.85,14.85,0,1,0-12.12-12.12A14.86,14.86,0,0,0,161.73,162.59Z"/><path class="cls-6" d="M198.2,186.89a4.63,4.63,0,0,0-.5-.55,1.34,1.34,0,0,0-.37-.53l-20.86-18.67a5.22,5.22,0,0,0-3.8-1.42H154.17a5.21,5.21,0,0,0-3.8,1.42l-20.86,18.67a1.34,1.34,0,0,0-.37.53,4.63,4.63,0,0,0-.5.55,5.27,5.27,0,0,0,7.74,7.1l13.11-12.41V238a5.64,5.64,0,0,0,5.62,5.62h1.33a5.64,5.64,0,0,0,5.62-5.62V209.66h2.7V238a5.64,5.64,0,0,0,5.62,5.62h1.33a5.64,5.64,0,0,0,5.62-5.62V181.58L190.46,194a5.27,5.27,0,0,0,7.74-7.1Z"/><path class="cls-6" d="M67.89,162.59a14.85,14.85,0,1,0-12.12-12.12A14.86,14.86,0,0,0,67.89,162.59Z"/><path class="cls-6" d="M104.35,186.89a4.63,4.63,0,0,0-.5-.55,1.34,1.34,0,0,0-.37-.53L82.63,167.14a5.22,5.22,0,0,0-3.8-1.42H60.32a5.21,5.21,0,0,0-3.8,1.42L35.67,185.81a1.34,1.34,0,0,0-.37.53,4.63,4.63,0,0,0-.5.55,5.27,5.27,0,0,0,7.74,7.1l13.11-12.41V238a5.64,5.64,0,0,0,5.62,5.62h1.33A5.64,5.64,0,0,0,68.23,238V209.66h2.7V238a5.64,5.64,0,0,0,5.62,5.62h1.33A5.64,5.64,0,0,0,83.49,238V181.58L96.61,194a5.27,5.27,0,0,0,7.74-7.1Z"/><path class="cls-6" d="M111.06,175a18,18,0,1,0-14.72-14.72A18,18,0,0,0,111.06,175Z"/><path class="cls-6" d="M155.34,204.46a5.62,5.62,0,0,0-.6-.67,1.62,1.62,0,0,0-.44-.65L129,180.48a6.33,6.33,0,0,0-4.61-1.73H101.88a6.33,6.33,0,0,0-4.61,1.73L71.95,203.15a1.62,1.62,0,0,0-.44.65,5.63,5.63,0,0,0-.6.67,6.4,6.4,0,0,0,9.4,8.62L96.22,198v68.45a6.84,6.84,0,0,0,6.82,6.82h1.61a6.84,6.84,0,0,0,6.82-6.82V232.11h3.28v34.36a6.84,6.84,0,0,0,6.82,6.82h1.61a6.84,6.84,0,0,0,6.82-6.82V198l15.93,15.07a6.4,6.4,0,0,0,9.4-8.62Z"/></g></svg>