<svg xmlns="http://www.w3.org/2000/svg" viewBox="0 0 231.86 293.77"><defs><style>.cls-1{fill:#5ec8e2;}.cls-2,.cls-3{fill:#fff;}.cls-2{stroke:#4db2e5;stroke-width:1.6px;}.cls-10,.cls-11,.cls-2{stroke-miterlimit:10;}.cls-4{fill:#334d5d;}.cls-5,.cls-8{fill:#ee4e9c;}.cls-6{font-size:42.97px;fill:#4db2e5;}.cls-6,.cls-8{font-family:FilsonSoft-Bold, Filson Soft;font-weight:700;}.cls-7{letter-spacing:-0.02em;}.cls-8{font-size:27.62px;}.cls-9{letter-spacing:-0.01em;}.cls-10,.cls-11{fill:none;stroke:#95d9f4;stroke-width:3px;}.cls-11{stroke-dasharray:8.34 8.34;}</style></defs><title>link</title><g id="Layer_2" data-name="Layer 2"><g id="_Group_" data-name="&lt;Group&gt;"><g id="_Group_2" data-name="&lt;Group&gt;"><rect id="_Path_" data-name="&lt;Path&gt;" class="cls-1" x="124.78" y="89.9" width="1.52" height="16.58" transform="translate(-33.66 90.74) rotate(-35.35)"/><path id="_Path_2" data-name="&lt;Path&gt;" class="cls-2" d="M77.78,41.66,88,34.42a2.69,2.69,0,0,1,2.77-.21l2.85,1.44,29.05,41a9.23,9.23,0,0,1,1.45,7.48l-2.15,9-9.24-1a9.23,9.23,0,0,1-6.58-3.84l-29.05-41-.41-3.16A2.69,2.69,0,0,1,77.78,41.66Z"/><path id="_Path_3" data-name="&lt;Path&gt;" class="cls-3" d="M112.62,89.08l.4.05,6.59.68,1.53-6.44a6.18,6.18,0,0,0-1-5L91.55,38l-2-1-9.86,7,.29,2.2,28.61,40.34a6.14,6.14,0,0,0,4,2.52Z"/><rect id="_Path_4" data-name="&lt;Path&gt;" class="cls-4" x="78.21" y="30.54" width="4.57" height="8.25" transform="translate(-5.22 52.96) rotate(-35.35)"/><rect id="_Rectangle_" data-name="&lt;Rectangle&gt;" class="cls-1" x="65.47" y="26.9" width="23.01" height="5.64" rx="2.35" ry="2.35" transform="translate(156.96 9.42) rotate(144.65)"/><g id="_Group_3" data-name="&lt;Group&gt;"><path id="_Path_5" data-name="&lt;Path&gt;" class="cls-5" d="M92.85,64.34l11.55-8.2,1.09,1.54-5.78,4.1,1.76,2.49,5.78-4.1,4,5.68-5.78,4.1,1.76,2.49,5.78-4.1,4,5.68-5.78,4.1,1.76,2.49,5.78-4.1,1.33,1.87a6.18,6.18,0,0,1,1,5l-1.53,6.44L113,89.13l-.4-.05h0a6.14,6.14,0,0,1-4-2.52Z"/><rect id="_Path_6" data-name="&lt;Path&gt;" class="cls-4" x="111.53" y="75.78" width="7.08" height="3.05" transform="translate(-23.51 80.83) rotate(-35.35)"/><rect id="_Path_7" data-name="&lt;Path&gt;" class="cls-4" x="105.74" y="67.62" width="7.08" height="3.05" transform="translate(-19.85 75.97) rotate(-35.35)"/><rect id="_Path_8" data-name="&lt;Path&gt;" class="cls-4" x="99.95" y="59.46" width="7.08" height="3.05" transform="translate(-16.2 71.12) rotate(-35.35)"/><rect id="_Path_9" data-name="&lt;Path&gt;" class="cls-4" x="94.17" y="51.29" width="7.08" height="3.05" transform="translate(-12.55 66.27) rotate(-35.35)"/><rect id="_Path_10" data-name="&lt;Path&gt;" class="cls-4" x="88.38" y="43.13" width="7.08" height="3.05" transform="translate(-8.89 61.41) rotate(-35.35)"/></g></g></g><rect class="cls-5" x="107.18" y="115.5" width="5.06" height="63.8" transform="matrix(0.82, -0.58, 0.58, 0.82, -65.06, 90.65)"/><rect class="cls-5" x="107.18" y="115.5" width="5.06" height="63.8" transform="translate(113.91 331.1) rotate(-144.65)"/><path class="cls-1" d="M114.73,144.36a3.53,3.53,0,0,0-4.67.84,5.88,5.88,0,0,1-5.35,8.14l-15.2.19a5.88,5.88,0,0,1-.15-11.76l11.94-.15a13,13,0,0,1,4-4.7c-.26,0-.51,0-.78,0l-15.2.19a10.56,10.56,0,1,0,.27,21.13l15.2-.19a10.56,10.56,0,0,0,10-13.66ZM138.62,147a10.58,10.58,0,0,0-10.7-10.43l-15.2.19a10.56,10.56,0,0,0-10,13.66,3.53,3.53,0,0,0,4.67-.84,5.88,5.88,0,0,1,5.35-8.14l15.2-.19a5.88,5.88,0,1,1,.15,11.76l-11.94.15a13,13,0,0,1-4,4.7c.26,0,.51,0,.78,0l15.2-.19A10.58,10.58,0,0,0,138.62,147Z"/><text class="cls-6" transform="translate(34.88 241.95)"><tspan class="cls-7">A</tspan><tspan x="29.35" y="0">UTISM</tspan></text><text class="cls-8" transform="translate(30.03 153.29)"><tspan xml:space="preserve">no             lin</tspan><tspan class="cls-9" x="153.86" y="0">k</tspan></text><line class="cls-10" x1="109.28" y1="107.4" x2="109.28" y2="111.9"/><line class="cls-11" x1="109.28" y1="120.25" x2="109.28" y2="182.82"/><line class="cls-10" x1="109.28" y1="187" x2="109.28" y2="191.5"/></g></svg>