<svg xmlns="http://www.w3.org/2000/svg" viewBox="0 0 231.86 198.19"><defs><style>.cls-1,.cls-2{fill:#4db2e5;stroke:#fff;stroke-miterlimit:10;}.cls-1{stroke-width:2px;}.cls-2{stroke-width:2.43px;}</style></defs><title>lives</title><g id="Layer_2" data-name="Layer 2"><path class="cls-1" d="M170.08,48.54A18.49,18.49,0,1,0,155,33.45,18.5,18.5,0,0,0,170.08,48.54Z"/><path class="cls-1" d="M215.47,78.79a5.76,5.76,0,0,0-.62-.68,1.67,1.67,0,0,0-.45-.66l-26-23.24a6.49,6.49,0,0,0-4.73-1.77h-23a6.49,6.49,0,0,0-4.73,1.77L130,77.45a1.67,1.67,0,0,0-.45.66,5.77,5.77,0,0,0-.62.68,6.56,6.56,0,0,0,9.63,8.84l16.33-15.45v70.18a7,7,0,0,0,7,7h1.65a7,7,0,0,0,7-7V107.14h3.37v35.22a7,7,0,0,0,7,7h1.65a7,7,0,0,0,7-7V72.18l16.33,15.45a6.56,6.56,0,0,0,9.63-8.84Z"/><path class="cls-1" d="M53.24,48.54A18.49,18.49,0,1,0,38.15,33.45,18.5,18.5,0,0,0,53.24,48.54Z"/><path class="cls-1" d="M98.64,78.79a5.76,5.76,0,0,0-.62-.68,1.67,1.67,0,0,0-.45-.66L71.6,54.2a6.49,6.49,0,0,0-4.73-1.77h-23A6.49,6.49,0,0,0,39.1,54.2l-26,23.24a1.67,1.67,0,0,0-.45.66,5.77,5.77,0,0,0-.62.68,6.56,6.56,0,0,0,9.63,8.84L38,72.18v70.18a7,7,0,0,0,7,7h1.65a7,7,0,0,0,7-7V107.14H57v35.22a7,7,0,0,0,7,7h1.65a7,7,0,0,0,7-7V72.18L89,87.63a6.56,6.56,0,0,0,9.63-8.84Z"/><path class="cls-2" d="M107,63.93A22.45,22.45,0,1,0,88.67,45.6,22.46,22.46,0,0,0,107,63.93Z"/><path class="cls-2" d="M162.12,100.66a7,7,0,0,0-.75-.83,2,2,0,0,0-.55-.81L129.29,70.8a7.88,7.88,0,0,0-5.74-2.15h-28a7.88,7.88,0,0,0-5.74,2.15L58.3,99a2,2,0,0,0-.55.81,7,7,0,0,0-.75.83,8,8,0,0,0,11.7,10.73L88.52,92.64v85.21A8.52,8.52,0,0,0,97,186.34h2a8.52,8.52,0,0,0,8.49-8.49V135.08h4.09v42.77a8.52,8.52,0,0,0,8.49,8.49h2a8.52,8.52,0,0,0,8.49-8.49V92.63l19.83,18.76a8,8,0,0,0,11.7-10.73Z"/></g></svg>