<svg xmlns="http://www.w3.org/2000/svg" viewBox="0 0 231.86 293.77"><defs><style>.cls-1,.cls-2{fill:#4db2e5;stroke:#fff;stroke-miterlimit:10;}.cls-1{stroke-width:2px;}.cls-2{stroke-width:2.43px;}.cls-3{fill:#ee4e9c;}</style></defs><title>lives</title><g id="Layer_2" data-name="Layer 2"><path class="cls-1" d="M170.08,144.12A18.49,18.49,0,1,0,155,129,18.5,18.5,0,0,0,170.08,144.12Z"/><path class="cls-1" d="M215.47,174.38a5.76,5.76,0,0,0-.62-.68,1.67,1.67,0,0,0-.45-.66l-26-23.24A6.49,6.49,0,0,0,183.7,148h-23a6.49,6.49,0,0,0-4.73,1.77L130,173a1.67,1.67,0,0,0-.45.66,5.77,5.77,0,0,0-.62.68,6.56,6.56,0,0,0,9.63,8.84l16.33-15.45v70.18a7,7,0,0,0,7,7h1.65a7,7,0,0,0,7-7V202.72h3.37v35.22a7,7,0,0,0,7,7h1.65a7,7,0,0,0,7-7V167.76l16.33,15.45a6.56,6.56,0,0,0,9.63-8.84Z"/><path class="cls-1" d="M53.24,144.12A18.49,18.49,0,1,0,38.15,129,18.5,18.5,0,0,0,53.24,144.12Z"/><path class="cls-1" d="M98.64,174.38a5.76,5.76,0,0,0-.62-.68,1.67,1.67,0,0,0-.45-.66l-26-23.24A6.49,6.49,0,0,0,66.87,148h-23a6.49,6.49,0,0,0-4.73,1.77L13.14,173a1.67,1.67,0,0,0-.45.66,5.77,5.77,0,0,0-.62.68,6.56,6.56,0,0,0,9.63,8.84L38,167.77v70.18a7,7,0,0,0,7,7h1.65a7,7,0,0,0,7-7V202.72H57v35.22a7,7,0,0,0,7,7h1.65a7,7,0,0,0,7-7V167.76L89,183.22a6.56,6.56,0,0,0,9.63-8.84Z"/><path class="cls-2" d="M107,159.51a22.45,22.45,0,1,0-18.32-18.32A22.46,22.46,0,0,0,107,159.51Z"/><path class="cls-2" d="M162.12,196.25a7,7,0,0,0-.75-.83,2,2,0,0,0-.55-.81l-31.53-28.22a7.88,7.88,0,0,0-5.74-2.15h-28a7.88,7.88,0,0,0-5.74,2.15L58.3,194.61a2,2,0,0,0-.55.81,7,7,0,0,0-.75.83A8,8,0,0,0,68.69,207l19.82-18.76v85.21A8.52,8.52,0,0,0,97,281.93h2a8.52,8.52,0,0,0,8.49-8.49V230.66h4.09v42.77a8.52,8.52,0,0,0,8.49,8.49h2a8.52,8.52,0,0,0,8.49-8.49V188.21L150.42,207a8,8,0,0,0,11.7-10.73Z"/><rect class="cls-3" x="98" y="11.03" width="23.12" height="82.03"/><rect class="cls-3" x="98" y="10.16" width="23.12" height="82.03" transform="translate(160.73 -58.39) rotate(90)"/></g></svg>