<svg xmlns="http://www.w3.org/2000/svg" viewBox="0 0 215.99 482.89"><defs><style>.cls-1{fill:#ee4e9c;}.cls-2{fill:none;}.cls-2,.cls-3{stroke:#ee4e9c;stroke-miterlimit:10;stroke-width:1.9px;}.cls-3,.cls-4{fill:#fff;}</style></defs><title>measlesgirl</title><g id="Layer_2" data-name="Layer 2"><path class="cls-1" d="M91.12,455.64c-3.32,0-5.42-.83-6.43-2.54-2-3.31,1.21-8.71,3.75-13,1.08-1.84,2.2-3.74,2.28-4.53.42-3.79-3.88-32.1-5.17-34l-.1-.15-.06-.21c-3.88-18.35-3.61-20-2.15-29.5.4-2.59.9-5.82,1.43-10.16,1.54-10.36,0-24.83,0-25l-.12-1.14,22.14,1.72-.14,1c0,.27-3.77,27.34-4.2,34.51.95,12.95.88,26.32.81,38.12-.07,13.43-.14,25,1.58,27.82l.16.26,0,.31c-.26,3.26-.3,5.79-.34,7.83-.15,8.37-1,8.39-11,8.65l-1.86.05Zm-3.89-55C89,404.18,93,432,92.62,435.74c-.13,1.2-1.19,3-2.53,5.29-2.17,3.7-5.14,8.76-3.75,11.11.67,1.14,2.47,1.67,5.34,1.59l1.86-.05c4.59-.12,7.11-.19,8.12-1,.86-.66.92-2.26,1-5.82,0-2,.08-4.48.32-7.66-1.84-3.57-1.79-14.11-1.71-28.54.06-11.79.14-25.15-.81-38v-.13c.38-6.46,3.39-28.65,4.08-33.72l-17.85-1.38c.34,3.67,1.22,15.31-.12,24.29-.53,4.35-1,7.59-1.44,10.2C83.71,381.06,83.45,382.73,87.23,400.6Z"/><path class="cls-1" d="M123.54,455.64h-.61l-1.86-.05c-10-.26-10.81-.28-11-8.65,0-2-.08-4.58-.34-7.83l0-.31.16-.26c1.72-2.8,1.66-14.4,1.58-27.82-.06-11.8-.14-25.18.81-38.12-.43-7.17-4.16-34.23-4.2-34.51l-.14-1,22.14-1.72-.12,1.14c0,.14-1.54,14.62,0,24.95.53,4.37,1,7.59,1.44,10.19,1.47,9.45,1.73,11.16-2.15,29.5l0,.2-.12.16c-1.29,1.93-5.59,30.25-5.17,34,.09.79,1.2,2.69,2.28,4.53,2.54,4.33,5.71,9.73,3.75,13C129,454.81,126.86,455.64,123.54,455.64Zm-11.85-16.4c.24,3.18.29,5.66.32,7.66.07,3.56.13,5.16,1,5.82,1,.78,3.54.84,8.12,1l1.86.05c2.86.08,4.67-.45,5.34-1.59,1.39-2.35-1.58-7.41-3.75-11.11-1.34-2.28-2.4-4.09-2.53-5.29-.42-3.78,3.58-31.57,5.39-35.14,3.78-17.87,3.52-19.54,2.1-28.68-.41-2.61-.91-5.85-1.44-10.23-1.33-9-.45-20.6-.11-24.27l-17.85,1.38c.69,5.07,3.7,27.26,4.08,33.72v.13c-.95,12.89-.87,26.25-.81,38C113.48,425.13,113.53,435.67,111.69,439.24Z"/><path class="cls-1" d="M90.19,438.09s2.35,11.3,13.75.93c0,0-.3,13.16-1.25,13.93s-17,3.23-17.63,0S90.19,438.09,90.19,438.09Z"/><path class="cls-1" d="M124.39,438.09s-2.27,11.3-13.28.93c0,0,.29,13.16,1.21,13.93s16.41,3.23,17,0S124.39,438.09,124.39,438.09Z"/><path class="cls-1" d="M88.12,182.95l10.37,4.46h18.36l8.11-4.46,17.13,3.82s-1.93,55.4,0,63.67,8.78,48.39,17.24,82.14c-.54.64-39.94,12.1-98,0,1.07-21,13.23-83.41,13.23-83.41L72.88,187.4Z"/><path class="cls-2" d="M70.56,188.51s-10.16,3.81-23.49,57.13c0,1.27-14.49,26-14.49,26l10.9,7s19.46-24.76,22.63-30.47,7.79-23.49,7.79-23.49V187.87Z"/><path class="cls-3" d="M95.46,170.9a11.16,11.16,0,0,1,0,8.88L89,183.43s19.19,26.46,36.11.44c-1.31-.48-9.81-2.21-7.73-11.8a25.63,25.63,0,0,1-11.62,1.65C102,173.25,98.22,171.78,95.46,170.9Z"/><path class="cls-1" d="M63.91,153.81l-1.86-1.06c-.38-.22-9.34-5.45-9.34-15.38,0-4.15.65-6.21,2.11-6.68s2.95,1.25,3.21,1.61l.13.25,3.08,9.1ZM55.4,132.5s-.78.47-.78,4.87c0,6.09,4,10.3,6.45,12.33l-1.66-7.59-3-8.8a2.25,2.25,0,0,0-1-.8Z"/><path class="cls-2" d="M159.94,131.55s3.81-3.67,3.81,5.82-10.31,15.33-10.31,15.33l3-11Z"/><path class="cls-1" d="M108.35,175h-.11c-3.7-.44-5-.67-5.47-.95-36.15-10.41-38.29-15.29-39.31-17.64l0-.11c-.47-1.05-1.44-4.68-2.56-8.87-1-3.77-2-7.66-2.75-9.77-.69-2.56-3.48-10.26-6.44-18.41-3.45-9.51-7-19.34-7.71-22.28-4.35-18.32,1.65-36.21,17.34-51.73a103.18,103.18,0,0,1,25.18-18C87,27,97.63,23,124.22,25.38h.16l.15.07a122,122,0,0,1,28,18.9c17.58,16.1,24.57,34.3,20.22,52.63-.69,2.94-4.26,12.76-7.71,22.26-3,8.15-5.76,15.86-6.43,18.36-.72,2.17-1.76,6.06-2.77,9.83-1.12,4.19-2.09,7.81-2.55,8.86l0,.11c-1,2.35-3.16,7.23-39.31,17.64-.5.28-1.77.5-5.47.95Zm-3.95-2.47c.92.16,2.52.38,3.95.56,1.43-.17,3-.4,3.95-.56l.85-.24c35.54-10.21,37.66-15.05,38.36-16.64l.05-.12c.41-.91,1.45-4.81,2.45-8.58s2.06-7.73,2.79-9.89c.68-2.53,3.49-10.27,6.46-18.46,3.43-9.45,7-19.22,7.64-22.05,9.89-41.65-43.84-67.79-47-69.29-26-2.35-36.56,1.68-36.66,1.72-.46.22-51.56,24.87-41.43,67.58.67,2.83,4.22,12.61,7.65,22.06,3,8.19,5.78,15.92,6.48,18.51.71,2.11,1.75,6,2.77,9.83s2.05,7.68,2.46,8.59l.05.12c.7,1.59,2.81,6.43,38.36,16.64Z"/><path class="cls-1" d="M188.76,90.43s3.81-29.7-3.81-37.32c-12.08-13.53-19.86-11.93-22.88-10.4-11.43-12.52-32.14-21.48-67.74-22-4.39-.4-25.85,4.55-42,18.74h0S43.9,31.09,28,48.86c-7.62,7.62-3.81,37.32-3.81,37.32s-1.9,10.29-17.14,5.21c0,0,4.78,29,33.49,18.3h0c1.37,3.28,3,6.66,4.81,10.17,10.17,17.5,9.3,12.57,9.3,12.57l4.3,4.93s-10.59-24.11-3.43-37.55c1.45.84,3.41,9.4,9.09,10.36,0,0-1.88-17.53,0-24S77.92,99.82,83,99.82c-.37-2.53.84-25.06.84-25.06a47.44,47.44,0,0,0,17.29,25.06l.64.84s.67-14.67,8.43-25.9c0,0,2.75,16.52,9,25,1.1-3.18,5-14.05,9.12-20.73-.86,1.64,4.64,12.34,3.8,20.79l.1,6.55s13.06-10.87,9.38-20.19l1.09.2s6.38,12.38,5.57,24.75l.14,1.9s3.44,4.1,8.38-14.61c0,0,6.06,19.12,4.43,29a117.8,117.8,0,0,0,6.56-15c27.84,9.54,38.11-16.8,38.11-16.8C190.67,100.72,188.76,90.43,188.76,90.43Z"/><path class="cls-1" d="M119.26,99.82l0-.07-.31.91Z"/><path class="cls-2" d="M32.59,271.66S24,271,19.73,280.76c-.42,4.23,4.65,3,9.31,0,.85-.85,4.74.22,4.74.22s-3,2.74-3.47,4.44,1.27.85,9.31,0l3.87-6.77Z"/><path class="cls-3" d="M75.13,125.05s9.73,3.27,13.12,5.57-.85-2.07-8.46,2.23"/><path class="cls-3" d="M141.45,126.72s-9.73,3.27-13.12,5.57.85-2.07,8.46,2.23"/><path class="cls-1" d="M75.13,102.82S86,116.54,89,113.49"/><path class="cls-1" d="M137.93,105.25S127.05,119,124.08,115.92"/><ellipse class="cls-3" cx="109.48" cy="157.93" rx="11.08" ry="7.7" transform="translate(-0.88 0.61) rotate(-0.32)"/><path class="cls-4" d="M140.51,173.28s-11.21-27.06-22.85-15.42,6.35,18.89,8,22.14,5.5,8.33,5.5,11.29,8.89,42.18,14.39,46.27,21.57,18.48,15.86-15.38l-21.7-50.6"/><path class="cls-1" d="M157.59,245.06c-3.81,0-8.41-3.54-11.4-5.83l-1.18-.9c-6.09-4.53-14.77-45-14.77-47,0-1.85-2-5.07-3.54-7.66-.7-1.15-1.36-2.23-1.86-3.19a14.89,14.89,0,0,0-3.07-2.67c-3.63-2.75-8.6-6.5-9-11.66-.2-3,1.19-6,4.15-8.92,2.59-2.59,5.4-3.61,8.34-3,8.93,1.78,15.77,18.06,16.06,18.75h0l21,49,0,.11c2.16,12.84,1.44,20.15-2.22,22.34A4.92,4.92,0,0,1,157.59,245.06Zm-33.86-89.15a7.64,7.64,0,0,0-5.4,2.63c-2.56,2.55-3.77,5.06-3.6,7.45.3,4.29,4.87,7.75,8.21,10.27,1.8,1.36,3.11,2.35,3.61,3.31s1.11,2,1.79,3.08c1.88,3.08,3.81,6.27,3.81,8.65,0,3.4,9,41.79,14,45.5l1.2.91c3.1,2.38,8.86,6.81,11.84,5,2-1.18,3.79-5.66,1.34-20.28L138.9,172c-1.94-4.1-7.53-14.74-13.95-16A6.25,6.25,0,0,0,123.73,155.91Z"/><path class="cls-4" d="M128.81,184.78s9.42,4.31,13.39-7.6"/><path class="cls-1" d="M132.69,186.5a11.16,11.16,0,0,1-4.29-.85l.81-1.74a8.94,8.94,0,0,0,6.55.06c2.44-1.05,4.29-3.44,5.51-7.09l1.84.6c-1.4,4.2-3.62,7-6.6,8.26A9.68,9.68,0,0,1,132.69,186.5Z"/><ellipse class="cls-1" cx="74.76" cy="151.71" rx="1.46" ry="1.48"/><ellipse class="cls-1" cx="90.61" cy="141.46" rx="1.46" ry="1.48"/><ellipse class="cls-1" cx="89.15" cy="161.51" rx="1.46" ry="1.48"/><ellipse class="cls-1" cx="89.15" cy="389.74" rx="1.46" ry="1.48"/><ellipse class="cls-1" cx="89.15" cy="345.67" rx="1.46" ry="1.48"/><ellipse class="cls-1" cx="97.39" cy="399.1" rx="1.46" ry="1.48"/><ellipse class="cls-1" cx="89.15" cy="367.7" rx="1.46" ry="1.48"/><ellipse class="cls-1" cx="95.94" cy="412.12" rx="1.46" ry="1.48"/><ellipse class="cls-1" cx="92.06" cy="426.78" rx="1.46" ry="1.48"/><ellipse class="cls-1" cx="97.39" cy="357.58" rx="1.46" ry="1.48"/><ellipse class="cls-1" cx="124" cy="390.61" rx="1.46" ry="1.48"/><ellipse class="cls-1" cx="124" cy="346.54" rx="1.46" ry="1.48"/><ellipse class="cls-1" cx="115.76" cy="399.97" rx="1.46" ry="1.48"/><ellipse class="cls-1" cx="124" cy="368.57" rx="1.46" ry="1.48"/><ellipse class="cls-1" cx="117.22" cy="412.99" rx="1.46" ry="1.48"/><ellipse class="cls-1" cx="121.09" cy="427.65" rx="1.46" ry="1.48"/><ellipse class="cls-1" cx="115.76" cy="358.45" rx="1.46" ry="1.48"/><ellipse class="cls-1" cx="118.43" cy="167.57" rx="1.46" ry="1.48"/><ellipse class="cls-1" cx="29.78" cy="277.63" rx="1.46" ry="1.48"/><ellipse class="cls-1" cx="132.48" cy="153.2" rx="1.46" ry="1.48"/><ellipse class="cls-1" cx="141.08" cy="142.94" rx="1.46" ry="1.48"/><ellipse class="cls-1" cx="133.93" cy="174.76" rx="1.46" ry="1.48"/><ellipse class="cls-1" cx="118.43" cy="141.46" rx="1.46" ry="1.48"/><ellipse class="cls-1" cx="153.07" cy="117.61" rx="1.46" ry="1.48"/><ellipse class="cls-1" cx="107.22" cy="107.36" rx="1.46" ry="1.48"/><ellipse class="cls-1" cx="105.49" cy="126.05" rx="1.46" ry="1.48"/></g></svg>