<svg xmlns="http://www.w3.org/2000/svg" viewBox="0 0 254.73 198.19"><defs><style>.cls-1{fill:#abe0f4;}.cls-2{fill:#fff;}.cls-3{fill:#4db0e4;}</style></defs><title>messages</title><g id="Layer_2" data-name="Layer 2"><path class="cls-1" d="M182.28,17.23H68c-24.3,0-44.07,14.42-44.07,32.15V132.8c0,13.49,11.31,25.35,28.41,30.07-3.36,8.65-13.07,15.37-26.41,18.16l-9.07,1.89,9,2a65.22,65.22,0,0,0,13.86,1.44c20.23,0,39.54-8.16,50.77-21.37h91.79c24.31,0,44.08-14.43,44.08-32.16V49.38C226.35,31.66,206.58,17.23,182.28,17.23Z"/><path class="cls-2" d="M182.28,9.78H68c-22.81,0-41.31,13.49-41.31,30.14v83.42c0,13.5,12.16,24.92,28.93,28.76-2.48,8.77-11.68,17.79-28.93,21.39,20.91,4.55,48.14-2.43,62.29-20h93.34c22.81,0,41.32-13.49,41.32-30.14V39.92C223.6,23.27,205.09,9.78,182.28,9.78Z"/><path class="cls-3" d="M39.73,176.86a65,65,0,0,1-13.86-1.44l-9-2,9.07-1.89C39.24,168.77,48.95,162,52.3,153.4c-17.1-4.72-28.41-16.57-28.41-30.06V39.92C23.89,22.19,43.66,7.77,68,7.77H182.28c24.31,0,44.08,14.42,44.08,32.15v83.42c0,17.73-19.77,32.15-44.08,32.15H90.49C79.26,168.7,60,176.86,39.73,176.86Zm-3.08-4.1c1,.05,2,.07,3.08.07,18.78,0,36.72-7.81,46.83-20.37l.8-1h94.92c21.26,0,38.56-12.61,38.56-28.12V39.92c0-15.51-17.29-28.12-38.56-28.12H68c-21.25,0-38.55,12.61-38.55,28.12v83.42c0,12.35,10.85,23.14,27,26.84l2.38.54-.5,1.78C55.8,161.25,48,168.48,36.65,172.76Z"/></g></svg>