<?xml version="1.0" encoding="utf-8"?>
<!-- Generator: Adobe Illustrator 21.0.2, SVG Export Plug-In . SVG Version: 6.00 Build 0)  -->
<svg version="1.1" id="Layer_1" xmlns="http://www.w3.org/2000/svg" xmlns:xlink="http://www.w3.org/1999/xlink" x="0px" y="0px"
	 viewBox="0 0 182 455" style="enable-background:new 0 0 182 455;" xml:space="preserve">
<style type="text/css">
	.st0{fill:#FFFFFF;stroke:#4EB2E5;stroke-width:1.412;stroke-miterlimit:10;}
	.st1{fill:#4EB2E5;}
	.st2{fill:#FFFFFF;stroke:#4EB2E5;stroke-width:1.3129;stroke-miterlimit:10;}
	.st3{fill:#FFFFFF;stroke:#4EB2E5;stroke-width:0.9383;stroke-miterlimit:10;}
	.st4{fill:#50B1E2;}
	.st5{fill:#FFFFFF;stroke:#4EB2E5;stroke-width:1.2639;stroke-miterlimit:10;}
	.st6{fill:#FFFFFF;}
	.st7{fill:none;stroke:#4EB2E5;stroke-width:1.2639;stroke-miterlimit:10;}
	.st8{fill:#FFFFFF;stroke:#4EB2E5;stroke-width:1.4262;stroke-miterlimit:10;}
	.st9{fill:#FFFFFF;stroke:#50B1E2;stroke-width:1.4465;stroke-miterlimit:10;}
	.st10{fill:none;stroke:#4EB2E5;stroke-width:0.9519;stroke-miterlimit:10;}
</style>
<path class="st0" d="M101.5,352.3c0,0,3.7,6.4,0,60c0.1,0,5.7,11.8,5.7,11.8s10.8,6.3,10.8,9.6c0,3.3-14.6,5.2-23.8,0
	c-2.1-1.9-5-5.2-5-5.2l-2.8-2.4c0,0-2.4-5.6,0-13.6c1.4-3.3-4-39.8-2.2-58C85.1,351.9,101.5,352.3,101.5,352.3z"/>
<path class="st1" d="M108,424.3c0,0-7,5.3-22.3-7.8c0-0.3-2,7.4,0.8,9.7c1.3,1.1,4.5,6.3,10.9,8.9c7.2,3,17.8,3.1,20.7-1.4
	C115.5,428.9,108,424.3,108,424.3z"/>
<polygon class="st1" points="85.1,423.3 86.4,433.8 90.1,433.8 90.1,427.3 "/>
<path class="st2" d="M139.4,221c0,0,11.7,17.9,10.6,22.6c-2.1,4.2-33.1,27.5-33.1,27.5l-4.1-12c0,0,10.2-6.9,15.8-13.1
	c5.6-6.2,1.7-3.4,1.7-3.4l-5.9-10.9l13.2-14.9L139.4,221z"/>
<path class="st3" d="M101.9,111.8c0,0-3.5-0.4-3.5,6.6c0,7,8.2,10.8,8.2,10.8l-1.6-7.5L101.9,111.8z"/>
<path class="st0" d="M61.9,352.5c0,0-3.7,6.4,0,60c-0.1,0-5.7,11.8-5.7,11.8s-10.8,6.3-10.8,9.6c0,3.3,14.6,5.2,23.8,0
	c2.1-1.9,5-5.2,5-5.2l2.8-2.4c0,0,2.4-5.6,0-13.6c-1.4-3.3,4-39.8,2.2-58C78.3,352.1,61.9,352.5,61.9,352.5z"/>
<path class="st2" d="M26.1,221c0,0-11.7,17.9-10.6,22.6c2.1,4.2,33.1,27.5,33.1,27.5l4.1-12c0,0-10.2-6.9-15.8-13.1
	c-5.6-6.2-1.7-3.4-1.7-3.4l5.9-10.9L28,216.8L26.1,221z"/>
<path class="st4" d="M27,140.2c0,0-0.2,15-4.7,17.3s10.6,11.9,16.5,9.8s0,5.8,0,5.8s12.5,2.5,19.2,1.3s39.2-1.3,39.2-1.3"/>
<path class="st4" d="M136.6,142.9c0,0,0.2,12.7,4.7,14.7c4.5,2-10.6,10.1-16.5,8.3c-5.9-1.8,0,4.9,0,4.9s-12.5,2.1-19.2,1.1
	c-6.7-1.1-39.2-1.1-39.2-1.1"/>
<path class="st5" d="M72.1,169.8c0,0,0.9,6.4,0,9c-2.1,0-6.8,2.8-6.8,2.8s11,7,17.4,7s17.3-8,17.3-8l-5.3-2.6l1.1-8.2"/>
<path class="st2" d="M31.5,130.8c0,0-5.4-5.7-5.4,4.2s9.2,15.1,9.2,15.1v-10.4L31.5,130.8z"/>
<path class="st2" d="M134.9,130.8c0,0,5.4-5.7,5.4,4.2s-9.2,15.1-9.2,15.1v-10.4L134.9,130.8z"/>
<path class="st2" d="M82.8,173c0,0-5.5-0.7-5.3-0.9c-38.1-10.9-39.6-16-40.5-17.9s-3.9-14.7-5.5-19.3c-1.5-5.7-13.3-36.5-14.7-42.1
	C6.1,47.2,60.5,21.5,60.5,21.5s11-4.3,38.7-1.8c0,0,60.3,27.5,49.5,73.1c-1.3,5.6-13.1,36.4-14.7,42.1c-1.5,4.6-4.6,17.3-5.5,19.3
	s-2.4,7-40.5,17.9C88.3,172.3,82.8,173,82.8,173"/>
<ellipse class="st1" cx="54.5" cy="123.1" rx="5.3" ry="6.3"/>
<path class="st2" d="M51.5,120.7c0,0-1.8,0.4-4.4,0"/>
<path class="st2" d="M66.3,178.9"/>
<ellipse class="st6" cx="56.9" cy="120.9" rx="2.4" ry="3.2"/>
<ellipse class="st1" cx="107.9" cy="122.9" rx="5.2" ry="6.2"/>
<path class="st2" d="M111,120.7c0,0,1.8,0.4,4.4,0"/>
<ellipse class="st6" cx="105.5" cy="120.9" rx="2.4" ry="3.2"/>
<line class="st7" x1="51.9" y1="108.2" x2="66.8" y2="117.2"/>
<line class="st7" x1="111.7" y1="108.2" x2="96.8" y2="117.2"/>
<path class="st4" d="M82.8,58.9l-11.2-7.3c0,0-7.5,48.2-12.6,51.8c0,0,0.3-10.5-4.5-19.4l-3,25.1c0,0-2.3-13.1-5.1-18.3
	c-2.7-5.2-7.6,23.4-2.2,28.7c0,0-9,0.1-13.7-4.6c0,0,1.2,6,5.3,13.7c0,0-5.7,2.2-12.7,0C16,126.5-26.3,7.2,82.8,15.3"/>
<path class="st4" d="M78.5,58.9l11.2-7.3c0,0,7.5,48.2,12.6,51.8c0,0-0.3-10.5,4.5-19.4l3,25.1c0,0,2.3-13.1,5.1-18.3
	c2.7-5.2,7.6,23.4,2.2,28.7c0,0,9,0.1,13.7-4.6c0,0-1.2,6-5.3,13.7c0,0,5.7,2.2,12.7,0c7.1-2.2,49.4-121.5-59.7-113.4"/>
<path class="st2" d="M121.8,189.9c-1.4-3.5-23.2-9.4-23.2-9.4L82.2,189l-16.8-7.5c-1.4,0-21.9,5.7-22.8,8.3
	c-1.2,3.6-21.7,28-21.7,28l23.2,18.7l3.6-7.4c1.4,6,3,15.5,3,15.5s0.9,3.6,1.5,7.3l-0.1,9.1L45.4,281l73.8,1.9c0,0-8.1-21.9-8.8-26
	c-0.7-4.1-0.7-4.1-0.7-4.1c0.5-4.4,1.8-9.2,1.8-9.2s2.3-5.8,3.4-11.9l8.8,3.3l21-17.1C145.4,219,123.3,193.6,121.8,189.9z"/>
<path class="st8" d="M49,275.3l-5.9-2.7c-2.8-1.3-1.6-10.2-0.3-13l2.5-5.5c1.3-2.8,3.1-3.1,9.4-1.6l1.2,0.2c2.8,1.3,4.1,4.7,2.8,7.5
	l-5.1,11C52.4,274,51.9,276.6,49,275.3z"/>
<path class="st9" d="M51.5,206.2c0,0-8.2,9.7-3.8,23"/>
<path class="st9" d="M111.1,208.7c0,0,8.2,9.7,3.8,23"/>
<path class="st1" d="M45.9,279c0,0-11.1,30.3,5.6,78.2c1.2,3.5,1.4,4.2,1.4,4.2l60.7-0.6c0,0,12.9-55.7,4.1-81.7H45.9z"/>
<g>
	<path class="st1" d="M71.4,210.3l-0.5,2h-2.3l2.9-9.5h2.7l2.9,9.5h-2.4l-0.5-2H71.4z M72.8,204.5l-1,4.2h2L72.8,204.5z"/>
	<path class="st1" d="M83.9,207v5.3h-2.2v-4.9c0-0.8-0.3-1-0.7-1c-0.5,0-0.9,0.3-1.3,0.9v5h-2.2v-7.2h1.9l0.1,0.9
		c0.6-0.7,1.3-1.1,2.2-1.1C83.2,204.8,83.9,205.6,83.9,207z"/>
	<path class="st1" d="M88.1,212.6c-1.6,0-2.4-0.9-2.4-2.6v-3.4h-1v-1.5h1v-1.6l2.2-0.2v1.8h1.7l-0.2,1.5h-1.4v3.3
		c0,0.7,0.2,0.9,0.7,0.9c0.2,0,0.5-0.1,0.8-0.2l0.7,1.4C89.6,212.4,88.8,212.6,88.1,212.6z"/>
	<path class="st1" d="M93.2,202.5c0,0.7-0.5,1.2-1.3,1.2c-0.8,0-1.3-0.5-1.3-1.2s0.5-1.2,1.3-1.2C92.6,201.3,93.2,201.8,93.2,202.5z
		 M90.8,212.3v-7.2H93v7.2H90.8z"/>
	<path class="st1" d="M60.4,228.7l-2.7-9.5h2.4l1.8,7.7l1.7-7.7h2.3l-2.6,9.5H60.4z"/>
	<path class="st1" d="M72.1,227.5l-0.5,1.4c-0.9-0.1-1.4-0.3-1.7-1.1c-0.5,0.8-1.3,1.1-2.2,1.1c-1.4,0-2.4-0.9-2.4-2.3
		c0-1.6,1.2-2.4,3.4-2.4h0.7v-0.3c0-0.9-0.3-1.1-1.2-1.1c-0.5,0-1.2,0.1-1.9,0.4l-0.5-1.4c0.9-0.3,1.9-0.5,2.7-0.5
		c2.1,0,3,0.9,3,2.6v2.8C71.6,227.2,71.8,227.4,72.1,227.5z M69.5,226.7v-1.3H69c-1,0-1.5,0.3-1.5,1.1c0,0.6,0.3,0.9,0.8,0.9
		C68.9,227.4,69.3,227.1,69.5,226.7z"/>
	<path class="st1" d="M79,222.1l-0.9,1.3c-0.5-0.4-0.9-0.5-1.4-0.5c-0.9,0-1.5,0.6-1.5,2.3c0,1.6,0.6,2.1,1.4,2.1
		c0.5,0,0.9-0.2,1.4-0.5l1,1.4c-0.7,0.5-1.4,0.9-2.4,0.9c-2.2,0-3.6-1.5-3.6-3.8c0-2.3,1.4-3.9,3.5-3.9
		C77.5,221.2,78.3,221.5,79,222.1z"/>
	<path class="st1" d="M85.4,222.1l-0.9,1.3c-0.5-0.4-0.9-0.5-1.4-0.5c-0.9,0-1.5,0.6-1.5,2.3c0,1.6,0.6,2.1,1.4,2.1
		c0.5,0,0.9-0.2,1.4-0.5l1,1.4c-0.7,0.5-1.4,0.9-2.4,0.9c-2.2,0-3.6-1.5-3.6-3.8c0-2.3,1.4-3.9,3.5-3.9
		C83.9,221.2,84.7,221.5,85.4,222.1z"/>
	<path class="st1" d="M88.6,218.9c0,0.7-0.5,1.2-1.3,1.2c-0.8,0-1.3-0.5-1.3-1.2s0.5-1.2,1.3-1.2C88.1,217.6,88.6,218.2,88.6,218.9z
		 M86.3,228.7v-7.2h2.2v7.2H86.3z"/>
	<path class="st1" d="M96.4,223.4v5.3h-2.2v-4.9c0-0.8-0.3-1-0.7-1c-0.5,0-0.9,0.3-1.3,0.9v5h-2.2v-7.2H92l0.1,0.9
		c0.6-0.7,1.3-1.1,2.2-1.1C95.7,221.2,96.4,222,96.4,223.4z"/>
	<path class="st1" d="M104.3,225.7h-4.5c0.1,1.3,0.8,1.7,1.7,1.7c0.6,0,1.1-0.2,1.7-0.6l0.9,1.2c-0.7,0.6-1.7,1-2.8,1
		c-2.4,0-3.6-1.6-3.6-3.8c0-2.2,1.2-3.9,3.4-3.9c2.1,0,3.3,1.4,3.3,3.7C104.3,225.2,104.3,225.5,104.3,225.7z M102.2,224.3
		c0-1-0.3-1.7-1.2-1.7c-0.7,0-1.1,0.5-1.2,1.8L102.2,224.3L102.2,224.3z"/>
</g>
<path class="st8" d="M114.5,275.3l5.9-2.7c2.8-1.3,1.6-10.2,0.3-13l-2.5-5.5c-1.3-2.8-3.1-3.1-9.4-1.6l-1.2,0.2
	c-2.8,1.3-4.1,4.7-2.8,7.5l5.1,11C111.1,274.1,111.7,276.6,114.5,275.3z"/>
<path class="st10" d="M66.2,153.6c0,0,18.8-7.6,35.6,0"/>
<path class="st1" d="M55.4,424.5c0,0,7,5.3,22.3-7.8c0-0.3,2,7.4-0.8,9.7c-1.3,1.1-4.5,6.3-10.9,8.9c-7.2,3-17.8,3.1-20.7-1.4
	C47.9,429,55.4,424.5,55.4,424.5z"/>
<polygon class="st1" points="78.3,423.5 76.9,434 73.2,434 73.2,427.5 "/>
</svg>
