<svg id="Layer_1" data-name="Layer 1" xmlns="http://www.w3.org/2000/svg" viewBox="0 0 154.06 87.99"><defs><style>.cls-1{fill:#ee4e9c;}.cls-2{fill:#5ec8e2;}</style></defs><title>ninety</title><path class="cls-1" d="M22.79,19.14a5.33,5.33,0,1,0-4.35-4.35A5.33,5.33,0,0,0,22.79,19.14Z" transform="translate(-10.42 -8.06)"/><path class="cls-1" d="M35.88,27.87a1.66,1.66,0,0,0-.18-.2.48.48,0,0,0-.13-.19l-7.49-6.7a1.87,1.87,0,0,0-1.36-.51H20.08a1.87,1.87,0,0,0-1.36.51l-7.49,6.7a.48.48,0,0,0-.13.19,1.66,1.66,0,0,0-.18.2,1.89,1.89,0,0,0,2.78,2.55L18.4,26V46.19a2,2,0,0,0,2,2h.48a2,2,0,0,0,2-2V36h1V46.19a2,2,0,0,0,2,2h.48a2,2,0,0,0,2-2V26l4.71,4.46a1.89,1.89,0,0,0,2.78-2.55Z" transform="translate(-10.42 -8.06)"/><path class="cls-1" d="M54.79,19.14a5.33,5.33,0,1,0-4.35-4.35A5.33,5.33,0,0,0,54.79,19.14Z" transform="translate(-10.42 -8.06)"/><path class="cls-1" d="M67.88,27.87a1.66,1.66,0,0,0-.18-.2.48.48,0,0,0-.13-.19l-7.49-6.7a1.87,1.87,0,0,0-1.36-.51H52.08a1.87,1.87,0,0,0-1.36.51l-7.49,6.7a.48.48,0,0,0-.13.19,1.66,1.66,0,0,0-.18.2,1.89,1.89,0,0,0,2.78,2.55L50.4,26V46.19a2,2,0,0,0,2,2h.48a2,2,0,0,0,2-2V36h1V46.19a2,2,0,0,0,2,2h.48a2,2,0,0,0,2-2V26l4.71,4.46a1.89,1.89,0,0,0,2.78-2.55Z" transform="translate(-10.42 -8.06)"/><path class="cls-1" d="M86.79,19.14a5.33,5.33,0,1,0-4.35-4.35A5.33,5.33,0,0,0,86.79,19.14Z" transform="translate(-10.42 -8.06)"/><path class="cls-1" d="M99.88,27.87a1.66,1.66,0,0,0-.18-.2.48.48,0,0,0-.13-.19l-7.49-6.7a1.87,1.87,0,0,0-1.36-.51H84.08a1.87,1.87,0,0,0-1.36.51l-7.49,6.7a.48.48,0,0,0-.13.19,1.66,1.66,0,0,0-.18.2,1.89,1.89,0,0,0,2.78,2.55L82.4,26V46.19a2,2,0,0,0,2,2h.48a2,2,0,0,0,2-2V36h1V46.19a2,2,0,0,0,2,2h.48a2,2,0,0,0,2-2V26l4.71,4.46a1.89,1.89,0,0,0,2.78-2.55Z" transform="translate(-10.42 -8.06)"/><path class="cls-1" d="M118.79,19.14a5.33,5.33,0,1,0-4.35-4.35A5.33,5.33,0,0,0,118.79,19.14Z" transform="translate(-10.42 -8.06)"/><path class="cls-1" d="M131.88,27.87a1.66,1.66,0,0,0-.18-.2.48.48,0,0,0-.13-.19l-7.49-6.7a1.87,1.87,0,0,0-1.36-.51h-6.64a1.87,1.87,0,0,0-1.36.51l-7.49,6.7a.48.48,0,0,0-.13.19,1.66,1.66,0,0,0-.18.2,1.89,1.89,0,0,0,2.78,2.55L114.4,26V46.19a2,2,0,0,0,2,2h.48a2,2,0,0,0,2-2V36h1V46.19a2,2,0,0,0,2,2h.48a2,2,0,0,0,2-2V26l4.71,4.46a1.89,1.89,0,0,0,2.78-2.55Z" transform="translate(-10.42 -8.06)"/><path class="cls-1" d="M151,18.64a5.33,5.33,0,1,0-4.35-4.35A5.33,5.33,0,0,0,151,18.64Z" transform="translate(-10.42 -8.06)"/><path class="cls-1" d="M164.09,27.37a1.66,1.66,0,0,0-.18-.2.48.48,0,0,0-.13-.19l-7.49-6.7a1.87,1.87,0,0,0-1.36-.51h-6.64a1.87,1.87,0,0,0-1.36.51L139.44,27a.48.48,0,0,0-.13.19,1.66,1.66,0,0,0-.18.2,1.89,1.89,0,0,0,2.78,2.55l4.71-4.45V45.69a2,2,0,0,0,2,2h.48a2,2,0,0,0,2-2V35.54h1V45.69a2,2,0,0,0,2,2h.48a2,2,0,0,0,2-2V25.46l4.71,4.46a1.89,1.89,0,0,0,2.78-2.55Z" transform="translate(-10.42 -8.06)"/><path class="cls-1" d="M22.68,67a5.33,5.33,0,1,0-4.35-4.35A5.33,5.33,0,0,0,22.68,67Z" transform="translate(-10.42 -8.06)"/><path class="cls-1" d="M35.77,75.71a1.66,1.66,0,0,0-.18-.2.48.48,0,0,0-.13-.19L28,68.62a1.87,1.87,0,0,0-1.36-.51H20a1.87,1.87,0,0,0-1.36.51l-7.49,6.7a.48.48,0,0,0-.13.19,1.66,1.66,0,0,0-.18.2,1.89,1.89,0,0,0,2.78,2.55L18.3,73.8V94a2,2,0,0,0,2,2h.48a2,2,0,0,0,2-2V83.88h1V94a2,2,0,0,0,2,2h.48a2,2,0,0,0,2-2V73.8L33,78.25a1.89,1.89,0,0,0,2.78-2.55Z" transform="translate(-10.42 -8.06)"/><path class="cls-1" d="M54.68,67a5.33,5.33,0,1,0-4.35-4.35A5.33,5.33,0,0,0,54.68,67Z" transform="translate(-10.42 -8.06)"/><path class="cls-1" d="M67.77,75.71a1.66,1.66,0,0,0-.18-.2.48.48,0,0,0-.13-.19L60,68.62a1.87,1.87,0,0,0-1.36-.51H52a1.87,1.87,0,0,0-1.36.51l-7.49,6.7a.48.48,0,0,0-.13.19,1.66,1.66,0,0,0-.18.2,1.89,1.89,0,0,0,2.78,2.55L50.3,73.8V94a2,2,0,0,0,2,2h.48a2,2,0,0,0,2-2V83.88h1V94a2,2,0,0,0,2,2h.48a2,2,0,0,0,2-2V73.8L65,78.25a1.89,1.89,0,0,0,2.78-2.55Z" transform="translate(-10.42 -8.06)"/><path class="cls-1" d="M86.68,67a5.33,5.33,0,1,0-4.35-4.35A5.33,5.33,0,0,0,86.68,67Z" transform="translate(-10.42 -8.06)"/><path class="cls-1" d="M99.77,75.71a1.66,1.66,0,0,0-.18-.2.48.48,0,0,0-.13-.19L92,68.62a1.87,1.87,0,0,0-1.36-.51H84a1.87,1.87,0,0,0-1.36.51l-7.49,6.7a.48.48,0,0,0-.13.19,1.66,1.66,0,0,0-.18.2,1.89,1.89,0,0,0,2.78,2.55L82.3,73.8V94a2,2,0,0,0,2,2h.48a2,2,0,0,0,2-2V83.88h1V94a2,2,0,0,0,2,2h.48a2,2,0,0,0,2-2V73.8L97,78.25a1.89,1.89,0,0,0,2.78-2.55Z" transform="translate(-10.42 -8.06)"/><path class="cls-1" d="M118.68,67a5.33,5.33,0,1,0-4.35-4.35A5.33,5.33,0,0,0,118.68,67Z" transform="translate(-10.42 -8.06)"/><path class="cls-1" d="M131.77,75.71a1.66,1.66,0,0,0-.18-.2.48.48,0,0,0-.13-.19L124,68.62a1.87,1.87,0,0,0-1.36-.51H116a1.87,1.87,0,0,0-1.36.51l-7.49,6.7a.48.48,0,0,0-.13.19,1.66,1.66,0,0,0-.18.2,1.89,1.89,0,0,0,2.78,2.55l4.71-4.45V94a2,2,0,0,0,2,2h.48a2,2,0,0,0,2-2V83.88h1V94a2,2,0,0,0,2,2h.48a2,2,0,0,0,2-2V73.8L129,78.25a1.89,1.89,0,0,0,2.78-2.55Z" transform="translate(-10.42 -8.06)"/><path class="cls-2" d="M150.9,66.48a5.33,5.33,0,1,0-4.35-4.35A5.33,5.33,0,0,0,150.9,66.48Z" transform="translate(-10.42 -8.06)"/><path class="cls-2" d="M164,75.21a1.66,1.66,0,0,0-.18-.2.48.48,0,0,0-.13-.19l-7.49-6.7a1.87,1.87,0,0,0-1.36-.51h-6.64a1.87,1.87,0,0,0-1.36.51l-7.49,6.7a.48.48,0,0,0-.13.19,1.66,1.66,0,0,0-.18.2,1.89,1.89,0,0,0,2.78,2.55l4.71-4.45V93.53a2,2,0,0,0,2,2H149a2,2,0,0,0,2-2V83.38h1V93.53a2,2,0,0,0,2,2h.48a2,2,0,0,0,2-2V73.3l4.71,4.46A1.89,1.89,0,0,0,164,75.21Z" transform="translate(-10.42 -8.06)"/></svg>