<svg xmlns="http://www.w3.org/2000/svg" viewBox="0 0 239.78 236.87"><defs><style>.cls-1{fill:#5ec8e2;}.cls-2,.cls-3{fill:#fff;}.cls-2{stroke:#4db2e5;stroke-miterlimit:10;stroke-width:2.05px;}.cls-4{fill:#334d5d;}.cls-5{fill:#ee4e9c;}</style></defs><title>no</title><g id="Layer_2" data-name="Layer 2"><g id="_Group_" data-name="&lt;Group&gt;"><g id="_Group_2" data-name="&lt;Group&gt;"><rect id="_Path_" data-name="&lt;Path&gt;" class="cls-1" x="158.26" y="147.09" width="1.95" height="21.24" transform="translate(-63.65 134.23) rotate(-38.71)"/><path id="_Path_2" data-name="&lt;Path&gt;" class="cls-2" d="M93.92,89l12.5-10a3.45,3.45,0,0,1,3.53-.47l3.75,1.62,40.22,50.18a11.82,11.82,0,0,1,2.42,9.45l-2.07,11.72L142.37,151a11.82,11.82,0,0,1-8.7-4.41L93.45,96.38l-.77-4A3.45,3.45,0,0,1,93.92,89Z"/><path id="_Path_3" data-name="&lt;Path&gt;" class="cls-3" d="M142,147l.52,0,8.47.38,1.48-8.35a7.92,7.92,0,0,0-1.62-6.33L111.26,83.35l-2.61-1.13L96.57,91.9l.53,2.79,39.61,49.42A7.86,7.86,0,0,0,142,147Z"/><rect id="_Path_4" data-name="&lt;Path&gt;" class="cls-4" x="93.94" y="74.61" width="5.85" height="10.57" transform="translate(-28.68 78.13) rotate(-38.71)"/><rect id="_Rectangle_" data-name="&lt;Rectangle&gt;" class="cls-1" x="77.27" y="70.22" width="29.47" height="7.22" rx="3.22" ry="3.22" transform="translate(209.96 73.89) rotate(141.29)"/><g id="_Group_3" data-name="&lt;Group&gt;"><path id="_Path_5" data-name="&lt;Path&gt;" class="cls-5" d="M114.9,116.89,129,105.55l1.52,1.89-7.08,5.67,2.44,3,7.08-5.67,5.57,7-7.08,5.67,2.44,3,7.08-5.67,5.57,7-7.08,5.67,2.44,3,7.08-5.67,1.84,2.29a7.92,7.92,0,0,1,1.62,6.33L151,147.44l-8.47-.38-.52,0h0a7.86,7.86,0,0,1-5.31-2.92Z"/><rect id="_Path_6" data-name="&lt;Path&gt;" class="cls-4" x="139.74" y="129.84" width="9.07" height="3.9" transform="translate(-50.72 119.18) rotate(-38.71)"/><rect id="_Path_7" data-name="&lt;Path&gt;" class="cls-4" x="131.72" y="119.84" width="9.07" height="3.9" transform="translate(-46.23 111.97) rotate(-38.71)"/><rect id="_Path_8" data-name="&lt;Path&gt;" class="cls-4" x="123.71" y="109.84" width="9.07" height="3.9" transform="translate(-41.74 104.77) rotate(-38.71)"/><rect id="_Path_9" data-name="&lt;Path&gt;" class="cls-4" x="115.7" y="99.85" width="9.07" height="3.9" transform="translate(-37.25 97.56) rotate(-38.71)"/><rect id="_Path_10" data-name="&lt;Path&gt;" class="cls-4" x="107.69" y="89.85" width="9.07" height="3.9" transform="translate(-32.76 90.35) rotate(-38.71)"/></g></g></g><path class="cls-5" d="M39.85,117.43a88,88,0,0,0,19.38,55.14,89.16,89.16,0,0,0,13.88,13.88A88.33,88.33,0,0,0,197.27,62.29a89.22,89.22,0,0,0-13.88-13.88,88.33,88.33,0,0,0-143.54,69Zm47.23,55.05L183.3,76.26a68.73,68.73,0,0,1-96.22,96.22ZM73.2,158.6a68.74,68.74,0,0,1,96.22-96.22Z"/></g></svg>