<svg id="Layer_1" data-name="Layer 1" xmlns="http://www.w3.org/2000/svg" viewBox="0 0 1140.57 782.48"><defs><style>.cls-1{fill:#def1f9;}.cls-2{fill:#4eb2e5;}.cls-3{fill:#fff;stroke:#4eb2e5;stroke-miterlimit:10;stroke-width:1.97px;}.cls-4{fill:none;}</style></defs><title>office</title><rect class="cls-1" x="181.69" y="1.27" width="958.87" height="691.17"/><rect id="_Rectangle_" data-name=" Rectangle " class="cls-2" x="352.2" y="92.48" width="347.69" height="21.69"/><g id="_Group_" data-name=" Group "><polygon id="_Path_" data-name=" Path " class="cls-2" points="1073.79 34.04 991.07 34.04 991.07 34.04 899.89 33.59 899.84 45.09 985.32 45.52 985.32 640.12 996.82 640.12 996.82 45.55 1073.79 45.55 1073.79 34.04"/><g id="_Group_2" data-name=" Group 2"><rect id="_Rectangle_2" data-name=" Rectangle 2" class="cls-3" x="1034.86" y="54.32" width="39.46" height="98" rx="15.38" ry="15.38"/><rect id="_Rectangle_3" data-name=" Rectangle 3" class="cls-3" x="906.24" y="54.32" width="39.46" height="98" rx="15.38" ry="15.38"/></g><path id="_Path_2" data-name=" Path 2" class="cls-3" d="M877.25,155.79" transform="translate(181.69 -3.47)"/><g id="_Group_3" data-name=" Group 3"><path id="_Path_3" data-name=" Path 3" class="cls-2" d="M780.49,473.32v-7.08a90.92,90.92,0,0,0,66.82-28.83,83.55,83.55,0,0,0,22.07-64.09V155.79h7.08V372.88a90.55,90.55,0,0,1-23.89,69.32A98.21,98.21,0,0,1,780.49,473.32Z" transform="translate(181.69 -3.47)"/></g><g id="_Group_4" data-name=" Group 4"><path id="_Path_4" data-name=" Path 4" class="cls-2" d="M648.56,473.32v-7.08a90.92,90.92,0,0,0,66.82-28.83,83.56,83.56,0,0,0,22.07-64.1V155.79h7.08V372.88a90.55,90.55,0,0,1-23.89,69.32A98.21,98.21,0,0,1,648.56,473.32Z" transform="translate(181.69 -3.47)"/></g></g><g id="_Group_5" data-name=" Group 5"><g id="_Group_6" data-name=" Group 6"><rect id="_Rectangle_4" data-name=" Rectangle 4" class="cls-3" x="1016.31" y="318.71" width="14.5" height="113.63"/></g><g id="_Group_7" data-name=" Group 7"><rect id="_Rectangle_5" data-name=" Rectangle 5" class="cls-3" x="336.39" y="419.06" width="710.36" height="26.57"/></g><path class="cls-3" d="M631.57,296.68H154.68A6.28,6.28,0,0,0,148.4,303v102.8a6.28,6.28,0,0,0,6.28,6.28H631.57a6.28,6.28,0,0,0,6.28-6.28V303a6.28,6.28,0,0,0-6.28-6.28Zm-6.28,45.85H485V309.25H625.28Zm-334.44,0V309.25H472.47v33.28ZM472.47,355.1v44.39H290.84V355.1Zm-194.2-45.85v33.28H161V309.25ZM161,355.1H278.27v44.39H161ZM485,399.48V355.1H625.28v44.39Z" transform="translate(181.69 -3.47)"/><g id="_Group_8" data-name=" Group 8"><rect id="_Rectangle_6" data-name=" Rectangle 6" class="cls-3" x="336.39" y="445.24" width="710.36" height="43.53"/></g><g id="_Group_9" data-name=" Group 9"><rect id="_Rectangle_7" data-name=" Rectangle 7" class="cls-3" x="371.19" y="488.77" width="24.65" height="177.85"/></g><g id="_Group_10" data-name=" Group 10"><rect id="_Rectangle_8" data-name=" Rectangle 8" class="cls-3" x="984.41" y="488.77" width="24.65" height="177.85"/></g><path id="_Path_5" data-name=" Path 5" class="cls-3" d="M645.17,424h-518a23.2,23.2,0,1,1,0-46.4H640L855.14,275.91A23.2,23.2,0,0,1,875,317.86L655.08,421.8A23.19,23.19,0,0,1,645.17,424Z" transform="translate(181.69 -3.47)"/></g><rect id="_Path_6" data-name=" Path 6" class="cls-4" y="730.47" width="396" height="52.01"/><rect id="_Rectangle_9" data-name=" Rectangle 9" class="cls-3" x="385.92" y="21.29" width="15.85" height="71.19"/><rect id="_Rectangle_10" data-name=" Rectangle 10" class="cls-3" x="401.76" y="21.29" width="15.85" height="71.19"/><rect id="_Rectangle_11" data-name=" Rectangle 11" class="cls-3" x="417.6" y="21.29" width="15.85" height="71.19"/><rect id="_Rectangle_12" data-name=" Rectangle 12" class="cls-3" x="433.45" y="21.29" width="15.85" height="71.19"/><rect id="_Rectangle_13" data-name=" Rectangle 13" class="cls-3" x="449.29" y="21.29" width="15.85" height="71.19"/><rect id="_Rectangle_14" data-name=" Rectangle 14" class="cls-3" x="525.38" y="21.29" width="15.85" height="71.19"/><rect id="_Rectangle_15" data-name=" Rectangle 15" class="cls-3" x="540.12" y="17.04" width="15.85" height="75.43"/><rect id="_Rectangle_16" data-name=" Rectangle 16" class="cls-3" x="465.13" y="1.27" width="15.85" height="91.2"/><rect id="_Rectangle_17" data-name=" Rectangle 17" class="cls-3" x="313.49" y="4.75" width="15.85" height="91.2" transform="translate(183.35 106.88) rotate(-19.53)"/></svg>