<svg id="Layer_1" data-name="Layer 1" xmlns="http://www.w3.org/2000/svg" viewBox="0 0 96.44 132.12"><defs><style>.cls-1{fill:#4db2e5;stroke:#fff;stroke-width:1.89px;}.cls-1,.cls-3{stroke-miterlimit:10;}.cls-2{fill:#5ec8e2;}.cls-3,.cls-4{fill:#fff;}.cls-3{stroke:#4db2e5;stroke-width:0.43px;}.cls-5{fill:#334d5d;}.cls-6{fill:#ee4e9c;}</style></defs><title>overload</title><path class="cls-1" d="M80.09,51.49A17.51,17.51,0,1,0,65.8,37.2,17.52,17.52,0,0,0,80.09,51.49Z" transform="translate(-35.04 -15.79)"/><path class="cls-1" d="M123.08,80.14a5.46,5.46,0,0,0-.58-.65,1.58,1.58,0,0,0-.43-.63l-24.59-22A6.15,6.15,0,0,0,93,55.18H71.17a6.15,6.15,0,0,0-4.48,1.68l-24.59,22a1.58,1.58,0,0,0-.43.63,5.46,5.46,0,0,0-.58.65,6.21,6.21,0,0,0,9.12,8.37L65.68,73.88v66.46A6.64,6.64,0,0,0,72.3,147h1.56a6.64,6.64,0,0,0,6.62-6.62V107h3.19v33.36A6.64,6.64,0,0,0,90.3,147h1.56a6.64,6.64,0,0,0,6.62-6.62V73.88L114,88.51a6.21,6.21,0,0,0,9.12-8.37Z" transform="translate(-35.04 -15.79)"/><g id="_Group_" data-name="&lt;Group&gt;"><g id="_Group_2" data-name="&lt;Group&gt;"><rect id="_Path_" data-name="&lt;Path&gt;" class="cls-2" x="50.47" y="70.93" width="0.41" height="4.42" transform="translate(-68.02 27.01) rotate(-35.35)"/><path id="_Path_2" data-name="&lt;Path&gt;" class="cls-3" d="M37.93,58.06l2.72-1.93a.72.72,0,0,1,.74-.06l.76.38L49.9,67.39a2.46,2.46,0,0,1,.39,2l-.57,2.41-2.47-.26a2.46,2.46,0,0,1-1.75-1L37.74,59.59l-.11-.84A.72.72,0,0,1,37.93,58.06Z" transform="translate(-35.04 -15.79)"/><path id="_Path_3" data-name="&lt;Path&gt;" class="cls-4" d="M47.22,70.71h.11l1.76.18.41-1.72a1.65,1.65,0,0,0-.26-1.34L41.6,57.09l-.53-.27-2.63,1.87.08.59L46.16,70a1.64,1.64,0,0,0,1.07.67Z" transform="translate(-35.04 -15.79)"/><rect id="_Path_4" data-name="&lt;Path&gt;" class="cls-5" x="38.04" y="55.1" width="1.22" height="2.2" transform="translate(-60.43 16.93) rotate(-35.35)"/><rect id="_Rectangle_" data-name="&lt;Rectangle&gt;" class="cls-2" x="34.65" y="54.13" width="6.14" height="1.5" rx="0.66" ry="0.66" transform="translate(65.19 62.03) rotate(144.65)"/><g id="_Group_3" data-name="&lt;Group&gt;"><path id="_Path_5" data-name="&lt;Path&gt;" class="cls-6" d="M42,64.11,45,61.93l.29.41-1.54,1.09.47.66L45.8,63l1.07,1.51-1.54,1.09.47.66,1.54-1.09,1.07,1.51-1.54,1.09.47.66,1.54-1.09.35.5a1.65,1.65,0,0,1,.26,1.34l-.41,1.72-1.76-.18h-.11A1.64,1.64,0,0,1,46.16,70Z" transform="translate(-35.04 -15.79)"/><rect id="_Path_6" data-name="&lt;Path&gt;" class="cls-5" x="46.93" y="67.17" width="1.89" height="0.81" transform="translate(-65.31 24.37) rotate(-35.35)"/><rect id="_Path_7" data-name="&lt;Path&gt;" class="cls-5" x="45.39" y="64.99" width="1.89" height="0.81" transform="translate(-64.33 23.07) rotate(-35.35)"/><rect id="_Path_8" data-name="&lt;Path&gt;" class="cls-5" x="43.85" y="62.81" width="1.89" height="0.81" transform="translate(-63.36 21.78) rotate(-35.35)"/><rect id="_Path_9" data-name="&lt;Path&gt;" class="cls-5" x="42.3" y="60.63" width="1.89" height="0.81" transform="translate(-62.38 20.48) rotate(-35.35)"/><rect id="_Path_10" data-name="&lt;Path&gt;" class="cls-5" x="40.76" y="58.46" width="1.89" height="0.81" transform="translate(-61.41 19.18) rotate(-35.35)"/></g></g></g><g id="_Group_4" data-name="&lt;Group&gt;"><g id="_Group_5" data-name="&lt;Group&gt;"><rect id="_Path_11" data-name="&lt;Path&gt;" class="cls-2" x="64.32" y="58.76" width="0.41" height="4.42" transform="translate(-58.42 32.78) rotate(-35.35)"/><path id="_Path_12" data-name="&lt;Path&gt;" class="cls-3" d="M51.78,45.89,54.5,44a.72.72,0,0,1,.74-.06l.76.38,7.75,10.93a2.46,2.46,0,0,1,.39,2l-.57,2.41-2.47-.26a2.46,2.46,0,0,1-1.75-1L51.59,47.41l-.11-.84A.72.72,0,0,1,51.78,45.89Z" transform="translate(-35.04 -15.79)"/><path id="_Path_13" data-name="&lt;Path&gt;" class="cls-4" d="M61.07,58.54h.11l1.76.18L63.35,57a1.65,1.65,0,0,0-.26-1.34L55.45,44.92l-.53-.27-2.63,1.87.08.59L60,57.87a1.64,1.64,0,0,0,1.07.67Z" transform="translate(-35.04 -15.79)"/><rect id="_Path_14" data-name="&lt;Path&gt;" class="cls-5" x="51.89" y="42.93" width="1.22" height="2.2" transform="translate(-50.83 22.7) rotate(-35.35)"/><rect id="_Rectangle_2" data-name="&lt;Rectangle&gt;" class="cls-2" x="48.49" y="41.95" width="6.14" height="1.5" rx="0.66" ry="0.66" transform="translate(83.29 31.92) rotate(144.65)"/><g id="_Group_6" data-name="&lt;Group&gt;"><path id="_Path_15" data-name="&lt;Path&gt;" class="cls-6" d="M55.8,51.94l3.08-2.19.29.41-1.54,1.09.47.66,1.54-1.09,1.07,1.51-1.54,1.09.47.66L61.19,53l1.07,1.51-1.54,1.09.47.66,1.54-1.09.35.5A1.65,1.65,0,0,1,63.35,57l-.41,1.72-1.76-.18h-.11A1.64,1.64,0,0,1,60,57.87Z" transform="translate(-35.04 -15.79)"/><rect id="_Path_16" data-name="&lt;Path&gt;" class="cls-5" x="60.78" y="54.99" width="1.89" height="0.81" transform="translate(-55.71 30.13) rotate(-35.35)"/><rect id="_Path_17" data-name="&lt;Path&gt;" class="cls-5" x="59.24" y="52.82" width="1.89" height="0.81" transform="translate(-54.74 28.84) rotate(-35.35)"/><rect id="_Path_18" data-name="&lt;Path&gt;" class="cls-5" x="57.69" y="50.64" width="1.89" height="0.81" transform="translate(-53.76 27.55) rotate(-35.35)"/><rect id="_Path_19" data-name="&lt;Path&gt;" class="cls-5" x="56.15" y="48.46" width="1.89" height="0.81" transform="translate(-52.79 26.25) rotate(-35.35)"/><rect id="_Path_20" data-name="&lt;Path&gt;" class="cls-5" x="54.6" y="46.29" width="1.89" height="0.81" transform="translate(-51.81 24.95) rotate(-35.35)"/></g></g></g><g id="_Group_7" data-name="&lt;Group&gt;"><g id="_Group_8" data-name="&lt;Group&gt;"><rect id="_Path_21" data-name="&lt;Path&gt;" class="cls-2" x="113.63" y="74.74" width="4.42" height="0.41" transform="translate(-47.35 110.28) rotate(-54.65)"/><path id="_Path_22" data-name="&lt;Path&gt;" class="cls-3" d="M128.59,59.86l-2.72-1.93a.72.72,0,0,0-.74-.06l-.76.38-7.75,10.93a2.46,2.46,0,0,0-.39,2l.57,2.41,2.47-.26a2.46,2.46,0,0,0,1.75-1l7.75-10.93.11-.84A.72.72,0,0,0,128.59,59.86Z" transform="translate(-35.04 -15.79)"/><path id="_Path_23" data-name="&lt;Path&gt;" class="cls-4" d="M119.29,72.51h-.11l-1.76.18L117,71a1.65,1.65,0,0,1,.26-1.34l7.63-10.76.53-.27,2.63,1.87-.08.59-7.63,10.76a1.64,1.64,0,0,1-1.07.67Z" transform="translate(-35.04 -15.79)"/><rect id="_Path_24" data-name="&lt;Path&gt;" class="cls-5" x="126.76" y="57.39" width="2.2" height="1.22" transform="translate(-28.46 112.94) rotate(-54.65)"/><rect id="_Rectangle_3" data-name="&lt;Rectangle&gt;" class="cls-2" x="125.73" y="55.93" width="6.14" height="1.5" rx="0.66" ry="0.66" transform="translate(21.5 -79.86) rotate(35.35)"/><g id="_Group_9" data-name="&lt;Group&gt;"><path id="_Path_25" data-name="&lt;Path&gt;" class="cls-6" d="M124.57,65.91l-3.08-2.19-.29.41,1.54,1.09-.47.66-1.54-1.09-1.07,1.51,1.54,1.09-.47.66L119.18,67l-1.07,1.51,1.54,1.09-.47.66-1.54-1.09-.35.5A1.65,1.65,0,0,0,117,71l.41,1.72,1.76-.18h.11a1.64,1.64,0,0,0,1.07-.67Z" transform="translate(-35.04 -15.79)"/><rect id="_Path_26" data-name="&lt;Path&gt;" class="cls-5" x="118.23" y="68.43" width="0.81" height="1.89" transform="translate(-41.62 110.21) rotate(-54.65)"/><rect id="_Path_27" data-name="&lt;Path&gt;" class="cls-5" x="119.78" y="66.25" width="0.81" height="1.89" transform="translate(-39.2 110.55) rotate(-54.65)"/><rect id="_Path_28" data-name="&lt;Path&gt;" class="cls-5" x="121.32" y="64.07" width="0.81" height="1.89" transform="translate(-36.77 110.89) rotate(-54.65)"/><rect id="_Path_29" data-name="&lt;Path&gt;" class="cls-5" x="122.86" y="61.9" width="0.81" height="1.89" transform="translate(-34.34 111.24) rotate(-54.65)"/><rect id="_Path_30" data-name="&lt;Path&gt;" class="cls-5" x="124.41" y="59.72" width="0.81" height="1.89" transform="translate(-31.91 111.58) rotate(-54.65)"/></g></g></g><g id="_Group_10" data-name="&lt;Group&gt;"><g id="_Group_11" data-name="&lt;Group&gt;"><rect id="_Path_31" data-name="&lt;Path&gt;" class="cls-2" x="99.78" y="62.57" width="4.42" height="0.41" transform="translate(-43.25 93.86) rotate(-54.65)"/><path id="_Path_32" data-name="&lt;Path&gt;" class="cls-3" d="M114.74,47.69,112,45.76a.72.72,0,0,0-.74-.06l-.76.38L102.77,57a2.46,2.46,0,0,0-.39,2l.57,2.41,2.47-.26a2.46,2.46,0,0,0,1.75-1l7.75-10.93.11-.84A.72.72,0,0,0,114.74,47.69Z" transform="translate(-35.04 -15.79)"/><path id="_Path_33" data-name="&lt;Path&gt;" class="cls-4" d="M105.44,60.34h-.11l-1.76.18-.41-1.72a1.65,1.65,0,0,1,.26-1.34l7.63-10.76.53-.27,2.63,1.87-.08.59-7.63,10.76a1.64,1.64,0,0,1-1.07.67Z" transform="translate(-35.04 -15.79)"/><rect id="_Path_34" data-name="&lt;Path&gt;" class="cls-5" x="112.91" y="45.22" width="2.2" height="1.22" transform="translate(-24.37 96.52) rotate(-54.65)"/><rect id="_Rectangle_4" data-name="&lt;Rectangle&gt;" class="cls-2" x="111.88" y="43.75" width="6.14" height="1.5" rx="0.66" ry="0.66" transform="translate(11.9 -74.09) rotate(35.35)"/><g id="_Group_12" data-name="&lt;Group&gt;"><path id="_Path_35" data-name="&lt;Path&gt;" class="cls-6" d="M110.72,53.74l-3.08-2.19-.29.41,1.54,1.09-.47.66-1.54-1.09-1.07,1.51,1.54,1.09-.47.66-1.54-1.09-1.07,1.51,1.54,1.09-.47.66L103.78,57l-.35.5a1.65,1.65,0,0,0-.26,1.34l.41,1.72,1.76-.18h.11a1.64,1.64,0,0,0,1.07-.67Z" transform="translate(-35.04 -15.79)"/><rect id="_Path_36" data-name="&lt;Path&gt;" class="cls-5" x="104.38" y="56.26" width="0.81" height="1.89" transform="translate(-37.53 93.79) rotate(-54.65)"/><rect id="_Path_37" data-name="&lt;Path&gt;" class="cls-5" x="105.93" y="54.08" width="0.81" height="1.89" transform="translate(-35.1 94.13) rotate(-54.65)"/><rect id="_Path_38" data-name="&lt;Path&gt;" class="cls-5" x="107.47" y="51.9" width="0.81" height="1.89" transform="translate(-32.68 94.47) rotate(-54.65)"/><rect id="_Path_39" data-name="&lt;Path&gt;" class="cls-5" x="109.02" y="49.72" width="0.81" height="1.89" transform="translate(-30.25 94.81) rotate(-54.65)"/><rect id="_Path_40" data-name="&lt;Path&gt;" class="cls-5" x="110.56" y="47.55" width="0.81" height="1.89" transform="translate(-27.82 95.16) rotate(-54.65)"/></g></g></g></svg>