<svg xmlns="http://www.w3.org/2000/svg" viewBox="0 0 229.49 494.92"><defs><style>.cls-1{fill:#ee4e9c;}.cls-10,.cls-11,.cls-12,.cls-13,.cls-2,.cls-3,.cls-4,.cls-5,.cls-7,.cls-8{fill:#fff;}.cls-10,.cls-11,.cls-12,.cls-13,.cls-2,.cls-3,.cls-4,.cls-5,.cls-7,.cls-8,.cls-9{stroke:#ee4e9c;}.cls-10,.cls-11,.cls-12,.cls-13,.cls-14,.cls-15,.cls-2,.cls-3,.cls-4,.cls-5,.cls-7,.cls-8,.cls-9{stroke-miterlimit:10;}.cls-2{stroke-width:1.04px;}.cls-3{stroke-width:1.78px;}.cls-4{stroke-width:1.93px;}.cls-5{stroke-width:2.52px;}.cls-6{fill:#ff76be;}.cls-7{stroke-width:2.1px;}.cls-8,.cls-9{stroke-width:1.9px;}.cls-14,.cls-15,.cls-9{fill:none;}.cls-10{stroke-width:2.05px;}.cls-11{stroke-width:1.55px;}.cls-12{stroke-width:1.02px;}.cls-13{stroke-width:1.48px;}.cls-14,.cls-15{stroke:#ff76be;}.cls-14{stroke-width:1.46px;}.cls-15{stroke-width:1.9px;}</style></defs><title>patients</title><g id="Layer_2" data-name="Layer 2"><path class="cls-1" d="M91.72,44.06s-18.55-19.7,13.74-26.68c30.38-1,42.85,9.57,31.38,26.68-13.38,18.06-45.12,0-45.12,0"/><rect class="cls-1" x="27.32" y="379.89" width="16.09" height="7.56"/><rect class="cls-1" x="43.45" y="411.36" width="8.84" height="24.71" rx="4.42" ry="4.42"/><rect class="cls-2" x="14.62" y="311.84" width="16.67" height="123.68" rx="8.33" ry="8.33"/><path class="cls-3" d="M59.43,228.18S39.56,247.8,42.15,315.47l1.33,26.32H179.32s8.6-94-15.06-119.37C139.33,200.8,100.27,180.37,59.43,228.18Z"/><path class="cls-4" d="M31.8,291.3s-13.89-2.64-15.43,14.92,10.7,22.26,13.8,7.91,2.77-8.31,2.77-8.31l1.47,3.49S45,317.24,31.8,291.3Z"/><polygon class="cls-5" points="70.83 384.34 70.83 428.1 90.5 428.1 92.12 384.34 70.83 384.34"/><polygon class="cls-5" points="133.04 383.94 133.04 427.69 152.71 427.69 154.33 383.94 133.04 383.94"/><path class="cls-6" d="M158.09,249.58a27.35,27.35,0,0,1-1.24-7.08,21.07,21.07,0,0,1,.71-6.35c-1.07-4.06-2.2-8.1-3.63-12.09a138,138,0,0,0-8.24-16.32c-.7-.66-1.4-1.31-2.12-1.94a16.8,16.8,0,0,1-4-5.6L139,200c-12.19-1.62-19.27,1.65-27.61.78-4.37-.46-6-.66-16.45,1.34-6.46,1.23-8.17-2.12-8.17-2.12s-.56.12-1.58.42C76.52,203,35,219.15,18.79,293.62c-1.06,2,12.23,7,14.36,4.52s12.23-36.72,31.38-48.72c0,3.06-5.85,37.18-2.13,54.74,6.91,1,98.11,0,98.11,0s4.29-33.62-4.1-56.7Z"/><path class="cls-7" d="M99.66,192c-2.08-.67,2.17,4.1-4.87,7.9A29.57,29.57,0,0,1,82,203.69s36.47,23.49,62.35,0c-13.83-2.18-14-.34-16-10S99.66,192,99.66,192Z"/><path class="cls-7" d="M54.6,151.35s-5.15-.61-5.15,9.88,12.18,16.08,12.18,16.08l-2.39-11.12Z"/><path class="cls-7" d="M169.2,154.94s5.8-6.06,5.8,4.43-9.79,16.08-9.79,16.08V164.32Z"/><path class="cls-8" d="M113.77,199.92s-5.83-.7-5.59-.93c-40.55-11.65-45.39-18.63-46.32-20.73s-3.62-15.84-2.62-18.89C57.61,153.31,45,120.45,43.62,114.5,32.09,65.91,92.36,40.68,92.36,40.68s13.48-7.8,39.2-2.81c0,0,63.9,28,52.36,76.63-1.4,5.94-14,38.8-15.61,44.86-1.63,4.89-4.89,18.41-5.83,20.51s-2.56,7.46-43.11,19.11c.23.23-5.59.93-5.59.93"/><ellipse class="cls-7" cx="113.21" cy="177.32" rx="8.51" ry="12.24" transform="translate(-74.93 271.47) rotate(-84.03)"/><path class="cls-7" d="M76,142.77s10.76,3.61,14.5,6.15-.94-2.29-9.35,2.46"/><path class="cls-7" d="M149.28,144.61s-10.76,3.61-14.5,6.15.94-2.29,9.35,2.46"/><line class="cls-9" x1="91.79" y1="171.04" x2="88.55" y2="181.83"/><line class="cls-9" x1="136.71" y1="181.83" x2="133.48" y2="171.04"/><path class="cls-10" d="M146,200.89s-21.44-23.69-28.59-7.44,13.5,17.09,16.42,19.81,8.64,6.54,9.76,9.58,24.87,40.09,31.9,42.27,28.48,11.06,9.93-21.64l-40.82-44"/><path class="cls-6" d="M154.33,205.05s-1.77,18.43-10.76,17.78c-3.65-4.42,15.37,41.71,41.75,45.76C188.84,275.51,217.88,270.75,154.33,205.05Z"/><path class="cls-1" d="M48.1,138.4C16.61,34.63,120.41,37.79,120.41,37.79s3.68.5-4.5,45.68C116.28,139,48.1,138.4,48.1,138.4"/><path class="cls-1" d="M179.36,138.4s-68.17.57-67.81-54.94c-8.18-45.17-4.5-45.68-4.5-45.68s103.8-3.16,72.31,100.61"/><polygon class="cls-1" points="60.09 161.65 64.02 134.91 48.34 138.57 60.09 161.65"/><polygon class="cls-1" points="167.64 161.65 163.72 134.91 179.4 138.57 167.64 161.65"/><rect class="cls-1" x="6.53" y="317.06" width="3.81" height="118.46" rx="1.9" ry="1.9"/><rect class="cls-1" x="43.45" y="433.13" width="20.1" height="6.24"/><rect class="cls-11" x="62.11" y="426.64" width="102.32" height="12.73"/><path class="cls-1" d="M103.45,432s9.24-21.3-19.82-20.72c-14.46,2.88-18.9,6.37-18.9,20.72C66.63,434.32,103.45,432,103.45,432Z"/><path class="cls-1" d="M165.65,431.76s9.24-21.3-19.82-20.72c-14.46,2.88-18.9,6.37-18.9,20.72C128.84,434.06,165.65,431.76,165.65,431.76Z"/><path class="cls-12" d="M41.67,342.39v67.53s-25-5-22.81,12.89v9.72H30.2V419H52.7V345.52Z"/><rect class="cls-1" x="11.53" y="426.64" width="22.85" height="25.46" rx="11.43" ry="11.43"/><rect class="cls-13" x="14.03" y="439.37" width="17.85" height="25.46" rx="8.92" ry="8.92"/><rect class="cls-1" x="40.41" y="376.9" width="13.99" height="13.99"/><rect class="cls-1" x="184.39" y="379.01" width="16.09" height="7.56" transform="translate(384.87 765.59) rotate(-180)"/><rect class="cls-1" x="175.51" y="410.48" width="8.84" height="24.71" rx="4.42" ry="4.42" transform="translate(359.87 845.68) rotate(180)"/><rect class="cls-2" x="196.52" y="310.97" width="16.67" height="123.68" rx="8.33" ry="8.33" transform="translate(409.71 745.61) rotate(-180)"/><rect class="cls-1" x="217.47" y="316.18" width="3.81" height="118.46" rx="1.9" ry="1.9" transform="translate(438.74 750.82) rotate(180)"/><rect class="cls-1" x="164.25" y="432.25" width="20.1" height="6.24" transform="translate(348.61 870.74) rotate(-180)"/><path class="cls-12" d="M186.14,341.51V409s25-5,22.81,12.89v9.72H197.61V418.13H175.1V344.64Z"/><rect class="cls-1" x="193.43" y="425.76" width="22.85" height="25.46" rx="11.43" ry="11.43" transform="translate(409.71 876.97) rotate(180)"/><rect class="cls-13" x="195.93" y="438.49" width="17.85" height="25.46" rx="8.92" ry="8.92" transform="translate(409.71 902.44) rotate(-180)"/><rect class="cls-1" x="173.41" y="376.02" width="13.99" height="13.99" transform="translate(360.81 766.02) rotate(-180)"/><rect class="cls-8" x="31.75" y="330.09" width="163.23" height="39.99" rx="18" ry="18"/><path class="cls-1" d="M102,287.68s-29.89-26.62-51.55,13.71c-11,20.56,6.09,80.73,6.09,80.73s66.3,25.13,114.56-3c3.51-9.14,22.32-121.86-44.69-96.72C114.58,286.16,114.08,289.21,102,287.68Z"/><circle class="cls-14" cx="98.69" cy="153.87" r="7.54"/><circle class="cls-14" cx="125.41" cy="153.87" r="7.54"/><path class="cls-15" d="M106.12,153.87a8.76,8.76,0,0,1,11.75,0"/><circle class="cls-1" cx="99.88" cy="133.36" r="1.84"/><circle class="cls-1" cx="110.39" cy="160.52" r="1.84"/><circle class="cls-1" cx="147.93" cy="110.79" r="1.84"/><circle class="cls-1" cx="71.48" cy="147.94" r="1.84"/><circle class="cls-1" cx="71.48" cy="171.04" r="1.84"/><circle class="cls-1" cx="27.32" cy="306.89" r="1.84"/><circle class="cls-1" cx="18.73" cy="306.89" r="1.84"/><circle class="cls-1" cx="73.33" cy="395.67" r="1.84"/><circle class="cls-1" cx="81.48" cy="403.64" r="1.84"/><circle class="cls-1" cx="143.11" cy="397.52" r="1.84"/><circle class="cls-1" cx="138.81" cy="409.23" r="1.84"/><circle class="cls-1" cx="128.18" cy="194.52" r="1.84"/><circle class="cls-1" cx="136.71" cy="205.05" r="1.84"/><circle class="cls-1" cx="104.24" cy="188.2" r="1.84"/><circle class="cls-1" cx="126.33" cy="133.36" r="1.84"/><circle class="cls-1" cx="140.66" cy="158.68" r="1.84"/><circle class="cls-1" cx="148.51" cy="181.83" r="1.84"/><circle class="cls-1" cx="154.33" cy="165.91" r="1.84"/><path class="cls-1" d="M136.61,40.68a46.61,46.61,0,0,1-11.3-2.27l-.4,2.95,6.77.06a1.51,1.51,0,0,0,.4-2.95,16.63,16.63,0,0,1-4.49-1.75l-.76,2.8c1.38-.07,6.63.91,2.93-.48a40.67,40.67,0,0,0-7.2-1.53,104.08,104.08,0,0,0-13.21-1.36c-1.93-.08-1.92,2.91,0,3,4.56.22,9.07.65,13.59,1.32l.4-2.95a7.06,7.06,0,0,1-2.05-.1v3l7.13-.74c1.56-.16,2.18-2.55.4-2.95-6.3-1.41-13.46,0-19.9,0-2.67,0-5.23-.17-7.79.64-2.74.86-5.9,1.51-8.54,2.59-1.76.72-1,3.62.8,2.89a43.79,43.79,0,0,1,15.54-3.12c6.09,0,13.15-1.43,19.1-.1l.4-2.95-7.13.74a1.5,1.5,0,0,0,0,3,7.06,7.06,0,0,0,2.05.1c1.61,0,2.13-2.69.4-2.95-4.78-.71-9.56-1.2-14.39-1.43v3a96.56,96.56,0,0,1,16.92,2.15c2.05.46,7.42,2.72,9.53,1,1.11-.9.94-2,.25-3.06-1.81-2.92-6.32-2.86-9.23-2.72-1.39.07-2.16,2.08-.76,2.8a28.6,28.6,0,0,0,5.21,2.05l.4-2.95-6.77-.06a1.51,1.51,0,0,0-.4,2.95,49.93,49.93,0,0,0,12.1,2.37c1.93.14,1.92-2.86,0-3Z"/></g></svg>