<svg xmlns="http://www.w3.org/2000/svg" viewBox="0 0 348.15 680.14"><defs><style>.cls-1,.cls-10,.cls-11,.cls-12,.cls-4,.cls-5,.cls-7{fill:#fff;}.cls-1,.cls-4,.cls-5,.cls-6,.cls-8{stroke:#4db2e5;}.cls-1,.cls-10,.cls-11,.cls-12,.cls-4,.cls-5,.cls-6,.cls-8{stroke-miterlimit:10;}.cls-1{stroke-width:1.86px;}.cls-2{fill:#4db2e5;}.cls-3{fill:#4aa8d7;}.cls-4{stroke-width:1.67px;}.cls-5,.cls-6{stroke-width:1.73px;}.cls-6,.cls-8{fill:none;}.cls-8{stroke-width:2.7px;}.cls-9{fill:#ee4e9c;}.cls-10,.cls-11,.cls-12{stroke:#ee4e9c;}.cls-10{stroke-width:1.74px;}.cls-11{stroke-width:1.24px;}.cls-12{stroke-width:1.01px;}</style></defs><title>patients</title><g id="Layer_2" data-name="Layer 2"><path class="cls-1" d="M127.78,481.93s10.16,30.27,8.24,40.19c-1.92,11.16-3.91,40.3,7.93,89.29-1.79,6.2-32.55,47.75-.12,45.89,12.59-1.86,17-13,18.83-37.2-1.9-27.28,0-98,0-98V481.93"/><path class="cls-1" d="M201.49,481.93s-10.16,30.27-8.24,40.19c1.92,11.16,3.91,40.3-7.93,89.29,1.79,6.2,32.55,47.75.12,45.89-12.59-1.86-17-13-18.83-37.2,1.9-27.28,0-98,0-98V481.93"/><path class="cls-2" d="M117,296.83s10,34.87,10.58,39.12c-12.17,45.06-10.08,46.3-10.08,46.3s57.44,16.12,98.78-2.89c-3.72-14.88-12.81-37.62-12.4-44.65s9.81-42.47,9.81-42.47l-21.38-54-50,2.08Z"/><path class="cls-3" d="M217.74,45.08S232.47,16,262.63,35.51c28.68,23.39,34.52,42.63,28.42,69.85s-17.25,58.46,1.19,59-31.37,11.59-45.08-4.76S217.74,45.08,217.74,45.08Z"/><path class="cls-4" d="M152.81,226.38s1.17,8.43,0,11.89a58.19,58.19,0,0,0-8.82,1.39l24.4,26.86,21.18-28.25-6.95-1.15,1.5-10.74"/><path class="cls-5" d="M98.19,176.22S91,168.73,91,181.7s12.11,19.89,12.11,19.89V187.83Z"/><path class="cls-5" d="M234.31,176.22s7.17-7.49,7.17,5.48-12.11,19.89-12.11,19.89V187.83Z"/><path class="cls-5" d="M165.75,231.86s-7.21-.86-6.92-1.15c-50.16-14.41-52.18-21-53.33-23.64s-5.19-19.31-7.21-25.37c-2-7.49-17.58-48.14-19.31-55.49C64.72,66.1,136.4,32.33,136.4,32.33s14.49-5.73,50.93-2.41c0,0,79.47,36.18,65.2,96.29-1.73,7.35-17.3,48-19.31,55.49-2,6.05-6.05,22.77-7.21,25.37s-3.17,9.22-53.33,23.64c.29.29-6.92,1.15-6.92,1.15"/><path class="cls-2" d="M204,28.89s-32.29-11.79-61.69-3.14c-9.22,3.46-76.68,25.37-80.14,98C63.34,148,89.86,175.07,99.95,181.7c0,0-8.94-35.46,11.82-65.44,1.15-1.15-1.15,11.53,4,31.71l1.73,1.73s7.49-23.64,36.9-55.92c-1.15.58-7.49,28.25-1.15,47.85,1.15,0,28.25-42.66,45.55-49-.58,0,32.45,50.42,35.17,66.88,4.15,12.35,2.71,16.46,2.71,16.46L247,164.4s25.66-34,17.58-72.93C261.67,76.48,237.45,38.37,204,28.89Z"/><ellipse class="cls-2" cx="129.64" cy="168.15" rx="8.65" ry="10.38"/><path class="cls-6" d="M153.28,204.92s13.26-7.49,24.79,0"/><path class="cls-5" d="M124.45,163a15.49,15.49,0,0,1-5.77,0"/><ellipse class="cls-7" cx="127.04" cy="174.07" rx="3.17" ry="4.18"/><ellipse class="cls-2" cx="197.67" cy="168.15" rx="8.65" ry="10.38"/><path class="cls-5" d="M202.86,163a15.49,15.49,0,0,0,5.77,0"/><ellipse class="cls-7" cx="195.65" cy="174.07" rx="3.17" ry="4.18"/><path class="cls-8" d="M135,140.85s5-2.52-10.37,6.71"/><path class="cls-8" d="M195.61,146s5,2.52-10.37-6.71"/><path class="cls-2" d="M192.27,238.27l30.29,12.85s28.64,57.1,31.68,86.53c-11.22,12.07-51.86,28.81-51.38,30s-4.48-14.88-10.37-16.12c-.52-1.4,7.29-7.11,16.44-13.49,7.11-5,15-10.34,20.45-14.41-.62-.62-14.26-25.42-14.26-25.42Z"/><path class="cls-2" d="M90.91,315.13a43.55,43.55,0,0,1,14.49-6.44c4.73-7.46,14.65-23.45,14.65-23.45l23.79-46.6-33,12.85S90,287.73,75.64,319.28C80.66,317.66,85.82,316.5,90.91,315.13Z"/><path class="cls-9" d="M140.81,270s-16.7-27.47-28.95-21.72C94.05,259.13,81.81,270,85.7,296.18c4.45,31.3,30.62,57,68.47,60.69,38.41,3.7,73.73-21.08,77.38-47.91,0,0,7.05-38.54-45.28-25.13C179,281.49,147.83,279.72,140.81,270Z"/><path class="cls-10" d="M115.89,257s-1,1.93-2.27,5.11c-.52,1.3-1.09,2.82-1.65,4.5-.74,2.21-1.48,4.71-2.1,7.39-2.94,12.79-3.13,29.68,11.81,39.21.83.83,19.22,5.37,30-8.89,1.65-2.48,8.27-21.7-6.61-27.7C133.67,264,141.94,260.9,115.89,257Z"/><path class="cls-10" d="M113.49,266.19s21.69-9.11,31.82,8.38c6.66,5,14.73,24.22-3.1,34.45C131.42,313.66,98.76,315.48,113.49,266.19Z"/><path class="cls-11" d="M123.78,289.7a24.78,24.78,0,0,0,4-1.36s-2,2-2,3.56"/><path class="cls-12" d="M141.52,276.38a21.79,21.79,0,0,1-1,2.58s1.11-1.21,1.82-1.13"/><path class="cls-10" d="M144.07,287.52s-9.15,5.84-8.68,11.42a4.4,4.4,0,0,0,4.34,3.88c1.09.16,6-2,7.6-5l2-4.19S144.13,289.22,144.07,287.52Z"/><path class="cls-2" d="M85,307.65l-5.79,2s-8.76,12,5.1,21.49C102.8,341.94,131.42,351,131.42,351l7.41,3s-5.75-13.07,5.13-13.78c-9.4-6.85-44-29.62-55.95-33.48"/><path class="cls-1" d="M143.34,338.85h0s7-2.8,9.64-.63c2.21,2.2,6.34,1.93.18,2.75s.08,2.44,6.16-.81,4.34,20.15-9.08,16.75l-13.43-3.4s-4.12-11.75,6.53-14.65"/><path class="cls-1" d="M228.35,476.24l-.62.62c-57.67,19.22-124,0-124,0l13.75-94.61s84.53.74,95.85-1.62Z"/><path class="cls-2" d="M137.56,623.39S133,651.16,158.08,635.8c3.1-2.5,3.26-3.49,3.26-3.49s-4.9,31.75-23.51,24.75c-3.2-.88-12.46-2-6.65-20C135.62,627.06,137.56,623.39,137.56,623.39Z"/><path class="cls-2" d="M191.8,623.39s4.54,27.77-20.52,12.41c-3.1-2.5-3.26-3.49-3.26-3.49s4.9,31.75,23.51,24.75c3.2-.88,12.46-2,6.65-20C193.74,627.06,191.8,623.39,191.8,623.39Z"/><circle class="cls-9" cx="119.13" cy="277.33" r="1.31"/><circle class="cls-9" cx="132.7" cy="278.64" r="1.31"/><circle class="cls-9" cx="129.66" cy="266.52" r="1.31"/><circle class="cls-9" cx="131.42" cy="296" r="1.31"/><circle class="cls-9" cx="146.66" cy="284.63" r="1.31"/><circle class="cls-9" cx="120.44" cy="302.36" r="1.31"/><circle class="cls-9" cx="116.27" cy="290.36" r="1.31"/><circle class="cls-9" cx="131.39" cy="306.24" r="1.31"/></g></svg>