<svg id="Layer_1" data-name="Layer 1" xmlns="http://www.w3.org/2000/svg" viewBox="0 0 312 314"><defs><style>.cls-1{fill:#ef509d;}.cls-2,.cls-3{fill:#4eb2e5;stroke:#fff;stroke-miterlimit:10;}.cls-2{stroke-width:2.27px;}.cls-3{stroke-width:2.76px;}</style></defs><title>pins</title><path class="cls-1" d="M209,63.16l-.22,0a1.1,1.1,0,0,1-1-1.27L209,53.74a1.24,1.24,0,0,1,1.31-1.06l.22,0a1.1,1.1,0,0,1,1,1.27l-1.18,8.13A1.24,1.24,0,0,1,209,63.16Z"/><path class="cls-1" d="M213.52,64.76a1.33,1.33,0,0,0,.11-.37l1.48-10.21A1.2,1.2,0,0,0,214,52.79a1.36,1.36,0,0,0-1.44,1.16l-1.44,9.95-.06.07L201.43,75.2a1.41,1.41,0,0,0,.09,2h0a1.41,1.41,0,0,0,2-.2l9.67-11.24A1.48,1.48,0,0,0,213.52,64.76Z"/><path class="cls-1" d="M218.15,71l.05.21a1.1,1.1,0,0,0,1.4.78l7.86-2.38a1.24,1.24,0,0,0,.85-1.46l-.05-.21a1.1,1.1,0,0,0-1.4-.78L219,69.55A1.24,1.24,0,0,0,218.15,71Z"/><path class="cls-1" d="M215.89,66.8a1.33,1.33,0,0,1,.35-.17l9.88-3a1.2,1.2,0,0,1,1.54.85,1.36,1.36,0,0,1-.93,1.6L217.11,69l-.06.07-9.67,11.24a1.41,1.41,0,0,1-2,.2h0a1.41,1.41,0,0,1-.09-2L215,67.3A1.48,1.48,0,0,1,215.89,66.8Z"/><path class="cls-1" d="M94.53,68.35v.22a1.1,1.1,0,0,1-1.17,1.1l-8.21-.39A1.24,1.24,0,0,1,84,68.07v-.22a1.1,1.1,0,0,1,1.17-1.1l8.21.39A1.24,1.24,0,0,1,94.53,68.35Z"/><path class="cls-1" d="M95.69,63.72a1.33,1.33,0,0,0-.38-.08L85,63.15a1.2,1.2,0,0,0-1.28,1.2A1.36,1.36,0,0,0,85,65.67l10,.48.07.06,12.12,8.54a1.41,1.41,0,0,0,2-.28h0a1.41,1.41,0,0,0-.39-1.94L96.69,64A1.48,1.48,0,0,0,95.69,63.72Z"/><path class="cls-1" d="M101.46,58.51l.21-.07a1.1,1.1,0,0,0,.64-1.47l-3.12-7.6a1.24,1.24,0,0,0-1.53-.71l-.21.07a1.1,1.1,0,0,0-.64,1.47l3.12,7.6A1.24,1.24,0,0,0,101.46,58.51Z"/><path class="cls-1" d="M97.49,61.17a1.33,1.33,0,0,1-.2-.34l-3.92-9.54a1.2,1.2,0,0,1,.7-1.61,1.36,1.36,0,0,1,1.68.77l3.82,9.3.08,0,12.12,8.54a1.41,1.41,0,0,1,.39,1.94h0a1.41,1.41,0,0,1-2,.28L98.08,62A1.48,1.48,0,0,1,97.49,61.17Z"/><path class="cls-1" d="M151.53,45.78l-.42.11a2.15,2.15,0,0,1-2.67-1.66L145,28.48a2.44,2.44,0,0,1,1.69-2.85l.42-.11a2.15,2.15,0,0,1,2.67,1.66l3.42,15.75A2.44,2.44,0,0,1,151.53,45.78Z"/><path class="cls-1" d="M160.9,45.64a2.62,2.62,0,0,0-.05-.77l-4.29-19.79a2.36,2.36,0,0,0-2.92-1.82,2.67,2.67,0,0,0-1.85,3.12L156,45.66l-.07.17L145.84,73.12a2.76,2.76,0,0,0,1.53,3.57h0A2.76,2.76,0,0,0,150.85,75L160.9,47.67A2.9,2.9,0,0,0,160.9,45.64Z"/><path class="cls-1" d="M173.69,53.95l.24.36a2.15,2.15,0,0,0,3.11.47L189.87,45a2.44,2.44,0,0,0,.56-3.26l-.24-.36a2.15,2.15,0,0,0-3.11-.47l-12.82,9.77A2.44,2.44,0,0,0,173.69,53.95Z"/><path class="cls-1" d="M166.65,47.76a2.62,2.62,0,0,1,.54-.55l16.1-12.27a2.36,2.36,0,0,1,3.41.51,2.67,2.67,0,0,1-.61,3.57L170.39,51l-.05.17L160.28,78.44a2.76,2.76,0,0,1-3.48,1.73h0a2.76,2.76,0,0,1-1.53-3.57L165.33,49.3A2.9,2.9,0,0,1,166.65,47.76Z"/><path class="cls-2" d="M225,125.26a21,21,0,1,0-17.13-17.13A21,21,0,0,0,225,125.26Z"/><path class="cls-2" d="M276.51,159.59a6.54,6.54,0,0,0-.7-.77,1.89,1.89,0,0,0-.52-.75l-29.47-26.38a7.37,7.37,0,0,0-5.37-2H214.31a7.37,7.37,0,0,0-5.36,2l-29.47,26.38a1.89,1.89,0,0,0-.52.75,6.55,6.55,0,0,0-.7.77,7.45,7.45,0,0,0,10.93,10l18.53-17.53v79.64a8,8,0,0,0,7.94,7.94h1.87a8,8,0,0,0,7.94-7.94v-40h3.82v40a8,8,0,0,0,7.94,7.94h1.87a8,8,0,0,0,7.94-7.94V152.09l18.54,17.54a7.45,7.45,0,0,0,10.93-10Z"/><path class="cls-2" d="M92.39,125.26a21,21,0,1,0-17.13-17.13A21,21,0,0,0,92.39,125.26Z"/><path class="cls-2" d="M143.91,159.59a6.54,6.54,0,0,0-.7-.77,1.89,1.89,0,0,0-.52-.75l-29.47-26.38a7.37,7.37,0,0,0-5.37-2H81.71a7.37,7.37,0,0,0-5.36,2L46.88,158.06a1.89,1.89,0,0,0-.52.75,6.55,6.55,0,0,0-.7.77,7.45,7.45,0,0,0,10.93,10l18.53-17.53v79.64a8,8,0,0,0,7.94,7.94h1.87a8,8,0,0,0,7.94-7.94v-40H96.7v40a8,8,0,0,0,7.94,7.94h1.87a8,8,0,0,0,7.94-7.94V152.09L133,169.62a7.45,7.45,0,0,0,10.93-10Z"/><path class="cls-3" d="M153.4,142.72a25.48,25.48,0,1,0-20.8-20.8A25.5,25.5,0,0,0,153.4,142.72Z"/><path class="cls-3" d="M216,184.41a7.94,7.94,0,0,0-.85-.94,2.3,2.3,0,0,0-.63-.92l-35.79-32a9,9,0,0,0-6.52-2.44H140.43a9,9,0,0,0-6.51,2.44l-35.79,32a2.3,2.3,0,0,0-.63.92,8,8,0,0,0-.85.94,9,9,0,0,0,13.28,12.18l22.5-21.29V272a9.67,9.67,0,0,0,9.64,9.64h2.27A9.67,9.67,0,0,0,154,272V223.47h4.64V272a9.67,9.67,0,0,0,9.64,9.64h2.27a9.67,9.67,0,0,0,9.64-9.64V175.3l22.51,21.3A9,9,0,0,0,216,184.41Z"/></svg>