<svg id="Layer_1" data-name="Layer 1" xmlns="http://www.w3.org/2000/svg" viewBox="0 0 233.16 230.16"><defs><style>.cls-1{fill:#c6e9f6;}.cls-2,.cls-7{fill:#ef509d;}.cls-2{opacity:0.64;}.cls-3{fill:#5ec8e2;}.cls-4,.cls-5{fill:#fff;}.cls-4{stroke:#4eb2e5;stroke-miterlimit:10;stroke-width:2.95px;}.cls-6{fill:#344d5d;}</style></defs><title>pins2</title><path class="cls-1" d="M210,108.47a97.65,97.65,0,1,1-97.65-97.65A97.65,97.65,0,0,1,210,108.47"/><polygon class="cls-2" points="190.56 83.63 135.19 83.63 135.19 29.91 91.74 29.91 91.74 83.63 36.37 83.63 36.37 127.09 91.74 127.09 91.74 184.1 135.19 184.1 135.19 127.09 190.56 127.09 190.56 83.63"/><g id="_Group_" data-name="&lt;Group&gt;"><g id="_Group_2" data-name="&lt;Group&gt;"><rect id="_Path_" data-name="&lt;Path&gt;" class="cls-3" x="149.81" y="152.13" width="2.8" height="30.5" transform="translate(-69.41 120.42) rotate(-35.89)"/><path id="_Path_2" data-name="&lt;Path&gt;" class="cls-4" d="M62.37,64.24,81,50.75a5,5,0,0,1,5.09-.43l5.26,2.59,54.14,74.82a17,17,0,0,1,2.8,13.73l-3.8,16.66-17-1.6a17,17,0,0,1-12.16-6.95L61.19,74.75l-.82-5.81A5,5,0,0,1,62.37,64.24Z"/><path id="_Path_3" data-name="&lt;Path&gt;" class="cls-5" d="M127.28,150.85l.74.09,12.12,1.14,2.71-11.87A11.37,11.37,0,0,0,141,131L87.65,57.32,84,55.52l-18,13,.57,4,53.33,73.69a11.29,11.29,0,0,0,7.41,4.56Z"/><rect id="_Path_4" data-name="&lt;Path&gt;" class="cls-6" x="63.04" y="43.76" width="8.41" height="15.18" transform="translate(-17.33 49.17) rotate(-35.89)"/><rect id="_Rectangle_" data-name="&lt;Rectangle&gt;" class="cls-3" x="39.54" y="37.12" width="42.32" height="10.37" rx="1.56" ry="1.56" transform="translate(134.68 40.99) rotate(144.11)"/><g id="_Group_3" data-name="&lt;Group&gt;"><path id="_Path_5" data-name="&lt;Path&gt;" class="cls-7" d="M90.5,105.69,111.6,90.42l2,2.82-10.55,7.64,3.29,4.54,10.55-7.64,7.5,10.37-10.55,7.64,3.29,4.54,10.55-7.64,7.5,10.37-10.55,7.64,3.29,4.54,10.55-7.64L141,131a11.37,11.37,0,0,1,1.87,9.19l-2.71,11.87L128,150.94l-.74-.09h0a11.29,11.29,0,0,1-7.41-4.56Z"/><rect id="_Path_6" data-name="&lt;Path&gt;" class="cls-6" x="125.07" y="126.34" width="13.03" height="5.6" transform="translate(-50.73 101.66) rotate(-35.89)"/><rect id="_Path_7" data-name="&lt;Path&gt;" class="cls-6" x="114.28" y="111.43" width="13.03" height="5.6" transform="translate(-44.04 92.5) rotate(-35.89)"/><rect id="_Path_8" data-name="&lt;Path&gt;" class="cls-6" x="103.49" y="96.53" width="13.03" height="5.6" transform="translate(-37.34 83.35) rotate(-35.89)"/><rect id="_Path_9" data-name="&lt;Path&gt;" class="cls-6" x="92.71" y="81.62" width="13.03" height="5.6" transform="translate(-30.65 74.2) rotate(-35.89)"/><rect id="_Path_10" data-name="&lt;Path&gt;" class="cls-6" x="81.92" y="66.71" width="13.03" height="5.6" transform="translate(-23.96 65.04) rotate(-35.89)"/></g></g></g></svg>