<svg xmlns="http://www.w3.org/2000/svg" viewBox="0 0 139.95 162.68"><defs><style>.cls-1,.cls-2{fill:none;stroke:#95d9f4;stroke-miterlimit:10;stroke-width:3px;}.cls-2{stroke-dasharray:8.34 8.34;}.cls-3{fill:#7bceef;}.cls-4{fill:#4db2e5;}</style></defs><title>plane</title><g id="Layer_2" data-name="Layer 2"><line class="cls-1" x1="80" y1="71.18" x2="76.51" y2="74.03"/><line class="cls-2" x1="70.06" y1="79.32" x2="21.66" y2="118.98"/><line class="cls-1" x1="18.43" y1="121.62" x2="14.95" y2="124.47"/><path class="cls-3" d="M124.83,39.49,61,86.57,41.69,75.71l8.13-6L66.16,74,79.81,60.15,48.18,47.07l11.38-8.4,42,9.22L114.43,39S119.8,36.92,124.83,39.49Z"/><path class="cls-4" d="M124.83,39.49,61,86.57l4.68,21.66,8.13-6,.74-16.87,17.25-9L95,110.49l11.38-8.4,3.57-42.81,12.3-9.7S125.8,45.05,124.83,39.49Z"/></g></svg>