<svg xmlns="http://www.w3.org/2000/svg" viewBox="0 0 74 131.7"><defs><style>.cls-1{fill:#5ec8e2;}.cls-2,.cls-3{fill:#fff;}.cls-2{stroke:#4db2e5;stroke-miterlimit:10;stroke-width:1.57px;}.cls-4{fill:#334d5d;}.cls-5{fill:#ee4e9c;}</style></defs><title>point</title><g id="Layer_2" data-name="Layer 2"><g id="_Group_" data-name="&lt;Group&gt;"><g id="_Group_2" data-name="&lt;Group&gt;"><rect id="_Path_" data-name="&lt;Path&gt;" class="cls-1" x="35.4" y="93.13" width="1.49" height="16.21"/><path id="_Path_2" data-name="&lt;Path&gt;" class="cls-2" d="M30.06,29.15H42.29a2.63,2.63,0,0,1,2.33,1.4l1.46,2.76,0,49.08A9,9,0,0,1,43,89.17l-6.83,6-6.83-6a9,9,0,0,1-3.07-6.78l0-49.08,1.46-2.75A2.63,2.63,0,0,1,30.06,29.15Z"/><path id="_Path_3" data-name="&lt;Path&gt;" class="cls-3" d="M31,86.66l.29.27,4.86,4.27L41,86.93a6,6,0,0,0,2.06-4.54L43.1,34l-1-1.92H30.27l-1,1.92,0,48.34A6,6,0,0,0,31,86.66Z"/><rect id="_Path_4" data-name="&lt;Path&gt;" class="cls-4" x="33.95" y="21.08" width="4.47" height="8.07"/><rect id="_Rectangle_" data-name="&lt;Rectangle&gt;" class="cls-1" x="24.94" y="16.43" width="22.49" height="5.51" rx="2.35" ry="2.35" transform="translate(72.36 38.38) rotate(-179.97)"/><g id="_Group_3" data-name="&lt;Group&gt;"><path id="_Path_5" data-name="&lt;Path&gt;" class="cls-5" d="M29.24,55.76H43.09v1.85H36.17v3h6.92v6.8H36.16v3h6.92v6.8H36.16v3h6.92v2.24A6,6,0,0,1,41,86.93L36.15,91.2l-4.86-4.27L31,86.66h0a6,6,0,0,1-1.77-4.27Z"/><rect id="_Path_6" data-name="&lt;Path&gt;" class="cls-4" x="36.16" y="77.17" width="6.92" height="2.98"/><rect id="_Path_7" data-name="&lt;Path&gt;" class="cls-4" x="36.16" y="67.39" width="6.92" height="2.98"/><rect id="_Path_8" data-name="&lt;Path&gt;" class="cls-4" x="36.17" y="57.61" width="6.92" height="2.98"/><rect id="_Path_9" data-name="&lt;Path&gt;" class="cls-4" x="36.17" y="47.83" width="6.92" height="2.98"/><rect id="_Path_10" data-name="&lt;Path&gt;" class="cls-4" x="36.17" y="38.05" width="6.92" height="2.98"/></g></g></g></g></svg>