<svg xmlns="http://www.w3.org/2000/svg" viewBox="0 0 231.86 293.77"><defs><style>.cls-1{fill:#4db2e5;stroke-width:1.92px;}.cls-1,.cls-2{stroke:#fff;}.cls-1,.cls-2,.cls-7{stroke-miterlimit:10;}.cls-2,.cls-9{fill:#ee4e9c;}.cls-2{stroke-width:0.96px;}.cls-3{fill:#abe0f4;}.cls-4,.cls-7{fill:#fff;}.cls-5{fill:#4db0e4;}.cls-6{fill:#5ec8e2;}.cls-7{stroke:#4db2e5;stroke-width:0.88px;}.cls-8{fill:#334d5d;}</style></defs><title>refusal</title><g id="Layer_2" data-name="Layer 2"><path class="cls-1" d="M161.73,162.59a14.85,14.85,0,1,0-12.12-12.12A14.86,14.86,0,0,0,161.73,162.59Z"/><path class="cls-1" d="M198.2,186.89a4.63,4.63,0,0,0-.5-.55,1.34,1.34,0,0,0-.37-.53l-20.86-18.67a5.22,5.22,0,0,0-3.8-1.42H154.17a5.21,5.21,0,0,0-3.8,1.42l-20.86,18.67a1.34,1.34,0,0,0-.37.53,4.63,4.63,0,0,0-.5.55,5.27,5.27,0,0,0,7.74,7.1l13.11-12.41V238a5.64,5.64,0,0,0,5.62,5.62h1.33a5.64,5.64,0,0,0,5.62-5.62V209.66h2.7V238a5.64,5.64,0,0,0,5.62,5.62h1.33a5.64,5.64,0,0,0,5.62-5.62V181.58L190.46,194a5.27,5.27,0,0,0,7.74-7.1Z"/><path class="cls-2" d="M67.89,162.59a14.85,14.85,0,1,0-12.12-12.12A14.86,14.86,0,0,0,67.89,162.59Z"/><path class="cls-2" d="M104.35,186.89a4.63,4.63,0,0,0-.5-.55,1.34,1.34,0,0,0-.37-.53L82.63,167.14a5.22,5.22,0,0,0-3.8-1.42H60.32a5.21,5.21,0,0,0-3.8,1.42L35.67,185.81a1.34,1.34,0,0,0-.37.53,4.63,4.63,0,0,0-.5.55,5.27,5.27,0,0,0,7.74,7.1l13.11-12.41V238a5.64,5.64,0,0,0,5.62,5.62h1.33A5.64,5.64,0,0,0,68.23,238V209.66h2.7V238a5.64,5.64,0,0,0,5.62,5.62h1.33A5.64,5.64,0,0,0,83.49,238V181.58L96.61,194a5.27,5.27,0,0,0,7.74-7.1Z"/><path class="cls-3" d="M174.53,22.9H110c-13.71,0-24.86,9.54-24.86,21.27V99.36c0,8.93,6.38,16.77,16,19.89-1.89,5.72-7.37,10.17-14.9,12l-5.12,1.25,5.1,1.31a31.6,31.6,0,0,0,7.82,1c11.41,0,22.31-5.4,28.64-14.14h51.79c13.71,0,24.87-9.55,24.87-21.28V44.17C199.4,32.44,188.25,22.9,174.53,22.9Z"/><path class="cls-4" d="M174.53,18H110C97.16,18,86.72,26.9,86.72,37.91V93.1c0,8.93,6.86,16.49,16.32,19-1.4,5.8-6.59,11.77-16.32,14.15,11.8,3,27.16-1.61,35.14-13.24h52.67c12.87,0,23.31-8.93,23.31-19.94V37.91C197.85,26.9,187.41,18,174.53,18Z"/><path class="cls-5" d="M94.1,128.51a31.49,31.49,0,0,1-7.82-1l-5.1-1.3L86.3,125c7.53-1.85,13-6.29,14.9-12-9.65-3.12-16-11-16-19.89V37.91c0-11.73,11.15-21.27,24.86-21.27h64.5c13.71,0,24.87,9.54,24.87,21.27V93.1c0,11.73-11.15,21.27-24.87,21.27H122.75C116.41,123.12,105.51,128.51,94.1,128.51Zm-1.74-2.71c.57,0,1.15,0,1.74,0,10.6,0,20.72-5.17,26.42-13.48l.45-.66h53.56c12,0,21.75-8.34,21.75-18.61V37.91c0-10.26-9.76-18.61-21.75-18.61H110c-12,0-21.75,8.35-21.75,18.61V93.1c0,8.17,6.12,15.31,15.23,17.76l1.34.36-.28,1.18C103.17,118.19,98.75,123,92.36,125.8Z"/><g id="Layer_2-2" data-name="Layer 2"><g id="_Group_" data-name=" Group "><g id="_Group_2" data-name=" Group 2"><rect id="_Path_" data-name=" Path " class="cls-6" x="151.05" y="47.28" width="9.15" height="0.84" transform="translate(21.08 139.31) rotate(-51.29)"/><path id="_Path_2" data-name=" Path 2" class="cls-7" d="M127,75.83l.33-1.72,17.32-21.62a5.09,5.09,0,0,1,3.75-1.9l5.12-.22.89,5a5.09,5.09,0,0,1-1,4.07L136,81.1l-1.61.7a1.49,1.49,0,0,1-1.52-.2l-5.38-4.31A1.49,1.49,0,0,1,127,75.83Z"/><path id="_Path_3" data-name=" Path 3" class="cls-4" d="M145.93,53.56,128.87,74.84l-.23,1.2,5.2,4.17,1.12-.49,17-21.25a3.41,3.41,0,0,0,.7-2.73l-.64-3.6-3.65.16h-.22A3.38,3.38,0,0,0,145.93,53.56Z"/><rect id="_Path_4" data-name=" Path 4" class="cls-8" x="126.5" y="79.95" width="4.55" height="2.52" transform="translate(-15.13 130.91) rotate(-51.29)"/><rect id="_Rectangle_" data-name=" Rectangle " class="cls-6" x="125.12" y="77.48" width="3.11" height="12.69" rx="1.39" ry="1.39" transform="translate(-17.96 130.25) rotate(-51.29)"/><g id="_Group_3" data-name=" Group 3"><path id="_Path_5" data-name=" Path 5" class="cls-9" d="M145.92,53.55a3.38,3.38,0,0,1,2.29-1.26h.22l3.65-.16.62,3.61a3.41,3.41,0,0,1-.7,2.73l-.79,1-3-2.44-1.05,1.29,3,2.44-2.4,3-3-2.44-1.05,1.29,3,2.44-2.4,3-3-2.44-1.05,1.29,3,2.44-.65.81-6.07-4.88Z"/><rect id="_Path_6" data-name=" Path 6" class="cls-8" x="148.35" y="56.91" width="1.68" height="3.91" transform="translate(9.96 138.47) rotate(-51.29)"/><rect id="_Path_7" data-name=" Path 7" class="cls-8" x="144.89" y="61.22" width="1.68" height="3.91" transform="translate(5.3 137.38) rotate(-51.29)"/><rect id="_Path_8" data-name=" Path 8" class="cls-8" x="141.44" y="65.52" width="1.68" height="3.91" transform="translate(0.65 136.3) rotate(-51.29)"/><rect id="_Path_9" data-name=" Path 9" class="cls-8" x="137.99" y="69.82" width="1.68" height="3.91" transform="translate(-4 135.22) rotate(-51.29)"/><rect id="_Path_10" data-name=" Path 10" class="cls-8" x="134.54" y="74.13" width="1.68" height="3.91" transform="translate(-8.65 134.15) rotate(-51.29)"/></g></g></g><path class="cls-9" d="M104.22,65.06A38,38,0,0,0,166,94.77a38.42,38.42,0,0,0,6-6A38,38,0,1,0,104.22,65Zm20.34-23.71A29.59,29.59,0,0,1,166,82.78L124.56,41.34ZM160,88.75a29.6,29.6,0,0,1-41.43-41.43Z"/></g></g></svg>