<svg xmlns="http://www.w3.org/2000/svg" viewBox="0 0 222 486.78"><defs><style>.cls-1,.cls-3{fill:#fff;}.cls-1{stroke:#ee4e9c;stroke-miterlimit:10;stroke-width:1.9px;}.cls-2{fill:#ee4e9c;}</style></defs><title>sickness</title><g id="Layer_2" data-name="Layer 2"><path class="cls-1" d="M92.55,342.11s1.57,14.61,0,25.19c-2.42,19.89-4.22,16.08.7,39.35,1.54,2.12,5.77,30.89,5.35,34.7s-14.75,19.47,0,19,11,.42,12.24-15.66c-3.39-5.5-.42-37.66-2.54-66.44.42-7.19,4.21-34.64,4.21-34.64Z"/><path class="cls-1" d="M136,342.11s-1.57,14.61,0,25.19c2.42,19.89,4.22,16.08-.7,39.35-1.54,2.12-5.77,30.89-5.35,34.7s14.75,19.47,0,19-11,.42-12.24-15.66c3.39-5.5.42-37.66,2.54-66.44-.42-7.19-4.21-34.64-4.21-34.64Z"/><path class="cls-2" d="M97.59,443.81s2.27,11.3,13.28.93c0,0-.29,13.16-1.21,13.93s-16.41,3.23-17,0S97.59,443.81,97.59,443.81Z"/><path class="cls-2" d="M131.31,443.81s-2.27,11.3-13.28.93c0,0,.29,13.16,1.21,13.93s16.41,3.23,17,0S131.31,443.81,131.31,443.81Z"/><path class="cls-2" d="M95.89,188.15l10.25,4.44h18.14l8-4.44L149.21,192s-1.9,55.22,0,63.48,8.67,48.24,17,81.88c-.53.63-39.46,12.06-96.8,0,1.06-20.95,13.08-83.15,13.08-83.15l-1.69-61.57Z"/><path class="cls-1" d="M77.48,194.86S67.33,198.67,54,252c0,1.27-14.49,26-14.49,26l10.9,7S69.87,260.24,73,254.53,80.83,231,80.83,231V194.22Z"/><path class="cls-1" d="M102.38,176.62a11.16,11.16,0,0,1,0,8.88l-6.49,3.65s19.48,26,36.4,0c2.32,1.27-10.1-1.77-8-11.36C124.22,177.8,109.44,178.87,102.38,176.62Z"/><path class="cls-2" d="M59.27,45.13S50.82,36.8,35,54.58c-7.62,7.62-3.81,37.32-3.81,37.32S29.24,102.18,14,97.11c0,0,4.78,29,33.49,18.3.8,1.87,17.51-57,17.51-57Z"/><path class="cls-2" d="M167.56,49.38s8.45-8.33,24.32,9.45c7.62,7.62,3.81,37.32,3.81,37.32s1.9,10.29,17.14,5.21c0,0-10.54,27.1-39.26,16.41-.8,1.87-11.75-55.13-11.75-55.13Z"/><path class="cls-1" d="M65.83,139.08s-5.25-5.48-5.25,4,8.86,14.55,8.86,14.55V147.57Z"/><path class="cls-1" d="M165.42,139.08s5.25-5.48,5.25,4-8.86,14.55-8.86,14.55V147.57Z"/><path class="cls-1" d="M115.27,179.78s-5.27-.63-5.06-.84c-36.7-10.55-38.17-15.4-39-17.29s-3.8-14.13-5.27-18.56c-1.48-5.48-12.86-35.22-14.13-40.6-10.44-44,42-68.68,42-68.68S104.39,29.62,131,32c0,0,58.14,26.47,47.7,70.44-1.27,5.38-12.65,35.11-14.13,40.6-1.48,4.43-4.43,16.66-5.27,18.56s-2.32,6.75-39,17.29c.21.21-5.06.84-5.06.84"/><path class="cls-2" d="M101.25,26.4c-9-.82-90.17,20.93-48.94,99.19,10.17,17.5,9.3,12.57,9.3,12.57l4.3,4.93S55.33,119,62.49,105.54c1.45.84,3.41,9.4,9.09,10.36,0,0-1.88-17.53,0-24s13.26,13.64,18.32,13.64c-.37-2.53.84-25.06.84-25.06A47.44,47.44,0,0,0,108,105.54l.64.84s.67-14.67,8.43-25.9c0,0,2.76,16.61,9.07,25.06l-.36.84s4.58-13.75,9.43-21.63c-.86,1.64,4.64,12.34,3.8,20.79l.1,6.55s13.06-10.87,9.38-20.19l1.09.2s6.38,12.38,5.57,24.75l.14,1.9s3.44,4.1,8.38-14.61c0,0,6.06,19.12,4.43,29C168.15,133.17,225.8,28.34,101.25,26.4Z"/><path class="cls-1" d="M39.51,278s-8.62-.63-12.86,9.1c-.42,4.23,4.65,3,9.31,0,.85-.85,4.74.22,4.74.22s-3,2.74-3.47,4.44,1.27.85,9.31,0L50.41,285Z"/><path class="cls-1" d="M83.44,130.27s9.73,3.27,13.12,5.57-.85-2.07-8.46,2.23"/><path class="cls-1" d="M149.76,131.94s-9.73,3.27-13.12,5.57.85-2.07,8.46,2.23"/><path class="cls-2" d="M83.44,108s10.87,13.73,13.85,10.67"/><path class="cls-2" d="M146.24,110.47s-10.87,13.73-13.85,10.67"/><ellipse class="cls-1" cx="117.79" cy="163.15" rx="11.08" ry="7.7" transform="translate(-0.9 0.66) rotate(-0.32)"/><path class="cls-3" d="M144.71,180.09S133.5,153,121.86,164.67s6.35,18.89,8,22.14,5.5,8.33,5.5,11.29,8.89,42.18,14.39,46.27,21.57,18.48,15.86-15.38L144,178.41"/><path class="cls-2" d="M161.79,251.87c-3.81,0-8.41-3.54-11.4-5.83l-1.18-.9c-6.09-4.53-14.77-45-14.77-47,0-1.85-2-5.07-3.54-7.66-.7-1.15-1.36-2.23-1.86-3.19a14.89,14.89,0,0,0-3.07-2.67c-3.63-2.75-8.6-6.5-9-11.66-.2-3,1.19-6,4.15-8.92,2.59-2.59,5.4-3.61,8.34-3,8.93,1.78,15.77,18.06,16.06,18.75h0l21,49,0,.11c2.16,12.84,1.44,20.15-2.22,22.34A4.92,4.92,0,0,1,161.79,251.87Zm-33.86-89.15a7.64,7.64,0,0,0-5.4,2.63c-2.56,2.55-3.77,5.06-3.6,7.45.3,4.29,4.87,7.75,8.21,10.27,1.8,1.36,3.11,2.35,3.61,3.31s1.11,2,1.79,3.08c1.88,3.08,3.81,6.27,3.81,8.65,0,3.4,9,41.79,14,45.5l1.2.91c3.1,2.38,8.86,6.81,11.84,5,2-1.18,3.79-5.66,1.34-20.28l-21.63-50.42c-1.94-4.1-7.53-14.74-13.95-16A6.25,6.25,0,0,0,127.93,162.72Z"/><path class="cls-3" d="M133,191.59s9.42,4.31,13.39-7.6"/><path class="cls-2" d="M136.89,193.31a11.16,11.16,0,0,1-4.29-.85l.81-1.74a8.94,8.94,0,0,0,6.55.06c2.44-1.05,4.29-3.44,5.51-7.09l1.84.6c-1.4,4.2-3.62,7-6.6,8.26A9.68,9.68,0,0,1,136.89,193.31Z"/><ellipse class="cls-2" cx="82.68" cy="158.12" rx="1.46" ry="1.48"/><ellipse class="cls-2" cx="98.53" cy="147.87" rx="1.46" ry="1.48"/><ellipse class="cls-2" cx="73.67" cy="133.48" rx="1.46" ry="1.48"/><ellipse class="cls-2" cx="79.38" cy="115.25" rx="1.46" ry="1.48"/><ellipse class="cls-2" cx="97.08" cy="167.92" rx="1.46" ry="1.48"/><ellipse class="cls-2" cx="97.08" cy="396.14" rx="1.46" ry="1.48"/><ellipse class="cls-2" cx="97.08" cy="352.08" rx="1.46" ry="1.48"/><ellipse class="cls-2" cx="105.32" cy="405.5" rx="1.46" ry="1.48"/><ellipse class="cls-2" cx="97.08" cy="374.11" rx="1.46" ry="1.48"/><ellipse class="cls-2" cx="103.86" cy="418.53" rx="1.46" ry="1.48"/><ellipse class="cls-2" cx="99.99" cy="433.18" rx="1.46" ry="1.48"/><ellipse class="cls-2" cx="105.32" cy="363.99" rx="1.46" ry="1.48"/><ellipse class="cls-2" cx="131.93" cy="397.01" rx="1.46" ry="1.48"/><ellipse class="cls-2" cx="131.93" cy="352.95" rx="1.46" ry="1.48"/><ellipse class="cls-2" cx="123.69" cy="406.37" rx="1.46" ry="1.48"/><ellipse class="cls-2" cx="131.93" cy="374.98" rx="1.46" ry="1.48"/><ellipse class="cls-2" cx="125.14" cy="419.4" rx="1.46" ry="1.48"/><ellipse class="cls-2" cx="129.01" cy="434.05" rx="1.46" ry="1.48"/><ellipse class="cls-2" cx="123.69" cy="364.86" rx="1.46" ry="1.48"/><ellipse class="cls-2" cx="126.35" cy="173.97" rx="1.46" ry="1.48"/><ellipse class="cls-2" cx="37.7" cy="284.03" rx="1.46" ry="1.48"/><ellipse class="cls-2" cx="140.4" cy="159.6" rx="1.46" ry="1.48"/><ellipse class="cls-2" cx="149" cy="149.35" rx="1.46" ry="1.48"/><ellipse class="cls-2" cx="141.86" cy="181.16" rx="1.46" ry="1.48"/><ellipse class="cls-2" cx="108.18" cy="183.99" rx="1.46" ry="1.48"/><ellipse class="cls-2" cx="123.44" cy="191.83" rx="1.46" ry="1.48"/><ellipse class="cls-2" cx="108.18" cy="194.22" rx="1.46" ry="1.48"/><ellipse class="cls-2" cx="126.35" cy="147.87" rx="1.46" ry="1.48"/><ellipse class="cls-2" cx="161" cy="124.02" rx="1.46" ry="1.48"/><ellipse class="cls-2" cx="115.15" cy="113.77" rx="1.46" ry="1.48"/><ellipse class="cls-2" cx="113.42" cy="132.46" rx="1.46" ry="1.48"/></g></svg>