<svg xmlns="http://www.w3.org/2000/svg" viewBox="0 0 336 206.27"><defs><style>.cls-1{fill:#4db2e5;stroke:#fff;stroke-miterlimit:10;stroke-width:1.62px;}</style></defs><title>states</title><g id="Layer_2" data-name="Layer 2"><path class="cls-1" d="M145.79,159.62c.84-.21,1.82-1,2.46-.38,1.24,1.22.86,3.13,1.56,4.09s2.68,1.57,3.16,3a44.89,44.89,0,0,0,1.69,4.53c.58.74,1.29,1,1.91,1.8,1.75,2.33,2.41,5.28,3.54,8a8.93,8.93,0,0,0,7.57,5.92c1.54.15,3.41.53,3.87-.34.11-.21-.44-.67-.43-1s-.16-1.08-.23-1.61c-.08-.69.2-1.71.14-2.43s-1.19-1.51-1.14-2.15c.06-.81.78-1.63,1.06-2.34a9.75,9.75,0,0,1,2.67-3.64,30.38,30.38,0,0,1,8.28-5.6c1.53-.67,4-.91,4.54-2.74.27-1-.69-1.41-.45-2.18a2.87,2.87,0,0,1,1.85-1.6c1.55-.48,1.37.78,2.67.8s1.39-1.81,2.89-2c2.85-.31,5.55,1.71,8.63,1,.91-.21,3.08-1,4-.8,1.19.24,1.17,1.86,2,2.44,1.8,1.29,4.74.6,7,.48-.19-.43-.77-1.1-.52-1.59.38-.74,2-.26,2-1,0-1.37-2.5-1.71-2.78-2.1-.87-1.21,1-2.21,3.43-2.29a15.14,15.14,0,0,0,5.06-1c2.06-.82,3.83-2,5.42-2.19,1.17-.15,1.3,1.63,2.9,1.63.06,0,2.47-.65,3.16-.71a29.27,29.27,0,0,1,8.53.47c.72.11,2.21,3.71,3,3.9.92.24,1.64-1.19,2.18-1.82,1.42-1.64,3.43-3,5.62-1.45,1.75,1.25,2.21,2.39,4.36,3.22.84.32,2.24.28,3.07.78,1.13.68,0,1-.21,2.18,3.07.83,1.71,3.7,2.08,5.63.18.95.68,2.38,1.92,2.79.25,1.12-.9,2.77.1,3.74.73.72,1.7.13,2.44.81s1.05,2,1.73,2.64c1,1,.58,2.2,1.18,2.88.81.91,1.5.19,2.44-.14.07,1.62,2.18,4.49,3.75,4.63,3,.26,3-4.44,2.81-6a16.83,16.83,0,0,0-1.75-6.47,29.59,29.59,0,0,0-2.62-3.77c-1.3-1.8-1.66-4.78-2.86-6.55s-2.09-2.46-3.07-4.52c-.88-1.85-3.9-11.49-3-13.63.79-1.79,1.14-2.37.73-4.26-.36-1.66,1.41-4.08,2.55-4.1.84,0,1.45-.71,2-1a19.17,19.17,0,0,0,4.14-3.3c.67-.74.62-1.82,1-2.67.17-.34.62-.75.7-1.11.13-.62-.41-.87-.25-1.49.24-.93,1.35-1.12,2.12-1.63a11.23,11.23,0,0,0,2.22-2.09c1.27-1.47,1.9-3.12,3.57-4.19.69-.44,2.21-1,2.61-1.8.58-1.12-.32-1.6-.83-2.46-1.39-2.33,3.09-2.06,4-2.88.26-.23-.67-1-1-1.35s-2,1.15-3.22.42c-.37-.22-.32-1.25-.28-2,1.84-.56,3.2-1.68,3.4-3.57.15-1.46-1.39-2.26-2.47-2.95A10.42,10.42,0,0,1,284.3,99c.83-.45,1.17-.32,1.14-1.36a7.71,7.71,0,0,0-1.11-3.71c-.65-.91-1.73-1.19-2.53-1.94a3.26,3.26,0,0,1-1-1.28c1,.25,2.5,1,3.47,1a7.13,7.13,0,0,1-.89-3.92,12.6,12.6,0,0,1,1.14-4.05c1,1.89.7,3.24,1.11,5.23.3,1.46,2.55,5.09,4.44,4.68,1.65-.36,1.92-4,1.12-5.21A19,19,0,0,0,289,86.29,3.84,3.84,0,0,1,287.94,83c1.66,1.53,4.16-.1,4.61-1.49a11.73,11.73,0,0,0,.24-3.43c.05-1-.68-4.16-.66-4.85,0,0,6.74-1.88,8.06-4-1.48-.13-3.41.36-4.76.13,1.19-1.41,2.56-1.83,4.17-2.59,1.13-.53,3.9-1.36,5.85-2,.82-.28,1.58-.33,1.87-.63a3.45,3.45,0,0,0,.62-3.85A18.9,18.9,0,0,0,304.25,57c.65-2.17,2.19-3.9,2.5-9.5.07-1.16,2.49-2.43,3.16-3.41a4.74,4.74,0,0,0,1.52-3.74c1.72.31,10.25-5.51,5.1-5.77.57-3-2.18-.88-3.12-3.69-.5-1.51-1-2.93-1.51-4.42-1.36-3.9-5.08-5.85-6.92-.84-1.44,3.93-.39,8.55-4.15,13.8A20.07,20.07,0,0,1,297,43.21a7.21,7.21,0,0,1-2.52.66c-3.16.33-8.19-.52-11.95,2.12-2.54,1.79-3.35,4.59-3.79,7.22-.5,3-.43,5.67-2.72,6.29-1.16.32-3.47.56-3.81.19-.61-.64-1.44-.51-2.46-.38-.28,0-3,.76-3.21,1.37-.65,1.66,1.33,1.93.61,3.18a26.48,26.48,0,0,1-2.39,2.39,45.14,45.14,0,0,1-5.37,5.87c-3.49,2.81-8.79,5.19-13.35,3-3-1.42-2.26-3.35-.88-5.59,1.14-1.87,4-1,2.4-6.21-1-3.21-2-4.37-3.44-3.9-.89.3-2.16,4.39-3.6,2.59-.58-.73-.67-3.21.09-4,1.38-1.48,1-6.29-.76-7.46-.62-.42-1.51.1-2.08-.36-.81-.66-3.22-2.58-4.21-1.3-.65.84-.18,4.57-.83,5.38-1.35,1.7-2.28-.45-3.7.6-.24.18-.11.46-.26,1.35-.12.73.64,1.27.38,2.41s-1,2.82-.8,3.31c1.11,3,3.1,5,1.77,9.1-.69,2.12-2,6-3.57,6-4,0-6.2-2.67-6.2-8.44,0-1.76-.16-5.92.36-7.65.2-.66.72-.84,1-1.25.75-1,1.26-1.74.12-2.41-.82-.48-1.51.14-1.82-.54a3.88,3.88,0,0,1-.12-2.93c.31-.77,1.27-1.8,1.57-2.6.74-2,.86-3.32,1.54-3.91,2.24-1.92,14.92-1.8,12.89-4.24-.48-.58-3-.6-3.74-.38.29-1,.36-1.2-.93-1.2-1.66,0-3.71,2.48-7.2,2.57-1.44,0-3-1.36-5.07-1.87-1.55-.39-2.89,1.1-3.12-1.2-3.12.49-7.06,4-10,3.82-1.57-.07-1-1.07-2.5-1.33-1.67-.28-3.77,1.21-5.3.13-1.14-.81,7-7,9.6-8.35A4.4,4.4,0,0,0,204,34c-.92.14-1.75,1-2.73.64-2.91-1.11-3.89-2.63-4.89-3s-2.4.58-4.6.26c-3.72-.55-6.14-1.07-5.88-3.77-1.56,2.28-2.88,1.82-5.36,1.82-4.34,0-20-.64-26.42-1.25-5.44-.51-23.35-1.75-30-2.84-5.12-.84-9.62-1.56-14.37-2.24,0,0-8.29-1.35-11.44-1.94-3.67-.69-15.53-3-19.83-4.3-3.51-1.08-7.19-1.88-10-2.57-1.44-.36-5.84-2.07-7.71-1.73-1.28.24-.12,2.88-.12,4.08,0,1.58-.66,1.16-1.39,2.22-.34.49-.36,2-1,2.84-.92,1.14-4,1-3.47.49,1.53-1.46,6.09-3.67,2.25-5.54-.69-.33-1.91-.06-2.67-.29-.59-.18-4.08-3.74-5.2-2.84-.69.55,1.27,1.68,1.14,3.74-.1,1.7-2.5,6.19-.79,6.12,2.35-.08.67,1.91,1.1,3s2.5.49,1.6,1.46c-.71.77-2.8.14-3.47.9-.23.26-.07,1.35-.35,2.15,0,0-.62.21-.87,1.52A17.81,17.81,0,0,1,46.4,37.3c-.55,1-1,.72-1.47,1.81-.68,1.58-.6,4.49-1.77,5.94-1.38,1.7-2.65,2.67-3.12,5a31.73,31.73,0,0,0-.76,8.09,7.39,7.39,0,0,1-1,4.44c-.84,1.12-2.54,2.43-2.57,3.67s.61,2,.9,3.19a11,11,0,0,1,.21,4.51s-.47,2.43-.52,3.33c-.07,1.4.29,1.62,1.33,2.31,2,1.38,1.18,2.63.56,4.53.87.18,1.67-.52,2.56-.48a6,6,0,0,1,2.41.7c.76.45,1.42,1.58.12,1.46-1-.1-1.37-1.25-2.59-.82-.12.58.19,1.08.22,1.65.06,1.19-.73,1.32-1,2.21-.24.67.2,1,.53,1.72.64,1.38,1.31,3.06.83,4.6-.57,1.81-.9,2.87.21,4.57.92,1.4,1.8,2.67,2.65,4.17a7,7,0,0,1,.57,4.7c-.35,1.76-.88,2.52,1.14,3.28,1.08.4,3.62.6,4.37,1.45.41.46.39,1.13.93,1.67a3.14,3.14,0,0,0,2.16,1.22c.78,0,2.07,1.51,1.82,3,4.06,0,5.27,7.56,5,9.57,9.67.52,10,1.85,14,3.9s5.1,2.75,9,4.82A93.07,93.07,0,0,0,95.24,143c3.48,1.3,10.08,3.53,13.83,2.81-.07-1.46-1.59-2.11-.26-2.86s2,.94,4.75.59c1.47-.18,4.59-.66,5.87.06s2.25,2.79,3.11,3.92c1.17,1.55,3.8,2.31,4.94,3.69,2.24,2.71,1.19,3.54,2.34,6.09,1.92,4.25,6.34,7,8.06,7.23a27.2,27.2,0,0,1,4.7-5.39.74.74,0,0,1,.6,0c.23.13.45.67.69.76A4.44,4.44,0,0,0,145.79,159.62Z"/><path class="cls-1" d="M266.39,136.83c.51-1.2,1.54-2.26,2.29-2.28s1.45-.71,2-1a19.17,19.17,0,0,0,4.14-3.3c.67-.74.62-1.82,1-2.67.17-.34.62-.75.7-1.11.13-.62-.41-.87-.25-1.49.23-.88,1.23-1.1,2-1.55a13.57,13.57,0,0,0-1.62-1.35c-1.38-1-2.65-2.28-4.39-2.49a12,12,0,0,0-4.62.16c-1.51.3-3.57.06-3.36-2-1.25,0-12.43.44-12.31,4.26,0,.77.84,1.33,1.53,1.73.87.51,1.49.22,2.09.81a27.39,27.39,0,0,1,2.76,2.69c1.68,2.35,4.37,4.78,6.17,7C265.12,134.93,265.72,135.9,266.39,136.83Z"/><path class="cls-1" d="M265.4,142.92c.79-1.79,1.14-2.37.73-4.26a3.12,3.12,0,0,1,.26-1.82h0c-.66-.94-1.26-1.9-1.85-2.63-1.8-2.22-4.49-4.65-6.17-7a27.39,27.39,0,0,0-2.76-2.69c-.61-.6-1.22-.3-2.09-.81-.69-.4-1.5-1-1.53-1.73a1.92,1.92,0,0,1,.42-1.25l-.94.17c-2.14.35-3.18.26-5.34.45-1.52.13-5,.62-7.07.76.55,3.05,2.31,8.68,3.09,11.19.66,2.12,2.19,6.33,2.6,7.46-.4,1.2-2.22,1.87-.2,4.47a5.55,5.55,0,0,1,.54,4c.55,1.13.87.68,1.53,1.34,1.8.14,9.06.48,11.37.14a11.2,11.2,0,0,1,3.61-.14c1.12.24,1.75,1.1,1.94-.55.1-.85-1-2.28.55-2.53,1-.17,1.18,1.12,1.82,1.08C265.33,146.13,265,143.84,265.4,142.92Z"/><path class="cls-1" d="M278.72,177.76a16.85,16.85,0,0,0-1.78-6.46,29.65,29.65,0,0,0-2.63-3.76c-1.31-1.8-1.68-4.77-2.89-6.54-1.31-1.92-2.1-2.45-3.09-4.51a53.93,53.93,0,0,1-2.49-7.89c-.59-.05-.76-1.25-1.76-1.08-1.51.25-.45,1.68-.55,2.53-.19,1.65-.82.8-1.94.55a11.2,11.2,0,0,0-3.61.14c-2.31.34-9.57,0-11.37-.14-.66-.65-1-.22-1.52-1.31-2.08.4-14,1.46-15.31,1.52.53,1.12,1.16,2.26,1.82,3.36a20.15,20.15,0,0,1,2-.44,29.22,29.22,0,0,1,8.53.43c.72.11,2.23,3.7,3,3.89.92.23,1.63-1.2,2.18-1.83,1.41-1.64,3.42-3,5.62-1.48,1.75,1.24,2.22,2.38,4.38,3.2.85.32,2.24.27,3.07.77,1.13.68,0,1-.2,2.19,3.07.82,1.72,3.7,2.11,5.63.19.94.69,2.37,1.94,2.78.26,1.12-.89,2.77.12,3.74.73.71,1.7.12,2.45.8s1.06,2,1.75,2.63c1,1,.59,2.2,1.19,2.87.81.9,1.5.18,2.44-.15.08,1.62,2.2,4.48,3.77,4.61C278.9,184.05,278.91,179.35,278.72,177.76Z"/><path class="cls-1" d="M245.1,149.3l0,0a5.55,5.55,0,0,0-.54-4c-2-2.6-.2-3.27.2-4.47-.4-1.13-1.94-5.34-2.6-7.46-.78-2.51-2.54-8.14-3.09-11.19l-14,1.21V153.6a9.21,9.21,0,0,1,2.58-.89c1.17-.15,1.3,1.63,2.9,1.63l1-.26c-.64-1.08-1.26-2.19-1.77-3.28,1.31-.06,13.23-1.11,15.31-1.52Z"/><path class="cls-1" d="M246.38,150.4h0Z"/><path class="cls-1" d="M225,153.6V123.32c-4.34.44-7.12.85-12,1.35-.78,1.51-5.22,10.52-5.1,11.54a4.43,4.43,0,0,0,.83,2,6.28,6.28,0,0,1,.94,5.37c-.43,1.37-1.26,2.56-1.82,3.88a11.08,11.08,0,0,0-1.13,4.64c2.43,0,10.07-.19,11.06-.19a4,4,0,0,0,.51,3.91,14.62,14.62,0,0,0,3.88-.92c1-.4,2-.89,2.84-1.3Z"/><path class="cls-1" d="M221.49,155.16l.19-.06Z"/><path class="cls-1" d="M220.9,155.34l.23-.07Z"/><path class="cls-1" d="M220.11,155.54l-.64.13Z"/><path class="cls-1" d="M216.49,160.29c0-1.37-2.5-1.71-2.78-2.1-.87-1.21,1-2.21,3.43-2.29.4,0,.79,0,1.18-.08a4,4,0,0,1-.51-3.91c-1,0-8.63.19-11.06.19a11.08,11.08,0,0,1,1.13-4.64c.56-1.31,1.39-2.51,1.82-3.88a6.25,6.25,0,0,0-.91-5.33c-5.53.09-13.36.35-16.81.35-.09,1.71-.12,3.49-.12,5.18,0,2,1,3.28,1.72,5a9.67,9.67,0,0,1,1.15,3.85,11.2,11.2,0,0,1-.11,2.6,14.57,14.57,0,0,0-.36,2.5,4.32,4.32,0,0,0,.75,2.09c2.27.32,4.52,1.54,7,1,.91-.21,3.08-1,4-.8,1.19.24,1.17,1.86,2,2.44,1.8,1.29,4.74.6,7,.48-.19-.43-.77-1.1-.52-1.59C214.85,160.58,216.49,161.06,216.49,160.29Z"/><path class="cls-1" d="M219.29,155.69l-.4.06Z"/><path class="cls-1" d="M218.75,155.77l-.43.05Z"/><path class="cls-1" d="M223.31,154.42c-.36.17-.73.33-1.11.48.38-.15.75-.31,1.11-.48Z"/><path class="cls-1" d="M220.33,155.49l.26-.07Z"/><path class="cls-1" d="M195,159.83a5,5,0,0,1-.75-2.09,14.57,14.57,0,0,1,.36-2.5,11.2,11.2,0,0,0,.11-2.6,9.67,9.67,0,0,0-1.15-3.85c-.73-1.71-1.71-3-1.72-5,0-1.7,0-3.47.12-5.18l-.12-3.27-2.67-.07-.35-.9s-25.66-.57-30.44-6.52c0-2.63.28-13.18.28-13.18L142.42,113l-3.15,31.8-20.39-2.36v.94a2.27,2.27,0,0,1,.55.22c1.35.77,2.25,2.79,3.11,3.92,1.17,1.55,3.8,2.31,4.94,3.69,2.24,2.71,1.19,3.54,2.34,6.09,1.92,4.25,6.34,7,8.06,7.23a27.2,27.2,0,0,1,4.7-5.39.74.74,0,0,1,.6,0c.23.13.45.67.69.76a4.44,4.44,0,0,0,1.91-.28c.84-.21,1.82-1,2.46-.38,1.24,1.22.86,3.13,1.56,4.09s2.68,1.57,3.16,3a44.89,44.89,0,0,0,1.69,4.53c.58.74,1.29,1,1.91,1.8,1.75,2.33,2.41,5.28,3.54,8a8.93,8.93,0,0,0,7.57,5.92c1.54.15,3.41.53,3.87-.34.11-.21-.44-.67-.43-1s-.16-1.08-.23-1.61c-.08-.69.2-1.71.14-2.43s-1.19-1.51-1.14-2.15c.06-.81.78-1.63,1.06-2.34a9.75,9.75,0,0,1,2.67-3.64,30.38,30.38,0,0,1,8.28-5.6c1.53-.67,4-.91,4.54-2.74.27-1-.69-1.41-.45-2.18a2.87,2.87,0,0,1,1.85-1.6c1.55-.48,1.37.78,2.67.8s1.39-1.81,2.89-2A9.2,9.2,0,0,1,195,159.83Z"/><path class="cls-1" d="M118.88,142.42l20.39,2.36,3.15-31.8.25-2.45s-20.79-1.88-33.38-3.73c-1.32,8.9-4.25,29.64-5.53,38.72a14.86,14.86,0,0,0,5.31.27c-.07-1.46-1.59-2.11-.26-2.86s2,.94,4.75.59c1.29-.16,3.85-.55,5.32-.15Z"/><path class="cls-1" d="M127.7,151.46l-.22-.27Z"/><path class="cls-1" d="M127.71,151.48l.19.25h0Z"/><path class="cls-1" d="M158.41,127.86c4.78,5.94,30.44,6.52,30.44,6.52a39.43,39.43,0,0,0,.68-12,18.32,18.32,0,0,0-1.58-5.76v-5.13s-8.68.53-19.14.42c-10.17-.11-22.07-.84-26.14-1.39l-.25,2.45,16.26,1.71S158.41,125.23,158.41,127.86Z"/><path class="cls-1" d="M208.77,138.22a4.43,4.43,0,0,1-.83-2c-.12-1,4.32-10,5.1-11.54,0,0,2.46-4.54,2.87-8-1.53.35-4,.62-4,.62s.49-1.31,1.25-3.12c-8.32.62-25.24.69-25.24.69v1.8a18.32,18.32,0,0,1,1.58,5.76,39.43,39.43,0,0,1-.68,12l.35.9,2.67.07.12,3.27c3.45,0,11.28-.26,16.81-.35Z"/><path class="cls-1" d="M82.91,102.15c-.61,2.57-.73,4.11-1.3,6.5-1.17-.11-2.06-.21-3.5-.38-.66,2.87-1.25,5.29-.66,8.13a11.93,11.93,0,0,0,1.25,3.75c-.83,1.44-2.84,3.08-3.74,4.47a5.23,5.23,0,0,0-.73,3.22c.16.8.43,1.07.1,2a5,5,0,0,1-1.72,2.06c.44.25.92.52,1.46.8,3.95,2,5.1,2.75,9,4.82A93.07,93.07,0,0,0,95.24,143c1,.36,2.43.9,3.88,1.33,2.08.62,4.13,1.1,4.65,1.2,1.28-9.08,4.21-29.81,5.53-38.72-1.68-.34-5.95-1-12-2S85.09,102.61,82.91,102.15Z"/><path class="cls-1" d="M78.11,108.27c1.44.17,2.33.27,3.5.38.57-2.39.69-3.93,1.3-6.5l6.29-34s-19.76-3.74-29-6.76C58.31,68,54.36,81.5,54.36,81.5l23.09,34.87C76.86,113.55,77.45,111.14,78.11,108.27Z"/><path class="cls-1" d="M102.83,77.76s.72-3.85,1.35-7.07c-5.1-.31-15-2.5-15-2.5l-6.29,34c2.17.46,8.5,1.61,14.41,2.6s10.3,1.71,12,2l4-27.58Z"/><path class="cls-1" d="M149.53,82.85,147.24,111l-4.57-.45c-4-.39-10.52-1-16.77-1.68-8.58-1-16.61-2-16.61-2l4-27.58c3,.37,9.28,1.37,14.91,1.91C138.79,82.12,149.53,82.85,149.53,82.85Z"/><path class="cls-1" d="M187.34,96.09c-.45-.31-1.07-.38-1.46-1.38-.48-1.26.22-1.77,1-2.63a6.32,6.32,0,0,1-2.66-1.95L149,89.52,147.24,111c5.55.44,14,.86,21.57.94,10.46.11,19.14-.42,19.14-.42C187.95,108.65,187.42,97.24,187.34,96.09Z"/><path class="cls-1" d="M218.21,110.56a12.9,12.9,0,0,1-1.8-2.74,15.74,15.74,0,0,0-1.53-3,7.64,7.64,0,0,0-1.9-1.72c-.7-.48-1.26-.25-1.53-1a5,5,0,0,1,.77-3.85,2.15,2.15,0,0,0-2.36-1,5.68,5.68,0,0,0-1.12-2.74c-.72-1-1.86-.88-2.84-1.92-1.45-1.56-1.39-4.09-1.42-5.89-2.88,0-15,0-21.88.18a13.63,13.63,0,0,0,1.37,3,6.46,6.46,0,0,0,2.87,2.2c-.74.86-1.44,1.38-1,2.63.38,1,1,1.06,1.46,1.38.07,1.15.6,12.56.6,15.4v3.33s16.92-.07,25.24-.69c-.76,1.81-1.25,3.12-1.25,3.12s2.43-.28,4-.62a23.77,23.77,0,0,1,.81-3.71C216.94,112.14,218.47,111.4,218.21,110.56Z"/><path class="cls-1" d="M275.7,127.87c0,.11-.08.23-.11.34C275.63,128.1,275.66,128,275.7,127.87Z"/><path class="cls-1" d="M276.34,124.78a1.13,1.13,0,0,0-.05.16A1.13,1.13,0,0,1,276.34,124.78Z"/><path class="cls-1" d="M276.42,124.64l0,.1Z"/><path class="cls-1" d="M252.27,120.91h0Z"/><path class="cls-1" d="M276.5,124.5l-.05.08Z"/><path class="cls-1" d="M275.84,127.55a3,3,0,0,0-.14.33A3,3,0,0,1,275.84,127.55Z"/><path class="cls-1" d="M275.59,128.22l-.09.34Z"/><path class="cls-1" d="M276.85,124.17l-.08.06Z"/><path class="cls-1" d="M276.54,124.46l.06-.07Z"/><path class="cls-1" d="M277.3,123.9l-.12.06Z"/><path class="cls-1" d="M277,124.07l-.09.06Z"/><path class="cls-1" d="M277.13,124l-.1.06Z"/><path class="cls-1" d="M290,109.9c.26-.23-.67-1-1-1.35s-2,1.15-3.22.42c-.37-.22-.32-1.25-.28-2a4.28,4.28,0,0,0,3.37-3.32c-.45.07-8,1.75-15.12,2.91-7,1.12-14.27,1.66-14.67,1.66a5.87,5.87,0,0,1-.42,1.87,9.16,9.16,0,0,1-3.33,2.86c-1.57,1-6.59,5-8,5.88a2.63,2.63,0,0,0-1.5,2.34v.18l.28,0c2.16-.19,3.2-.1,5.34-.45l.94-.17c2-2.68,10.8-3,11.89-3-.22,2.07,1.84,2.32,3.36,2a12,12,0,0,1,4.62-.16c1.74.21,3,1.46,4.39,2.49a13.57,13.57,0,0,1,1.62,1.35c-.3.18-.64.33-1,.49a10.59,10.59,0,0,0,1.09-.57,11.23,11.23,0,0,0,2.22-2.09c1.27-1.47,1.9-3.12,3.57-4.19.69-.44,2.21-1,2.61-1.8.58-1.12-.32-1.6-.83-2.46C284.58,110.44,289.06,110.72,290,109.9Z"/><path class="cls-1" d="M276.72,124.27l-.07.07Z"/><path class="cls-1" d="M224.32,111.46a8.1,8.1,0,0,0,.1,1.87l-8.09,1c-.18.74-.32,1.52-.43,2.31-.4,3.5-2.87,8-2.87,8,4.89-.5,7.68-.91,12-1.35l14-1.21c2-.13,5.16-.57,6.79-.74v-.18a2.63,2.63,0,0,1,1.5-2.34c1.37-.91,6.39-4.91,8-5.88a9.16,9.16,0,0,0,3.33-2.86,5.87,5.87,0,0,0,.42-1.87C253,108.75,239.61,111,224.32,111.46Z"/><path class="cls-1" d="M286.41,100.47A10.42,10.42,0,0,1,284.3,99c.83-.45,1.17-.32,1.14-1.36a7.71,7.71,0,0,0-1.11-3.71c-.65-.91-1.73-1.19-2.53-1.94a3.64,3.64,0,0,1-.94-1.06h0c-.56-.78,0-1.67-.1-2.75,0-.2-.87-.65-1.86-1.21s-1.89-1.1-2.68-1.46c-.08.64-.11,1.21-.18,1.65a6.78,6.78,0,0,1-2.59-.78,10.78,10.78,0,0,1-.85,4.09,7.17,7.17,0,0,1-2.36,2.41,12.77,12.77,0,0,1-2.59.85c-.17.59-.64,3.13-.8,3.6-.33,1-1.21,3.5-2.43,4.13-.55.28-5,2.7-8.44,1.37-.53.53-3.12,2.78-4,3.63a32,32,0,0,0-2.15,2.45c-.1.13-.25.28-.41.44,4-.49,7.34-.93,9.6-1.12.4,0,7.7-.54,14.67-1.66,7.16-1.15,14.67-2.84,15.12-2.91,0-.1,0-.14,0-.25C289,102,287.49,101.16,286.41,100.47Z"/><path class="cls-1" d="M316.52,34.54c.57-3-2.18-.88-3.12-3.69-.5-1.51-1-2.93-1.51-4.42-1.36-3.9-5.08-5.85-6.92-.84-1.34,3.65-.63,8.9-4.15,13.8.9,3.15,2.91,11.46,5,13.48a21.5,21.5,0,0,0,.91-5.41c.07-1.16,2.49-2.43,3.16-3.41a4.74,4.74,0,0,0,1.52-3.74C313.14,40.63,321.67,34.8,316.52,34.54Z"/><path class="cls-1" d="M307.94,60.34A18.9,18.9,0,0,0,304.25,57c.27-.9.69-1.72,1.11-2.77h0l-11.43,4.19c0,.78.05,1.58.1,2.6s.09,2.25.09,2.25c1.14-.2,6.25-1.61,7.84-2.07,0,0,1.51-.4,1.88-.45a8.85,8.85,0,0,1,1.12,1c.17.17.65.64,1.08,1s1,.84,1.48,1.2A3.45,3.45,0,0,0,307.94,60.34Z"/><path class="cls-1" d="M305.85,52.85c-2.11-2-4.16-10.31-5.07-13.45a18.89,18.89,0,0,1-2.08,2.33,4.14,4.14,0,0,1,1,2.14,1.58,1.58,0,0,1-1.08,1.5c-1.16.51-1,2-1,3.11s-.14,7.17,0,8.59l7.8-2.91C305.55,53.77,305.7,53.34,305.85,52.85Z"/><path class="cls-1" d="M307.32,64.18a2.82,2.82,0,0,0,.22-.25c-.46-.36-1-.8-1.48-1.2s-.91-.84-1.08-1a8.85,8.85,0,0,0-1.12-1c-.37,0-1.88.45-1.88.45.34.85,1.31,3.76,1.5,4.3l2-.64C306.27,64.53,307,64.48,307.32,64.18Z"/><path class="cls-1" d="M302,61.15c-1.6.46-6.7,1.87-7.84,2.07,0,3.41,1,5.3,1.75,5.71h0a12.46,12.46,0,0,1,3.72-2.11c.79-.37,2.36-.88,3.9-1.38C303.05,64,302.55,62.61,302,61.15Z"/><path class="cls-1" d="M297.58,48.46c0-1.15-.13-2.6,1-3.1a1.58,1.58,0,0,0,1.09-1.5,4.14,4.14,0,0,0-1-2.14l0,0A16.13,16.13,0,0,1,297,43.21a7.21,7.21,0,0,1-2.52.66c-1.18.12-2.34.08-3.88.11,1.72,5.47,3.36,14.39,3.36,14.39l3.61-1.32C297.4,55.62,297.58,49.52,297.58,48.46Z"/><path class="cls-1" d="M293.94,70.58a38.55,38.55,0,0,1-4.09-1.18,8.94,8.94,0,0,0-1.23,1.73c-.36.73-1.09,2.43-.55,2.88a12.41,12.41,0,0,1,1.09.8c.57.56.39.77.41,1.5,0,1,1,1,.63,1.59s-1.55.25-1.64.73.76.67.49,1.21-2.12.7-2.9.83c.17,1.46.43,3.21.68,4.47a35.65,35.65,0,0,0,1.4,4.49,3.61,3.61,0,0,0,3.13-.74,2,2,0,0,0-.22-.46A19,19,0,0,0,289,86.29,3.84,3.84,0,0,1,287.94,83c1.66,1.53,4.16-.1,4.61-1.49a11.73,11.73,0,0,0,.24-3.43c.05-1-.68-4.16-.66-4.85,0,0,.77-.21,1.83-.58C294,72,294,71.28,293.94,70.58Z"/><path class="cls-1" d="M291.36,88.9a3.61,3.61,0,0,1-3.13.74,35.65,35.65,0,0,1-1.4-4.49c-.19-1-.39-2.26-.56-3.48a1.45,1.45,0,0,1-.13-1c-1.22.26-18.25,3.86-19.26,4.05.27.9.79,2.07,1,2.86.47-1.48,2-2,3.43-2.34a20.41,20.41,0,0,1,5-.42c0,.23,0,.48,0,.72.78.37,1.76,1,2.63,1.44s1.84,1,1.86,1.21c.15,1.08-.46,2,.1,2.75h0l-.1-.22c1,.25,2.5,1,3.47,1a7.13,7.13,0,0,1-.89-3.92,12.6,12.6,0,0,1,1.14-4.05c1,1.89.7,3.24,1.11,5.23.3,1.46,2.55,5.09,4.44,4.68,1.56-.34,1.89-3.62,1.25-5A2.46,2.46,0,0,1,291.36,88.9Z"/><path class="cls-1" d="M289.84,69.4l.59.21c.14-1.5-3.26-1.18-3.26-1.18a34.84,34.84,0,0,1-2.27-2.92c-7.28,2.15-21.24,4.59-21.24,4.59L263,68.29a28.18,28.18,0,0,1-3.69,3.84l-.18.15a12.53,12.53,0,0,1,.62,3.19,31.27,31.27,0,0,1,.52,4.78c0,.09,0,.19,0,.29l.59.13,1.32,4.85h4.94c-.1-.28-.2-.55-.27-.8,1-.2,18-3.8,19.26-4.05.78-.14,2.64-.3,2.9-.83s-.57-.71-.49-1.21,1.32-.24,1.64-.73-.59-.59-.63-1.59c0-.73.15-.93-.41-1.5a12.41,12.41,0,0,0-1.09-.8c-.54-.45.19-2.14.55-2.88A8.94,8.94,0,0,1,289.84,69.4Z"/><path class="cls-1" d="M260.1,85.52c.52-1.67.21-3.58.21-5.27a31.27,31.27,0,0,0-.52-4.78,12.53,12.53,0,0,0-.62-3.19c-3.49,2.75-8.68,5-13.16,2.88a4.94,4.94,0,0,1-1.36-.9l-1.71.28c-1.13.17-4.89.39-4.89.39.33,3.4,2,17.36,2.1,19,1.49-1.24,2.45,1.36,3.2,1.78s3.22.11,4.21-.1a6.8,6.8,0,0,1,2.65-.29,11.76,11.76,0,0,0,2.65.39c2.06-.18,1.1-1.76,1.39-3.09a9.7,9.7,0,0,1,2.2-3c.69-.59,1.21-.25,1.92-.69C259.55,88.24,259.71,86.78,260.1,85.52Z"/><path class="cls-1" d="M276.3,84.83a20.41,20.41,0,0,0-5,.42c-1.44.36-3,.86-3.43,2.34-.14-.57-.45-1.34-.72-2.06h-4.94l-1.32-4.85-.59-.13a16.18,16.18,0,0,1-.21,5c-.39,1.26-.55,2.72-1.73,3.45-.71.44-1.23.1-1.92.69a9.7,9.7,0,0,0-2.2,3c-.28,1.3.64,2.85-1.28,3.07-.17,6.08,3,7.1,3,7.1,3.41,1.34,7.89-1.09,8.44-1.37,1.21-.62,2.1-3.15,2.43-4.13.16-.48.63-3,.8-3.6a12.77,12.77,0,0,0,2.59-.85,7.17,7.17,0,0,0,2.36-2.41,10.78,10.78,0,0,0,.85-4.09,6.78,6.78,0,0,0,2.59.78c.07-.44.1-1,.18-1.65l0,0C276.28,85.31,276.31,85.06,276.3,84.83Z"/><path class="cls-1" d="M238.05,75a25.87,25.87,0,0,0-4.06.38c-1.83.18-3.67.26-5.5.33l-.29,0c-.5.81-1.07,1.37-1.68,1.37a6.45,6.45,0,0,1-2.76-.56,21,21,0,0,0,.24,3.85c.19,2,.34,4.06.46,6.08.11,1.75.94,8.54,1.11,10.19.14,1.39-.89,2.46-1.43,3.74-.37.86-1,2.94-.06,3,.76,0,.92.35,1.24.42a11.57,11.57,0,0,0,4-.54c.67-.29.94-.91,1.58-1.13.33-.11.94.19,1.23,0s.22-1.19.64-1.25c.93-.12.61,1.64,1.59.45A12.89,12.89,0,0,0,235.9,99a6.18,6.18,0,0,1,1.66-2.74,1.88,1.88,0,0,1,1.25-.28c.73,0,1.41-.53,1.34-2C240.09,92.3,238.4,78.49,238.05,75Z"/><path class="cls-1" d="M216.32,114.33v0h0Z"/><path class="cls-1" d="M250.22,95.36a6.8,6.8,0,0,0-2.65.29c-1,.21-3.35.59-4.21.1s-1.72-3-3.2-1.78c.07,1.49-.61,2-1.34,2a1.88,1.88,0,0,0-1.25.28A6.18,6.18,0,0,0,235.9,99a12.89,12.89,0,0,1-1.57,2.27c-1,1.19-.66-.57-1.59-.45-.42.05-.31,1-.64,1.25s-.9-.1-1.23,0c-.64.21-.91.83-1.58,1.13a11.57,11.57,0,0,1-4,.54c-.28-.06-.44-.3-1-.39l-.11.06c1.19.44.57,2,0,2.74a4.12,4.12,0,0,1-2.86,1.3c.36.51,1.17,2.77-.07,2.55-.75-.14-1.57-1.25-2.15-1.72-.59.32-1.21.66-1.81,1l-.11.06a10.5,10.5,0,0,1,1,1.24c.26.84-1.27,1.58-1.51,2.36-.14.45-.26.91-.38,1.4l8.09-1a8.1,8.1,0,0,1-.1-1.87c9.56-.29,18.39-1.28,25.14-2.1.16-.16.31-.31.41-.44a32,32,0,0,1,2.15-2.45c.85-.85,3.44-3.09,4-3.63,0,0-3.19-1-3-7.1h-.11A11.76,11.76,0,0,1,250.22,95.36Z"/><path class="cls-1" d="M221,51.42c0,.17.06.34.09.51a4,4,0,0,0,.37-.69c.74-2,.86-3.32,1.54-3.91,2.24-1.92,14.92-1.8,12.89-4.24-.48-.58-3-.6-3.74-.38.29-1,.36-1.2-.93-1.2-1.66,0-3.71,2.48-7.2,2.57-1.44,0-3-1.36-5.07-1.87-1.55-.39-2.89,1.1-3.12-1.2-2.65.42-5.88,3-8.62,3.66a10.37,10.37,0,0,0,2.43,1c1.47.35,5.57,1.85,7.59,2C221.51,48,220.66,49.55,221,51.42Z"/><path class="cls-1" d="M207.58,44.57l.18-.05Z"/><path class="cls-1" d="M207.92,44.46l.14-.05Z"/><path class="cls-1" d="M221.83,57.3c-.82-.48-1.51.14-1.82-.54a3.88,3.88,0,0,1-.12-2.93,21.06,21.06,0,0,1,1.31-2.07l-.1.17c0-.17-.06-.34-.09-.51-.36-1.87.5-3.41-3.77-3.72-2-.15-6.12-1.65-7.59-2a10.37,10.37,0,0,1-2.43-1l.12,0a5.11,5.11,0,0,1-1.53.2c-1.57-.07-1-1.07-2.5-1.33s-3.31.9-4.77.4c0,1.86.14,3.51.08,4.81-3.52,1.58-2,4.09-1.54,4.28a15.55,15.55,0,0,0,.05,3.69c.51,1.49,1.57,2,2.81,3a33.86,33.86,0,0,1,2.91,3.12c1.51,1.66,3.19,4.47,2,6.34C206,70.21,207,71.57,208,72.56c1.85,0,8.76-.22,12.63-.62a16.24,16.24,0,0,1-.31-3.33c0-1.76-.16-5.92.36-7.65.2-.66.72-.84,1-1.25C222.47,58.75,223,58,221.83,57.3Z"/><path class="cls-1" d="M208.23,44.35l.14-.05Z"/><path class="cls-1" d="M208,72.56c-.57-.54-1.12-1.2-1.7-1.86l-1.43-1.57a3.74,3.74,0,0,0-.12-3.5c-9.13.39-26,.59-26,.59s0,4.51-1.52,5.62c1.84,1.83,3.57,7.76,4.23,11.55a8.66,8.66,0,0,1,.09,3.48h1.06l21.88-.18a8.33,8.33,0,0,1,.8-1.88c.58-1,1.66-1,.62-3.87,1.14-.36,3.67-2.34,4.11-4.06C210.5,75,208,72.56,208,72.56Z"/><path class="cls-1" d="M202.84,62.78a33.86,33.86,0,0,0-2.91-3.12c-1.23-1-2.3-1.47-2.81-3a15.55,15.55,0,0,1-.05-3.69c-.46-.19-2-2.7,1.54-4.28.07-1.29-.08-2.95-.08-4.81a2.07,2.07,0,0,1-.53-.27c-1.14-.81,7-7,9.6-8.35A4.4,4.4,0,0,0,204,34c-.92.14-1.75,1-2.73.64-2.91-1.11-3.89-2.63-4.89-3s-2.4.58-4.6.26c-3.72-.55-6.14-1.07-5.88-3.77-1.56,2.28-2.88,1.82-5.36,1.82-1.08,0-2.87,0-5-.11.29,2.58.84,7.36,1.37,11.81.34,2.9,1.3,6,1.12,7.7a28,28,0,0,0-.79,2.76,2.25,2.25,0,0,0,1.11,1.61c.1,2.65.27,4.88.42,12.48l10.4-.16,15.59-.43A11.35,11.35,0,0,0,202.84,62.78Z"/><path class="cls-1" d="M178.61,29.94h0Z"/><path class="cls-1" d="M176.91,41.67c-.53-4.45-1.08-9.23-1.37-11.81l1.09,0c-6.45-.19-17.34-.69-22.48-1.17-2.1-.2-6.06-.5-10.51-.87L141.9,48.53l36.13.83C178.22,47.7,177.26,44.57,176.91,41.67Z"/><path class="cls-1" d="M176.67,29.89l.61,0Z"/><path class="cls-1" d="M178,29.93h0Z"/><path class="cls-1" d="M177.37,29.91h0Z"/><path class="cls-1" d="M178.76,66.21c-.14-7.6-.31-9.83-.42-12.48a2.25,2.25,0,0,1-1.11-1.61,28,28,0,0,1,.79-2.76l-36.13-.83-1.66,19.66s20.92,1,27.68,1.59c1,.08,2.43,1.09,3.41,1.12.56,0,1.88-.28,2.44-.29a12.81,12.81,0,0,1,3.47,1.22l.39-.38C178.79,69.94,178.76,66.21,178.76,66.21Z"/><path class="cls-1" d="M107.86,50.33c-.73,5.41-3.68,20.35-3.68,20.35l-1.35,7.07s11.64,1.55,18.36,2.54c6.57,1,18,1.78,18,1.78l1-13.89,1.18-13.94S119.88,52.31,107.86,50.33Z"/><path class="cls-1" d="M143.65,27.85c-7.08-.58-15.4-1.3-19.47-2-5.12-.84-9.62-1.56-14.37-2.24,0,0-8.29-1.35-11.44-1.94-1.78-.33-5.5-1-9.35-1.84-.22,1.56-.37,3.18-.53,4.24A3.92,3.92,0,0,0,89,26.93c.84,1.8.21,2.16.21,3.05,0,1.32,3.25,5.78,3.43,6s1.1.66,1.25,1c.43.91-.32,1.43-.92,2-.17.17-.86.6-1,.9-.19.54.29,1,.33,1.07a12.76,12.76,0,0,1,0,3.44,6.45,6.45,0,0,0,2.88-.92c.33.76.53,2.26.92,3.46a26.64,26.64,0,0,1,.87,3,17.78,17.78,0,0,0,.86,3c.67,1.25,4.36.46,5.67.47s2.84-.62,4-.73c.14-.87.26-1.66.35-2.3,12,2,33.56,3.92,33.56,3.92l.48-5.72Z"/><path class="cls-1" d="M103.34,75.12l.85-4.43c-.29,1.49-.6,3.12-.85,4.44Z"/><polygon class="cls-1" points="88.25 73.38 89.2 68.19 88.25 73.38 88.25 73.38"/><path class="cls-1" d="M103.51,53.37c-1.31,0-5,.78-5.67-.47a17.78,17.78,0,0,1-.86-3,26.64,26.64,0,0,0-.87-3c-.39-1.2-.59-2.7-.92-3.46a6.45,6.45,0,0,1-2.88.92,12.76,12.76,0,0,0,0-3.44c0-.12-.52-.54-.33-1.07.11-.3.8-.73,1-.9.59-.6,1.35-1.12.92-2-.15-.31-1-.71-1.25-1s-3.43-4.65-3.43-6c0-.89.63-1.26-.21-3.05a3.92,3.92,0,0,1-.48-2.84c.16-1.06.31-2.69.53-4.24l.14,0c-1.58-.33-3.19-.67-4.7-1-.27,1.07-.59,2.13-.8,3.17-.46,2.15-3,15.56-2.49,16.23,1.18,1.59.85,1.4,1,2.43.28,1.53-3.12,5.62-4.58,8.32a14.55,14.55,0,0,1,1.08,1.87c-.52.94-1,2.35-1.63,3.67-.95,2.13-2.91,6.55-2.75,10.53,7.72,1.74,14.89,3.1,14.89,3.1s9.88,2.18,15,2.5c0,0,2.29-11.59,3.33-18.05C106.34,52.75,104.77,53.37,103.51,53.37Z"/><path class="cls-1" d="M86.79,19.38h0Z"/><path class="cls-1" d="M78.05,37.22a8.68,8.68,0,0,0,3,.63c0-2.41,2.14-13.83,2.56-15.81.22-1,.53-2.1.8-3.17h0c-2.42-.54-4.58-1.06-6-1.49-3.51-1.08-7.19-1.88-10-2.57-1.44-.36-5.84-2.07-7.71-1.73-1.28.24-.12,2.88-.12,4.08,0,1.58-.66,1.16-1.39,2.22-.34.49-.36,2-1,2.84-.92,1.14-4,1-3.47.49,1.53-1.46,6.09-3.67,2.25-5.54-.69-.33-1.91-.06-2.67-.29-.59-.18-4.08-3.74-5.2-2.84-.69.55,1.27,1.68,1.14,3.74-.1,1.7-2.5,6.19-.79,6.12,2.35-.08.67,1.91,1.1,3s2.5.49,1.6,1.46c-.42.45-1.3.42-2.1.47a21.84,21.84,0,0,0,3,1.28,3.8,3.8,0,0,0,1.12,4.14c1.33,1,4.06,0,5.58.49.69.24.86.62,1.46,1,.8.51,3.58.23,4.53.09a24.09,24.09,0,0,1,4.94-.16c.84.12,3.08.55,3.92.68A22.69,22.69,0,0,1,78.05,37.22Z"/><path class="cls-1" d="M50.15,28.89l.8,0Z"/><path class="cls-1" d="M77.07,54.56c.59-1.32,1.11-2.74,1.63-3.67A14.55,14.55,0,0,0,77.63,49c1.46-2.7,4.85-6.8,4.58-8.32-.19-1,.14-.83-1-2.43a.9.9,0,0,1-.06-.42h0a8.68,8.68,0,0,1-3-.63,22.69,22.69,0,0,0-3.39-.8c-.84-.13-3.08-.56-3.92-.68a24.09,24.09,0,0,0-4.94.16c-.95.14-3.73.42-4.53-.09-.6-.38-.77-.77-1.46-1-1.52-.52-4.25.48-5.58-.49a3.8,3.8,0,0,1-1.12-4.14,21.84,21.84,0,0,1-3-1.28,2,2,0,0,0-1.37.43c-.23.26-.07,1.35-.35,2.15,0,0-.62.21-.87,1.52A17.81,17.81,0,0,1,46.4,37.3c-.55,1-1,.72-1.47,1.81-.68,1.58-.6,4.49-1.77,5.94-1.38,1.7-2.65,2.67-3.12,5a29.14,29.14,0,0,0-.72,5.35l20.87,6.07c4.63,1.35,14.13,3.66,14.13,3.66C74.16,61.12,76.12,56.69,77.07,54.56Z"/><path class="cls-1" d="M103.34,75.12l.85-4.43c-.29,1.49-.6,3.12-.85,4.44Z"/><path class="cls-1" d="M72.61,131.87a5,5,0,0,0,1.72-2.06c.33-.91.06-1.17-.1-2a5.23,5.23,0,0,1,.73-3.22c.91-1.4,2.91-3,3.74-4.47a11.93,11.93,0,0,1-1.25-3.75v0L54.36,81.5s4-13.52,5.82-20.07L39.32,55.36c0,.78,0,1.66,0,2.74a7.39,7.39,0,0,1-1,4.44c-.84,1.12-2.54,2.43-2.57,3.67s.61,2,.9,3.19a11,11,0,0,1,.21,4.51s-.47,2.43-.52,3.33c-.07,1.4.29,1.62,1.33,2.31,2,1.38,1.18,2.63.56,4.53.87.18,1.67-.52,2.56-.48a6,6,0,0,1,2.41.7c.76.45,1.42,1.58.12,1.46-1-.1-1.37-1.25-2.59-.82-.12.58.19,1.08.22,1.65.06,1.19-.73,1.32-1,2.21-.24.67.2,1,.53,1.72.64,1.38,1.31,3.06.83,4.6-.57,1.81-.9,2.87.21,4.57.92,1.4,1.8,2.67,2.65,4.17a7,7,0,0,1,.57,4.7c-.35,1.76-.88,2.52,1.14,3.28,1.08.4,3.62.6,4.37,1.45.41.46.39,1.13.93,1.67a3.14,3.14,0,0,0,2.16,1.22c.78,0,2.07,1.51,1.82,3,4.06,0,5.27,7.56,5,9.57C68.43,129.22,69.83,130.28,72.61,131.87Z"/><path class="cls-1" d="M290.4,69.6l-.56-.2Z"/><path class="cls-1" d="M295.44,69.41a6.24,6.24,0,0,1,.61-.62l-.16.14c-.71-.4-1.75-2.3-1.75-5.71,0,0,0-1.23-.09-2.25s-.1-1.82-.1-2.6c0,0-1.64-8.92-3.36-14.39H291c-2.75,0-5.91.21-8.48,2s-3.35,4.59-3.79,7.22c-.5,3-.43,5.67-2.72,6.29-1.16.32-3.47.56-3.81.19-.61-.64-1.44-.51-2.46-.38-.28,0-3,.76-3.21,1.37-.65,1.66,1.33,1.93.61,3.18a26.48,26.48,0,0,1-2.39,2.39c-.53.63-1.1,1.32-1.68,2h0l.63,1.81s14-2.44,21.24-4.59a34.84,34.84,0,0,0,2.27,2.92s3.4-.32,3.26,1.18c1.06.35,2.36.69,3.5,1,0,.7,0,1.4,0,2.09-1.06.36,4.91-1.3,6.23-3.39C298.71,69.15,296.79,69.65,295.44,69.41Z"/><path class="cls-1" d="M228.13,75.78v0Z"/><path class="cls-1" d="M238,74.92s3.76-.22,4.89-.39l1.71-.28c-1.11-1.16-.79-2.62.48-4.69,1.14-1.87,4-1,2.4-6.21-1-3.21-2-4.37-3.44-3.9-.89.3-2.16,4.39-3.6,2.59-.58-.73-.67-3.21.09-4,1.38-1.48,1-6.29-.76-7.46-.62-.42-1.51.1-2.08-.36-.81-.66-3.22-2.58-4.21-1.3-.65.84-.18,4.57-.83,5.38-1.35,1.7-2.28-.45-3.7.6-.24.18-.11.46-.26,1.35-.12.73.64,1.27.38,2.41s-1,2.82-.8,3.31c1.11,3,3.1,5,1.77,9.1-.44,1.35-1.91,4.66-1.89,4.63l.29,0c1.84-.07,3.68-.15,5.5-.33C235.24,75.24,236.7,75,238,74.92Z"/><path class="cls-1" d="M224.24,103.43s-.06-.08-.16-.09c-.94,0-.31-2.13.06-3,.54-1.27,1.58-2.35,1.43-3.74-.17-1.65-1-8.44-1.11-10.19-.12-2-.27-4.06-.46-6.08a21,21,0,0,1-.24-3.85l.14.06c-1.73-.75-2.87-2.38-3.33-4.95,0,.11,0,.22.06.33-3.87.41-10.78.67-12.63.62,0,0,2.51,2.45,2,4.32-.44,1.72-3,3.69-4.11,4.06,1,2.86,0,2.86-.62,3.87a8.33,8.33,0,0,0-.8,1.88c0,1.8,0,4.33,1.42,5.89,1,1,2.12.91,2.84,1.92a5.68,5.68,0,0,1,1.12,2.74,2.15,2.15,0,0,1,2.36,1,5,5,0,0,0-.77,3.85c.27.77.83.54,1.53,1a7.64,7.64,0,0,1,1.9,1.72,15.74,15.74,0,0,1,1.53,3,6.7,6.7,0,0,0,.83,1.5l.11-.06c.6-.3,1.21-.64,1.81-1,.58.47,1.41,1.59,2.15,1.72,1.24.23.42-2,.07-2.55a4.12,4.12,0,0,0,2.86-1.3C224.81,105.43,225.43,103.87,224.24,103.43Z"/><path class="cls-1" d="M208,72.56c-.57-.54-1.12-1.2-1.7-1.86l-1.43-1.57a3.74,3.74,0,0,0-.12-3.5c-9.13.39-26,.59-26,.59s0,4.51-1.52,5.62c1.84,1.83,3.57,7.76,4.23,11.55a8.66,8.66,0,0,1,.09,3.48h1.06l21.88-.18a8.33,8.33,0,0,1,.8-1.88c.58-1,1.66-1,.62-3.87,1.14-.36,3.67-2.34,4.11-4.06C210.5,75,208,72.56,208,72.56Z"/><path class="cls-1" d="M208,72.56c-.57-.54-1.12-1.2-1.7-1.86l-1.43-1.57a3.74,3.74,0,0,0-.12-3.5c-9.13.39-26,.59-26,.59s0,4.51-1.52,5.62c1.84,1.83,3.57,7.76,4.23,11.55a8.66,8.66,0,0,1,.09,3.48h1.06l21.88-.18a8.33,8.33,0,0,1,.8-1.88c.58-1,1.66-1,.62-3.87,1.14-.36,3.67-2.34,4.11-4.06C210.5,75,208,72.56,208,72.56Z"/></g></svg>