<svg xmlns="http://www.w3.org/2000/svg" viewBox="0 0 191.73 225.85"><defs><style>.cls-1{fill:#4db2e5;stroke:#fff;}.cls-1,.cls-2{stroke-miterlimit:10;stroke-width:1.91px;}.cls-2{fill:#fff;stroke:#4db2e5;}.cls-3{fill:#ee4e9c;}</style></defs><title>timer</title><g id="Layer_2" data-name="Layer 2"><g id="_Group_" data-name="&lt;Group&gt;"><circle id="_Path_" data-name="&lt;Path&gt;" class="cls-1" cx="92.83" cy="118.89" r="73.6"/><circle id="_Path_2" data-name="&lt;Path&gt;" class="cls-1" cx="92.83" cy="119.25" r="51.05"/><circle id="_Path_3" data-name="&lt;Path&gt;" class="cls-1" cx="92.79" cy="119.25" r="73.6"/><circle id="_Path_4" data-name="&lt;Path&gt;" class="cls-2" cx="92.79" cy="119.25" r="51.05"/><path id="_Path_5" data-name="&lt;Path&gt;" class="cls-1" d="M142.35,54.28l4.75-4.73a7.36,7.36,0,0,1,10.41,0l4.73,4.75a7.36,7.36,0,0,1,0,10.41l-4.75,4.73"/><path id="_Path_6" data-name="&lt;Path&gt;" class="cls-1" d="M142.63,54.56l4.75-4.73a7.36,7.36,0,0,1,10.41,0l4.73,4.75a7.36,7.36,0,0,1,0,10.41l-4.75,4.73Z"/><rect id="_Rectangle_" data-name="&lt;Rectangle&gt;" class="cls-1" x="85.72" y="33" width="12.22" height="12.65"/><path id="_Path_7" data-name="&lt;Path&gt;" class="cls-3" d="M138,119.25h0A45.18,45.18,0,0,0,92.83,74.07v45.18Z"/></g></g></svg>