<svg xmlns="http://www.w3.org/2000/svg" viewBox="0 0 1296 1728"><defs><style>.cls-1{fill:#0069aa;}.cls-2{fill:#4db2e5;}.cls-3,.cls-4,.cls-7{fill:#fff;}.cls-3,.cls-4,.cls-6{stroke:#4db2e5;stroke-miterlimit:10;}.cls-3{stroke-width:1.91px;}.cls-4,.cls-6{stroke-width:1.27px;}.cls-5{fill:#4aa8d7;}.cls-6{fill:none;}.cls-8{font-size:51px;font-family:MyriadPro-Regular, Myriad Pro;}.cls-9{letter-spacing:0.01em;}.cls-10{letter-spacing:-0.01em;}.cls-11{letter-spacing:0em;}.cls-12{letter-spacing:0em;}.cls-13{letter-spacing:-0.04em;}.cls-14{letter-spacing:-0.03em;}</style></defs><title>timer</title><g id="Layer_2" data-name="Layer 2"><rect class="cls-1" x="98.51" y="250.11" width="263.64" height="656.84"/><path class="cls-2" d="M208.17,543.85l10.25,4.45h18.15l8-4.45,16.93,3.81s-1.91,55.27,0,63.52,8.68,48.28,17,81.95c-.53.64-39.49,12.07-96.88,0,1.06-21,13.09-83.22,13.09-83.22l-1.69-61.62Z"/><path class="cls-3" d="M189.75,548.93s-10.16,3.81-23.5,57.17c0,1.27-14.5,26-14.5,26l10.91,7s19.47-24.77,22.65-30.49,7.8-23.5,7.8-23.5V548.29Z"/><path class="cls-3" d="M265.68,548.93s10.16,3.81,23.5,57.17c0,1.27,14.5,26,14.5,26l-10.91,7s-19.47-24.77-22.65-30.49-7.8-23.5-7.8-23.5V548.29Z"/><path class="cls-4" d="M214.67,531.31a11.17,11.17,0,0,1,0,8.89l-6.5,3.65s19.49,26,36.43,0c2.32,1.27-10.11-1.77-8-11.37C236.52,532.49,221.73,533.57,214.67,531.31Z"/><path class="cls-5" d="M171.52,399.72s-8.45-8.33-24.33,9.45c-7.62,7.62-3.81,37.34-3.81,37.34s-1.91,10.3-17.15,5.22c0,0,4.78,29,33.52,18.32.8,1.87,17.53-57.06,17.53-57.06Z"/><path class="cls-5" d="M279.89,404s8.45-8.33,24.33,9.45c7.62,7.62,3.81,37.34,3.81,37.34s1.91,10.3,17.15,5.22c0,0-10.55,27.12-39.29,16.43-.8,1.87-11.76-55.18-11.76-55.18Z"/><path class="cls-4" d="M178.09,493.74s-5.25-5.49-5.25,4,8.86,14.56,8.86,14.56V502.24Z"/><path class="cls-4" d="M277.76,493.74s5.25-5.49,5.25,4-8.86,14.56-8.86,14.56V502.24Z"/><path class="cls-3" d="M227.56,534.48s-5.28-.63-5.07-.84c-36.72-10.55-38.2-15.41-39-17.31s-3.8-14.14-5.28-18.57c-1.48-5.49-12.87-35.25-14.14-40.63-10.45-44,42-68.73,42-68.73s10.61-4.19,37.29-1.77c0,0,58.18,26.49,47.74,70.5-1.27,5.38-12.66,35.14-14.14,40.63-1.48,4.43-4.43,16.67-5.28,18.57s-2.32,6.75-39,17.31c.21.21-5.07.84-5.07.84"/><ellipse class="cls-2" cx="201.12" cy="487.83" rx="6.33" ry="7.6"/><path class="cls-6" d="M218.42,512.31s9.71,5.49,18.15,0"/><path class="cls-6" d="M205.34,460.17s-8.71-6.3-12.24,0"/><path class="cls-6" d="M257.89,460.17s-8.71-6.3-12.24,0"/><path class="cls-4" d="M197.32,484a11.34,11.34,0,0,1-4.22,0"/><ellipse class="cls-7" cx="202.59" cy="484.22" rx="2.32" ry="3.06"/><ellipse class="cls-2" cx="250.93" cy="487.83" rx="6.33" ry="7.6"/><path class="cls-4" d="M254.73,484a11.34,11.34,0,0,0,4.22,0"/><ellipse class="cls-7" cx="249.45" cy="484.22" rx="2.32" ry="3.06"/><path class="cls-2" d="M213.54,381c-9-.82-90.24,20.95-49,99.26,10.18,17.52,9.31,12.58,9.31,12.58l4.3,4.94s-10.6-24.12-3.43-37.58c1.45.84,3.41,9.41,9.1,10.36,0,0-1.88-17.54,0-24s13.27,13.65,18.34,13.65c-.37-2.53.84-25.08.84-25.08a47.48,47.48,0,0,0,17.31,25.08l.64.84s.67-14.68,8.43-25.92c0,0,2.76,16.62,9.08,25.08l-.36.84s4.58-13.76,9.44-21.65c-.86,1.64,4.65,12.35,3.8,20.81l.1,6.55s13.06-10.87,9.39-20.21l1.09.2s6.38,12.39,5.57,24.77l.14,1.91s3.44,4.1,8.39-14.62c0,0,6.06,19.14,4.43,29.06C280.48,487.83,338.18,382.92,213.54,381Z"/><path class="cls-3" d="M151.75,632.14s-8.63-.63-12.87,9.11c-.42,4.23,4.66,3,9.32,0,.85-.85,4.74.22,4.74.22s-3.05,2.75-3.47,4.44,1.27.85,9.32,0l3.87-6.78Z"/><path class="cls-3" d="M302.69,632.14s8.63-.63,12.87,9.11c.42,4.23-4.66,3-9.32,0-.85-.85-4.54,2.15-4.54,2.15s2.85.82,3.27,2.51-1.27.85-9.32,0l-3.87-6.78Z"/><path class="cls-3" d="M204.82,696.93s1.57,14.62,0,25.21c-2.42,19.9-4.23,16.09.7,39.38,1.54,2.12,5.77,30.92,5.35,34.73s-14.76,19.48,0,19.06,11,.42,12.25-15.67c-3.39-5.51-.42-37.69-2.54-66.49.42-7.2,4.22-34.67,4.22-34.67Z"/><path class="cls-3" d="M248.26,696.93s-1.57,14.62,0,25.21c2.42,19.9,4.23,16.09-.7,39.38-1.54,2.12-5.77,30.92-5.35,34.73s14.76,19.48,0,19.06-11,.42-12.25-15.67c3.39-5.51.42-37.69,2.54-66.49-.42-7.2-4.22-34.67-4.22-34.67Z"/><path class="cls-2" d="M209.87,798.71s2.27,11.31,13.29.93c0,0-.29,13.17-1.21,13.95s-16.42,3.23-17,0S209.87,798.71,209.87,798.71Z"/><path class="cls-2" d="M243.61,798.71s-2.27,11.31-13.29.93c0,0,.29,13.17,1.21,13.95s16.42,3.23,17,0S243.61,798.71,243.61,798.71Z"/><path class="cls-2" d="M496.11,567l10.25,4.45h18.15l8-4.45,16.93,3.81s-1.91,55.27,0,63.52,8.68,48.28,17,81.95c-.53.64-39.49,12.07-96.88,0,1.06-21,13.09-83.22,13.09-83.22L481,571.4Z"/><path class="cls-3" d="M477.69,572s-10.16,3.81-23.5,57.17c0,1.27-14.5,26-14.5,26l10.91,7s19.47-24.77,22.65-30.49,7.8-23.5,7.8-23.5V571.4Z"/><path class="cls-3" d="M553.62,572s10.16,3.81,23.5,57.17c0,1.27,14.5,26,14.5,26l-10.91,7s-19.47-24.77-22.65-30.49-7.8-23.5-7.8-23.5V571.4Z"/><path class="cls-4" d="M502.61,554.41a11.17,11.17,0,0,1,0,8.89l-6.5,3.65s19.49,26,36.43,0c2.32,1.27-10.11-1.77-8-11.37C524.46,555.6,509.68,556.67,502.61,554.41Z"/><path class="cls-5" d="M459.46,422.83s-8.45-8.33-24.33,9.45c-7.62,7.62-3.81,37.34-3.81,37.34s-1.91,10.3-17.15,5.22c0,0,4.78,29,33.52,18.32.8,1.87,17.53-57.06,17.53-57.06Z"/><path class="cls-5" d="M567.83,427.09s8.45-8.33,24.33,9.45c7.62,7.62,3.81,37.34,3.81,37.34s1.91,10.3,17.15,5.22c0,0-10.55,27.12-39.29,16.43-.8,1.87-11.76-55.18-11.76-55.18Z"/><path class="cls-4" d="M466,516.85s-5.25-5.49-5.25,4,8.86,14.56,8.86,14.56V525.35Z"/><path class="cls-4" d="M565.7,516.85s5.25-5.49,5.25,4-8.86,14.56-8.86,14.56V525.35Z"/><path class="cls-3" d="M515.5,557.58s-5.28-.63-5.07-.84c-36.72-10.55-38.2-15.41-39-17.31s-3.8-14.14-5.28-18.57c-1.48-5.49-12.87-35.25-14.14-40.63-10.45-44,42-68.73,42-68.73s10.61-4.19,37.29-1.77c0,0,58.18,26.49,47.74,70.5-1.27,5.38-12.66,35.14-14.14,40.63-1.48,4.43-4.43,16.67-5.28,18.57s-2.32,6.75-39,17.31c.21.21-5.07.84-5.07.84"/><ellipse class="cls-2" cx="489.06" cy="510.94" rx="6.33" ry="7.6"/><path class="cls-6" d="M506.37,535.42s9.71,5.49,18.15,0"/><path class="cls-6" d="M493.28,483.28s-8.71-6.3-12.24,0"/><path class="cls-6" d="M545.84,483.28s-8.71-6.3-12.24,0"/><path class="cls-4" d="M485.26,507.14a11.34,11.34,0,0,1-4.22,0"/><ellipse class="cls-7" cx="490.54" cy="507.33" rx="2.32" ry="3.06"/><ellipse class="cls-2" cx="538.87" cy="510.94" rx="6.33" ry="7.6"/><path class="cls-4" d="M542.67,507.14a11.34,11.34,0,0,0,4.22,0"/><ellipse class="cls-7" cx="537.39" cy="507.33" rx="2.32" ry="3.06"/><path class="cls-2" d="M501.48,404.08c-9-.82-90.24,20.95-49,99.26,10.18,17.52,9.31,12.58,9.31,12.58l4.3,4.94s-10.6-24.12-3.43-37.58c1.45.84,3.41,9.41,9.1,10.36,0,0-1.88-17.54,0-24s13.27,13.65,18.34,13.65c-.37-2.53.84-25.08.84-25.08a47.48,47.48,0,0,0,17.31,25.08l.64.84s.67-14.68,8.43-25.92c0,0,2.76,16.62,9.08,25.08l-.36.84s4.58-13.76,9.44-21.65c-.86,1.64,4.65,12.35,3.8,20.81l.1,6.55s13.06-10.87,9.39-20.21l1.09.2s6.38,12.39,5.57,24.77l.14,1.91s3.44,4.1,8.39-14.62c0,0,6.06,19.14,4.43,29.06C568.42,510.94,626.12,406,501.48,404.08Z"/><path class="cls-3" d="M439.69,655.25s-8.63-.63-12.87,9.11c-.42,4.23,4.66,3,9.32,0,.85-.85,4.74.22,4.74.22s-3.05,2.75-3.47,4.44,1.27.85,9.32,0l3.87-6.78Z"/><path class="cls-3" d="M590.64,655.25s8.63-.63,12.87,9.11c.42,4.23-4.66,3-9.32,0-.85-.85-4.54,2.15-4.54,2.15s2.85.82,3.27,2.51-1.27.85-9.32,0l-3.87-6.78Z"/><path class="cls-3" d="M492.77,720s1.57,14.62,0,25.21c-2.42,19.9-4.23,16.09.7,39.38,1.54,2.12,5.77,30.92,5.35,34.73s-14.76,19.48,0,19.06,11,.42,12.25-15.67c-3.39-5.51-.42-37.69-2.54-66.49.42-7.2,4.22-34.67,4.22-34.67Z"/><path class="cls-3" d="M536.21,720s-1.57,14.62,0,25.21c2.42,19.9,4.23,16.09-.7,39.38-1.54,2.12-5.77,30.92-5.35,34.73s14.76,19.48,0,19.06-11,.42-12.25-15.67c3.39-5.51.42-37.69,2.54-66.49-.42-7.2-4.22-34.67-4.22-34.67Z"/><path class="cls-2" d="M497.81,821.81s2.27,11.31,13.29.93c0,0-.29,13.17-1.21,13.95s-16.42,3.23-17,0S497.81,821.81,497.81,821.81Z"/><path class="cls-2" d="M531.56,821.81s-2.27,11.31-13.29.93c0,0,.29,13.17,1.21,13.95s16.42,3.23,17,0S531.56,821.81,531.56,821.81Z"/><text class="cls-8" transform="translate(72.79 130.78)"><tspan class="cls-9">S</tspan><tspan class="cls-10" x="25.45" y="0">c</tspan><tspan x="47.99" y="0">ene 3: </tspan><tspan class="cls-11" x="185.74" y="0">A</tspan><tspan class="cls-12" x="216.8" y="0">n</tspan><tspan x="244.9" y="0">ti</tspan><tspan class="cls-13" x="273.71" y="0"> </tspan><tspan class="cls-14" x="282.69" y="0">V</tspan><tspan x="309.46" y="0">ax</tspan></text></g></svg>