<svg xmlns="http://www.w3.org/2000/svg" viewBox="0 0 306.39 678.62"><defs><style>.cls-1,.cls-10,.cls-3,.cls-4,.cls-5,.cls-8,.cls-9{fill:#fff;}.cls-1,.cls-10,.cls-3,.cls-4,.cls-5,.cls-7,.cls-9{stroke:#4db2e5;stroke-miterlimit:10;}.cls-1{stroke-width:2.23px;}.cls-2{fill:#4aa8d7;}.cls-3{stroke-width:1.7px;}.cls-4{stroke-width:1.66px;}.cls-5,.cls-7{stroke-width:1.77px;}.cls-6{fill:#4db2e5;}.cls-7{fill:none;}.cls-9{stroke-width:1.65px;}.cls-10{stroke-width:1.73px;}</style></defs><title>timer</title><g id="Layer_2" data-name="Layer 2"><path class="cls-1" d="M78.11,335.31,49,408.95s-19.15,9.54-20,13.69-9.09,20.66,0,20.66,14.44-10.17,19.8-14.7l5.36-4.53c-2.56,2.16-1.37,11.4-1.37,11.4s0,2.19,2,.59c1.47-1.17,6.72-11.69,6.72-11.69V409.79l37.89-61.23Z"/><path class="cls-1" d="M200.12,335.31l29.1,73.64s19.15,9.54,20,13.69,9.09,20.66,0,20.66-14.44-10.17-19.8-14.7l-5.36-4.53c2.56,2.16,1.37,11.4,1.37,11.4s0,2.19-2,.59c-1.47-1.17-6.72-11.69-6.72-11.69V409.79l-37.89-61.23Z"/><path class="cls-2" d="M191.85,97.28S203.69,68.76,228.21,88c23.33,23.09,28.13,42,23.28,68.76s-13.78,57.41,1.17,58S227.27,226.1,216.11,210,191.85,97.28,191.85,97.28Z"/><path class="cls-3" d="M125.47,283.32s1.2,8.63,0,12.16a59.51,59.51,0,0,0-9,1.42l25,27.47,21.66-28.89L156,294.3l1.54-11"/><path class="cls-4" d="M166.85,540.24c.32-4.92,5.7-23.59,9.79-40.69-7.84,2.57-16,5.52-24.29,5.17-.68,0-1.35-.09-2-.19-.51,7.56-1,14.82-1.37,19.68-4.08,32.62-2.92,24.86-3.35,54.93,0,34.49,30.6,31,24.18-11.5C169.38,557,166.57,544.48,166.85,540.24Z"/><path class="cls-4" d="M135.65,502.44c-.74-.07-1.48-.17-2.21-.32-3.49-.69-6.9-1.72-10.33-2.7-1.42-.41-4.14-1.78-5.56-1.43l2.18.28a26.54,26.54,0,0,0-3.18-.2,19.12,19.12,0,0,1-7.42-1.76c4.12,18,9.7,37.92,10,43.1.28,4.38-2.54,17.38-3,28.36-6.41,43.91,24.18,47.57,24.18,11.89-.43-31.1.73-23.08-3.35-56.82C136.66,517.81,136.16,510.28,135.65,502.44Z"/><path class="cls-5" d="M69.6,232s-7.34-7.67-7.34,5.6S74.65,258,74.65,258V243.89Z"/><path class="cls-5" d="M208.82,232s7.34-7.67,7.34,5.6S203.77,258,203.77,258V243.89Z"/><path class="cls-6" d="M115.71,563.27S126.31,592.9,141,565c-.12.88,2.82,26.53-8.17,37.5C129,606.34,112.9,607,115.71,563.27Z"/><path class="cls-6" d="M170.26,561.64s-10.6,29.63-25.26,1.77c.12.88-2.82,26.53,8.17,37.5C157,604.71,173.08,605.42,170.26,561.64Z"/><path class="cls-5" d="M138.7,288.92s-7.37-.88-7.08-1.18C80.33,273,78.27,266.22,77.09,263.56s-5.31-19.75-7.37-25.94c-2.06-7.67-18-49.23-19.75-56.75-14.59-61.47,58.71-96,58.71-96S123.49,79,160.76,82.4c0,0,81.27,37,66.68,98.47-1.77,7.52-17.69,49.09-19.75,56.75-2.06,6.19-6.19,23.29-7.37,25.94s-3.24,9.43-54.54,24.17c.29.29-7.08,1.18-7.08,1.18"/><path class="cls-6" d="M177.83,81.34s-33-12.06-63.09-3.21c-9.43,3.54-78.42,25.94-82,100.23,1.18,24.76,28.3,52.48,38.62,59.26,0,0-9.14-36.26,12.09-66.92,1.18-1.18-1.18,11.79,4.13,32.43l1.77,1.77s7.67-24.17,37.74-57.19c-1.18.59-7.67,28.89-1.18,48.94,1.18,0,28.89-43.63,46.58-50.12-.59,0,33.19,51.56,36,68.4,4.25,12.63,2.78,16.84,2.78,16.84l10.49-11.82s26.24-34.8,18-74.59C236.79,130,212,91,177.83,81.34Z"/><ellipse class="cls-6" cx="101.77" cy="223.77" rx="8.84" ry="10.61"/><path class="cls-7" d="M125.94,258s13.56,7.67,25.35,0"/><path class="cls-7" d="M107.66,185.13s-12.16-8.79-17.1,0"/><path class="cls-7" d="M181.07,185.13s-12.16-8.79-17.1,0"/><path class="cls-5" d="M96.46,218.46a15.84,15.84,0,0,1-5.9,0"/><ellipse class="cls-8" cx="103.83" cy="218.72" rx="3.24" ry="4.27"/><ellipse class="cls-6" cx="171.34" cy="223.77" rx="8.84" ry="10.61"/><path class="cls-5" d="M176.65,218.46a15.84,15.84,0,0,0,5.9,0"/><ellipse class="cls-8" cx="169.28" cy="218.72" rx="3.24" ry="4.27"/><path class="cls-9" d="M177.68,360a60.74,60.74,0,0,0,.53-12.84L186,365.32l2.2,7.55,25.28-20.1S196.15,312,194.24,307.14s-31.49-11.81-31.49-11.81l-.28.75-22,27.88-23.14-27.38s-29.58,6.92-31.49,11.81S66.58,354,66.58,354l25.28,20.1,2.2-7.55,7.75-18a59.58,59.58,0,0,0,.6,11.41c3.84,19.59-.43,43.06-8.55,58.73,1.34,3.39,40.41,2.11,45.86,4.86V424s.12-.12.34-.24c.22.12.34.2.34.24l-.07-.38c5.2-2.66,47.24-6.79,48.59-10.2C180.77,397.74,173.84,379.58,177.68,360Z"/><path class="cls-10" d="M186.11,411.32c-26.33-11.84-40,3.77-43.23,8.27-3.24-4.49-16.9-20.11-43.23-8.27C69.16,425,87.48,508.17,86.76,509.11c0,0,44,12.35,59,12.35S199,509.11,199,509.11C198.29,508.17,216.61,425,186.11,411.32Z"/></g></svg>