<svg xmlns="http://www.w3.org/2000/svg" viewBox="0 0 39 39.97"><defs><style>.cls-1{fill:#4db2e5;}</style></defs><title>timer</title><g id="Layer_2" data-name="Layer 2"><path class="cls-1" d="M13.2,17.72,13,17.8a.93.93,0,0,1-1.25-.54L9.3,10.75a1.05,1.05,0,0,1,.54-1.32L10,9.35a.93.93,0,0,1,1.25.54l2.48,6.51A1.05,1.05,0,0,1,13.2,17.72Z"/><path class="cls-1" d="M17.19,17.06a1.13,1.13,0,0,0-.07-.32L14,8.56A1,1,0,0,0,12.64,8a1.15,1.15,0,0,0-.59,1.45l3,8,0,.08L12.54,29.76a1.19,1.19,0,0,0,.88,1.43h0a1.19,1.19,0,0,0,1.38-1l2.53-12.31A1.25,1.25,0,0,0,17.19,17.06Z"/><path class="cls-1" d="M23.19,19.77l.13.14a.93.93,0,0,0,1.36,0l4.84-5a1.05,1.05,0,0,0,0-1.43l-.13-.14a.93.93,0,0,0-1.36,0l-4.84,5A1.05,1.05,0,0,0,23.19,19.77Z"/><path class="cls-1" d="M19.78,17.59a1.13,1.13,0,0,1,.19-.27L26.06,11a1,1,0,0,1,1.49,0,1.15,1.15,0,0,1,0,1.57l-5.92,6.12v.08L19,31.1a1.19,1.19,0,0,1-1.38,1h0a1.19,1.19,0,0,1-.88-1.43l2.53-12.31A1.25,1.25,0,0,1,19.78,17.59Z"/></g></svg>