<svg xmlns="http://www.w3.org/2000/svg" xmlns:xlink="http://www.w3.org/1999/xlink" viewBox="0 0 76.5 78.5"><defs><style>.cls-1{fill:#ee4e9c;}.cls-2{fill:#fff;}.cls-3{fill:#027da3;}.cls-4{fill:url(#radial-gradient);}.cls-5{fill:url(#radial-gradient-2);}.cls-6{fill:url(#radial-gradient-3);}.cls-7{fill:url(#radial-gradient-4);}.cls-8{fill:url(#radial-gradient-5);}.cls-9{fill:url(#radial-gradient-6);}.cls-10{fill:url(#radial-gradient-7);}.cls-11{fill:url(#radial-gradient-8);}.cls-12{fill:url(#radial-gradient-9);}.cls-13{fill:url(#radial-gradient-10);}.cls-14{fill:url(#radial-gradient-11);}.cls-15{fill:url(#radial-gradient-12);}.cls-16{fill:url(#radial-gradient-13);}.cls-17{fill:url(#radial-gradient-14);}.cls-18{fill:url(#radial-gradient-15);}.cls-19{fill:url(#radial-gradient-16);}.cls-20{fill:url(#radial-gradient-17);}.cls-21{fill:url(#radial-gradient-18);}.cls-22{fill:url(#radial-gradient-19);}.cls-23{fill:url(#radial-gradient-20);}.cls-24{fill:url(#radial-gradient-21);}.cls-25{fill:url(#radial-gradient-22);}.cls-26{fill:url(#radial-gradient-23);}.cls-27{fill:url(#radial-gradient-24);}</style><radialGradient id="radial-gradient" cx="35.37" cy="53.76" r="9.32" gradientUnits="userSpaceOnUse"><stop offset="0.03" stop-color="#ec008c" stop-opacity="0"/><stop offset="1" stop-color="#fff"/></radialGradient><radialGradient id="radial-gradient-2" cx="37.71" cy="53.47" r="1.29" gradientUnits="userSpaceOnUse"><stop offset="0.03" stop-color="#27aae1" stop-opacity="0"/><stop offset="1" stop-color="#fff"/></radialGradient><radialGradient id="radial-gradient-3" cx="32.63" cy="50.68" r="1.29" xlink:href="#radial-gradient-2"/><radialGradient id="radial-gradient-4" cx="32.15" cy="57.33" r="1.29" xlink:href="#radial-gradient-2"/><radialGradient id="radial-gradient-5" cx="38.61" cy="57.47" r="1.29" xlink:href="#radial-gradient-2"/><radialGradient id="radial-gradient-6" cx="36.78" cy="49.82" r="0.99" xlink:href="#radial-gradient-2"/><radialGradient id="radial-gradient-7" cx="-65.69" cy="-393.77" r="0.99" gradientTransform="translate(88.36 370.7) scale(0.89 0.8)" xlink:href="#radial-gradient-2"/><radialGradient id="radial-gradient-8" cx="-59.94" cy="-387.91" r="0.99" gradientTransform="translate(88.36 370.7) scale(0.89 0.8)" xlink:href="#radial-gradient-2"/><radialGradient id="radial-gradient-9" cx="46.38" cy="41.12" r="4.66" xlink:href="#radial-gradient"/><radialGradient id="radial-gradient-10" cx="47.55" cy="40.98" r="0.64" xlink:href="#radial-gradient-2"/><radialGradient id="radial-gradient-11" cx="45.02" cy="39.58" r="0.64" xlink:href="#radial-gradient-2"/><radialGradient id="radial-gradient-12" cx="44.77" cy="42.91" r="0.64" xlink:href="#radial-gradient-2"/><radialGradient id="radial-gradient-13" cx="48" cy="42.98" r="0.64" xlink:href="#radial-gradient-2"/><radialGradient id="radial-gradient-14" cx="47.09" cy="39.15" r="0.49" xlink:href="#radial-gradient-2"/><radialGradient id="radial-gradient-15" cx="-50.3" cy="-409.76" r="0.49" gradientTransform="translate(88.36 370.7) scale(0.89 0.8)" xlink:href="#radial-gradient-2"/><radialGradient id="radial-gradient-16" cx="-47.43" cy="-406.83" r="0.49" gradientTransform="translate(88.36 370.7) scale(0.89 0.8)" xlink:href="#radial-gradient-2"/><radialGradient id="radial-gradient-17" cx="27.48" cy="39.15" r="3.09" xlink:href="#radial-gradient"/><radialGradient id="radial-gradient-18" cx="28.26" cy="39.06" r="0.43" xlink:href="#radial-gradient-2"/><radialGradient id="radial-gradient-19" cx="26.57" cy="38.13" r="0.43" xlink:href="#radial-gradient-2"/><radialGradient id="radial-gradient-20" cx="26.41" cy="40.34" r="0.43" xlink:href="#radial-gradient-2"/><radialGradient id="radial-gradient-21" cx="28.56" cy="40.39" r="0.43" xlink:href="#radial-gradient-2"/><radialGradient id="radial-gradient-22" cx="27.95" cy="37.85" r="0.33" xlink:href="#radial-gradient-2"/><radialGradient id="radial-gradient-23" cx="-70.63" cy="-412.3" r="0.33" gradientTransform="translate(88.36 370.7) scale(0.89 0.8)" xlink:href="#radial-gradient-2"/><radialGradient id="radial-gradient-24" cx="-68.72" cy="-410.35" r="0.33" gradientTransform="translate(88.36 370.7) scale(0.89 0.8)" xlink:href="#radial-gradient-2"/></defs><title>timer</title><g id="Layer_2" data-name="Layer 2"><path class="cls-1" d="M54.6,42.88C51.94,35.8,36.53,15.34,36.53,15.34h0s-15,20.46-17.66,27.54c-2.59,6.9-1.24,24.18,17.15,25v0l.71,0,.72,0v0C55.84,67.05,57.19,49.78,54.6,42.88Z"/><path class="cls-2" d="M46.48,33.69c-3-4.56-6.23-9-9.53-13.41-.34-.46-1.13,0-.78.45,3.3,4.38,6.49,8.85,9.53,13.41.32.48,1.1,0,.78-.45Z"/><path class="cls-1" d="M35.7,64.73v0a.45.45,0,0,0,.45.45c.39,0,.78,0,1.17,0a.45.45,0,0,0,.45-.45v0l-.45.45c4.5-.24,8.87-1.74,11.81-5.29.37-.44-.27-1.08-.64-.64-2.79,3.37-6.9,4.8-11.17,5a.46.46,0,0,0-.45.45v0l.45-.45c-.39,0-.78,0-1.17,0l.45.45v0a.45.45,0,0,0-.9,0Z"/><path class="cls-3" d="M32.64,52.12a.55.55,0,0,0,.18.38.24.24,0,0,0,.34-.34s-.06-.07,0,0l0,0s0,.07,0,0a.24.24,0,0,0-.48,0Z"/><path class="cls-3" d="M33.31,53.49h.11a.24.24,0,0,0,0-.48h-.11a.24.24,0,0,0,0,.48Z"/><path class="cls-3" d="M34.84,52.55V52.5a.24.24,0,0,0-.48,0v.05a.24.24,0,0,0,.48,0Z"/><path class="cls-3" d="M34.86,54.13a.24.24,0,0,0,0-.48.24.24,0,0,0,0,.48Z"/><path class="cls-3" d="M39.31,54.91l.15,0,.06,0s-.05,0,0,0l-.12,0h0a.25.25,0,0,0,.24-.24.24.24,0,0,0-.24-.24l-.15,0-.06,0s.05,0,0,0l.12,0h0a.25.25,0,0,0-.24.24.24.24,0,0,0,.24.24Z"/><path class="cls-3" d="M38,52.31a.24.24,0,0,0,0-.48.24.24,0,0,0,0,.48Z"/><path class="cls-3" d="M38,54.4a.24.24,0,0,0,0-.48.24.24,0,0,0,0,.48Z"/><path class="cls-3" d="M37.43,54.56a.24.24,0,0,0,0-.48.24.24,0,0,0,0,.48Z"/><path class="cls-3" d="M36,54a.24.24,0,0,0,0-.48A.24.24,0,0,0,36,54Z"/><path class="cls-3" d="M35,50.81a.24.24,0,0,0,0-.48.24.24,0,0,0,0,.48Z"/><path class="cls-3" d="M37.91,53.44a.24.24,0,0,0,0-.48.24.24,0,0,0,0,.48Z"/><path class="cls-3" d="M36.09,51.61a.24.24,0,0,0,0-.48.24.24,0,0,0,0,.48Z"/><path class="cls-3" d="M32.08,54.4a.24.24,0,0,0,0-.48.24.24,0,0,0,0,.48Z"/><path class="cls-3" d="M34.78,55.26a.24.24,0,0,0,0-.48.24.24,0,0,0,0,.48Z"/><path class="cls-3" d="M33.42,54.67a.24.24,0,0,0,0-.48.24.24,0,0,0,0,.48Z"/><path class="cls-3" d="M35.56,56.33l.19,0,.07,0s.08,0,0,0a.25.25,0,0,0,.24-.24.24.24,0,0,0-.24-.24l-.16,0-.11,0a.24.24,0,1,0,0,.48Z"/><path class="cls-3" d="M37.75,55.52a.24.24,0,0,0,0-.48.24.24,0,0,0,0,.48Z"/><path class="cls-3" d="M36.09,54.88a.24.24,0,0,0,0-.48.24.24,0,0,0,0,.48Z"/><path class="cls-3" d="M38.72,56h-.11a.24.24,0,0,0,0,.48h.11a.24.24,0,0,0,0-.48Z"/><path class="cls-3" d="M41.7,55.26a.24.24,0,0,0,0-.48.24.24,0,0,0,0,.48Z"/><path class="cls-3" d="M34.22,51.45a.24.24,0,0,0,0-.48.24.24,0,0,0,0,.48Z"/><path class="cls-3" d="M36.74,51.24a.24.24,0,0,0,0-.48.24.24,0,0,0,0,.48Z"/><path class="cls-3" d="M37.38,52.1a.24.24,0,0,0,0-.48.24.24,0,0,0,0,.48Z"/><path class="cls-3" d="M38.13,50.6a.24.24,0,0,0,0-.48.24.24,0,0,0,0,.48Z"/><path class="cls-3" d="M34.65,56.59a.24.24,0,0,0,0-.48.24.24,0,0,0,0,.48Z"/><path class="cls-3" d="M32.93,56.59a.24.24,0,0,0,0-.48.24.24,0,0,0,0,.48Z"/><path class="cls-3" d="M33.44,56a.24.24,0,0,0,0-.48.24.24,0,0,0,0,.48Z"/><path class="cls-3" d="M32.4,53.44a.24.24,0,0,0,0-.48.24.24,0,0,0,0,.48Z"/><path class="cls-3" d="M30.9,54.56a.24.24,0,0,0,0-.48.24.24,0,0,0,0,.48Z"/><path class="cls-3" d="M29.16,53.76a.24.24,0,0,0,0-.48.24.24,0,0,0,0,.48Z"/><path class="cls-3" d="M32.4,55.74a.24.24,0,0,0,0-.48.24.24,0,0,0,0,.48Z"/><path class="cls-3" d="M31,53.49A.24.24,0,0,0,31,53a.24.24,0,0,0,0,.48Z"/><path class="cls-3" d="M30.28,51.53a.24.24,0,0,0,0-.48.24.24,0,0,0,0,.48Z"/><path class="cls-3" d="M31.19,52.31a.24.24,0,0,0,0-.48.24.24,0,0,0,0,.48Z"/><path class="cls-3" d="M39.68,51.35a.55.55,0,0,0,.18.38.24.24,0,0,0,.34-.34s-.06-.07,0,0l0,0s0,.07,0,0a.24.24,0,0,0-.48,0Z"/><path class="cls-3" d="M32.1,48h.11a.24.24,0,0,0,0-.48H32.1a.24.24,0,0,0,0,.48Z"/><path class="cls-3" d="M33.63,47.09V47a.24.24,0,0,0-.48,0v.05a.24.24,0,0,0,.48,0Z"/><path class="cls-3" d="M33.66,48.67a.24.24,0,0,0,0-.48.24.24,0,0,0,0,.48Z"/><path class="cls-3" d="M35.16,47.6l.15,0,.06,0s-.05,0,0,0l-.12,0h0a.25.25,0,0,0,.24-.24.24.24,0,0,0-.24-.24l-.15,0-.06,0s.05,0,0,0l.12,0h0a.25.25,0,0,0-.24.24.24.24,0,0,0,.24.24Z"/><path class="cls-3" d="M42.09,51.53a.24.24,0,0,0,0-.48.24.24,0,0,0,0,.48Z"/><path class="cls-3" d="M36.82,48.94a.24.24,0,0,0,0-.48.24.24,0,0,0,0,.48Z"/><path class="cls-3" d="M36.23,49.1a.24.24,0,0,0,0-.48.24.24,0,0,0,0,.48Z"/><path class="cls-3" d="M34.78,48.51a.24.24,0,0,0,0-.48.24.24,0,0,0,0,.48Z"/><path class="cls-3" d="M39.09,50a.24.24,0,0,0,0-.48.24.24,0,0,0,0,.48Z"/><path class="cls-3" d="M36.71,48a.24.24,0,0,0,0-.48.24.24,0,0,0,0,.48Z"/><path class="cls-3" d="M40.16,50.84a.24.24,0,0,0,0-.48.24.24,0,0,0,0,.48Z"/><path class="cls-3" d="M31,49.31a.24.24,0,0,0,0-.48.24.24,0,0,0,0,.48Z"/><path class="cls-3" d="M33.07,49.42a.24.24,0,0,0,0-.48.24.24,0,0,0,0,.48Z"/><path class="cls-3" d="M32.21,49.2a.24.24,0,0,0,0-.48.24.24,0,0,0,0,.48Z"/><path class="cls-3" d="M28.8,52.6l.19,0,.07,0s.08,0,0,0a.25.25,0,0,0,.24-.24.24.24,0,0,0-.24-.24l-.16,0-.11,0a.24.24,0,1,0,0,.48Z"/><path class="cls-3" d="M36.55,50.06a.24.24,0,0,0,0-.48.24.24,0,0,0,0,.48Z"/><path class="cls-3" d="M34.89,49.42a.24.24,0,0,0,0-.48.24.24,0,0,0,0,.48Z"/><path class="cls-3" d="M37.51,50.54h-.11a.24.24,0,0,0,0,.48h.11a.24.24,0,0,0,0-.48Z"/><path class="cls-3" d="M36,51.24a.24.24,0,0,0,0-.48.24.24,0,0,0,0,.48Z"/><path class="cls-3" d="M38.29,50.68a.24.24,0,0,0,0-.48.24.24,0,0,0,0,.48Z"/><path class="cls-3" d="M40.81,50.46a.24.24,0,0,0,0-.48.24.24,0,0,0,0,.48Z"/><path class="cls-3" d="M41.45,51.32a.24.24,0,0,0,0-.48.24.24,0,0,0,0,.48Z"/><path class="cls-3" d="M39.23,48.23a.24.24,0,0,0,0-.48.24.24,0,0,0,0,.48Z"/><path class="cls-3" d="M33.44,50.33a.24.24,0,0,0,0-.48.24.24,0,0,0,0,.48Z"/><path class="cls-3" d="M32.1,51.8a.24.24,0,0,0,0-.48.24.24,0,0,0,0,.48Z"/><path class="cls-3" d="M32.16,50.33a.24.24,0,0,0,0-.48.24.24,0,0,0,0,.48Z"/><path class="cls-3" d="M31.19,48a.24.24,0,0,0,0-.48.24.24,0,0,0,0,.48Z"/><path class="cls-3" d="M30.44,49.2a.24.24,0,0,0,0-.48.24.24,0,0,0,0,.48Z"/><path class="cls-3" d="M29.53,51.13a.24.24,0,0,0,0-.48.24.24,0,0,0,0,.48Z"/><path class="cls-3" d="M31.19,50.28a.24.24,0,0,0,0-.48.24.24,0,0,0,0,.48Z"/><path class="cls-3" d="M28.33,51.13a.24.24,0,0,0,0-.48.24.24,0,0,0,0,.48Z"/><path class="cls-3" d="M38.61,49.31a.24.24,0,0,0,0-.48.24.24,0,0,0,0,.48Z"/><path class="cls-3" d="M29.88,56.81a.24.24,0,0,0,0-.48.24.24,0,0,0,0,.48Z"/><path class="cls-3" d="M34.43,58.12a.55.55,0,0,0,.18.38.24.24,0,0,0,.34-.34s-.06-.07,0,0l0,0s0,.07,0,0a.24.24,0,0,0-.48,0Z"/><path class="cls-3" d="M35.1,59.49h.11a.24.24,0,0,0,0-.48H35.1a.24.24,0,0,0,0,.48Z"/><path class="cls-3" d="M36.63,58.55V58.5a.24.24,0,0,0-.48,0v.05a.24.24,0,0,0,.48,0Z"/><path class="cls-3" d="M36.66,60.13a.24.24,0,0,0,0-.48.24.24,0,0,0,0,.48Z"/><path class="cls-3" d="M38.16,59.06l.15,0,.06,0s-.05,0,0,0l-.12,0h0a.25.25,0,0,0,.24-.24.24.24,0,0,0-.24-.24l-.15,0-.06,0s.05,0,0,0l.12,0h0a.25.25,0,0,0-.24.24.24.24,0,0,0,.24.24Z"/><path class="cls-3" d="M39.82,58.31a.24.24,0,0,0,0-.48.24.24,0,0,0,0,.48Z"/><path class="cls-3" d="M41.25,56.7a.24.24,0,0,0,0-.48.24.24,0,0,0,0,.48Z"/><path class="cls-3" d="M39.23,60.56a.24.24,0,0,0,0-.48.24.24,0,0,0,0,.48Z"/><path class="cls-3" d="M37.78,60a.24.24,0,0,0,0-.48.24.24,0,0,0,0,.48Z"/><path class="cls-3" d="M36.82,56.81a.24.24,0,0,0,0-.48.24.24,0,0,0,0,.48Z"/><path class="cls-3" d="M39.71,59.43a.24.24,0,0,0,0-.48.24.24,0,0,0,0,.48Z"/><path class="cls-3" d="M37.89,57.61a.24.24,0,0,0,0-.48.24.24,0,0,0,0,.48Z"/><path class="cls-3" d="M34,60.77a.24.24,0,0,0,0-.48.24.24,0,0,0,0,.48Z"/><path class="cls-3" d="M36.07,60.88a.24.24,0,0,0,0-.48.24.24,0,0,0,0,.48Z"/><path class="cls-3" d="M35.21,60.66a.24.24,0,0,0,0-.48.24.24,0,0,0,0,.48Z"/><path class="cls-3" d="M40.67,52.93l.19,0,.07,0s.08,0,0,0a.25.25,0,0,0,.24-.24.24.24,0,0,0-.24-.24l-.16,0-.11,0a.24.24,0,1,0,0,.48Z"/><path class="cls-3" d="M28.57,54.88a.24.24,0,0,0,0-.48.24.24,0,0,0,0,.48Z"/><path class="cls-3" d="M37.89,60.88a.24.24,0,0,0,0-.48.24.24,0,0,0,0,.48Z"/><path class="cls-3" d="M42.25,53.17h-.11a.24.24,0,0,0,0,.48h.11a.24.24,0,0,0,0-.48Z"/><path class="cls-3" d="M40.7,53.86a.24.24,0,0,0,0-.48.24.24,0,0,0,0,.48Z"/><path class="cls-3" d="M36,57.45A.24.24,0,0,0,36,57a.24.24,0,0,0,0,.48Z"/><path class="cls-3" d="M38.53,57.24a.24.24,0,0,0,0-.48.24.24,0,0,0,0,.48Z"/><path class="cls-3" d="M39.17,58.09a.24.24,0,0,0,0-.48.24.24,0,0,0,0,.48Z"/><path class="cls-3" d="M39.92,56.59a.24.24,0,0,0,0-.48.24.24,0,0,0,0,.48Z"/><path class="cls-3" d="M38.18,53a.24.24,0,0,0,0-.48.24.24,0,0,0,0,.48Z"/><path class="cls-3" d="M36.47,53.76a.24.24,0,0,0,0-.48.24.24,0,0,0,0,.48Z"/><path class="cls-3" d="M36.9,53a.24.24,0,0,0,0-.48.24.24,0,0,0,0,.48Z"/><path class="cls-3" d="M34.19,59.43a.24.24,0,0,0,0-.48.24.24,0,0,0,0,.48Z"/><path class="cls-3" d="M33.44,60.66a.24.24,0,0,0,0-.48.24.24,0,0,0,0,.48Z"/><path class="cls-3" d="M34.19,54.08a.24.24,0,0,0,0-.48.24.24,0,0,0,0,.48Z"/><path class="cls-3" d="M35.93,52.9a.24.24,0,0,0,0-.48.24.24,0,0,0,0,.48Z"/><path class="cls-3" d="M32.21,59.38a.24.24,0,0,0,0-.48.24.24,0,0,0,0,.48Z"/><path class="cls-3" d="M33.87,57.77a.24.24,0,0,0,0-.48.24.24,0,0,0,0,.48Z"/><path class="cls-3" d="M33.39,59a.24.24,0,0,0,0-.48.24.24,0,0,0,0,.48Z"/><path class="cls-3" d="M31.14,56.09a.55.55,0,0,0,.18.38.24.24,0,1,0,.34-.34s-.06-.07,0,0l0,0s0,.07,0,0a.24.24,0,0,0-.48,0Z"/><path class="cls-3" d="M31.81,57.45h.11a.24.24,0,0,0,0-.48h-.11a.24.24,0,0,0,0,.48Z"/><path class="cls-3" d="M30.9,59.49a.24.24,0,0,0,0-.48.24.24,0,0,0,0,.48Z"/><path class="cls-3" d="M31.92,58.63a.24.24,0,0,0,0-.48.24.24,0,0,0,0,.48Z"/><path class="cls-3" d="M30.9,57.4a.24.24,0,0,0,0-.48.24.24,0,0,0,0,.48Z"/><path class="cls-3" d="M30.15,58.63a.24.24,0,0,0,0-.48.24.24,0,0,0,0,.48Z"/><path class="cls-3" d="M28.92,57.34a.24.24,0,0,0,0-.48.24.24,0,0,0,0,.48Z"/><path class="cls-3" d="M30.58,55.74a.24.24,0,0,0,0-.48.24.24,0,0,0,0,.48Z"/><path class="cls-3" d="M29.53,55.52a.24.24,0,0,0,0-.48.24.24,0,0,0,0,.48Z"/><path class="cls-4" d="M35.17,45.73c.11-.28.29-.28.39,0s.31.29.45,0,.31-.25.39,0,.28.32.44.07.34-.22.39.08.24.35.43.12.36-.18.37.12.2.37.42.16.38-.14.36.16.16.39.4.2.39-.1.34.2.12.41.37.24.4-.06.32.23.08.42.35.28.4,0,.29.26,0,.42.32.32.4,0,.26.29,0,.43.28.35.4.07.23.32-.06.42.24.37.39.11.2.34-.1.41.2.4.37.15.16.36-.14.4.16.42.36.18.12.37-.18.38.12.43.34.22.08.39-.22.36.07.44.31.25,0,.39-.26.34,0,.45.28.29,0,.39-.29.31,0,.45.25.31,0,.39-.32.28-.07.44.22.34-.08.39-.35.24-.12.43.18.36-.12.37-.37.2-.16.42.14.38-.16.36-.39.16-.2.4.1.39-.2.34-.41.12-.24.38.06.4-.23.32-.42.08-.28.35,0,.4-.26.29-.42,0-.32.32,0,.4-.29.26-.43,0-.35.28-.07.4-.32.23-.42-.06-.37.24-.11.39-.34.2-.41-.1-.4.2-.15.37-.36.16-.4-.14-.42.16-.18.36-.37.12-.38-.18-.43.12-.22.34-.39.08-.36-.22-.44.07-.25.31-.39,0-.34-.26-.45,0-.29.28-.39,0-.31-.29-.45,0-.31.25-.39,0-.28-.32-.44-.07-.34.22-.39-.08-.24-.35-.43-.12-.36.18-.37-.12-.2-.37-.42-.16-.38.14-.36-.16-.16-.39-.4-.2-.39.1-.34-.2-.12-.41-.37-.24-.4.06-.32-.23-.08-.42-.35-.28-.4,0-.29-.26,0-.42-.32-.32-.4,0-.26-.29,0-.43-.28-.35-.4-.07-.23-.32.06-.42-.24-.38-.39-.11-.2-.34.1-.41-.2-.4-.37-.15-.16-.36.14-.4-.16-.42-.36-.18-.12-.37.18-.38-.12-.43-.34-.22-.08-.39.22-.36-.07-.44-.31-.25,0-.39.26-.34,0-.45-.28-.29,0-.39.29-.31,0-.45-.25-.31,0-.39.32-.28.07-.44-.22-.34.08-.39.35-.24.12-.43-.18-.36.12-.37.37-.2.16-.42-.14-.38.16-.36.39-.16.2-.4-.1-.39.2-.34.41-.12.24-.37-.06-.4.23-.32.42-.08.28-.35,0-.4.26-.29.42,0,.32-.32,0-.4.29-.26.43,0,.35-.28.07-.4.32-.23.42.06.37-.24.11-.39.34-.2.41.1.4-.2.15-.37.36-.16.4.14.42-.16.18-.36.37-.12.38.18.43-.12.22-.34.39-.08.36.22.44-.07.25-.31.39,0S35.06,46,35.17,45.73Z"/><path class="cls-5" d="M37.71,54.78a1.31,1.31,0,0,0,0-2.62,1.31,1.31,0,0,0,0,2.62Z"/><path class="cls-6" d="M32.63,52a1.31,1.31,0,0,0,0-2.62,1.31,1.31,0,0,0,0,2.62Z"/><path class="cls-7" d="M32.15,58.64a1.31,1.31,0,0,0,0-2.62,1.31,1.31,0,0,0,0,2.62Z"/><path class="cls-8" d="M38.61,58.78a1.31,1.31,0,0,0,0-2.62,1.31,1.31,0,0,0,0,2.62Z"/><path class="cls-9" d="M36.78,50.82a1,1,0,0,0,0-2,1,1,0,0,0,0,2Z"/><path class="cls-10" d="M30.12,55a.81.81,0,1,0,0-1.61.81.81,0,1,0,0,1.61Z"/><path class="cls-11" d="M35.21,59.7a.81.81,0,1,0,0-1.61.81.81,0,1,0,0,1.61Z"/><path class="cls-3" d="M45,40.31a.28.28,0,0,0,.09.19.12.12,0,0,0,.17-.17h0v0s0,0,0,0a.12.12,0,0,0-.24,0Z"/><path class="cls-3" d="M45.35,41h.05a.12.12,0,0,0,0-.24h-.05a.12.12,0,0,0,0,.24Z"/><path class="cls-3" d="M46.12,40.52v0a.12.12,0,0,0-.24,0v0a.12.12,0,0,0,.24,0Z"/><path class="cls-3" d="M46.13,41.31a.12.12,0,0,0,0-.24.12.12,0,0,0,0,.24Z"/><path class="cls-3" d="M48.35,41.7l.08,0,0,0s0,0,0,0l-.06,0h0a.12.12,0,0,0,.12-.12.12.12,0,0,0-.12-.12l-.08,0,0,0s0,0,0,0l.06,0h0a.12.12,0,0,0-.12.12.12.12,0,0,0,.12.12Z"/><path class="cls-3" d="M47.71,40.4a.12.12,0,0,0,0-.24.12.12,0,0,0,0,.24Z"/><path class="cls-3" d="M47.71,41.44a.12.12,0,0,0,0-.24.12.12,0,0,0,0,.24Z"/><path class="cls-3" d="M47.41,41.52a.12.12,0,0,0,0-.24.12.12,0,0,0,0,.24Z"/><path class="cls-3" d="M46.69,41.23a.12.12,0,0,0,0-.24.12.12,0,0,0,0,.24Z"/><path class="cls-3" d="M46.21,39.65a.12.12,0,0,0,0-.24.12.12,0,0,0,0,.24Z"/><path class="cls-3" d="M47.66,41a.12.12,0,0,0,0-.24.12.12,0,0,0,0,.24Z"/><path class="cls-3" d="M46.75,40.05a.12.12,0,0,0,0-.24.12.12,0,0,0,0,.24Z"/><path class="cls-3" d="M44.74,41.44a.12.12,0,0,0,0-.24.12.12,0,0,0,0,.24Z"/><path class="cls-3" d="M46.09,41.87a.12.12,0,0,0,0-.24.12.12,0,0,0,0,.24Z"/><path class="cls-3" d="M45.41,41.58a.12.12,0,0,0,0-.24.12.12,0,0,0,0,.24Z"/><path class="cls-3" d="M46.48,42.41h.13s0,0,0,0a.12.12,0,0,0,.12-.12.12.12,0,0,0-.12-.12h-.13a.12.12,0,1,0,0,.24Z"/><path class="cls-3" d="M47.58,42a.12.12,0,0,0,0-.24.12.12,0,0,0,0,.24Z"/><path class="cls-3" d="M46.75,41.68a.12.12,0,0,0,0-.24.12.12,0,0,0,0,.24Z"/><path class="cls-3" d="M48.06,42.25H48a.12.12,0,0,0,0,.24h.05a.12.12,0,0,0,0-.24Z"/><path class="cls-3" d="M49.55,41.87a.12.12,0,0,0,0-.24.12.12,0,0,0,0,.24Z"/><path class="cls-3" d="M45.81,40a.12.12,0,0,0,0-.24.12.12,0,0,0,0,.24Z"/><path class="cls-3" d="M47.07,39.86a.12.12,0,0,0,0-.24.12.12,0,0,0,0,.24Z"/><path class="cls-3" d="M47.39,40.29a.12.12,0,0,0,0-.24.12.12,0,0,0,0,.24Z"/><path class="cls-3" d="M47.76,39.54a.12.12,0,0,0,0-.24.12.12,0,0,0,0,.24Z"/><path class="cls-3" d="M46,42.54a.12.12,0,0,0,0-.24.12.12,0,0,0,0,.24Z"/><path class="cls-3" d="M45.17,42.54a.12.12,0,0,0,0-.24.12.12,0,0,0,0,.24Z"/><path class="cls-3" d="M45.42,42.22a.12.12,0,0,0,0-.24.12.12,0,0,0,0,.24Z"/><path class="cls-3" d="M44.9,41a.12.12,0,0,0,0-.24.12.12,0,0,0,0,.24Z"/><path class="cls-3" d="M44.15,41.52a.12.12,0,0,0,0-.24.12.12,0,0,0,0,.24Z"/><path class="cls-3" d="M43.28,41.12a.12.12,0,0,0,0-.24.12.12,0,0,0,0,.24Z"/><path class="cls-3" d="M44.9,42.11a.12.12,0,0,0,0-.24.12.12,0,0,0,0,.24Z"/><path class="cls-3" d="M44.22,41a.12.12,0,0,0,0-.24.12.12,0,0,0,0,.24Z"/><path class="cls-3" d="M43.84,40a.12.12,0,0,0,0-.24.12.12,0,0,0,0,.24Z"/><path class="cls-3" d="M44.3,40.4a.12.12,0,0,0,0-.24.12.12,0,0,0,0,.24Z"/><path class="cls-3" d="M48.54,39.92a.27.27,0,0,0,.09.19.12.12,0,0,0,.17-.17h0v0s0,0,0,0a.12.12,0,0,0-.24,0Z"/><path class="cls-3" d="M44.75,38.26h.05a.12.12,0,0,0,0-.24h-.05a.12.12,0,0,0,0,.24Z"/><path class="cls-3" d="M45.51,37.79v0a.12.12,0,0,0-.24,0v0a.12.12,0,0,0,.24,0Z"/><path class="cls-3" d="M45.53,38.58a.12.12,0,0,0,0-.24.12.12,0,0,0,0,.24Z"/><path class="cls-3" d="M46.28,38l.08,0,0,0s0,0,0,0l-.06,0h0a.12.12,0,0,0,.12-.12.12.12,0,0,0-.12-.12l-.08,0,0,0s0,0,0,0l.06,0h0a.12.12,0,0,0-.12.12.12.12,0,0,0,.12.12Z"/><path class="cls-3" d="M49.74,40a.12.12,0,0,0,0-.24.12.12,0,0,0,0,.24Z"/><path class="cls-3" d="M47.11,38.71a.12.12,0,0,0,0-.24.12.12,0,0,0,0,.24Z"/><path class="cls-3" d="M46.81,38.79a.12.12,0,0,0,0-.24.12.12,0,0,0,0,.24Z"/><path class="cls-3" d="M46.09,38.5a.12.12,0,0,0,0-.24.12.12,0,0,0,0,.24Z"/><path class="cls-3" d="M48.24,39.26a.12.12,0,0,0,0-.24.12.12,0,0,0,0,.24Z"/><path class="cls-3" d="M47.05,38.23a.12.12,0,0,0,0-.24.12.12,0,0,0,0,.24Z"/><path class="cls-3" d="M48.78,39.66a.12.12,0,0,0,0-.24.12.12,0,0,0,0,.24Z"/><path class="cls-3" d="M44.22,38.9a.12.12,0,0,0,0-.24.12.12,0,0,0,0,.24Z"/><path class="cls-3" d="M45.23,39a.12.12,0,0,0,0-.24.12.12,0,0,0,0,.24Z"/><path class="cls-3" d="M44.8,38.85a.12.12,0,0,0,0-.24.12.12,0,0,0,0,.24Z"/><path class="cls-3" d="M43.1,40.55h.13s0,0,0,0a.12.12,0,0,0,.12-.12.12.12,0,0,0-.12-.12H43.1a.12.12,0,1,0,0,.24Z"/><path class="cls-3" d="M47,39.28A.12.12,0,0,0,47,39a.12.12,0,0,0,0,.24Z"/><path class="cls-3" d="M46.14,39a.12.12,0,0,0,0-.24.12.12,0,0,0,0,.24Z"/><path class="cls-3" d="M47.45,39.52H47.4a.12.12,0,0,0,0,.24h.05a.12.12,0,0,0,0-.24Z"/><path class="cls-3" d="M46.68,39.86a.12.12,0,0,0,0-.24.12.12,0,0,0,0,.24Z"/><path class="cls-3" d="M47.84,39.58a.12.12,0,0,0,0-.24.12.12,0,0,0,0,.24Z"/><path class="cls-3" d="M49.1,39.48a.12.12,0,0,0,0-.24.12.12,0,0,0,0,.24Z"/><path class="cls-3" d="M49.42,39.9a.12.12,0,0,0,0-.24.12.12,0,0,0,0,.24Z"/><path class="cls-3" d="M48.31,38.36a.12.12,0,0,0,0-.24.12.12,0,0,0,0,.24Z"/><path class="cls-3" d="M45.42,39.41a.12.12,0,0,0,0-.24.12.12,0,0,0,0,.24Z"/><path class="cls-3" d="M44.75,40.14a.12.12,0,0,0,0-.24.12.12,0,0,0,0,.24Z"/><path class="cls-3" d="M44.78,39.41a.12.12,0,0,0,0-.24.12.12,0,0,0,0,.24Z"/><path class="cls-3" d="M44.3,38.23a.12.12,0,0,0,0-.24.12.12,0,0,0,0,.24Z"/><path class="cls-3" d="M43.92,38.85a.12.12,0,0,0,0-.24.12.12,0,0,0,0,.24Z"/><path class="cls-3" d="M43.47,39.81a.12.12,0,0,0,0-.24.12.12,0,0,0,0,.24Z"/><path class="cls-3" d="M44.3,39.38a.12.12,0,0,0,0-.24.12.12,0,0,0,0,.24Z"/><path class="cls-3" d="M42.86,39.81a.12.12,0,0,0,0-.24.12.12,0,0,0,0,.24Z"/><path class="cls-3" d="M48,38.9a.12.12,0,0,0,0-.24.12.12,0,0,0,0,.24Z"/><path class="cls-3" d="M43.64,42.65a.12.12,0,0,0,0-.24.12.12,0,0,0,0,.24Z"/><path class="cls-3" d="M45.92,43.3a.28.28,0,0,0,.09.19.12.12,0,0,0,.17-.17h0v0s0,0,0,0a.12.12,0,1,0-.24,0Z"/><path class="cls-3" d="M46.25,44h.05a.12.12,0,0,0,0-.24h-.05a.12.12,0,0,0,0,.24Z"/><path class="cls-3" d="M47,43.52v0a.12.12,0,0,0-.24,0v0a.12.12,0,0,0,.24,0Z"/><path class="cls-3" d="M47,44.31a.12.12,0,0,0,0-.24.12.12,0,0,0,0,.24Z"/><path class="cls-3" d="M47.78,43.77l.08,0,0,0s0,0,0,0l-.06,0h0a.12.12,0,0,0,.12-.12.12.12,0,0,0-.12-.12l-.08,0,0,0s0,0,0,0l.06,0h0a.12.12,0,0,0-.12.12.12.12,0,0,0,.12.12Z"/><path class="cls-3" d="M48.61,43.4a.12.12,0,0,0,0-.24.12.12,0,0,0,0,.24Z"/><path class="cls-3" d="M49.32,42.59a.12.12,0,0,0,0-.24.12.12,0,0,0,0,.24Z"/><path class="cls-3" d="M48.31,44.52a.12.12,0,0,0,0-.24.12.12,0,0,0,0,.24Z"/><path class="cls-3" d="M47.59,44.23a.12.12,0,0,0,0-.24.12.12,0,0,0,0,.24Z"/><path class="cls-3" d="M47.11,42.65a.12.12,0,0,0,0-.24.12.12,0,0,0,0,.24Z"/><path class="cls-3" d="M48.55,44a.12.12,0,0,0,0-.24.12.12,0,0,0,0,.24Z"/><path class="cls-3" d="M47.64,43a.12.12,0,0,0,0-.24.12.12,0,0,0,0,.24Z"/><path class="cls-3" d="M45.72,44.63a.12.12,0,0,0,0-.24.12.12,0,0,0,0,.24Z"/><path class="cls-3" d="M46.73,44.68a.12.12,0,0,0,0-.24.12.12,0,0,0,0,.24Z"/><path class="cls-3" d="M46.3,44.58a.12.12,0,0,0,0-.24.12.12,0,0,0,0,.24Z"/><path class="cls-3" d="M49,40.71h.13s0,0,0,0a.12.12,0,0,0,.12-.12.12.12,0,0,0-.12-.12H49a.12.12,0,1,0,0,.24Z"/><path class="cls-3" d="M43,41.68a.12.12,0,0,0,0-.24.12.12,0,0,0,0,.24Z"/><path class="cls-3" d="M47.64,44.68a.12.12,0,0,0,0-.24.12.12,0,0,0,0,.24Z"/><path class="cls-3" d="M49.82,40.83h-.05a.12.12,0,0,0,0,.24h.05a.12.12,0,0,0,0-.24Z"/><path class="cls-3" d="M49,41.18a.12.12,0,0,0,0-.24.12.12,0,0,0,0,.24Z"/><path class="cls-3" d="M46.71,43a.12.12,0,0,0,0-.24.12.12,0,0,0,0,.24Z"/><path class="cls-3" d="M48,42.86a.12.12,0,0,0,0-.24.12.12,0,0,0,0,.24Z"/><path class="cls-3" d="M48.28,43.29a.12.12,0,0,0,0-.24.12.12,0,0,0,0,.24Z"/><path class="cls-3" d="M48.66,42.54a.12.12,0,0,0,0-.24.12.12,0,0,0,0,.24Z"/><path class="cls-3" d="M47.79,40.72a.12.12,0,0,0,0-.24.12.12,0,0,0,0,.24Z"/><path class="cls-3" d="M46.93,41.12a.12.12,0,0,0,0-.24.12.12,0,0,0,0,.24Z"/><path class="cls-3" d="M47.15,40.72a.12.12,0,0,0,0-.24.12.12,0,0,0,0,.24Z"/><path class="cls-3" d="M45.8,44a.12.12,0,0,0,0-.24.12.12,0,0,0,0,.24Z"/><path class="cls-3" d="M45.42,44.58a.12.12,0,0,0,0-.24.12.12,0,0,0,0,.24Z"/><path class="cls-3" d="M45.8,41.28a.12.12,0,0,0,0-.24.12.12,0,0,0,0,.24Z"/><path class="cls-3" d="M46.67,40.69a.12.12,0,0,0,0-.24.12.12,0,0,0,0,.24Z"/><path class="cls-3" d="M44.8,43.93a.12.12,0,0,0,0-.24.12.12,0,0,0,0,.24Z"/><path class="cls-3" d="M45.63,43.13a.12.12,0,0,0,0-.24.12.12,0,0,0,0,.24Z"/><path class="cls-3" d="M45.39,43.72a.12.12,0,0,0,0-.24.12.12,0,0,0,0,.24Z"/><path class="cls-3" d="M44.27,42.29a.27.27,0,0,0,.09.19.12.12,0,0,0,.17-.17h0v0s0,0,0,0a.12.12,0,1,0-.24,0Z"/><path class="cls-3" d="M44.6,43h.05a.12.12,0,0,0,0-.24H44.6a.12.12,0,0,0,0,.24Z"/><path class="cls-3" d="M44.15,44a.12.12,0,0,0,0-.24.12.12,0,0,0,0,.24Z"/><path class="cls-3" d="M44.66,43.56a.12.12,0,0,0,0-.24.12.12,0,0,0,0,.24Z"/><path class="cls-3" d="M44.15,42.94a.12.12,0,0,0,0-.24.12.12,0,0,0,0,.24Z"/><path class="cls-3" d="M43.77,43.56a.12.12,0,0,0,0-.24.12.12,0,0,0,0,.24Z"/><path class="cls-3" d="M43.16,42.92a.12.12,0,0,0,0-.24.12.12,0,0,0,0,.24Z"/><path class="cls-3" d="M44,42.11a.12.12,0,0,0,0-.24.12.12,0,0,0,0,.24Z"/><path class="cls-3" d="M43.47,42a.12.12,0,0,0,0-.24.12.12,0,0,0,0,.24Z"/><path class="cls-12" d="M46.28,37.11c.05-.14.14-.14.2,0s.15.15.22,0,.16-.13.2,0,.14.16.22,0,.17-.11.19,0,.12.18.22.06.18-.09.19.06.1.19.21.08.19-.07.18.08.08.2.2.1.19-.05.17.1.06.2.19.12.2,0,.16.12,0,.21.17.14.2,0,.15.13,0,.21.16.16.2,0,.13.15,0,.21.14.17.2,0,.12.16,0,.21.12.19.19.05.1.17,0,.21.1.2.19.07.08.18-.07.2.08.21.18.09.06.19-.09.19.06.22.17.11,0,.19-.11.18,0,.22.16.13,0,.2-.13.17,0,.22.14.14,0,.2-.15.15,0,.22.13.16,0,.2-.16.14,0,.22.11.17,0,.19-.18.12-.06.22.09.18-.06.19-.19.1-.08.21.07.19-.08.18-.2.08-.1.2.05.19-.1.17-.2.06-.12.19,0,.2-.12.16-.21,0-.14.17,0,.2-.13.15-.21,0-.16.16,0,.2-.15.13-.21,0-.17.14,0,.2-.16.12-.21,0-.19.12-.05.19-.17.1-.21,0-.2.1-.07.19-.18.08-.2-.07-.21.08-.09.18-.19.06-.19-.09-.22.06-.11.17-.19,0-.18-.11-.22,0-.13.16-.2,0-.17-.13-.22,0-.14.14-.2,0-.15-.15-.22,0-.16.13-.2,0-.14-.16-.22,0-.17.11-.19,0-.12-.18-.22-.06-.18.09-.19-.06-.1-.19-.21-.08-.19.07-.18-.08-.08-.2-.2-.1-.19.05-.17-.1-.06-.2-.19-.12-.2,0-.16-.12,0-.21-.17-.14-.2,0-.15-.13,0-.21-.16-.16-.2,0-.13-.15,0-.21-.14-.17-.2,0-.12-.16,0-.21-.12-.19-.19-.05-.1-.17,0-.21-.1-.2-.19-.07-.08-.18.07-.2-.08-.21-.18-.09-.06-.19.09-.19-.06-.22-.17-.11,0-.19.11-.18,0-.22-.16-.13,0-.2.13-.17,0-.22-.14-.14,0-.2.15-.15,0-.22-.13-.16,0-.2.16-.14,0-.22-.11-.17,0-.19.18-.12.06-.22-.09-.18.06-.19.19-.1.08-.21-.07-.19.08-.18.2-.08.1-.2S42.81,39,43,39s.2-.06.12-.19,0-.2.12-.16.21,0,.14-.17,0-.2.13-.15.21,0,.16-.16,0-.2.15-.13.21,0,.17-.14,0-.2.16-.12.21,0,.19-.12.05-.19.17-.1.21,0,.2-.1.07-.19.18-.08.2.07.21-.08.09-.18.19-.06.19.09.22-.06.11-.17.19,0,.18.11.22,0,.13-.16.2,0S46.23,37.25,46.28,37.11Z"/><path class="cls-13" d="M47.55,41.63a.65.65,0,0,0,0-1.31.65.65,0,0,0,0,1.31Z"/><path class="cls-14" d="M45,40.24a.65.65,0,0,0,0-1.31.65.65,0,0,0,0,1.31Z"/><path class="cls-15" d="M44.77,43.57a.65.65,0,0,0,0-1.31.65.65,0,0,0,0,1.31Z"/><path class="cls-16" d="M48,43.63a.65.65,0,0,0,0-1.31.65.65,0,0,0,0,1.31Z"/><path class="cls-17" d="M47.09,39.66a.5.5,0,0,0,0-1,.5.5,0,0,0,0,1Z"/><path class="cls-18" d="M43.76,41.74a.4.4,0,1,0,0-.81.4.4,0,1,0,0,.81Z"/><path class="cls-19" d="M46.3,44.1a.4.4,0,1,0,0-.81.4.4,0,1,0,0,.81Z"/><path class="cls-3" d="M26.58,38.61a.18.18,0,0,0,.06.13.08.08,0,0,0,.11-.11h0s0,0,0,0a.08.08,0,0,0-.16,0Z"/><path class="cls-3" d="M26.8,39.07h0a.08.08,0,0,0,0-.16h0a.08.08,0,0,0,0,.16Z"/><path class="cls-3" d="M27.3,38.75v0a.08.08,0,0,0-.16,0v0a.08.08,0,0,0,.16,0Z"/><path class="cls-3" d="M27.31,39.28a.08.08,0,0,0,0-.16.08.08,0,0,0,0,.16Z"/><path class="cls-3" d="M28.79,39.54h.05l0,0s0,0,0,0h0a.08.08,0,0,0,.08-.08.08.08,0,0,0-.08-.08h-.05l0,0s0,0,0,0h0a.08.08,0,0,0-.08.08.08.08,0,0,0,.08.08Z"/><path class="cls-3" d="M28.36,38.67a.08.08,0,0,0,0-.16.08.08,0,0,0,0,.16Z"/><path class="cls-3" d="M28.36,39.37a.08.08,0,0,0,0-.16.08.08,0,0,0,0,.16Z"/><path class="cls-3" d="M28.17,39.42a.08.08,0,0,0,0-.16.08.08,0,0,0,0,.16Z"/><path class="cls-3" d="M27.69,39.23a.08.08,0,0,0,0-.16.08.08,0,0,0,0,.16Z"/><path class="cls-3" d="M27.37,38.18a.08.08,0,0,0,0-.16.08.08,0,0,0,0,.16Z"/><path class="cls-3" d="M28.33,39a.08.08,0,0,0,0-.16.08.08,0,0,0,0,.16Z"/><path class="cls-3" d="M27.72,38.44a.08.08,0,0,0,0-.16.08.08,0,0,0,0,.16Z"/><path class="cls-3" d="M26.39,39.37a.08.08,0,0,0,0-.16.08.08,0,0,0,0,.16Z"/><path class="cls-3" d="M27.29,39.65a.08.08,0,0,0,0-.16.08.08,0,0,0,0,.16Z"/><path class="cls-3" d="M26.83,39.46a.08.08,0,0,0,0-.16.08.08,0,0,0,0,.16Z"/><path class="cls-3" d="M27.54,40h.09s0,0,0,0a.08.08,0,0,0,.08-.08.08.08,0,0,0-.08-.08h-.09a.08.08,0,0,0,0,.16Z"/><path class="cls-3" d="M28.27,39.74a.08.08,0,0,0,0-.16.08.08,0,0,0,0,.16Z"/><path class="cls-3" d="M27.72,39.53a.08.08,0,0,0,0-.16.08.08,0,0,0,0,.16Z"/><path class="cls-3" d="M28.59,39.9h0a.08.08,0,0,0,0,.16h0a.08.08,0,0,0,0-.16Z"/><path class="cls-3" d="M29.58,39.65a.08.08,0,0,0,0-.16.08.08,0,0,0,0,.16Z"/><path class="cls-3" d="M27.1,38.39a.08.08,0,0,0,0-.16.08.08,0,0,0,0,.16Z"/><path class="cls-3" d="M27.94,38.32a.08.08,0,0,0,0-.16.08.08,0,0,0,0,.16Z"/><path class="cls-3" d="M28.15,38.6a.08.08,0,0,0,0-.16.08.08,0,0,0,0,.16Z"/><path class="cls-3" d="M28.4,38.11a.08.08,0,0,0,0-.16.08.08,0,0,0,0,.16Z"/><path class="cls-3" d="M27.24,40.1a.08.08,0,0,0,0-.16.08.08,0,0,0,0,.16Z"/><path class="cls-3" d="M26.67,40.1a.08.08,0,0,0,0-.16.08.08,0,0,0,0,.16Z"/><path class="cls-3" d="M26.84,39.88a.08.08,0,0,0,0-.16.08.08,0,0,0,0,.16Z"/><path class="cls-3" d="M26.5,39a.08.08,0,0,0,0-.16.08.08,0,0,0,0,.16Z"/><path class="cls-3" d="M26,39.42a.08.08,0,0,0,0-.16.08.08,0,0,0,0,.16Z"/><path class="cls-3" d="M25.42,39.15a.08.08,0,0,0,0-.16.08.08,0,0,0,0,.16Z"/><path class="cls-3" d="M26.5,39.81a.08.08,0,0,0,0-.16.08.08,0,0,0,0,.16Z"/><path class="cls-3" d="M26,39.07a.08.08,0,0,0,0-.16.08.08,0,0,0,0,.16Z"/><path class="cls-3" d="M25.79,38.42a.08.08,0,0,0,0-.16.08.08,0,0,0,0,.16Z"/><path class="cls-3" d="M26.1,38.67a.08.08,0,0,0,0-.16.08.08,0,0,0,0,.16Z"/><path class="cls-3" d="M28.91,38.35a.18.18,0,0,0,.06.13.08.08,0,0,0,.11-.11h0s0,0,0,0a.08.08,0,0,0-.16,0Z"/><path class="cls-3" d="M26.4,37.25h0a.08.08,0,0,0,0-.16h0a.08.08,0,0,0,0,.16Z"/><path class="cls-3" d="M26.9,36.94v0a.08.08,0,0,0-.16,0v0a.08.08,0,0,0,.16,0Z"/><path class="cls-3" d="M26.91,37.47a.08.08,0,0,0,0-.16.08.08,0,0,0,0,.16Z"/><path class="cls-3" d="M27.41,37.11h.05l0,0s0,0,0,0h0a.08.08,0,0,0,.08-.08.08.08,0,0,0-.08-.08H27.4l0,0s0,0,0,0h0a.08.08,0,0,0-.08.08.08.08,0,0,0,.08.08Z"/><path class="cls-3" d="M29.71,38.42a.08.08,0,0,0,0-.16.08.08,0,0,0,0,.16Z"/><path class="cls-3" d="M28,37.55a.08.08,0,0,0,0-.16.08.08,0,0,0,0,.16Z"/><path class="cls-3" d="M27.77,37.61a.08.08,0,0,0,0-.16.08.08,0,0,0,0,.16Z"/><path class="cls-3" d="M27.29,37.41a.08.08,0,0,0,0-.16.08.08,0,0,0,0,.16Z"/><path class="cls-3" d="M28.72,37.92a.08.08,0,0,0,0-.16.08.08,0,0,0,0,.16Z"/><path class="cls-3" d="M27.93,37.24a.08.08,0,0,0,0-.16.08.08,0,0,0,0,.16Z"/><path class="cls-3" d="M29.07,38.19a.08.08,0,0,0,0-.16.08.08,0,0,0,0,.16Z"/><path class="cls-3" d="M26,37.68a.08.08,0,0,0,0-.16.08.08,0,0,0,0,.16Z"/><path class="cls-3" d="M26.72,37.71a.08.08,0,0,0,0-.16.08.08,0,0,0,0,.16Z"/><path class="cls-3" d="M26.43,37.64a.08.08,0,0,0,0-.16.08.08,0,0,0,0,.16Z"/><path class="cls-3" d="M25.3,38.77h.09s0,0,0,0a.08.08,0,0,0,.08-.08.08.08,0,0,0-.08-.08H25.3a.08.08,0,0,0,0,.16Z"/><path class="cls-3" d="M27.87,37.93a.08.08,0,0,0,0-.16.08.08,0,0,0,0,.16Z"/><path class="cls-3" d="M27.32,37.71a.08.08,0,0,0,0-.16.08.08,0,0,0,0,.16Z"/><path class="cls-3" d="M28.19,38.09h0a.08.08,0,0,0,0,.16h0a.08.08,0,0,0,0-.16Z"/><path class="cls-3" d="M27.68,38.32a.08.08,0,0,0,0-.16.08.08,0,0,0,0,.16Z"/><path class="cls-3" d="M28.45,38.13a.08.08,0,0,0,0-.16.08.08,0,0,0,0,.16Z"/><path class="cls-3" d="M29.29,38.06a.08.08,0,0,0,0-.16.08.08,0,0,0,0,.16Z"/><path class="cls-3" d="M29.5,38.35a.08.08,0,0,0,0-.16.08.08,0,0,0,0,.16Z"/><path class="cls-3" d="M28.76,37.32a.08.08,0,0,0,0-.16.08.08,0,0,0,0,.16Z"/><path class="cls-3" d="M26.84,38a.08.08,0,0,0,0-.16.08.08,0,0,0,0,.16Z"/><path class="cls-3" d="M26.4,38.51a.08.08,0,0,0,0-.16.08.08,0,0,0,0,.16Z"/><path class="cls-3" d="M26.42,38a.08.08,0,0,0,0-.16.08.08,0,0,0,0,.16Z"/><path class="cls-3" d="M26.1,37.24a.08.08,0,0,0,0-.16.08.08,0,0,0,0,.16Z"/><path class="cls-3" d="M25.85,37.64a.08.08,0,0,0,0-.16.08.08,0,0,0,0,.16Z"/><path class="cls-3" d="M25.54,38.28a.08.08,0,0,0,0-.16.08.08,0,0,0,0,.16Z"/><path class="cls-3" d="M26.1,38a.08.08,0,0,0,0-.16.08.08,0,0,0,0,.16Z"/><path class="cls-3" d="M25.14,38.28a.08.08,0,0,0,0-.16.08.08,0,0,0,0,.16Z"/><path class="cls-3" d="M28.56,37.68a.08.08,0,0,0,0-.16.08.08,0,0,0,0,.16Z"/><path class="cls-3" d="M25.66,40.17a.08.08,0,0,0,0-.16.08.08,0,0,0,0,.16Z"/><path class="cls-3" d="M27.17,40.6a.18.18,0,0,0,.06.13.08.08,0,0,0,.11-.11h0s0,0,0,0a.08.08,0,1,0-.16,0Z"/><path class="cls-3" d="M27.39,41.06h0a.08.08,0,0,0,0-.16h0a.08.08,0,0,0,0,.16Z"/><path class="cls-3" d="M27.9,40.75v0a.08.08,0,0,0-.16,0v0a.08.08,0,0,0,.16,0Z"/><path class="cls-3" d="M27.91,41.27a.08.08,0,0,0,0-.16.08.08,0,0,0,0,.16Z"/><path class="cls-3" d="M28.41,40.91h.05l0,0s0,0,0,0h0a.08.08,0,0,0,.08-.08.08.08,0,0,0-.08-.08h-.05l0,0s0,0,0,0h0a.08.08,0,0,0-.08.08.08.08,0,0,0,.08.08Z"/><path class="cls-3" d="M29,40.67a.08.08,0,0,0,0-.16.08.08,0,0,0,0,.16Z"/><path class="cls-3" d="M29.43,40.13a.08.08,0,0,0,0-.16.08.08,0,0,0,0,.16Z"/><path class="cls-3" d="M28.76,41.41a.08.08,0,0,0,0-.16.08.08,0,0,0,0,.16Z"/><path class="cls-3" d="M28.28,41.22a.08.08,0,0,0,0-.16.08.08,0,0,0,0,.16Z"/><path class="cls-3" d="M28,40.17A.08.08,0,0,0,28,40a.08.08,0,0,0,0,.16Z"/><path class="cls-3" d="M28.92,41a.08.08,0,0,0,0-.16.08.08,0,0,0,0,.16Z"/><path class="cls-3" d="M28.32,40.43a.08.08,0,0,0,0-.16.08.08,0,0,0,0,.16Z"/><path class="cls-3" d="M27,41.48a.08.08,0,0,0,0-.16.08.08,0,0,0,0,.16Z"/><path class="cls-3" d="M27.71,41.52a.08.08,0,0,0,0-.16.08.08,0,0,0,0,.16Z"/><path class="cls-3" d="M27.43,41.45a.08.08,0,0,0,0-.16.08.08,0,0,0,0,.16Z"/><path class="cls-3" d="M29.24,38.88h.09s0,0,0,0a.08.08,0,0,0,.08-.08.08.08,0,0,0-.08-.08h-.09a.08.08,0,1,0,0,.16Z"/><path class="cls-3" d="M25.22,39.53a.08.08,0,0,0,0-.16.08.08,0,0,0,0,.16Z"/><path class="cls-3" d="M28.32,41.52a.08.08,0,0,0,0-.16.08.08,0,0,0,0,.16Z"/><path class="cls-3" d="M29.77,39h0a.08.08,0,0,0,0,.16h0a.08.08,0,0,0,0-.16Z"/><path class="cls-3" d="M29.25,39.19a.08.08,0,0,0,0-.16.08.08,0,0,0,0,.16Z"/><path class="cls-3" d="M27.7,40.38a.08.08,0,0,0,0-.16.08.08,0,0,0,0,.16Z"/><path class="cls-3" d="M28.53,40.31a.08.08,0,0,0,0-.16.08.08,0,0,0,0,.16Z"/><path class="cls-3" d="M28.74,40.59a.08.08,0,0,0,0-.16.08.08,0,0,0,0,.16Z"/><path class="cls-3" d="M29,40.1a.08.08,0,0,0,0-.16.08.08,0,0,0,0,.16Z"/><path class="cls-3" d="M28.41,38.89a.08.08,0,0,0,0-.16.08.08,0,0,0,0,.16Z"/><path class="cls-3" d="M27.85,39.15a.08.08,0,0,0,0-.16.08.08,0,0,0,0,.16Z"/><path class="cls-3" d="M28,38.89a.08.08,0,0,0,0-.16.08.08,0,0,0,0,.16Z"/><path class="cls-3" d="M27.09,41a.08.08,0,0,0,0-.16.08.08,0,0,0,0,.16Z"/><path class="cls-3" d="M26.84,41.45a.08.08,0,0,0,0-.16.08.08,0,0,0,0,.16Z"/><path class="cls-3" d="M27.09,39.26a.08.08,0,0,0,0-.16.08.08,0,0,0,0,.16Z"/><path class="cls-3" d="M27.67,38.87a.08.08,0,0,0,0-.16.08.08,0,0,0,0,.16Z"/><path class="cls-3" d="M26.43,41a.08.08,0,0,0,0-.16.08.08,0,0,0,0,.16Z"/><path class="cls-3" d="M27,40.49a.08.08,0,0,0,0-.16.08.08,0,0,0,0,.16Z"/><path class="cls-3" d="M26.82,40.88a.08.08,0,0,0,0-.16.08.08,0,0,0,0,.16Z"/><path class="cls-3" d="M26.08,39.93a.18.18,0,0,0,.06.13.08.08,0,0,0,.11-.11h0s0,0,0,0a.08.08,0,1,0-.16,0Z"/><path class="cls-3" d="M26.3,40.38h0a.08.08,0,0,0,0-.16h0a.08.08,0,0,0,0,.16Z"/><path class="cls-3" d="M26,41.06a.08.08,0,0,0,0-.16.08.08,0,0,0,0,.16Z"/><path class="cls-3" d="M26.34,40.77a.08.08,0,0,0,0-.16.08.08,0,0,0,0,.16Z"/><path class="cls-3" d="M26,40.36a.08.08,0,0,0,0-.16.08.08,0,0,0,0,.16Z"/><path class="cls-3" d="M25.75,40.77a.08.08,0,0,0,0-.16.08.08,0,0,0,0,.16Z"/><path class="cls-3" d="M25.34,40.35a.08.08,0,0,0,0-.16.08.08,0,0,0,0,.16Z"/><path class="cls-3" d="M25.89,39.81a.08.08,0,0,0,0-.16.08.08,0,0,0,0,.16Z"/><path class="cls-3" d="M25.54,39.74a.08.08,0,0,0,0-.16.08.08,0,0,0,0,.16Z"/><path class="cls-20" d="M27.42,36.49c0-.09.09-.09.13,0s.1.1.15,0,.1-.08.13,0,.09.11.15,0,.11-.07.13,0,.08.12.14,0,.12-.06.12,0,.07.12.14.05.12,0,.12.05.05.13.13.07.13,0,.11.07,0,.14.12.08.13,0,.11.08,0,.14.12.09.13,0,.1.09,0,.14.1.1.13,0,.09.1,0,.14.09.12.13,0,.08.11,0,.14.08.12.13,0,.07.11,0,.14.07.13.12,0,.05.12,0,.13.05.14.12.06,0,.12-.06.13,0,.14.11.07,0,.13-.07.12,0,.15.1.08,0,.13-.09.11,0,.15.09.09,0,.13-.1.1,0,.15.08.1,0,.13-.11.09,0,.15.07.11,0,.13-.12.08,0,.14.06.12,0,.12-.12.07-.05.14,0,.12-.05.12-.13.05-.07.13,0,.13-.07.11-.14,0-.08.12,0,.13-.08.11-.14,0-.09.12,0,.13-.09.1-.14,0-.1.1,0,.13-.1.09-.14,0-.12.09,0,.13-.11.08-.14,0-.12.08,0,.13-.11.07-.14,0-.13.07,0,.12-.12.05-.13,0-.14.05-.06.12-.12,0-.13-.06-.14,0-.07.11-.13,0-.12-.07-.15,0-.08.1-.13,0-.11-.09-.15,0-.09.09-.13,0-.1-.1-.15,0-.1.08-.13,0-.09-.11-.15,0-.11.07-.13,0-.08-.12-.14,0-.12.06-.12,0-.07-.12-.14-.05-.12,0-.12-.05-.05-.13-.13-.07-.13,0-.11-.07,0-.14-.12-.08-.13,0-.11-.08,0-.14-.12-.09-.13,0-.1-.09,0-.14-.1-.1-.13,0-.09-.1,0-.14-.09-.12-.13,0-.08-.11,0-.14-.08-.12-.13,0-.07-.11,0-.14-.07-.13-.12,0-.05-.12,0-.13-.05-.14-.12-.06,0-.12.06-.13,0-.14-.11-.07,0-.13.07-.12,0-.15-.1-.08,0-.13.09-.11,0-.15-.09-.09,0-.13.1-.1,0-.15-.08-.1,0-.13.11-.09,0-.15-.07-.11,0-.13.12-.08,0-.14-.06-.12,0-.12.12-.07.05-.14,0-.12.05-.12.13-.05.07-.13,0-.13.07-.11.14,0,.08-.12,0-.13.08-.11.14,0,.09-.12,0-.13.09-.1.14,0,.1-.1,0-.13.1-.09.14,0,.12-.09,0-.13.11-.08.14,0,.12-.08,0-.13.11-.07.14,0,.13-.07,0-.12.12-.05.13,0,.14-.05.06-.12.12,0,.13.06.14,0,.07-.11.13,0,.12.07.15,0,.08-.1.13,0S27.38,36.58,27.42,36.49Z"/><path class="cls-21" d="M28.26,39.49a.43.43,0,0,0,0-.87.43.43,0,0,0,0,.87Z"/><path class="cls-22" d="M26.57,38.57a.43.43,0,0,0,0-.87.43.43,0,0,0,0,.87Z"/><path class="cls-23" d="M26.41,40.78a.43.43,0,0,0,0-.87.43.43,0,0,0,0,.87Z"/><path class="cls-24" d="M28.56,40.82a.43.43,0,0,0,0-.87.43.43,0,0,0,0,.87Z"/><path class="cls-25" d="M28,38.18a.33.33,0,0,0,0-.67.33.33,0,0,0,0,.67Z"/><path class="cls-26" d="M25.74,39.56a.27.27,0,1,0,0-.54.27.27,0,1,0,0,.54Z"/><path class="cls-27" d="M27.43,41.13a.27.27,0,1,0,0-.54.27.27,0,1,0,0,.54Z"/></g></svg>