<svg xmlns="http://www.w3.org/2000/svg" viewBox="0 0 39 39.97"><defs><style>.cls-1{fill:#4db2e5;}</style></defs><title>timer</title><g id="Layer_2" data-name="Layer 2"><path class="cls-1" d="M20.9,16.31l-.05-.18A.93.93,0,0,1,21.53,15l6.75-1.7a1.05,1.05,0,0,1,1.25.69l.05.18a.93.93,0,0,1-.68,1.18L22.16,17A1.05,1.05,0,0,1,20.9,16.31Z"/><path class="cls-1" d="M21.1,20.36a1.13,1.13,0,0,0,.33,0l8.48-2.14a1,1,0,0,0,.74-1.29,1.15,1.15,0,0,0-1.37-.75L21,18.23l-.07,0L9,14.25A1.19,1.19,0,0,0,7.5,15h0a1.19,1.19,0,0,0,.8,1.48l11.93,4A1.25,1.25,0,0,0,21.1,20.36Z"/><path class="cls-1" d="M17.69,26l-.15.11a.93.93,0,0,0-.16,1.35l4.4,5.4a1.05,1.05,0,0,0,1.42.2l.15-.11a.93.93,0,0,0,.16-1.35l-4.4-5.4A1.05,1.05,0,0,0,17.69,26Z"/><path class="cls-1" d="M20.26,22.87a1.13,1.13,0,0,1,.25.22L26,29.87a1,1,0,0,1-.17,1.48,1.15,1.15,0,0,1-1.55-.21l-5.38-6.6-.08,0-11.93-4a1.19,1.19,0,0,1-.8-1.48h0a1.19,1.19,0,0,1,1.52-.71l11.93,4A1.25,1.25,0,0,1,20.26,22.87Z"/></g></svg>