<svg xmlns="http://www.w3.org/2000/svg" viewBox="0 0 302.98 398.98"><defs><style>.cls-1{fill:#4aa8d7;}</style></defs><title>timer</title><g id="Layer_2" data-name="Layer 2"><path class="cls-1" d="M150,278.41c-49.4.83-45.18,95.33-45.18,95.33H22.47V252.81l-6.66-2.71,28.73-89.29,20.81,66.81.42-82.43-4.58-1.67L80.33,84.63l19.46,58.59-4.2,1.84v17.48h9.21v8.88h4.45V112.31h7.08V119h8.95v-6.66h4.65V75.4L125.29,74,150,13.24,174.69,74,170,75.4v36.91h4.65V119h9v-6.66h7.08v59.11h4.46v-8.88h9.21V145.06l-4.2-1.84,19.46-58.59,19.15,58.91-4.58,1.67.41,82.43,20.82-66.81,28.72,89.29-6.66,2.71V373.75H195.18S199.39,279.25,150,278.41Z"/></g></svg>