<svg xmlns="http://www.w3.org/2000/svg" viewBox="0 0 1552.04 1728"><defs><style>.cls-1{fill:#4db2e5;}.cls-12,.cls-14,.cls-17,.cls-18,.cls-2,.cls-3,.cls-6{fill:#fff;}.cls-12,.cls-14,.cls-15,.cls-16,.cls-17,.cls-2,.cls-3,.cls-5{stroke:#4db2e5;}.cls-12,.cls-14,.cls-15,.cls-16,.cls-17,.cls-18,.cls-2,.cls-3,.cls-5{stroke-miterlimit:10;}.cls-2{stroke-width:2.09px;}.cls-3,.cls-5{stroke-width:1.39px;}.cls-4{fill:#4aa8d7;}.cls-15,.cls-16,.cls-5{fill:none;}.cls-7{font-size:35.46px;font-family:MyriadPro-Regular, Myriad Pro;}.cls-8{letter-spacing:0.01em;}.cls-9{letter-spacing:-0.01em;}.cls-10{letter-spacing:0em;}.cls-11{letter-spacing:-0.01em;}.cls-12{stroke-width:1.94px;}.cls-13{fill:#4eb1e4;}.cls-14,.cls-15{stroke-width:1.87px;}.cls-16{stroke-width:1.44px;}.cls-17{stroke-width:2.11px;}.cls-18{stroke:#4eb1e4;stroke-width:2.14px;}</style></defs><title>timer</title><g id="Layer_2" data-name="Layer 2"><path class="cls-1" d="M773.42,1033.91l11.22,4.87h19.87l8.78-4.87,18.54,4.17s-2.09,60.5,0,69.54,9.5,52.85,18.66,89.7c-.58.7-43.23,13.21-106,0,1.16-22.95,14.32-91.09,14.32-91.09l-1.85-67.45Z"/><path class="cls-2" d="M753.25,1039.47s-11.13,4.17-25.73,62.58c0,1.39-15.87,28.51-15.87,28.51l11.94,7.65s21.31-27.12,24.79-33.38,8.53-25.73,8.53-25.73v-40.33Z"/><path class="cls-2" d="M836.38,1039.47s11.13,4.17,25.73,62.58c0,1.39,15.87,28.51,15.87,28.51L866,1138.22s-21.31-27.12-24.79-33.38-8.53-25.73-8.53-25.73v-40.33Z"/><path class="cls-3" d="M780.53,1020.19a12.22,12.22,0,0,1,0,9.73l-7.11,4s21.34,28.51,39.87,0c2.54,1.39-11.06-1.94-8.78-12.44C804.46,1021.48,788.27,1022.66,780.53,1020.19Z"/><path class="cls-4" d="M733.3,876.15S724,867,706.67,886.49c-8.34,8.34-4.17,40.88-4.17,40.88s-2.09,11.27-18.77,5.71c0,0,5.23,31.75,36.69,20,.87,2,19.19-62.47,19.19-62.47Z"/><path class="cls-4" d="M851.93,880.81s9.25-9.12,26.64,10.35c8.34,8.34,4.17,40.88,4.17,40.88s2.09,11.27,18.77,5.71c0,0-11.55,29.68-43,18-.87,2-12.87-60.4-12.87-60.4Z"/><path class="cls-3" d="M740.49,979.06s-5.75-6-5.75,4.39,9.7,15.94,9.7,15.94v-11Z"/><path class="cls-3" d="M849.59,979.06s5.75-6,5.75,4.39-9.7,15.94-9.7,15.94v-11Z"/><path class="cls-2" d="M794.65,1023.65s-5.78-.69-5.54-.92c-40.2-11.55-41.82-16.87-42.74-18.95s-4.16-15.48-5.78-20.33c-1.62-6-14.09-38.58-15.48-44.47-11.44-48.17,46-75.24,46-75.24s11.61-4.59,40.82-1.93c0,0,63.69,29,52.25,77.17-1.39,5.89-13.86,38.47-15.48,44.47-1.62,4.85-4.85,18.25-5.78,20.33s-2.54,7.39-42.74,18.95c.23.23-5.54.92-5.54.92"/><ellipse class="cls-1" cx="765.7" cy="972.59" rx="6.93" ry="8.32"/><path class="cls-5" d="M784.65,999.4s10.63,6,19.87,0"/><path class="cls-5" d="M770.32,942.32s-9.53-6.89-13.4,0"/><path class="cls-5" d="M827.85,942.32s-9.53-6.89-13.4,0"/><path class="cls-3" d="M761.54,968.44a12.41,12.41,0,0,1-4.62,0"/><ellipse class="cls-6" cx="767.32" cy="968.64" rx="2.54" ry="3.35"/><ellipse class="cls-1" cx="820.23" cy="972.59" rx="6.93" ry="8.32"/><path class="cls-3" d="M824.38,968.44a12.41,12.41,0,0,0,4.62,0"/><ellipse class="cls-6" cx="818.61" cy="968.64" rx="2.54" ry="3.35"/><path class="cls-1" d="M779.29,855.62c-9.89-.9-98.78,22.93-53.61,108.66,11.14,19.18,10.19,13.77,10.19,13.77l4.71,5.4S729,957,736.83,942.32c1.59.92,3.73,10.3,10,11.35,0,0-2.06-19.2,0-26.29s14.53,14.94,20.07,14.94c-.41-2.77.92-27.46.92-27.46a52,52,0,0,0,18.95,27.46l.7.92s.73-16.07,9.23-28.37c0,0,3,18.2,9.93,27.46l-.39.92s5-15.06,10.33-23.7c-.94,1.79,5.09,13.52,4.16,22.78l.11,7.17s14.3-11.9,10.28-22.12l1.19.22s7,13.56,6.1,27.12l.16,2.09s3.77,4.49,9.18-16c0,0,6.63,21,4.85,31.81C852.58,972.59,915.74,857.75,779.29,855.62Z"/><path class="cls-2" d="M711.66,1130.57s-9.45-.69-14.08,10c-.46,4.64,5.1,3.25,10.2,0,.93-.93,5.19.24,5.19.24s-3.34,3-3.8,4.86,1.39.93,10.2,0l4.24-7.42Z"/><path class="cls-2" d="M876.89,1130.57s9.45-.69,14.08,10c.46,4.64-5.1,3.25-10.2,0-.93-.93-5,2.35-5,2.35s3.12.89,3.58,2.75-1.39.93-10.2,0l-4.24-7.42Z"/><path class="cls-2" d="M769.76,1201.48s1.72,16,0,27.6c-2.65,21.79-4.63,17.62.77,43.11,1.68,2.32,6.32,33.84,5.86,38s-16.16,21.32,0,20.86,12,.46,13.41-17.15c-3.71-6-.46-41.26-2.78-72.78.46-7.88,4.62-38,4.62-38Z"/><path class="cls-2" d="M817.31,1201.48s-1.72,16,0,27.6c2.65,21.79,4.63,17.62-.77,43.11-1.68,2.32-6.32,33.84-5.86,38s16.16,21.32,0,20.86-12,.46-13.41-17.15c3.71-6,.46-41.26,2.78-72.78-.46-7.88-4.62-38-4.62-38Z"/><path class="cls-1" d="M775.28,1312.89s2.49,12.38,14.54,1c0,0-.32,14.41-1.32,15.27s-18,3.54-18.64,0S775.28,1312.89,775.28,1312.89Z"/><path class="cls-1" d="M812.22,1312.89s-2.49,12.38-14.54,1c0,0,.32,14.41,1.32,15.27s18,3.54,18.64,0S812.22,1312.89,812.22,1312.89Z"/><text class="cls-7" transform="translate(194.84 465.36)"><tspan class="cls-8">S</tspan><tspan class="cls-9" x="17.7" y="0">c</tspan><tspan x="33.37" y="0">ene 4: </tspan><tspan class="cls-10" x="129.16" y="0">R</tspan><tspan x="148.38" y="0">esu</tspan><tspan class="cls-11" x="199.73" y="0">r</tspan><tspan x="211.04" y="0">gen</tspan><tspan class="cls-9" x="268.31" y="0">c</tspan><tspan x="283.99" y="0">e</tspan></text><path class="cls-12" d="M240.06,990.88s17.31,26.5,15.59,33.46c-3.1,6.26-48.9,40.64-48.9,40.64l-6.09-17.74s15-10.16,23.37-19.31,2.44-5,2.44-5l-8.7-16.16,19.47-22.08Z"/><path class="cls-3" d="M184.66,829.61s-5.1-.6-5.1,9.79,12.07,15.94,12.07,15.94l-2.37-11Z"/><path class="cls-2" d="M125.6,1185.21s-5.45,10.48,0,89.76c-.12,0-9.16,15.3-9.16,15.3s-15.38,10.43-15.34,15.3,21.52,7.65,35.12,0a96.17,96.17,0,0,0,7.35-7.65l4.16-3.48s3.48-8.34,0-20.17c-2.09-4.87,5.86-58.84,3.28-85.74C149.82,1184.57,125.6,1185.21,125.6,1185.21Z"/><path class="cls-2" d="M181.57,1187.86s5.45,10.48,0,89.76c.12,0,9.16,15.3,9.16,15.3s15.38,10.43,15.34,15.3-21.52,7.65-35.12,0a96.17,96.17,0,0,1-7.35-7.65l-4.16-3.48s-3.48-8.34,0-20.17c2.09-4.87-5.86-58.84-3.28-85.74C157.35,1187.22,181.57,1187.86,181.57,1187.86Z"/><path class="cls-12" d="M72.72,990.88s-17.31,26.5-15.59,33.46C60.23,1030.6,106,1065,106,1065l6.09-17.74s-15-10.16-23.37-19.31-2.44-5-2.44-5l8.7-16.16L75.53,984.7Z"/><path class="cls-13" d="M74,871.52s-.27,22.18-6.92,25.62,15.65,17.59,24.38,14.53,0,8.51,0,8.51,18.5,3.69,28.39,1.85,57.93-1.85,57.93-1.85"/><path class="cls-13" d="M236,875.47s.27,18.75,6.92,21.66S227.24,912,218.51,909.41s0,7.2,0,7.2-18.5,3.12-28.39,1.56-57.93-1.56-57.93-1.56"/><path class="cls-14" d="M140.78,915.22s1.31,9.46,0,13.34c-3.11,0-10.07,4.07-10.07,4.07S147,943,156.45,943,182,931.09,182,931.09l-7.79-3.83,1.68-12"/><path class="cls-12" d="M80.77,857.59s-8-8.41-8,6.14S86.3,886,86.3,886V870.61Z"/><path class="cls-12" d="M233.42,857.59s8-8.41,8,6.14S227.89,886,227.89,886V870.61Z"/><path class="cls-12" d="M156.54,920s-8.08-1-7.76-1.29C92.53,902.53,90.27,895.09,89,892.18s-5.82-21.66-8.08-28.45c-2.26-8.41-19.72-54-21.66-62.23-16-67.4,64.38-105.27,64.38-105.27s16.25-6.42,57.11-2.7c0,0,89.12,40.58,73.11,108-1.94,8.24-19.4,53.82-21.66,62.23-2.26,6.79-6.79,25.54-8.08,28.45s-3.56,10.34-59.81,26.51c.32.32-7.76,1.29-7.76,1.29"/><ellipse class="cls-1" cx="114.75" cy="846.28" rx="7.81" ry="9.37"/><path class="cls-12" d="M110.23,842.72a17.37,17.37,0,0,1-6.47,0"/><ellipse class="cls-6" cx="118.3" cy="843.01" rx="3.56" ry="4.69"/><ellipse class="cls-1" cx="193.63" cy="846.04" rx="7.61" ry="9.14"/><path class="cls-12" d="M198.15,842.72a17.37,17.37,0,0,0,6.47,0"/><ellipse class="cls-6" cx="190.07" cy="843.01" rx="3.56" ry="4.69"/><line class="cls-15" x1="110.83" y1="824.28" x2="132.89" y2="837.57"/><line class="cls-15" x1="199.18" y1="824.28" x2="177.13" y2="837.57"/><path class="cls-16" d="M178.41,882.14s-32.62-2.35-42.61,1.51-2.49,21.7-2.49,21.7,18.54,13.7,46.41,3.6C182.7,907.65,197.86,882.14,178.41,882.14Z"/><path class="cls-13" d="M156.45,751.49l-16.5-10.83s-11.14,71.17-18.56,76.59c0,0,.42-15.47-6.7-28.62l-4.48,37.13s-3.45-19.34-7.46-27.08-11.22,34.59-3.21,42.44c0,0-13.27.11-20.26-6.85a84.45,84.45,0,0,0,7.83,20.29,30.73,30.73,0,0,1-18.83,0C57.85,851.29-4.67,675.05,156.45,687"/><path class="cls-13" d="M150.22,751.49l16.5-10.83s11.14,71.17,18.56,76.59c0,0-.42-15.47,6.7-28.62l4.48,37.13s3.45-19.34,7.46-27.08,11.22,34.59,3.21,42.44c0,0,13.27.11,20.26-6.85a84.45,84.45,0,0,1-7.83,20.29,30.73,30.73,0,0,0,18.83,0c10.42-3.27,72.95-179.51-88.18-167.6"/><path class="cls-12" d="M214.11,944.91c-2.08-5.16-34.29-13.82-34.29-13.82L155.6,943.7l-24.89-11.07c-2,0-32.35,8.41-33.62,12.28-1.73,5.29-32,41.32-32,41.32l34.3,27.69,5.39-10.93c2,8.86,4.48,22.94,4.48,22.94s1.31,5.24,2.2,10.81l-.16,13.42-10.06,29.32,109.07,2.84s-11.92-32.33-13-38.37l-1.06-6a135.13,135.13,0,0,1,2.6-13.61,117.56,117.56,0,0,0,5.07-17.61l13,4.82,31-25.28C248.93,988,216.32,950.39,214.11,944.91Z"/><path class="cls-17" d="M106.65,1071.13l-8.65-4c-4.17-1.91-2.29-15-.38-19.22l3.73-8.16c1.91-4.17,4.64-4.55,13.82-2.42l1.72.36a8.37,8.37,0,0,1,4.12,11.06l-7.47,16.32C111.63,1069.28,110.82,1073,106.65,1071.13Z"/><path class="cls-18" d="M110.3,969.06a37,37,0,0,0-5.56,33.93"/><path class="cls-18" d="M198.34,972.78a37,37,0,0,1,5.56,33.93"/><path class="cls-1" d="M102.05,1076.55S85.7,1121.35,110.3,1192c1.81,5.21,2.09,6.15,2.09,6.15l89.69-.93s19.07-82.33,6.09-120.69Z"/><path class="cls-1" d="M139.69,975.09l-.71,3h-3.43l4.22-14h4l4.22,14h-3.51l-.73-3Zm2-8.57-1.47,6.17h2.94Z"/><path class="cls-1" d="M158.2,970.27v7.83H155v-7.28c0-1.13-.38-1.43-1-1.43s-1.29.5-1.86,1.39v7.32H149V967.38h2.78l.22,1.27a4.08,4.08,0,0,1,3.27-1.61C157.09,967,158.2,968.23,158.2,970.27Z"/><path class="cls-1" d="M164.41,978.44c-2.36,0-3.51-1.35-3.51-3.87v-5h-1.51v-2.22h1.51v-2.32l3.19-.36v2.68h2.46l-.34,2.22h-2.12v4.92c0,1,.34,1.39,1,1.39a2.12,2.12,0,0,0,1.15-.36l1.07,2A5.31,5.31,0,0,1,164.41,978.44Z"/><path class="cls-1" d="M171.85,963.55a1.89,1.89,0,1,1-1.9-1.82A1.8,1.8,0,0,1,171.85,963.55Zm-3.47,14.54V967.38h3.19v10.71Z"/><path class="cls-1" d="M123.48,1002.29l-4-14h3.49l2.66,11.4,2.5-11.4h3.39l-3.89,14Z"/><path class="cls-1" d="M140.76,1000.5l-.67,2.08a2.68,2.68,0,0,1-2.58-1.55,3.6,3.6,0,0,1-3.23,1.61,3.24,3.24,0,0,1-3.49-3.35c0-2.34,1.78-3.61,5-3.61h1.09v-.46c0-1.27-.5-1.65-1.82-1.65a9.66,9.66,0,0,0-2.8.56l-.73-2.1a12.1,12.1,0,0,1,4-.79c3.11,0,4.44,1.31,4.44,3.79v4.15C140,1000,140.26,1000.31,140.76,1000.5Zm-3.85-1.17v-1.9h-.79c-1.45,0-2.16.5-2.16,1.57a1.2,1.2,0,0,0,1.25,1.35A1.91,1.91,0,0,0,136.91,999.33Z"/><path class="cls-1" d="M150.88,992.55l-1.39,1.92a3,3,0,0,0-2-.79c-1.37,0-2.16.93-2.16,3.33s.85,3.11,2.12,3.11a3,3,0,0,0,2-.79l1.45,2a5.57,5.57,0,0,1-3.61,1.27c-3.29,0-5.3-2.22-5.3-5.61s2-5.79,5.24-5.79A5.38,5.38,0,0,1,150.88,992.55Z"/><path class="cls-1" d="M160.34,992.55l-1.39,1.92a3,3,0,0,0-2-.79c-1.37,0-2.16.93-2.16,3.33s.85,3.11,2.12,3.11a3,3,0,0,0,2-.79l1.45,2a5.57,5.57,0,0,1-3.61,1.27c-3.29,0-5.3-2.22-5.3-5.61s2-5.79,5.24-5.79A5.38,5.38,0,0,1,160.34,992.55Z"/><path class="cls-1" d="M165.16,987.75a1.89,1.89,0,1,1-1.9-1.82A1.8,1.8,0,0,1,165.16,987.75Zm-3.47,14.54V991.58h3.19v10.71Z"/><path class="cls-1" d="M176.61,994.47v7.83h-3.19V995c0-1.13-.38-1.43-1-1.43s-1.29.5-1.86,1.39v7.32h-3.19V991.58h2.78l.22,1.27a4.08,4.08,0,0,1,3.27-1.61C175.5,991.24,176.61,992.43,176.61,994.47Z"/><path class="cls-1" d="M188.29,997.87h-6.64c.22,1.92,1.13,2.44,2.44,2.44a4.34,4.34,0,0,0,2.56-.95l1.31,1.78a6.59,6.59,0,0,1-4.18,1.49c-3.57,0-5.39-2.3-5.39-5.65s1.76-5.75,5-5.75c3.07,0,4.94,2,4.94,5.49A10.76,10.76,0,0,1,188.29,997.87Zm-3.07-2.06c0-1.45-.46-2.46-1.73-2.46-1.07,0-1.69.69-1.84,2.6h3.57Z"/><path class="cls-17" d="M203.36,1071.17l8.65-4c4.17-1.91,2.29-15,.38-19.22l-3.73-8.16c-1.91-4.17-4.64-4.55-13.82-2.42l-1.72.36a8.37,8.37,0,0,0-4.12,11.06l7.47,16.32C198.38,1069.31,199.18,1073.08,203.36,1071.17Z"/></g></svg>