<svg xmlns="http://www.w3.org/2000/svg" viewBox="0 0 516.05 567.19"><defs><style>.cls-1,.cls-4{fill:#fff;stroke:#ee4e9c;}.cls-1,.cls-3,.cls-4{stroke-miterlimit:10;}.cls-1,.cls-3{stroke-width:1.9px;}.cls-2{fill:#ee4e9c;}.cls-3{fill:none;stroke:#ee4f9c;}.cls-4{stroke-width:0.63px;}</style></defs><title>timer</title><g id="Layer_2" data-name="Layer 2"><path class="cls-1" d="M123.52,383.79s1.57,14.61,0,25.19c-2.42,19.89-4.22,16.08.7,39.35,1.54,2.12,5.77,30.89,5.35,34.7s-14.75,19.47,0,19,11,.42,12.24-15.66c-3.39-5.5-.42-37.66-2.54-66.44.42-7.19,4.21-34.64,4.21-34.64Z"/><path class="cls-1" d="M166.93,383.79s-1.57,14.61,0,25.19c2.42,19.89,4.22,16.08-.7,39.35-1.54,2.12-5.77,30.89-5.35,34.7s14.75,19.47,0,19-11,.42-12.24-15.66c3.39-5.5.42-37.66,2.54-66.44-.42-7.19-4.21-34.64-4.21-34.64Z"/><path class="cls-2" d="M128.56,485.49s2.27,11.3,13.28.93c0,0-.29,13.16-1.21,13.93s-16.41,3.23-17,0S128.56,485.49,128.56,485.49Z"/><path class="cls-2" d="M162.28,485.49s-2.27,11.3-13.28.93c0,0,.29,13.16,1.21,13.93s16.41,3.23,17,0S162.28,485.49,162.28,485.49Z"/><path class="cls-2" d="M126.87,230.83l10.25,4.44h18.14l8-4.44,16.92,3.81s-1.9,55.22,0,63.48,8.67,48.24,17,81.88c-.53.63-39.46,12.06-96.8,0,1.06-20.95,13.08-83.15,13.08-83.15l-1.69-61.57Z"/><path class="cls-1" d="M108.46,236.54S98.3,240.35,85,293.67c0,1.27-14.49,26-14.49,26l10.9,7s19.46-24.76,22.63-30.47,7.79-23.49,7.79-23.49V235.91Z"/><path class="cls-3" d="M183.06,235.91s10.16,3.81,23.49,57.13c0,1.27,14.49,26,14.49,26l-10.9,7s-19.46-24.76-22.63-30.47-7.79-23.49-7.79-23.49V235.27Z"/><path class="cls-1" d="M133.36,218.3a11.16,11.16,0,0,1,0,8.88l-6.49,3.65s19.48,26,36.4,0c2.32,1.27-10.1-1.77-8-11.36C155.2,219.48,140.42,220.56,133.36,218.3Z"/><path class="cls-2" d="M90.24,86.81s-8.45-8.33-24.32,9.45c-7.62,7.62-3.81,37.32-3.81,37.32s-1.9,10.29-17.14,5.21c0,0,4.78,29,33.49,18.3.8,1.87,17.51-57,17.51-57Z"/><path class="cls-2" d="M198.53,91.07s8.45-8.33,24.32,9.45c7.62,7.62,3.81,37.32,3.81,37.32s1.9,10.29,17.14,5.21c0,0-10.54,27.1-39.26,16.41-.8,1.87-11.75-55.13-11.75-55.13Z"/><path class="cls-1" d="M96.81,180.76s-5.25-5.48-5.25,4,8.86,14.55,8.86,14.55V189.25Z"/><path class="cls-1" d="M196.4,180.76s5.25-5.48,5.25,4-8.86,14.55-8.86,14.55V189.25Z"/><path class="cls-1" d="M146.24,221.46s-5.27-.63-5.06-.84c-36.7-10.55-38.17-15.4-39-17.29s-3.8-14.13-5.27-18.56c-1.48-5.48-12.86-35.22-14.13-40.6-10.44-44,42-68.68,42-68.68s10.6-4.19,37.26-1.76c0,0,58.14,26.47,47.7,70.44-1.27,5.38-12.65,35.11-14.13,40.6-1.48,4.43-4.43,16.66-5.27,18.56s-2.32,6.75-39,17.29c.21.21-5.06.84-5.06.84"/><ellipse class="cls-2" cx="119.82" cy="174.86" rx="6.33" ry="7.59"/><path class="cls-1" d="M137.11,199.32s9.7,5.48,18.14,0"/><path class="cls-1" d="M124,147.22s-8.7-6.29-12.23,0"/><path class="cls-1" d="M176.55,147.22s-8.7-6.29-12.23,0"/><path class="cls-1" d="M116,171.06a11.33,11.33,0,0,1-4.22,0"/><ellipse class="cls-4" cx="121.29" cy="171.25" rx="2.32" ry="3.06"/><ellipse class="cls-2" cx="169.59" cy="174.86" rx="6.33" ry="7.59"/><path class="cls-1" d="M173.39,171.06a11.33,11.33,0,0,0,4.22,0"/><ellipse class="cls-4" cx="168.12" cy="171.25" rx="2.32" ry="3.06"/><path class="cls-2" d="M132.23,68.08c-9-.82-90.17,20.93-48.94,99.19,10.17,17.5,9.3,12.57,9.3,12.57l4.3,4.93s-10.59-24.11-3.43-37.55c1.45.84,3.41,9.4,9.09,10.36,0,0-1.88-17.53,0-24s13.26,13.64,18.32,13.64c-.37-2.53.84-25.06.84-25.06A47.44,47.44,0,0,0,139,147.22l.64.84s.67-14.67,8.43-25.9c0,0,2.76,16.61,9.07,25.06l-.36.84s4.58-13.75,9.43-21.63c-.86,1.64,4.64,12.34,3.8,20.79l.1,6.55s13.06-10.87,9.38-20.19l1.09.2s6.38,12.38,5.57,24.75l.14,1.9s3.44,4.1,8.38-14.61c0,0,6.06,19.12,4.43,29C199.12,174.86,256.78,70,132.23,68.08Z"/><path class="cls-1" d="M70.48,319.69s-8.62-.63-12.86,9.1c-.42,4.23,4.65,3,9.31,0,.85-.85,4.74.22,4.74.22s-3,2.74-3.47,4.44,1.27.85,9.31,0l3.87-6.77Z"/><path class="cls-1" d="M221.32,319.06s8.62-.63,12.86,9.1c.42,4.23-4.65,3-9.31,0-.85-.85-4.54,2.15-4.54,2.15s2.85.82,3.27,2.51-1.27.85-9.31,0L210.42,326Z"/></g></svg>