<svg xmlns="http://www.w3.org/2000/svg" viewBox="0 0 2606.97 1728"><defs><style>.cls-1,.cls-12,.cls-13,.cls-14,.cls-16,.cls-3,.cls-6,.cls-7,.cls-9{fill:#fff;}.cls-1,.cls-10,.cls-16,.cls-3,.cls-6,.cls-7,.cls-8{stroke:#4db2e5;}.cls-1,.cls-10,.cls-12,.cls-13,.cls-14,.cls-16,.cls-3,.cls-6,.cls-7,.cls-8{stroke-miterlimit:10;}.cls-1,.cls-16{stroke-width:1.86px;}.cls-2{fill:#3b576d;}.cls-3{stroke-width:3.95px;}.cls-4{fill:#4db2e5;}.cls-5{fill:#4aa8d7;}.cls-6{stroke-width:1.67px;}.cls-7,.cls-8{stroke-width:1.73px;}.cls-10,.cls-8{fill:none;}.cls-10{stroke-width:2.7px;}.cls-11{fill:#ee4e9c;}.cls-12,.cls-13,.cls-14{stroke:#ee4e9c;}.cls-12{stroke-width:1.74px;}.cls-13{stroke-width:1.24px;}.cls-14{stroke-width:1.01px;}.cls-15{fill:#2ba8b2;}.cls-16{opacity:0.15;}</style></defs><title>timer</title><g id="Layer_3" data-name="Layer 3"><path class="cls-1" d="M1523.87,745.29V875.1h-26.57S1487.55,822,1485.87,747,1523.87,745.29,1523.87,745.29Z"/><path class="cls-1" d="M1570.62,745.29V875.1h26.57S1606.94,822,1608.62,747,1570.62,745.29,1570.62,745.29Z"/><path class="cls-1" d="M1522.36,427.39s-47.67,10.85-84.24,54.73-54,83.74-54,172.52l46.41-3.53S1417.94,581,1460.31,524c0,0-13.79,97.86-14.46,238.44H1538l9-74,11.15,74h88.11L1641.84,601s-5-60.37-24.14-116.36c0,0,72.64,21.69,34.3,73.15L1681.26,586s45.4-49.44,18.66-92.82C1667,439.85,1605.09,424.62,1522.36,427.39Z"/><path class="cls-1" d="M1547,419.7s-24.64-8.7-45.52,12.65L1522,453l25,64.4,25-64.4,20.52-20.68C1571.67,411,1547,419.7,1547,419.7Z"/><rect class="cls-1" x="1482.84" y="493.39" width="40.69" height="16.48"/><path class="cls-1" d="M1546.52,408l-26.43,4s1.91,19.42,26.43,19.42S1573,412,1573,412Z"/><path class="cls-1" d="M1637,337.68c-12.4-13.45-21.53-.84-21.53-.84V272.27H1479.1v64.57s-9.13-12.61-21.53.84,1,37.83,19.81,30.6c0,0,12.06,52.8,69.93,52.8s69.93-52.8,69.93-52.8C1636,375.52,1649.44,351.14,1637,337.68Z"/><path class="cls-1" d="M1470.11,337.09s10.12,4.29,14.08,17.4V291.95s6.39-11.85,31.86-5.55,67.85,24.72,92.82,5.3V354.5s3.53-9.08,13.62-16.9V284.55s10.79-60.2-75.19-60.2-76.91,59.53-76.91,59.53Z"/><path class="cls-1" d="M1522.86,313.39h-25.73a3,3,0,1,1,0-6.05h25.73a3,3,0,0,1,0,6.05Z"/><circle class="cls-1" cx="1508.49" cy="331.29" r="9.33"/><circle class="cls-1" cx="1510.76" cy="326.16" r="1.34"/><path class="cls-1" d="M1595.09,313.39h-25.73a3,3,0,0,1,0-6.05h25.73a3,3,0,1,1,0,6.05Z"/><circle class="cls-1" cx="1583.74" cy="331.29" r="9.33"/><circle class="cls-1" cx="1581.47" cy="326.16" r="1.35"/><path class="cls-1" d="M1547.3,361.39c-6.11,0-9.81,3.19-6.61,6.56s4.48,4.2,6.61,4.2,3.42-.84,6.62-4.2S1553.41,361.39,1547.3,361.39Z"/><path class="cls-1" d="M1547.3,394.35c-9.18,0-26.26,6.05,0,6.05S1556.48,394.35,1547.3,394.35Z"/><path class="cls-1" d="M1469.27,339.87a13.5,13.5,0,0,0-1.32.4,10.4,10.4,0,0,0-1.41.63,9.88,9.88,0,0,0-1.6,1.08,8.05,8.05,0,0,0-1.47,1.63,8.16,8.16,0,0,0-1,2.2,11.4,11.4,0,0,0-.34,2.6c0,.44,0,1,0,1.33l.18,1.49a16.38,16.38,0,0,0,.77,2.6,13.32,13.32,0,0,0,1.26,2.39,17.88,17.88,0,0,0,3.23,3.7,21.45,21.45,0,0,0,2.84,2.17c.73.48,1.18.72,1.18.72a15.57,15.57,0,0,1-4.67-2,15.8,15.8,0,0,1-4-3.57,15.05,15.05,0,0,1-1.6-2.63,14.47,14.47,0,0,1-1-3.1l-.21-1.49c-.06-.63,0-1.1,0-1.64a10.49,10.49,0,0,1,.55-3.1,8.29,8.29,0,0,1,1.45-2.62,7.74,7.74,0,0,1,2-1.69,8.76,8.76,0,0,1,3.63-1.11A5.68,5.68,0,0,1,1469.27,339.87Z"/><path class="cls-1" d="M1625.33,339.87a5.69,5.69,0,0,1,1.41,0,8.74,8.74,0,0,1,3.63,1.11,7.75,7.75,0,0,1,2,1.69,8.38,8.38,0,0,1,1.45,2.62,10.44,10.44,0,0,1,.54,3.1c0,.55,0,1,0,1.64l-.21,1.49a14.58,14.58,0,0,1-1,3.1,15.17,15.17,0,0,1-1.6,2.63,15.83,15.83,0,0,1-4,3.57,15.57,15.57,0,0,1-4.67,2s.45-.24,1.18-.72a21.59,21.59,0,0,0,2.84-2.17,17.94,17.94,0,0,0,3.22-3.7,13.34,13.34,0,0,0,1.26-2.39,16.36,16.36,0,0,0,.77-2.6l.18-1.49c0-.36,0-.9,0-1.33a11.29,11.29,0,0,0-.34-2.6,8.16,8.16,0,0,0-1-2.2,7.92,7.92,0,0,0-1.47-1.63,10,10,0,0,0-1.6-1.08,10.52,10.52,0,0,0-1.41-.63A13.43,13.43,0,0,0,1625.33,339.87Z"/><circle class="cls-1" cx="1406.08" cy="656.42" r="30.77"/><circle class="cls-1" cx="1491.25" cy="532.4" r="17.66"/><circle class="cls-1" cx="1491.25" cy="532.4" r="13.79"/><polygon class="cls-1" points="1653.73 547.75 1593.7 610.26 1643.45 659.44 1703.21 597.65 1653.73 547.75"/><polygon class="cls-1" points="1627.11 520.9 1565.86 582.74 1627.11 520.9 1614.17 507.85 1553.13 570.15 1593.7 610.26 1653.73 547.75 1627.11 520.9"/><circle class="cls-1" cx="1614.3" cy="560.57" r="15.76"/><path class="cls-1" d="M1620,560.57l3.52-3.52a4,4,0,0,0-5.71-5.71l-3.52,3.52-3.51-3.52a4,4,0,0,0-5.71,5.71l3.52,3.52-3.52,3.52a4,4,0,1,0,5.71,5.71l3.51-3.52,3.52,3.52a4,4,0,0,0,5.71-5.71Z"/><path class="cls-1" d="M1494.61,843.49a31.45,31.45,0,0,0-31.28,31.61h62.55A31.45,31.45,0,0,0,1494.61,843.49Z"/><path class="cls-1" d="M1599.88,843.49a31.45,31.45,0,0,1,31.28,31.61H1568.6A31.45,31.45,0,0,1,1599.88,843.49Z"/><circle class="cls-1" cx="1656.38" cy="579.49" r="30.77"/><polyline class="cls-1" points="1546.59 431.43 1563.59 448.43 1552.46 459.55 1558.13 486.41 1558.37 488.21 1547.03 517.44 1534.98 486.41 1540.65 459.55 1529.52 448.43 1546.52 431.43"/></g><g id="Layer_2" data-name="Layer 2"><g id="chart"><path class="cls-2" d="M2018.15,872.54a6.62,6.62,0,0,1-6.62-6.62V596a6.63,6.63,0,0,1,6.62-6.62h0a6.62,6.62,0,0,1,6.62,6.62v269.9a6.62,6.62,0,0,1-6.62,6.62Z"/><path class="cls-2" d="M2161.24,866.19a6.63,6.63,0,0,1-8.29-4.37L2073,604a6.62,6.62,0,0,1,4.36-8.28h0a6.61,6.61,0,0,1,8.29,4.36l80,257.79a6.63,6.63,0,0,1-4.36,8.29Z"/><path class="cls-2" d="M1877.52,866.19a6.63,6.63,0,0,0,8.29-4.37l80-257.79a6.62,6.62,0,0,0-4.37-8.28h0a6.62,6.62,0,0,0-8.29,4.36l-80,257.79a6.63,6.63,0,0,0,4.36,8.29Z"/><rect class="cls-3" x="1805.13" y="369.35" width="426.03" height="292.09"/><path class="cls-2" d="M2241.15,363.74c0,6.51-8.63,11.79-19.28,11.79H1814.43c-10.65,0-19.27-5.28-19.27-11.79h0c0-6.51,8.62-11.78,19.27-11.78h407.45c10.65,0,19.28,5.27,19.28,11.78Z"/><path class="cls-2" d="M2241.15,667c0,7.6-8.63,13.77-19.28,13.77H1814.43c-10.65,0-19.27-6.16-19.27-13.77h0c0-7.6,8.62-13.76,19.27-13.76h407.45c10.65,0,19.28,6.16,19.28,13.76Z"/><circle class="cls-2" cx="2018.15" cy="350.83" r="11.01"/></g><path class="cls-1" d="M195.15,687.43s10.16,30.27,8.24,40.19c-1.92,11.16-3.91,40.3,7.93,89.29-1.79,6.2-32.55,47.75-.12,45.89,12.59-1.86,17-13,18.83-37.2-1.9-27.28,0-98,0-98V687.43"/><path class="cls-1" d="M268.85,687.43s-10.16,30.27-8.24,40.19c1.92,11.16,3.91,40.3-7.93,89.29,1.79,6.2,32.55,47.75.12,45.89-12.59-1.86-17-13-18.83-37.2,1.9-27.28,0-98,0-98V687.43"/><path class="cls-4" d="M184.33,502.33s10,34.87,10.58,39.12c-12.17,45.06-10.08,46.3-10.08,46.3s57.44,16.12,98.78-2.89c-3.72-14.88-12.81-37.62-12.4-44.65S281,497.74,281,497.74l-21.38-54-50,2.08Z"/><path class="cls-5" d="M285.1,250.57S299.83,221.51,330,241c28.68,23.39,34.52,42.63,28.42,69.85s-17.25,58.46,1.19,59-31.37,11.59-45.08-4.76S285.1,250.57,285.1,250.57Z"/><path class="cls-6" d="M220.18,431.88s1.17,8.43,0,11.89a58.19,58.19,0,0,0-8.82,1.39L235.76,472l21.18-28.25L250,442.62l1.5-10.74"/><path class="cls-7" d="M165.55,381.72s-7.17-7.49-7.17,5.48,12.11,19.89,12.11,19.89V393.32Z"/><path class="cls-7" d="M301.68,381.72s7.17-7.49,7.17,5.48-12.11,19.89-12.11,19.89V393.32Z"/><path class="cls-7" d="M233.12,437.35s-7.21-.86-6.92-1.15c-50.16-14.41-52.18-21-53.33-23.64s-5.19-19.31-7.21-25.37c-2-7.49-17.58-48.14-19.31-55.49-14.27-60.1,57.41-93.88,57.41-93.88s14.49-5.73,50.93-2.41c0,0,79.47,36.18,65.2,96.29-1.73,7.35-17.3,48-19.31,55.49-2,6.05-6.05,22.77-7.21,25.37S290.2,421.79,240,436.2c.29.29-6.92,1.15-6.92,1.15"/><path class="cls-4" d="M271.38,234.38s-32.29-11.79-61.69-3.14c-9.22,3.46-76.68,25.37-80.14,98,1.15,24.21,27.67,51.31,37.76,57.94,0,0-8.94-35.46,11.82-65.44,1.15-1.15-1.15,11.53,4,31.71l1.73,1.73s7.49-23.64,36.9-55.92c-1.15.58-7.49,28.25-1.15,47.85,1.15,0,28.25-42.66,45.55-49-.58,0,32.45,50.42,35.17,66.88,4.15,12.35,2.71,16.46,2.71,16.46l10.26-11.56s25.66-34,17.58-72.93C329,282,304.82,243.87,271.38,234.38Z"/><ellipse class="cls-4" cx="197" cy="373.65" rx="8.65" ry="10.38"/><path class="cls-8" d="M220.64,410.42s13.26-7.49,24.79,0"/><path class="cls-7" d="M191.82,368.46a15.49,15.49,0,0,1-5.77,0"/><ellipse class="cls-9" cx="194.41" cy="379.56" rx="3.17" ry="4.18"/><ellipse class="cls-4" cx="265.04" cy="373.65" rx="8.65" ry="10.38"/><path class="cls-7" d="M270.22,368.46a15.49,15.49,0,0,0,5.77,0"/><ellipse class="cls-9" cx="263.02" cy="379.56" rx="3.17" ry="4.18"/><path class="cls-10" d="M202.37,346.34s5-2.52-10.37,6.71"/><path class="cls-10" d="M263,351.5s5,2.52-10.37-6.71"/><path class="cls-4" d="M259.63,443.77l30.29,12.85s28.64,57.1,31.68,86.53c-11.22,12.07-51.86,28.81-51.38,30s-4.48-14.88-10.37-16.12c-.52-1.4,7.29-7.11,16.44-13.49,7.11-5,15-10.34,20.45-14.41-.62-.62-14.26-25.42-14.26-25.42Z"/><path class="cls-4" d="M158.27,520.62a43.55,43.55,0,0,1,14.49-6.44c4.73-7.46,14.65-23.45,14.65-23.45l23.79-46.6-33,12.85S157.38,493.23,143,524.78C148,523.15,153.18,522,158.27,520.62Z"/><path class="cls-11" d="M208.18,475.49s-16.7-27.47-28.95-21.72c-17.81,10.86-30.06,21.72-26.16,47.91,4.45,31.3,30.62,57,68.47,60.69,38.41,3.7,73.73-21.08,77.38-47.91,0,0,7.05-38.54-45.28-25.13C246.4,487,215.19,485.22,208.18,475.49Z"/><path class="cls-12" d="M183.26,462.47s-1,1.93-2.27,5.11c-.52,1.3-1.09,2.82-1.65,4.5-.74,2.21-1.48,4.71-2.1,7.39-2.94,12.79-3.13,29.68,11.81,39.21.83.83,19.22,5.37,30-8.89,1.65-2.48,8.27-21.7-6.61-27.7C201,469.5,209.3,466.4,183.26,462.47Z"/><path class="cls-12" d="M180.85,471.68s21.69-9.11,31.82,8.38c6.66,5,14.73,24.22-3.1,34.45C198.79,519.16,166.13,521,180.85,471.68Z"/><path class="cls-13" d="M191.14,495.2a24.78,24.78,0,0,0,4-1.36s-2,2-2,3.56"/><path class="cls-14" d="M208.89,481.88a21.79,21.79,0,0,1-1,2.58s1.11-1.21,1.82-1.13"/><path class="cls-12" d="M211.44,493s-9.15,5.84-8.68,11.42a4.4,4.4,0,0,0,4.34,3.88c1.09.16,6-2,7.6-5l2-4.19S211.5,494.72,211.44,493Z"/><path class="cls-4" d="M152.34,513.14l-5.79,2s-8.76,12,5.1,21.49c18.51,10.81,47.13,19.85,47.13,19.85l7.41,3s-5.75-13.07,5.13-13.78c-9.4-6.85-44-29.62-55.95-33.48"/><path class="cls-1" d="M210.7,544.35h0s7-2.8,9.64-.63c2.21,2.2,6.34,1.93.18,2.75s.08,2.44,6.16-.81S231,565.8,217.6,562.4L204.17,559s-4.12-11.75,6.53-14.65"/><path class="cls-1" d="M295.72,681.73l-.62.62c-57.67,19.22-124,0-124,0l13.75-94.61s84.53.74,95.85-1.62Z"/><path class="cls-4" d="M204.93,828.89s-4.54,27.77,20.52,12.41c3.1-2.5,3.26-3.49,3.26-3.49s-4.9,31.75-23.51,24.75c-3.2-.88-12.46-2-6.65-20C203,832.56,204.93,828.89,204.93,828.89Z"/><path class="cls-4" d="M259.17,828.89s4.54,27.77-20.52,12.41c-3.1-2.5-3.26-3.49-3.26-3.49s4.9,31.75,23.51,24.75c3.2-.88,12.46-2,6.65-20C261.11,832.56,259.17,828.89,259.17,828.89Z"/><path class="cls-15" d="M2007.14,510.84a23.63,23.63,0,0,0,35,20.74h24.08a38.11,38.11,0,0,0,46.52,3.46,22.81,22.81,0,0,0,16.8-37.15,38.21,38.21,0,0,0-11.75-22.61l-.78-.71a38.08,38.08,0,0,0-12.93-7.51,37.45,37.45,0,0,0-7.11-1.69c-.85-.12-1.69-.21-2.55-.27a30.8,30.8,0,0,0-4.21-3,32.37,32.37,0,0,0-36.31,2,26.81,26.81,0,0,0-3.58-.24,28.81,28.81,0,0,0-18.76,6.91l-.1.08c-.31.26-.63.54-.94.84a27,27,0,0,0-2.13,2.24,28.82,28.82,0,0,0-6.77,15.07A23.63,23.63,0,0,0,2007.14,510.84Zm5.59,0a18,18,0,0,1,12.34-17.13,2.65,2.65,0,0,0,.69-.34,8.18,8.18,0,0,1,9.41,5,2.66,2.66,0,0,0,2.48,1.7,2.71,2.71,0,0,0,1-.18,2.65,2.65,0,0,0,1.53-3.43,13.5,13.5,0,0,0-12.66-8.64,23.47,23.47,0,0,1,22.83-18.37,22.85,22.85,0,0,1,3.34.27l.4.08a6.61,6.61,0,0,1,5.72,7.39,2.65,2.65,0,0,0,2.29,3l.35,0a2.65,2.65,0,0,0,2.62-2.32,11.91,11.91,0,0,0-4.91-11.21,26.86,26.86,0,0,1,31.33,3.21,2.75,2.75,0,0,0,.49.33l.06.08a10,10,0,0,1,2.39,6.41.8.8,0,0,1,0,.16,10.11,10.11,0,0,1-3,7.19,2.65,2.65,0,0,0,1.87,4.53,2.69,2.69,0,0,0,1.88-.77,15.5,15.5,0,0,0,4-7,4.72,4.72,0,0,1,2.55,4.18,2.64,2.64,0,0,0,2.21,2.61,3.13,3.13,0,0,0,.44,0,2.64,2.64,0,0,0,2.65-2.64,3.35,3.35,0,0,0,0-.46,10,10,0,0,0-7.41-9.21,15.08,15.08,0,0,0-.66-3.16c-.09-.28-.19-.56-.29-.83l.91.21a32.83,32.83,0,0,1,13.46,7c.31.27.63.55.93.83a32.59,32.59,0,0,1,10.11,20,2.83,2.83,0,0,0,.68,1.51,17.24,17.24,0,0,1-7.42,27.66,16.09,16.09,0,0,0,.09-11.1,1.52,1.52,0,0,0-.07-.19,15.82,15.82,0,0,0-3.65-5.67,2.65,2.65,0,0,0-3.74,3.75,10.84,10.84,0,0,1,2.28,3.39,3.66,3.66,0,0,1-3.62,3.22,2.65,2.65,0,1,0,0,5.3,8.86,8.86,0,0,0,3.86-.88,10.54,10.54,0,0,1-2,3.46l-.23.15a32.53,32.53,0,0,1-41-3.22,2.59,2.59,0,0,0-.57-.42,7.67,7.67,0,0,1-1.28-2.15,8,8,0,0,1-.61-3.06,8.12,8.12,0,0,1,2.41-5.78,2.65,2.65,0,1,0-3.75-3.75,13.61,13.61,0,0,0-3.09,4.78,5.08,5.08,0,0,1-3.15-4.69,2.65,2.65,0,0,0-5.3,0,10.4,10.4,0,0,0,7.6,10c0,.15,0,.29,0,.43a13.46,13.46,0,0,0,.88,3.88h-21a2.73,2.73,0,0,0-1.42.4,18,18,0,0,1-27.24-15.55Z"/><path class="cls-1" d="M1564.63,392.85a17.32,17.32,0,0,0-34.65,0Z"/><path class="cls-1" d="M1588.84,421.09h-1.17v4.11h1.17a2.05,2.05,0,0,1,2.05,2.05v16.81c0,25-20.44,45.95-45.41,45.52a44.69,44.69,0,0,1-43.87-44.64v-17.7a2.05,2.05,0,0,1,2.05-2.05h1.18v-4.11h-1.18a6.16,6.16,0,0,0-6.16,6.16v17.7a48.82,48.82,0,0,0,40.88,48.1,6.87,6.87,0,0,1,5.81,6.76v36.42a8.89,8.89,0,0,0,8.89,8.89h23.66V541h-23.66a4.79,4.79,0,0,1-4.79-4.79V499.8a6.87,6.87,0,0,1,5.81-6.76,48.82,48.82,0,0,0,40.88-48.1v-17.7A6.16,6.16,0,0,0,1588.84,421.09Z"/><circle class="cls-1" cx="1576.75" cy="543.07" r="9.22"/><circle class="cls-1" cx="1576.75" cy="543.07" r="5.78"/><path class="cls-1" d="M1092.43,689.65a80.8,80.8,0,1,0-161.6,0V822.8h161.6Z"/><path class="cls-1" d="M1011.63,624.4a65.32,65.32,0,0,1,65.25,65.25v117.6H946.38V689.65a65.32,65.32,0,0,1,65.25-65.25"/><rect class="cls-1" x="915.29" y="822.8" width="192.69" height="15.55"/><path class="cls-16" d="M1003.86,637.42a52.89,52.89,0,0,0-45,52.24V794.81h45Z"/><rect class="cls-4" x="1006.97" y="664.61" width="9.33" height="51.21"/><rect class="cls-4" x="990.69" y="678.61" width="41.88" height="9.33"/></g></svg>