<svg xmlns="http://www.w3.org/2000/svg" xmlns:xlink="http://www.w3.org/1999/xlink" viewBox="0 0 344.4 356.98"><defs><style>.cls-1{fill:#fff;stroke:#4db2e5;stroke-miterlimit:10;stroke-width:1.48px;}.cls-2{fill:#027da3;}.cls-3{fill:url(#radial-gradient);}.cls-4{fill:url(#radial-gradient-2);}.cls-5{fill:url(#radial-gradient-3);}.cls-6{fill:url(#radial-gradient-4);}.cls-7{fill:url(#radial-gradient-5);}.cls-8{fill:url(#radial-gradient-6);}.cls-9{fill:url(#radial-gradient-7);}.cls-10{fill:url(#radial-gradient-8);}</style><radialGradient id="radial-gradient" cx="91.14" cy="129.98" r="37.97" gradientUnits="userSpaceOnUse"><stop offset="0.03" stop-color="#ec008c" stop-opacity="0"/><stop offset="1" stop-color="#fff"/></radialGradient><radialGradient id="radial-gradient-2" cx="100.68" cy="128.8" r="5.25" gradientUnits="userSpaceOnUse"><stop offset="0.03" stop-color="#27aae1" stop-opacity="0"/><stop offset="1" stop-color="#fff"/></radialGradient><radialGradient id="radial-gradient-3" cx="80" cy="117.43" r="5.25" xlink:href="#radial-gradient-2"/><radialGradient id="radial-gradient-4" cx="78.04" cy="144.55" r="5.25" xlink:href="#radial-gradient-2"/><radialGradient id="radial-gradient-5" cx="104.35" cy="145.1" r="5.25" xlink:href="#radial-gradient-2"/><radialGradient id="radial-gradient-6" cx="96.9" cy="113.94" r="4.02" xlink:href="#radial-gradient-2"/><radialGradient id="radial-gradient-7" cx="-40.66" cy="-119.75" r="4.02" gradientTransform="translate(105.8 227.97) scale(0.89 0.8)" xlink:href="#radial-gradient-2"/><radialGradient id="radial-gradient-8" cx="-17.25" cy="-95.86" r="4.02" gradientTransform="translate(105.8 227.97) scale(0.89 0.8)" xlink:href="#radial-gradient-2"/></defs><title>timer</title><g id="Layer_2" data-name="Layer 2"><circle class="cls-1" cx="166.54" cy="177.85" r="145.12"/><path class="cls-2" d="M80,123.32a2.24,2.24,0,0,0,.72,1.57,1,1,0,0,0,1.39-1.39s-.25-.28-.1-.09l-.08-.14c0,.06,0,.27,0,0a1,1,0,0,0-2,0Z"/><path class="cls-2" d="M82.76,128.88h.44a1,1,0,0,0,0-2h-.44a1,1,0,0,0,0,2Z"/><path class="cls-2" d="M89,125.07v-.22a1,1,0,0,0-2,0v.22a1,1,0,0,0,2,0Z"/><path class="cls-2" d="M89.08,131.5a1,1,0,0,0,0-2,1,1,0,0,0,0,2Z"/><path class="cls-2" d="M107.19,134.67a2.12,2.12,0,0,0,.62-.17l.25-.19c.15-.14-.21.1,0,0l-.5.13h.07a1,1,0,0,0,1-1,1,1,0,0,0-1-1,2.14,2.14,0,0,0-.63.17l-.25.19c-.15.14.21-.1,0,0l.5-.13h-.07a1,1,0,0,0-1,1,1,1,0,0,0,1,1Z"/><path class="cls-2" d="M102,124.09a1,1,0,0,0,0-2,1,1,0,0,0,0,2Z"/><path class="cls-2" d="M102,132.59a1,1,0,0,0,0-2,1,1,0,0,0,0,2Z"/><path class="cls-2" d="M99.55,133.25a1,1,0,0,0,0-2,1,1,0,0,0,0,2Z"/><path class="cls-2" d="M93.66,130.85a1,1,0,0,0,0-2,1,1,0,0,0,0,2Z"/><path class="cls-2" d="M89.74,118a1,1,0,0,0,0-2,1,1,0,0,0,0,2Z"/><path class="cls-2" d="M101.52,128.67a1,1,0,0,0,0-2,1,1,0,0,0,0,2Z"/><path class="cls-2" d="M94.1,121.25a1,1,0,0,0,0-2,1,1,0,0,0,0,2Z"/><path class="cls-2" d="M77.74,132.59a1,1,0,0,0,0-2,1,1,0,0,0,0,2Z"/><path class="cls-2" d="M88.76,136.08a1,1,0,0,0,0-2,1,1,0,0,0,0,2Z"/><path class="cls-2" d="M83.19,133.68a1,1,0,0,0,0-2,1,1,0,0,0,0,2Z"/><path class="cls-2" d="M91.92,140.45a3.83,3.83,0,0,0,.79-.12l.28-.08c.07,0,.31,0,0,0a1,1,0,0,0,1-1,1,1,0,0,0-1-1,2.91,2.91,0,0,0-.63.12,2.22,2.22,0,0,1-.46.1,1,1,0,1,0,0,2Z"/><path class="cls-2" d="M100.86,137.17a1,1,0,0,0,0-2,1,1,0,0,0,0,2Z"/><path class="cls-2" d="M94.1,134.56a1,1,0,0,0,0-2,1,1,0,0,0,0,2Z"/><path class="cls-2" d="M104.79,139.14h-.44a1,1,0,0,0,0,2h.44a1,1,0,0,0,0-2Z"/><path class="cls-2" d="M116.95,136.08a1,1,0,0,0,0-2,1,1,0,0,0,0,2Z"/><path class="cls-2" d="M86.47,120.6a1,1,0,0,0,0-2,1,1,0,0,0,0,2Z"/><path class="cls-2" d="M96.72,119.72a1,1,0,0,0,0-2,1,1,0,0,0,0,2Z"/><path class="cls-2" d="M99.34,123.21a1,1,0,0,0,0-2,1,1,0,0,0,0,2Z"/><path class="cls-2" d="M102.39,117.11a1,1,0,0,0,0-2,1,1,0,0,0,0,2Z"/><path class="cls-2" d="M88.21,141.54a1,1,0,0,0,0-2,1,1,0,0,0,0,2Z"/><path class="cls-2" d="M81.23,141.54a1,1,0,0,0,0-2,1,1,0,0,0,0,2Z"/><path class="cls-2" d="M83.3,138.92a1,1,0,0,0,0-2,1,1,0,0,0,0,2Z"/><path class="cls-2" d="M79.05,128.67a1,1,0,0,0,0-2,1,1,0,0,0,0,2Z"/><path class="cls-2" d="M72.94,133.25a1,1,0,0,0,0-2,1,1,0,0,0,0,2Z"/><path class="cls-2" d="M65.85,130a1,1,0,0,0,0-2,1,1,0,0,0,0,2Z"/><path class="cls-2" d="M79.05,138a1,1,0,0,0,0-2,1,1,0,0,0,0,2Z"/><path class="cls-2" d="M73.49,128.88a1,1,0,0,0,0-2,1,1,0,0,0,0,2Z"/><path class="cls-2" d="M70.44,120.92a1,1,0,0,0,0-2,1,1,0,0,0,0,2Z"/><path class="cls-2" d="M74.14,124.09a1,1,0,0,0,0-2,1,1,0,0,0,0,2Z"/><path class="cls-2" d="M108.72,120.16a2.24,2.24,0,0,0,.72,1.57,1,1,0,0,0,1.39-1.39s-.25-.28-.1-.09l-.08-.14c0,.06,0,.27,0,0a1,1,0,0,0-2,0Z"/><path class="cls-2" d="M77.85,106.64h.44a1,1,0,0,0,0-2h-.44a1,1,0,0,0,0,2Z"/><path class="cls-2" d="M84.07,102.82v-.22a1,1,0,0,0-2,0v.22a1,1,0,0,0,2,0Z"/><path class="cls-2" d="M84.18,109.25a1,1,0,0,0,0-2,1,1,0,0,0,0,2Z"/><path class="cls-2" d="M90.28,104.89a2.14,2.14,0,0,0,.63-.17l.25-.19c.15-.14-.21.1,0,0l-.49.13h.07a1,1,0,0,0,1-1,1,1,0,0,0-1-1,2.12,2.12,0,0,0-.63.17l-.25.19c-.15.14.21-.1,0,0l.5-.13h-.07a1,1,0,0,0-1,1,1,1,0,0,0,1,1Z"/><path class="cls-2" d="M118.53,120.92a1,1,0,0,0,0-2,1,1,0,0,0,0,2Z"/><path class="cls-2" d="M97,110.35a1,1,0,0,0,0-2,1,1,0,0,0,0,2Z"/><path class="cls-2" d="M94.65,111a1,1,0,0,0,0-2,1,1,0,0,0,0,2Z"/><path class="cls-2" d="M88.76,108.6a1,1,0,0,0,0-2,1,1,0,0,0,0,2Z"/><path class="cls-2" d="M106.31,114.82a1,1,0,0,0,0-2,1,1,0,0,0,0,2Z"/><path class="cls-2" d="M96.61,106.42a1,1,0,0,0,0-2,1,1,0,0,0,0,2Z"/><path class="cls-2" d="M110.68,118.09a1,1,0,0,0,0-2,1,1,0,0,0,0,2Z"/><path class="cls-2" d="M73.49,111.87a1,1,0,0,0,0-2,1,1,0,0,0,0,2Z"/><path class="cls-2" d="M81.78,112.31a1,1,0,0,0,0-2,1,1,0,0,0,0,2Z"/><path class="cls-2" d="M78.29,111.44a1,1,0,0,0,0-2,1,1,0,0,0,0,2Z"/><path class="cls-2" d="M64.38,125.29a3.78,3.78,0,0,0,.79-.12l.28-.08c.07,0,.31,0,0,0a1,1,0,0,0,1-1,1,1,0,0,0-1-1,3,3,0,0,0-.63.12,2.1,2.1,0,0,1-.46.1,1,1,0,1,0,0,2Z"/><path class="cls-2" d="M96,114.93a1,1,0,0,0,0-2,1,1,0,0,0,0,2Z"/><path class="cls-2" d="M89.19,112.31a1,1,0,0,0,0-2,1,1,0,0,0,0,2Z"/><path class="cls-2" d="M99.88,116.89h-.44a1,1,0,0,0,0,2h.44a1,1,0,0,0,0-2Z"/><path class="cls-2" d="M93.56,119.72a1,1,0,0,0,0-2,1,1,0,0,0,0,2Z"/><path class="cls-2" d="M103,117.43a1,1,0,0,0,0-2,1,1,0,0,0,0,2Z"/><path class="cls-2" d="M113.3,116.56a1,1,0,0,0,0-2,1,1,0,0,0,0,2Z"/><path class="cls-2" d="M115.91,120.05a1,1,0,0,0,0-2,1,1,0,0,0,0,2Z"/><path class="cls-2" d="M106.86,107.46a1,1,0,0,0,0-2,1,1,0,0,0,0,2Z"/><path class="cls-2" d="M83.3,116a1,1,0,0,0,0-2,1,1,0,0,0,0,2Z"/><path class="cls-2" d="M77.85,122a1,1,0,0,0,0-2,1,1,0,0,0,0,2Z"/><path class="cls-2" d="M78.07,116a1,1,0,0,0,0-2,1,1,0,0,0,0,2Z"/><path class="cls-2" d="M74.14,106.42a1,1,0,0,0,0-2,1,1,0,0,0,0,2Z"/><path class="cls-2" d="M71.09,111.44a1,1,0,0,0,0-2,1,1,0,0,0,0,2Z"/><path class="cls-2" d="M67.38,119.29a1,1,0,0,0,0-2,1,1,0,0,0,0,2Z"/><path class="cls-2" d="M74.14,115.8a1,1,0,0,0,0-2,1,1,0,0,0,0,2Z"/><path class="cls-2" d="M62.47,119.29a1,1,0,0,0,0-2,1,1,0,0,0,0,2Z"/><path class="cls-2" d="M104.35,111.87a1,1,0,0,0,0-2,1,1,0,0,0,0,2Z"/><path class="cls-2" d="M68.8,142.41a1,1,0,0,0,0-2,1,1,0,0,0,0,2Z"/><path class="cls-2" d="M87.34,147.75a2.24,2.24,0,0,0,.72,1.57,1,1,0,1,0,1.39-1.39s-.25-.28-.1-.09l-.08-.14c0,.06,0,.27,0,0a1,1,0,0,0-2,0Z"/><path class="cls-2" d="M90.07,153.32h.44a1,1,0,0,0,0-2h-.44a1,1,0,0,0,0,2Z"/><path class="cls-2" d="M96.28,149.5v-.22a1,1,0,0,0-2,0v.22a1,1,0,0,0,2,0Z"/><path class="cls-2" d="M96.39,155.93a1,1,0,0,0,0-2,1,1,0,0,0,0,2Z"/><path class="cls-2" d="M102.5,151.57a2.08,2.08,0,0,0,.62-.17l.25-.19c.15-.14-.21.1,0,0l-.5.13h.07a1,1,0,0,0,1-1,1,1,0,0,0-1-1,2.12,2.12,0,0,0-.63.17l-.25.19c-.15.14.21-.1,0,0l.5-.13h-.07a1,1,0,0,0-1,1,1,1,0,0,0,1,1Z"/><path class="cls-2" d="M109.26,148.52a1,1,0,0,0,0-2,1,1,0,0,0,0,2Z"/><path class="cls-2" d="M115.09,142a1,1,0,0,0,0-2,1,1,0,0,0,0,2Z"/><path class="cls-2" d="M106.86,157.68a1,1,0,0,0,0-2,1,1,0,0,0,0,2Z"/><path class="cls-2" d="M101,155.28a1,1,0,0,0,0-2,1,1,0,0,0,0,2Z"/><path class="cls-2" d="M97,142.41a1,1,0,0,0,0-2,1,1,0,0,0,0,2Z"/><path class="cls-2" d="M108.82,153.1a1,1,0,0,0,0-2,1,1,0,0,0,0,2Z"/><path class="cls-2" d="M101.41,145.68a1,1,0,0,0,0-2,1,1,0,0,0,0,2Z"/><path class="cls-2" d="M85.7,158.55a1,1,0,0,0,0-2,1,1,0,0,0,0,2Z"/><path class="cls-2" d="M94,159a1,1,0,0,0,0-2,1,1,0,0,0,0,2Z"/><path class="cls-2" d="M90.5,158.11a1,1,0,0,0,0-2,1,1,0,0,0,0,2Z"/><path class="cls-2" d="M112.75,126.6a3.9,3.9,0,0,0,.79-.12l.28-.08c.07,0,.31,0,0,0a1,1,0,0,0,1-1,1,1,0,0,0-1-1,3,3,0,0,0-.63.12,2.18,2.18,0,0,1-.46.1,1,1,0,1,0,0,2Z"/><path class="cls-2" d="M63.45,134.56a1,1,0,0,0,0-2,1,1,0,0,0,0,2Z"/><path class="cls-2" d="M101.41,159a1,1,0,0,0,0-2,1,1,0,0,0,0,2Z"/><path class="cls-2" d="M119.18,127.58h-.44a1,1,0,0,0,0,2h.44a1,1,0,0,0,0-2Z"/><path class="cls-2" d="M112.86,130.41a1,1,0,0,0,0-2,1,1,0,0,0,0,2Z"/><path class="cls-2" d="M93.77,145a1,1,0,0,0,0-2,1,1,0,0,0,0,2Z"/><path class="cls-2" d="M104,144.15a1,1,0,0,0,0-2,1,1,0,0,0,0,2Z"/><path class="cls-2" d="M106.64,147.64a1,1,0,0,0,0-2,1,1,0,0,0,0,2Z"/><path class="cls-2" d="M109.7,141.54a1,1,0,0,0,0-2,1,1,0,0,0,0,2Z"/><path class="cls-2" d="M102.61,126.7a1,1,0,0,0,0-2,1,1,0,0,0,0,2Z"/><path class="cls-2" d="M95.63,130a1,1,0,0,0,0-2,1,1,0,0,0,0,2Z"/><path class="cls-2" d="M97.37,126.7a1,1,0,0,0,0-2,1,1,0,0,0,0,2Z"/><path class="cls-2" d="M86.36,153.1a1,1,0,0,0,0-2,1,1,0,0,0,0,2Z"/><path class="cls-2" d="M83.3,158.11a1,1,0,0,0,0-2,1,1,0,0,0,0,2Z"/><path class="cls-2" d="M86.36,131.28a1,1,0,0,0,0-2,1,1,0,0,0,0,2Z"/><path class="cls-2" d="M93.45,126.49a1,1,0,0,0,0-2,1,1,0,0,0,0,2Z"/><path class="cls-2" d="M78.29,152.88a1,1,0,0,0,0-2,1,1,0,0,0,0,2Z"/><path class="cls-2" d="M85,146.34a1,1,0,0,0,0-2,1,1,0,0,0,0,2Z"/><path class="cls-2" d="M83.09,151.13a1,1,0,0,0,0-2,1,1,0,0,0,0,2Z"/><path class="cls-2" d="M73.92,139.46a2.24,2.24,0,0,0,.72,1.57A1,1,0,1,0,76,139.64s-.25-.28-.1-.09l-.08-.14c0,.06,0,.27,0,0a1,1,0,0,0-2,0Z"/><path class="cls-2" d="M76.65,145h.44a1,1,0,0,0,0-2h-.44a1,1,0,0,0,0,2Z"/><path class="cls-2" d="M72.94,153.32a1,1,0,0,0,0-2,1,1,0,0,0,0,2Z"/><path class="cls-2" d="M77.09,149.82a1,1,0,0,0,0-2,1,1,0,0,0,0,2Z"/><path class="cls-2" d="M72.94,144.81a1,1,0,0,0,0-2,1,1,0,0,0,0,2Z"/><path class="cls-2" d="M69.89,149.82a1,1,0,0,0,0-2,1,1,0,0,0,0,2Z"/><path class="cls-2" d="M64.87,144.59a1,1,0,0,0,0-2,1,1,0,0,0,0,2Z"/><path class="cls-2" d="M71.63,138a1,1,0,0,0,0-2,1,1,0,0,0,0,2Z"/><path class="cls-2" d="M67.38,137.17a1,1,0,0,0,0-2,1,1,0,0,0,0,2Z"/><path class="cls-3" d="M90.34,97.27c.44-1.15,1.16-1.15,1.6,0s1.26,1.19,1.82.1,1.28-1,1.6.17,1.13,1.32,1.8.28,1.38-.88,1.57.33,1,1.43,1.76.47,1.46-.73,1.53.5.83,1.52,1.7.65,1.53-.58,1.47.65.67,1.6,1.62.83,1.58-.41,1.39.8.49,1.66,1.53,1,1.62-.25,1.3.94.32,1.7,1.42,1.15,1.63-.08,1.19,1.07.14,1.73,1.29,1.29,1.63.09,1.07,1.19,0,1.73,1.15,1.42,1.61.27.94,1.3-.22,1.72,1,1.53,1.58.43.8,1.39-.4,1.69.83,1.62,1.52.59.65,1.46-.58,1.64.65,1.7,1.45.75.5,1.53-.75,1.57.47,1.76,1.37.9.33,1.57-.9,1.48.28,1.8,1.27,1,.17,1.6-1.05,1.38.1,1.82,1.15,1.16,0,1.6-1.19,1.26-.1,1.82,1,1.28-.17,1.6-1.32,1.13-.28,1.8.88,1.38-.33,1.57-1.43,1-.47,1.76.73,1.46-.5,1.53-1.52.83-.65,1.7.58,1.53-.65,1.47-1.6.67-.83,1.62.41,1.58-.8,1.39-1.66.49-1,1.53.25,1.62-.94,1.3-1.71.32-1.15,1.41.08,1.63-1.07,1.19-1.73.14-1.29,1.29-.1,1.63-1.19,1.07-1.73,0-1.42,1.15-.26,1.62-1.3.94-1.72-.22-1.53,1-.43,1.58-1.39.8-1.69-.4-1.62.83-.59,1.52-1.47.65-1.64-.58-1.7.65-.75,1.45-1.53.49-1.57-.74-1.76.47-.9,1.37-1.57.33-1.48-.9-1.8.28-1,1.27-1.6.17-1.38-1.05-1.82.1-1.16,1.15-1.6,0-1.26-1.19-1.82-.1-1.28,1-1.6-.17-1.13-1.32-1.8-.28-1.38.88-1.57-.33-1-1.43-1.76-.47-1.46.73-1.53-.49-.83-1.52-1.7-.65-1.53.58-1.47-.65-.67-1.6-1.62-.83-1.58.41-1.39-.8-.49-1.66-1.53-1-1.62.25-1.3-.94-.32-1.7-1.41-1.15-1.63.08-1.19-1.07-.14-1.73-1.29-1.29-1.63-.09-1.07-1.19,0-1.73-1.15-1.41-1.61-.27-.94-1.3.22-1.72-1-1.53-1.58-.43-.8-1.39.4-1.69-.83-1.62-1.52-.59-.65-1.47.58-1.64-.65-1.7-1.45-.75-.5-1.53.75-1.57-.47-1.76S58,136.66,59,136s.9-1.48-.28-1.8-1.27-1-.17-1.6,1.05-1.38-.1-1.82-1.15-1.16,0-1.6,1.19-1.26.1-1.82-1-1.28.17-1.6S60,124.63,59,124s-.88-1.38.33-1.57,1.43-1,.47-1.76-.73-1.46.5-1.53,1.52-.83.65-1.7-.58-1.53.65-1.46,1.6-.67.83-1.62-.41-1.58.8-1.39,1.66-.49,1-1.53-.25-1.62.94-1.3,1.71-.32,1.15-1.42-.08-1.63,1.07-1.19,1.73-.14,1.29-1.29.1-1.63,1.19-1.07,1.73,0,1.41-1.15.27-1.61,1.3-.94,1.72.22,1.53-1,.43-1.58,1.39-.8,1.69.4,1.62-.83.59-1.52,1.47-.65,1.64.58,1.7-.65.75-1.45,1.53-.5,1.57.74,1.76-.47.9-1.37,1.57-.33,1.48.9,1.8-.28,1-1.27,1.6-.17S89.9,98.42,90.34,97.27Z"/><path class="cls-4" d="M100.68,134.13c6.88,0,6.88-10.67,0-10.67s-6.88,10.67,0,10.67Z"/><path class="cls-5" d="M80,122.77c6.88,0,6.88-10.67,0-10.67s-6.88,10.67,0,10.67Z"/><path class="cls-6" d="M78,149.88c6.88,0,6.88-10.67,0-10.67s-6.88,10.67,0,10.67Z"/><path class="cls-7" d="M104.35,150.43c6.88,0,6.88-10.67,0-10.67s-6.88,10.67,0,10.67Z"/><path class="cls-8" d="M96.9,118c5.27,0,5.27-8.17,0-8.17s-5.27,8.17,0,8.17Z"/><path class="cls-9" d="M69.75,135a3.29,3.29,0,1,0,0-6.57,3.29,3.29,0,1,0,0,6.57Z"/><path class="cls-10" d="M90.5,154.2a3.29,3.29,0,1,0,0-6.57,3.29,3.29,0,1,0,0,6.57Z"/></g></svg>