<svg xmlns="http://www.w3.org/2000/svg" viewBox="0 0 396 261.7"><defs><style>.cls-1,.cls-3,.cls-4{fill:#fff;}.cls-1,.cls-3{stroke:#4db2e5;stroke-miterlimit:10;}.cls-1{stroke-width:2.07px;}.cls-2{fill:#5ec8e2;}.cls-3{stroke-width:1.83px;}.cls-5{fill:#334d5d;}.cls-6{fill:#ee4e9c;}</style></defs><title>timer</title><g id="Layer_2" data-name="Layer 2"><path class="cls-1" d="M289.16,167.48l2.22-10.62L303,158.8S295.79,166.43,289.16,167.48Z"/><g id="_Group_" data-name="&lt;Group&gt;"><g id="_Group_2" data-name="&lt;Group&gt;"><rect id="_Path_" data-name="&lt;Path&gt;" class="cls-2" x="366.78" y="145.48" width="1.74" height="18.96" transform="translate(169.63 501.33) rotate(-83.1)"/><path id="_Path_2" data-name="&lt;Path&gt;" class="cls-3" d="M283.08,151.93l1.72-14.2a3.08,3.08,0,0,1,2-2.51l3.4-1.31,57,6.9a10.55,10.55,0,0,1,7.44,4.52l6,8.77-7.92,7.09a10.55,10.55,0,0,1-8.31,2.61l-57-6.9-3-2.08A3.08,3.08,0,0,1,283.08,151.93Z"/><path id="_Path_3" data-name="&lt;Path&gt;" class="cls-4" d="M350,158.9l.35-.3,5.64-5-4.27-6.25a7.07,7.07,0,0,0-5-3l-56.14-6.8-2.37.91-1.66,13.72,2.08,1.45,56.14,6.8A7,7,0,0,0,350,158.9Z"/><rect id="_Path_4" data-name="&lt;Path&gt;" class="cls-5" x="276.64" y="139.54" width="5.23" height="9.44" transform="translate(102.48 404.16) rotate(-83.1)"/><rect id="_Rectangle_" data-name="&lt;Rectangle&gt;" class="cls-2" x="259.21" y="140.2" width="26.31" height="6.45" rx="3.22" ry="3.22" transform="translate(447.49 -109.73) rotate(96.9)"/><g id="_Group_3" data-name="&lt;Group&gt;"><path id="_Path_5" data-name="&lt;Path&gt;" class="cls-6" d="M313.87,156.61l1.95-16.08,2.15.26-1,8,3.46.42,1-8,7.9,1-1,8,3.46.42,1-8,7.9,1-1,8,3.46.42,1-8,2.6.32a7.07,7.07,0,0,1,5,3l4.27,6.25-5.64,5-.35.3h0a7,7,0,0,1-5.21,1.45Z"/><rect id="_Path_6" data-name="&lt;Path&gt;" class="cls-5" x="337.87" y="146.03" width="8.1" height="3.48" transform="translate(154.13 469.45) rotate(-83.1)"/><rect id="_Path_7" data-name="&lt;Path&gt;" class="cls-5" x="326.51" y="144.65" width="8.1" height="3.48" transform="translate(145.5 456.97) rotate(-83.1)"/><rect id="_Path_8" data-name="&lt;Path&gt;" class="cls-5" x="315.16" y="143.28" width="8.1" height="3.48" transform="translate(136.89 444.49) rotate(-83.1)"/><rect id="_Path_9" data-name="&lt;Path&gt;" class="cls-5" x="303.8" y="141.9" width="8.1" height="3.48" transform="translate(128.25 432) rotate(-83.1)"/><rect id="_Path_10" data-name="&lt;Path&gt;" class="cls-5" x="292.45" y="140.53" width="8.1" height="3.48" transform="translate(119.62 419.51) rotate(-83.1)"/></g></g></g><path class="cls-1" d="M265.33,163.41s13.45,11.63,33.39,0c14.38-16.07,27.51-24.85,22.06-9.91-31,43.83-25.91,40.74-41.85,40-38.9-3.7-45.46-3.7-45.46-3.7V163.41s11.74,4,14,0,4.92-11.76,12.38-21c5.41-13.43,11.65-6.76,11.65-4.69C268.17,150.54,258.62,159.8,265.33,163.41Z"/><path class="cls-1" d="M244.22,153.5v46s-96.65,4.44-111.09,0c-113.82-102.16-104-97.16-104-97.16l36.75-44.2,81.64,95.32Z"/></g></svg>