<svg id="Layer_1" data-name="Layer 1" xmlns="http://www.w3.org/2000/svg" viewBox="0 0 220.99 474.07"><defs><style>.cls-1{fill:#4eb2e5;}.cls-2,.cls-3,.cls-6{fill:#fff;}.cls-2,.cls-3,.cls-5{stroke:#4eb2e5;stroke-miterlimit:10;}.cls-2{stroke-width:1.91px;}.cls-3,.cls-5{stroke-width:1.27px;}.cls-4{fill:#4aa8d6;}.cls-5{fill:none;}</style></defs><title>Untitled-2</title><path class="cls-1" d="M95.43,186.86l8.63,4.37h18.15l8-4.45,16.93,3.81s-1.91,55.27,0,63.52,8.68,48.28,17,81.95c-.53.64-39.49,12.07-96.88,0,1.06-21,13.09-83.22,13.09-83.22l-1.29-61.18Z"/><path class="cls-2" d="M74.63,194.17s-9.54,2.07-22.88,55.43c0,1.27-14.5,26-14.5,26l10.91,7s19.47-24.77,22.65-30.49,8.8-23.5,8.8-23.5l2.77-36.72Z"/><path class="cls-2" d="M150.19,192.44s10.16,4.81,23.5,58.17c0,1.27,14.5,26,14.5,26l-10.91,7s-19.47-24.77-22.65-30.49-7.8-23.5-7.8-23.5V191.8Z"/><path class="cls-3" d="M101.25,174.82s2.68,5.86-.25,8.89a81.11,81.11,0,0,1-7.37,5s19.91,25.44,36.85-.6c-2-.48-10.48-2.49-8.39-12.09C122,176,108.32,177.08,101.25,174.82Z"/><path class="cls-4" d="M57,43.23S48.58,34.9,32.7,52.68C25.07,60.31,28.88,90,28.88,90S27,100.33,11.73,95.25c0,0,4.78,29,33.52,18.32C46,115.43,62.78,56.5,62.78,56.5Z"/><path class="cls-4" d="M165.4,47.49s8.45-8.33,24.33,9.45c7.62,7.62,3.81,37.34,3.81,37.34s1.91,10.3,17.15,5.22c0,0-10.55,27.12-39.29,16.43-.8,1.87-11.76-55.18-11.76-55.18Z"/><path class="cls-3" d="M63.6,137.25s-5.25-5.49-5.25,4,8.86,14.56,8.86,14.56V145.75Z"/><path class="cls-3" d="M163.26,137.25s5.25-5.49,5.25,4-8.86,14.56-8.86,14.56V145.75Z"/><path class="cls-2" d="M128.86,30.13c-26.68-2.43-37.29,1.77-37.29,1.77s-52.48,24.73-42,68.73c1.27,5.38,12.66,35.14,14.14,40.63,1.48,4.43,4.43,16.67,5.28,18.57s2.32,6.75,39,17.31c-.21.21,5.07.84,5.07.84s5.28-.63,5.07-.84c36.72-10.55,38.2-15.41,39-17.31s3.8-14.14,5.28-18.57c1.48-5.49,12.87-35.25,14.14-40.63C187,56.62,128.86,30.13,128.86,30.13Z"/><ellipse class="cls-1" cx="86.63" cy="131.34" rx="6.33" ry="7.6"/><path class="cls-5" d="M103.93,155.82s9.71,5.49,18.15,0"/><path class="cls-5" d="M90.85,103.68s-8.71-6.3-12.24,0"/><path class="cls-5" d="M143.4,103.68s-8.71-6.3-12.24,0"/><path class="cls-3" d="M82.83,127.54a11.34,11.34,0,0,1-4.22,0"/><ellipse class="cls-6" cx="88.1" cy="127.73" rx="2.32" ry="3.06"/><ellipse class="cls-1" cx="136.44" cy="131.34" rx="6.33" ry="7.6"/><path class="cls-3" d="M140.23,127.54a11.34,11.34,0,0,0,4.22,0"/><ellipse class="cls-6" cx="134.96" cy="127.73" rx="2.32" ry="3.06"/><path class="cls-1" d="M99,24.48c-9-.82-90.24,20.95-49,99.26,10.18,17.52,9.31,12.58,9.31,12.58l4.3,4.94s-10.6-24.12-3.43-37.58c1.45.84,3.41,9.41,9.1,10.36,0,0-1.88-17.54,0-24s13.27,13.65,18.34,13.65c-.37-2.53.84-25.08.84-25.08a47.48,47.48,0,0,0,17.31,25.08l.64.84s.67-14.68,8.43-25.92c0,0,2.76,16.62,9.08,25.08l-.36.84s4.58-13.76,9.44-21.65c-.86,1.64,4.65,12.35,3.8,20.81l.1,6.55S150,99.36,146.36,90l1.09.2S153.83,102.61,153,115l.14,1.91s3.44,4.1,8.39-14.62c0,0,6.06,19.14,4.43,29.06C166,131.34,223.69,26.43,99,24.48Z"/><path class="cls-2" d="M37.25,275.65s-8.63-.63-12.87,9.11c-.42,4.23,4.66,3,9.32,0,.85-.85,4.74.22,4.74.22s-3.05,2.75-3.47,4.44,1.27.85,9.32,0l3.87-6.78Z"/><path class="cls-2" d="M187.2,275.65s8.63-.63,12.87,9.11c.42,4.23-4.66,3-9.32,0-.85-.85-4.54,2.15-4.54,2.15s2.85.82,3.27,2.51-1.27.85-9.32,0l-3.87-6.78Z"/><path class="cls-2" d="M90.33,340.44s1.57,14.62,0,25.21c-2.42,19.9-4.23,16.09.7,39.38,1.54,2.12,5.77,30.92,5.35,34.73s-14.76,19.48,0,19.06,11,.42,12.25-15.67c-3.39-5.51-.42-37.69-2.54-66.49.42-7.2,4.22-34.67,4.22-34.67Z"/><path class="cls-2" d="M133.77,340.44s-1.57,14.62,0,25.21c2.42,19.9,4.23,16.09-.7,39.38-1.54,2.12-5.77,30.92-5.35,34.73s14.76,19.48,0,19.06-11,.42-12.25-15.67c3.39-5.51.42-37.69,2.54-66.49-.42-7.2-4.22-34.67-4.22-34.67Z"/><path class="cls-1" d="M95.38,442.22s2.27,11.31,13.29.93c0,0-.29,13.17-1.21,13.95s-16.42,3.23-17,0S95.38,442.22,95.38,442.22Z"/><path class="cls-1" d="M129.12,442.22s-2.27,11.31-13.29.93c0,0,.29,13.17,1.21,13.95s16.42,3.23,17,0S129.12,442.22,129.12,442.22Z"/></svg>