<?xml version="1.0" encoding="utf-8"?>
<!-- Generator: Adobe Illustrator 21.0.2, SVG Export Plug-In . SVG Version: 6.00 Build 0)  -->
<svg version="1.1" id="Layer_1" xmlns="http://www.w3.org/2000/svg" xmlns:xlink="http://www.w3.org/1999/xlink" x="0px" y="0px"
	 viewBox="0 0 565.5 691.5" style="enable-background:new 0 0 565.5 691.5;" xml:space="preserve">
<style type="text/css">
	.st0{fill:#FFFFFF;stroke:#4EB2E5;stroke-width:1.5333;stroke-miterlimit:10;}
	.st1{fill:#FFFFFF;stroke:#4DB2E5;stroke-width:2.23;stroke-miterlimit:10;}
	.st2{fill:#4AA8D7;}
	.st3{fill:#FFFFFF;stroke:#4DB2E5;stroke-width:1.7;stroke-miterlimit:10;}
	.st4{fill:#FFFFFF;stroke:#4DB2E5;stroke-width:1.66;stroke-miterlimit:10;}
	.st5{fill:#FFFFFF;stroke:#4DB2E5;stroke-width:1.77;stroke-miterlimit:10;}
	.st6{fill:#4DB2E5;}
	.st7{fill:none;stroke:#4DB2E5;stroke-width:1.77;stroke-miterlimit:10;}
	.st8{fill:#FFFFFF;}
	.st9{fill:#FFFFFF;stroke:#4DB2E5;stroke-width:1.65;stroke-miterlimit:10;}
	.st10{fill:#FFFFFF;stroke:#4DB2E5;stroke-width:1.73;stroke-miterlimit:10;}
</style>
<g>
	<g id="_Group_5">
		<g id="_Group_6">
			<rect id="_Rectangle_4" x="500.3" y="338.7" class="st0" width="9.7" height="102.2"/>
		</g>
		<g id="_Group_7">
			<rect id="_Rectangle_5" x="43.8" y="428.9" class="st0" width="477" height="23.9"/>
		</g>
		<path class="st0" d="M364,315.7H43.8c-2.3,0-4.2,2.5-4.2,5.7v92.5c0,3.1,1.9,5.7,4.2,5.7H364c2.3,0,4.2-2.5,4.2-5.7v-92.5
			C368.2,318.3,366.3,315.7,364,315.7L364,315.7z M359.8,357h-94.2V327h94.2V357z M135.2,357V327h122V357H135.2z M257.2,368.3v39.9
			h-122v-39.9H257.2z M126.8,327V357H48V327H126.8z M48,368.3h78.8v39.9H48V368.3z M265.6,408.2v-39.9h94.2v39.9H265.6z"/>
		<g id="_Group_8">
			<rect id="_Rectangle_6" x="43.8" y="452.5" class="st0" width="477" height="39.2"/>
		</g>
		<g id="_Group_9">
			<rect id="_Rectangle_7" x="67.2" y="491.6" class="st0" width="16.6" height="160"/>
		</g>
		<g id="_Group_10">
			<rect id="_Rectangle_8" x="478.9" y="491.6" class="st0" width="16.6" height="160"/>
		</g>
		<path id="_Path_5" class="st0" d="M373.1,430.3H25.3c-8.6,0-15.6-9.3-15.6-20.9c0-11.5,7-20.9,15.6-20.9h344.3L514.1,297
			c7.8-4.9,17.1-0.4,20.7,10.1c3.6,10.4,0.3,22.7-7.4,27.7l-147.6,93.5C377.7,429.6,375.4,430.3,373.1,430.3z"/>
	</g>
</g>
<title>woman</title>
<g id="Layer_2">
	<path class="st1" d="M205.5,294.5l-29.1,73.6c0,0-19.1,9.5-20,13.7c-0.8,4.1-9.1,20.7,0,20.7c9.1,0,14.4-10.2,19.8-14.7l5.4-4.5
		c-2.6,2.2-1.4,11.4-1.4,11.4s0,2.2,2,0.6c1.5-1.2,6.7-11.7,6.7-11.7V369l37.9-61.2L205.5,294.5z"/>
	<path class="st1" d="M327.5,294.5l29.1,73.6c0,0,19.1,9.5,20,13.7s9.1,20.7,0,20.7s-14.4-10.2-19.8-14.7l-5.4-4.5
		c2.6,2.2,1.4,11.4,1.4,11.4s0,2.2-2,0.6c-1.5-1.2-6.7-11.7-6.7-11.7V369l-37.9-61.2L327.5,294.5z"/>
	<path class="st2" d="M319.2,56.5c0,0,11.8-28.5,36.4-9.3c23.3,23.1,28.1,42,23.3,68.8c-4.8,26.8-13.8,57.4,1.2,58
		c14.9,0.6-25.4,11.3-36.6-4.8S319.2,56.5,319.2,56.5z"/>
	<path class="st3" d="M252.9,242.5c0,0,1.2,8.6,0,12.2c-3,0.2-6,0.7-9,1.4l25,27.5l21.7-28.9l-7.1-1.2l1.5-11"/>
	<path class="st4" d="M294.2,499.4c0.3-4.9,5.7-23.6,9.8-40.7c-7.8,2.6-16,5.5-24.3,5.2c-0.7,0-1.4-0.1-2-0.2
		c-0.5,7.6-1,14.8-1.4,19.7c-4.1,32.6-2.9,24.9-3.4,54.9c0,34.5,30.6,31,24.2-11.5C296.8,516.2,294,503.7,294.2,499.4z"/>
	<path class="st4" d="M263,461.6c-0.7-0.1-1.5-0.2-2.2-0.3c-3.5-0.7-6.9-1.7-10.3-2.7c-1.4-0.4-4.1-1.8-5.6-1.4l2.2,0.3
		c-1.1-0.1-2.1-0.2-3.2-0.2c-2.6-0.1-5.1-0.7-7.4-1.8c4.1,18,9.7,37.9,10,43.1c0.3,4.4-2.5,17.4-3,28.4
		c-6.4,43.9,24.2,47.6,24.2,11.9c-0.4-31.1,0.7-23.1-3.4-56.8C264.1,477,263.6,469.5,263,461.6z"/>
	<path class="st5" d="M197,191.2c0,0-7.3-7.7-7.3,5.6s12.4,20.4,12.4,20.4v-14.1L197,191.2z"/>
	<path class="st5" d="M336.2,191.2c0,0,7.3-7.7,7.3,5.6s-12.4,20.4-12.4,20.4v-14.1L336.2,191.2z"/>
	<path class="st6" d="M243.1,522.4c0,0,10.6,29.6,25.3,1.7c-0.1,0.9,2.8,26.5-8.2,37.5C256.4,565.5,240.3,566.2,243.1,522.4z"/>
	<path class="st6" d="M297.7,520.8c0,0-10.6,29.6-25.3,1.8c0.1,0.9-2.8,26.5,8.2,37.5C284.4,563.9,300.5,564.6,297.7,520.8z"/>
	<path class="st5" d="M266.1,248.1c0,0-7.4-0.9-7.1-1.2c-51.3-14.7-53.4-21.5-54.5-24.2c-1.2-2.7-5.3-19.8-7.4-25.9
		c-2.1-7.7-18-49.2-19.8-56.8c-14.6-61.5,58.7-96,58.7-96s14.8-5.9,52.1-2.5c0,0,81.3,37,66.7,98.5c-1.8,7.5-17.7,49.1-19.8,56.8
		c-2.1,6.2-6.2,23.3-7.4,25.9s-3.2,9.4-54.5,24.2C273.5,247.2,266.1,248.1,266.1,248.1"/>
	<path class="st6" d="M305.2,40.5c0,0-33-12.1-63.1-3.2c-9.4,3.5-78.4,25.9-82,100.2c1.2,24.8,28.3,52.5,38.6,59.3
		c0,0-9.1-36.3,12.1-66.9c1.2-1.2-1.2,11.8,4.1,32.4l1.8,1.8c0,0,7.7-24.2,37.7-57.2c-1.2,0.6-7.7,28.9-1.2,48.9
		c1.2,0,28.9-43.6,46.6-50.1c-0.6,0,33.2,51.6,36,68.4c4.2,12.6,2.8,16.8,2.8,16.8l10.5-11.8c0,0,26.2-34.8,18-74.6
		C364.2,89.2,339.4,50.2,305.2,40.5z"/>
	<ellipse class="st6" cx="229.2" cy="182.9" rx="8.8" ry="10.6"/>
	<path class="st7" d="M253.3,217.2c0,0,13.6,7.7,25.4,0"/>
	<path class="st7" d="M235.1,144.3c0,0-12.2-8.8-17.1,0"/>
	<path class="st7" d="M308.5,144.3c0,0-12.2-8.8-17.1,0"/>
	<path class="st5" d="M223.9,177.6c-1.9,0.4-4,0.4-5.9,0"/>
	<ellipse class="st8" cx="231.2" cy="177.9" rx="3.2" ry="4.3"/>
	<ellipse class="st6" cx="298.7" cy="182.9" rx="8.8" ry="10.6"/>
	<path class="st5" d="M304,177.6c1.9,0.4,4,0.4,5.9,0"/>
	<ellipse class="st8" cx="296.7" cy="177.9" rx="3.2" ry="4.3"/>
	<path class="st9" d="M305.1,319.2c0.6-4.2,0.8-8.6,0.5-12.8l7.8,18.2l2.2,7.5l25.3-20.1c0,0-17.3-40.8-19.2-45.6
		c-1.9-4.9-31.5-11.8-31.5-11.8l-0.3,0.8l-22,27.9l-23.1-27.4c0,0-29.6,6.9-31.5,11.8c-1.9,4.9-19.3,45.6-19.3,45.6l25.3,20.1
		l2.2-7.5l7.8-18c-0.2,3.8,0,7.6,0.6,11.4c3.8,19.6-0.4,43.1-8.6,58.7c1.3,3.4,40.4,2.1,45.9,4.9v0.4c0,0,0.1-0.1,0.3-0.2
		c0.2,0.1,0.3,0.2,0.3,0.2l-0.1-0.4c5.2-2.7,47.2-6.8,48.6-10.2C308.2,356.9,301.2,338.8,305.1,319.2z"/>
	<path class="st10" d="M313.5,370.5c-26.3-11.8-40,3.8-43.2,8.3c-3.2-4.5-16.9-20.1-43.2-8.3c-30.5,13.7-12.2,96.9-12.9,97.8
		c0,0,44,12.3,59,12.3s53.2-12.3,53.2-12.3C325.7,467.3,344,384.2,313.5,370.5z"/>
</g>
</svg>
