<svg xmlns="http://www.w3.org/2000/svg" viewBox="0 0 456.2 456.2" enable-background="new 0 0 456.2 456.2"><path fill="#29ABE2" d="M233.68 73.4v103.82c0 6.7-5.43 12.13-12.13 12.13H35.85c-6.7 0-12.12-5.43-12.12-12.13V73.4c0-6.7 5.43-12.13 12.13-12.13h185.7c6.7 0 12.12 5.43 12.12 12.13z"/><path fill="#4D4D4D" d="M23.73 88.53h209.95v31.3H23.73z"/><path fill="#FC7A51" d="M50.46 157.97c0 6.48 2.45 12.4 6.48 16.87-.56.07-1.12.1-1.7.1-9.36 0-16.95-7.6-16.95-16.97S45.87 141 55.24 141c.57 0 1.13.03 1.7.1-4.04 4.47-6.5 10.4-6.5 16.87z"/><circle cx="75.695" cy="157.969" r="16.962" fill="#F4D521"/><path fill="#86D359" d="M170.34 123.37h262.13v141.1H170.34z"/><path fill="#77BC4A" d="M417.47 163v62.28c-13.46 0-24.4 10.78-24.63 24.18H209.97c-.24-13.4-11.17-24.18-24.63-24.18V163c13.6 0 24.64-11.02 24.64-24.63h182.85c0 13.6 11.03 24.64 24.64 24.64z"/><path fill="#F9DE58" d="M199.44 254.87c0 24-19.46 43.48-43.47 43.48-1.08 0-2.15-.04-3.2-.12-6.28-.46-12.2-2.25-17.44-5.1-13.6-7.34-22.84-21.72-22.84-38.26s9.23-30.92 22.83-38.27c5.25-2.84 11.16-4.63 17.43-5.08 1.06-.08 2.13-.12 3.2-.12 24.02 0 43.48 19.46 43.48 43.47z"/><circle cx="155.963" cy="254.871" r="28.2" fill="#D6B71D"/><path fill="#808080" d="M335.9 21.58V312.8c0 11.93-9.67 21.6-21.6 21.6H174.34c-11.92 0-21.6-9.67-21.6-21.6V21.6c0-11.92 9.68-21.58 21.6-21.58H314.3c11.93 0 21.6 9.66 21.6 21.58z"/><path fill="#2BE0C6" d="M161.4 44.14h165.85v240.2H161.4z"/><circle cx="244.325" cy="310.031" r="17.09" fill="#4D4D4D"/><path fill="#E6E6E6" d="M309.7 105.7H179.34c-1.55 0-2.8-1.26-2.8-2.8V67.5c0-1.54 1.25-2.8 2.8-2.8H309.7c1.56 0 2.82 1.26 2.82 2.8v35.4c0 1.54-1.26 2.8-2.8 2.8z"/><path fill="#F9DE58" d="M309.7 147.7h-18.37c-1.55 0-2.8-1.26-2.8-2.8v-18.4c0-1.54 1.25-2.8 2.8-2.8h18.38c1.56 0 2.82 1.26 2.82 2.8v18.4c0 1.54-1.26 2.8-2.8 2.8z"/><path fill="#FC7A51" d="M309.7 183.7h-18.37c-1.55 0-2.8-1.26-2.8-2.8v-18.4c0-1.54 1.25-2.8 2.8-2.8h18.38c1.56 0 2.82 1.26 2.82 2.8v18.4c0 1.54-1.26 2.8-2.8 2.8z"/><g fill="#808080"><path d="M197.7 147.7h-18.37c-1.55 0-2.8-1.26-2.8-2.8v-18.4c0-1.54 1.25-2.8 2.8-2.8h18.38c1.56 0 2.82 1.26 2.82 2.8v18.4c0 1.54-1.26 2.8-2.8 2.8zM235.04 147.7h-18.38c-1.55 0-2.8-1.26-2.8-2.8v-18.4c0-1.54 1.25-2.8 2.8-2.8h18.38c1.55 0 2.8 1.26 2.8 2.8v18.4c0 1.54-1.25 2.8-2.8 2.8zM272.38 147.7h-18.4c-1.54 0-2.8-1.26-2.8-2.8v-18.4c0-1.54 1.26-2.8 2.8-2.8h18.4c1.55 0 2.8 1.26 2.8 2.8v18.4c0 1.54-1.25 2.8-2.8 2.8zM197.7 183.7h-18.37c-1.55 0-2.8-1.26-2.8-2.8v-18.4c0-1.54 1.25-2.8 2.8-2.8h18.38c1.56 0 2.82 1.26 2.82 2.8v18.4c0 1.54-1.26 2.8-2.8 2.8zM235.04 183.7h-18.38c-1.55 0-2.8-1.26-2.8-2.8v-18.4c0-1.54 1.25-2.8 2.8-2.8h18.38c1.55 0 2.8 1.26 2.8 2.8v18.4c0 1.54-1.25 2.8-2.8 2.8zM272.38 183.7h-18.4c-1.54 0-2.8-1.26-2.8-2.8v-18.4c0-1.54 1.26-2.8 2.8-2.8h18.4c1.55 0 2.8 1.26 2.8 2.8v18.4c0 1.54-1.25 2.8-2.8 2.8zM197.7 220.43h-18.37c-1.55 0-2.8-1.26-2.8-2.8v-18.4c0-1.54 1.25-2.8 2.8-2.8h18.38c1.56 0 2.82 1.26 2.82 2.8v18.4c0 1.54-1.26 2.8-2.8 2.8zM235.04 220.43h-18.38c-1.55 0-2.8-1.26-2.8-2.8v-18.4c0-1.54 1.25-2.8 2.8-2.8h18.38c1.55 0 2.8 1.26 2.8 2.8v18.4c0 1.54-1.25 2.8-2.8 2.8zM272.38 220.43h-18.4c-1.54 0-2.8-1.26-2.8-2.8v-18.4c0-1.54 1.26-2.8 2.8-2.8h18.4c1.55 0 2.8 1.26 2.8 2.8v18.4c0 1.54-1.25 2.8-2.8 2.8zM309.7 220.43h-18.37c-1.55 0-2.8-1.26-2.8-2.8v-18.4c0-1.54 1.25-2.8 2.8-2.8h18.38c1.56 0 2.82 1.26 2.82 2.8v18.4c0 1.54-1.26 2.8-2.8 2.8z"/></g><path fill="#999" d="M271.52 90.7h29v7h-29z"/><path fill="#fff" d="M335.9 21.58V312.8c0 11.93-9.67 21.6-21.6 21.6h-2.86l-15.25-50.05-73.22-240.2L209.53 0H314.3c11.93 0 21.6 9.66 21.6 21.58z" opacity=".32" enable-background="new"/><path fill="#E6E6E6" d="M330.3 275.2v68.85h-58.47c-5.53 0-10.54 2.24-14.17 5.86-3.62 3.64-5.86 8.65-5.86 14.18s-2.24 10.54-5.86 14.17c-3.63 3.62-8.63 5.86-14.17 5.86-11.06 0-20.03-8.95-20.03-20.02V275.2H330.3z"/><g fill="#999"><path d="M227.02 290.2h88v10h-88zM227.02 312.48h88v10h-88zM227.02 334.77h88v10h-88zM227.02 357.05h88v10h-88z"/></g><path fill="#ccc" d="M291.86 364.08v20.03h-60.1c5.55 0 10.56-2.23 14.2-5.85 3.6-3.63 5.84-8.64 5.84-14.17s2.25-10.54 5.86-14.17c3.63-3.6 8.64-5.85 14.17-5.85s10.55 2.24 14.18 5.86c3.62 3.64 5.86 8.65 5.86 14.18z"/><path fill="#E6E6E6" d="M404.55 349.9c-3.63-3.6-8.63-5.85-14.17-5.85H271.83c5.54 0 10.54 2.24 14.17 5.86 3.62 3.64 5.86 8.65 5.86 14.18v80.12l11.86 12 11.85-12 11.85 12 11.85-12 11.85 12 11.86-12 11.85 12 11.86-12 11.85 12 11.86-12v-80.12c0-5.53-2.23-10.54-5.85-14.17z"/><path fill="#F2F2F2" d="M410.4 364.08H291.87c0-5.53-2.24-10.54-5.86-14.17-3.63-3.6-8.63-5.85-14.17-5.85h118.55c5.54 0 10.54 2.24 14.17 5.86 3.62 3.64 5.86 8.65 5.86 14.18z"/><g fill="#999"><path d="M307.02 373.48h88v10h-88zM307.02 395.77h88v10h-88zM307.02 418.05h88v10h-88z"/></g><path fill="#2496B5" d="M175.58 243.2h129v24.5h-129z"/><path fill="#29ABE2" d="M183.58 243.2h129v24.5h-129z"/><path fill="#2496B5" d="M189.33 250.2h117.5v10.5h-117.5z"/><path fill="#E6E6E6" d="M309.8 254.7H191.23c11.32 0 20.5 9.18 20.5 20.5H330.3c0-11.32-9.2-20.5-20.5-20.5z"/><path fill="#4D4D4D" d="M135.33 61.27h17.42v128.1h-17.42zM152.76 211.52v86.7c-6.27-.45-12.18-2.24-17.43-5.08V216.6c5.25-2.84 11.16-4.63 17.43-5.08zM335.9 123.37h13.92v141.1H335.9z" opacity=".2" enable-background="new"/></svg>